<?xml version="1.0" encoding="UTF-8"?> <!-- Generator: Adobe Illustrator 23.0.3, SVG Export Plug-In . SVG Version: 6.00 Build 0) --> <svg xmlns="http://www.w3.org/2000/svg" xmlns:xlink="http://www.w3.org/1999/xlink" id="Layer_1" x="0px" y="0px" viewBox="0 0 400 80" width="400" height="80" style="enable-background:new 0 0 400 80;" xml:space="preserve"> <style type="text/css"> .st0{fill:#6D7686;} .st1{fill:url(#SVGID_1_);} .st2{fill:url(#SVGID_2_);} .st3{fill:url(#SVGID_3_);} .st4{fill:url(#SVGID_4_);} .st5{fill:url(#SVGID_5_);} .st6{fill:url(#SVGID_6_);} .st7{fill:url(#SVGID_7_);} .st8{fill:url(#SVGID_8_);} .st9{fill:url(#SVGID_9_);} .st10{fill:url(#SVGID_10_);} .st11{fill:url(#SVGID_11_);} .st12{fill:url(#SVGID_12_);} .st13{fill:url(#SVGID_13_);} .st14{fill:url(#SVGID_14_);} .st15{fill:url(#SVGID_15_);} .st16{fill:url(#SVGID_16_);} .st17{fill:url(#SVGID_17_);} .st18{fill:url(#SVGID_18_);} .st19{fill:url(#SVGID_19_);} .st20{fill:url(#SVGID_20_);} .st21{fill:url(#SVGID_21_);} .st22{fill:url(#SVGID_22_);} .st23{fill:url(#SVGID_23_);} .st24{fill:url(#SVGID_24_);} .st25{fill:url(#SVGID_25_);} .st26{fill:url(#SVGID_26_);} .st27{fill:url(#SVGID_27_);} .st28{fill:url(#SVGID_28_);} .st29{fill:url(#SVGID_29_);} .st30{fill:url(#SVGID_30_);} .st31{fill:url(#SVGID_31_);} .st32{fill:url(#SVGID_32_);} .st33{fill:url(#SVGID_33_);} .st34{fill:url(#SVGID_34_);} .st35{fill:url(#SVGID_35_);} .st36{fill:url(#SVGID_36_);} .st37{fill:url(#SVGID_37_);} .st38{fill:url(#SVGID_38_);} .st39{fill:url(#SVGID_39_);} .st40{fill:url(#SVGID_40_);} .st41{fill:url(#SVGID_41_);} .st42{fill:url(#SVGID_42_);} .st43{fill:url(#SVGID_43_);} .st44{fill:url(#SVGID_44_);} .st45{fill:url(#SVGID_45_);} .st46{fill:url(#SVGID_46_);} .st47{fill:url(#SVGID_47_);} .st48{fill:url(#SVGID_48_);} .st49{fill:url(#SVGID_49_);} .st50{fill:url(#SVGID_50_);} .st51{fill:url(#SVGID_51_);} .st52{fill:url(#SVGID_52_);} .st53{fill:url(#SVGID_53_);} .st54{fill:url(#SVGID_54_);} .st55{fill:url(#SVGID_55_);} .st56{fill:url(#SVGID_56_);} .st57{fill:url(#SVGID_57_);} .st58{fill:url(#SVGID_58_);} .st59{fill:url(#SVGID_59_);} .st60{fill:url(#SVGID_60_);} .st61{fill:url(#SVGID_61_);} .st62{fill:url(#SVGID_62_);} .st63{fill:url(#SVGID_63_);} .st64{fill:url(#SVGID_64_);} .st65{fill:url(#SVGID_65_);} .st66{fill:url(#SVGID_66_);} .st67{fill:url(#SVGID_67_);} .st68{fill:url(#SVGID_68_);} .st69{fill:url(#SVGID_69_);} .st70{fill:url(#SVGID_70_);} .st71{fill:url(#SVGID_71_);} .st72{fill:url(#SVGID_72_);} .st73{fill:url(#SVGID_73_);} .st74{fill:url(#SVGID_74_);} .st75{fill:url(#SVGID_75_);} .st76{fill:url(#SVGID_76_);} .st77{fill:url(#SVGID_77_);} .st78{fill:url(#SVGID_78_);} .st79{fill:url(#SVGID_79_);} .st80{fill:url(#SVGID_80_);} .st81{fill:url(#SVGID_81_);} .st82{fill:url(#SVGID_82_);} .st83{fill:url(#SVGID_83_);} .st84{fill:url(#SVGID_84_);} .st85{fill:url(#SVGID_85_);} .st86{fill:url(#SVGID_86_);} .st87{fill:url(#SVGID_87_);} .st88{fill:url(#SVGID_88_);} .st89{fill:url(#SVGID_89_);} .st90{fill:url(#SVGID_90_);} .st91{fill:url(#SVGID_91_);} .st92{fill:url(#SVGID_92_);} .st93{fill:url(#SVGID_93_);} .st94{fill:url(#SVGID_94_);} </style> <g> <path class="st0" d="M128.9,5.6h2.5l-8.7,11l9.7,12.2h-2.7l-8.4-10.6l-3,3.7v6.9h-2.2V5.6h2.2V19L128.9,5.6z"></path> <path class="st0" d="M137.1,28.8h-2.2l9.8-23.8h0.2l9.8,23.8h-2.3l-1.6-4h-12L137.1,28.8z M144.8,9.9l-5.2,12.9h10.4 C149.9,22.8,144.8,9.9,144.8,9.9z"></path> <path class="st0" d="M161.5,7.6h-7.2v-2h16.6v2h-7.2v21.2h-2.2V7.6z"></path> <path class="st0" d="M172.9,28.7l13.5-21.1h-11.9v-2h15.5v0.1l-13.5,21.1h13.6v2h-17.2V28.7z"></path> <path class="st0" d="M203.6,28.8h-2.2l9.8-23.8h0.2l9.8,23.8h-2.3l-1.6-4h-12L203.6,28.8z M211.2,9.9L206,22.8h10.4 C216.4,22.8,211.2,9.9,211.2,9.9z"></path> <path class="st0" d="M225.7,5.1h0.1l10.9,13.5l10.9-13.5h0.2v23.7h-2.1V10.6l-8.9,11.2h-0.1l-8.8-11.2v18.2h-2.1V5.1z"></path> <path class="st0" d="M254.3,23.4c1.2,2.3,3.3,3.7,6.1,3.7c3.2,0,5.1-1.6,5.1-4c0-2.6-1.6-3.7-4.4-5l-1.9-0.9 c-3.3-1.6-5.4-3.1-5.4-6.3c0-3.3,2.6-5.5,6-5.5c2.9,0,4.9,1.1,6.4,3.4l-1.7,1.1c-1.1-1.7-2.5-2.6-4.6-2.6c-2.3,0-3.8,1.5-3.8,3.5 c0,2.2,1.3,3,4.1,4.4l1.9,0.9c3.7,1.8,5.7,3.5,5.7,7c0,3.8-2.9,6.1-7.2,6.1c-3.8,0-6.5-1.8-8-4.7L254.3,23.4z"></path> <path class="st0" d="M277.2,7.6H270v-2h16.6v2h-7.2v21.2h-2.2V7.6z"></path> <path class="st0" d="M291.1,5.6h14v2h-11.8v11.6h10.5v1.9h-10.5v5.7h12.3v2h-14.5V5.6z"></path> <path class="st0" d="M325.2,28.8h-2.7l-4.6-5.9c-0.6,0.1-1.2,0.1-1.9,0.1h-2.8v5.8h-2.2V5.6h5.1c6.3,0,9.6,3.7,9.6,8.7 c0,3.7-1.8,6.8-5.4,8L325.2,28.8z M315.8,21.1c5.3,0,7.4-2.8,7.4-6.7s-2.2-6.8-7.4-6.8h-2.7v13.5H315.8z"></path> <path class="st0" d="M331,5.6h5.8c7.7,0,12.3,4.7,12.3,11.6c0,6.9-4.5,11.6-12.3,11.6H331V5.6z M336.6,26.8c6.9,0,10.1-4,10.1-9.6 c0-5.6-3.3-9.6-10.1-9.6h-3.4v19.2H336.6z"></path> <path class="st0" d="M353.2,28.8h-2.2l9.8-23.8h0.2l9.8,23.8h-2.3l-1.6-4h-12L353.2,28.8z M360.8,9.9l-5.2,12.9H366 C366,22.8,360.8,9.9,360.8,9.9z"></path> <path class="st0" d="M375.3,5.1h0.1l10.9,13.5l10.9-13.5h0.2v23.7h-2.1V10.6l-8.9,11.2h-0.1l-8.8-11.2v18.2h-2.1V5.1z"></path> <path class="st0" d="M116.2,42.6h19.3v2.8h-16.2v16.1H134v2.8h-14.7v10.6h-3.1V42.6z"></path> <path class="st0" d="M139.6,58.7c0-9.5,7.4-16.5,16.6-16.5c9.2,0,16.6,7,16.6,16.5s-7.4,16.5-16.6,16.5 C147,75.2,139.6,68.2,139.6,58.7z M169.5,58.7c0-7.8-5.6-13.7-13.3-13.7c-7.7,0-13.3,5.9-13.3,13.7c0,7.8,5.6,13.7,13.3,13.7 C163.9,72.4,169.5,66.5,169.5,58.7z"></path> <path class="st0" d="M178.6,63.9V42.6h3.1v21.1c0,5.8,3.3,8.8,8.3,8.8c5.1,0,8.3-2.9,8.3-8.8V42.6h3.1v21.3 c0,7.5-4.9,11.3-11.4,11.3C183.5,75.2,178.6,71.4,178.6,63.9z"></path> <path class="st0" d="M212.3,49.4v25.4h-2.9V41.9h0.3L231.4,68V42.6h2.9v32.9H234L212.3,49.4z"></path> <path class="st0" d="M242.6,42.6h8.1c10.7,0,17,6.6,17,16.1s-6.3,16.1-17,16.1h-8.1V42.6z M250.4,72c9.5,0,14.1-5.5,14.1-13.3 c0-7.8-4.6-13.3-14.1-13.3h-4.7V72H250.4z"></path> <path class="st0" d="M272.4,74.8h-3.1l13.6-33h0.2l13.6,33h-3.2l-2.2-5.6h-16.7L272.4,74.8z M283.1,48.6l-7.3,17.9h14.4 C290.3,66.5,283.1,48.6,283.1,48.6z"></path> <path class="st0" d="M305.4,45.3h-10v-2.8h23.1v2.8h-10v29.5h-3.1V45.3z"></path> <path class="st0" d="M323.9,42.6h3.1v32.3h-3.1V42.6z"></path> <path class="st0" d="M333.3,58.7c0-9.5,7.4-16.5,16.6-16.5c9.2,0,16.6,7,16.6,16.5s-7.4,16.5-16.6,16.5 C340.7,75.2,333.3,68.2,333.3,58.7z M363.2,58.7c0-7.8-5.6-13.7-13.3-13.7c-7.7,0-13.3,5.9-13.3,13.7c0,7.8,5.6,13.7,13.3,13.7 C357.6,72.4,363.2,66.5,363.2,58.7z"></path> <path class="st0" d="M375.5,49.4v25.4h-2.9V41.9h0.3L394.6,68V42.6h2.9v32.9h-0.3L375.5,49.4z"></path> </g> <g> <linearGradient id="SVGID_1_" gradientUnits="userSpaceOnUse" x1="29.6565" y1="78.5349" x2="35.7803" y2="2.695"> <stop offset="0" style="stop-color:#0050AA"></stop> <stop offset="1" style="stop-color:#3CBEF0"></stop> </linearGradient> <path class="st1" d="M32.7,40.9c-0.2,0-0.1,0.5-0.1,0.6C32.9,41.4,32.7,40.8,32.7,40.9z"></path> <linearGradient id="SVGID_2_" gradientUnits="userSpaceOnUse" x1="32.4391" y1="78.7596" x2="38.5628" y2="2.9197"> <stop offset="0" style="stop-color:#0050AA"></stop> <stop offset="1" style="stop-color:#3CBEF0"></stop> </linearGradient> <polygon class="st2" points="35.5,39.7 35.8,39.2 35.5,39.5 "></polygon> <linearGradient id="SVGID_3_" gradientUnits="userSpaceOnUse" x1="34.0223" y1="78.8875" x2="40.146" y2="3.0475"> <stop offset="0" style="stop-color:#0050AA"></stop> <stop offset="1" style="stop-color:#3CBEF0"></stop> </linearGradient> <path class="st3" d="M36.6,39.2L36.5,39l-0.1,0.7c0.5-0.3,1.1-0.9,1.6-0.7C37.5,38.2,37.1,39.3,36.6,39.2z"></path> <linearGradient id="SVGID_4_" gradientUnits="userSpaceOnUse" x1="36.6706" y1="79.1013" x2="42.7943" y2="3.2614"> <stop offset="0" style="stop-color:#0050AA"></stop> <stop offset="1" style="stop-color:#3CBEF0"></stop> </linearGradient> <path class="st4" d="M39.6,40.2C39.7,40.3,39.7,40.3,39.6,40.2c0.1,0,0.2,0,0.4,0C39.8,39.9,40.2,39.8,39.6,40.2z"></path> <linearGradient id="SVGID_5_" gradientUnits="userSpaceOnUse" x1="36.591" y1="79.0949" x2="42.7147" y2="3.255"> <stop offset="0" style="stop-color:#0050AA"></stop> <stop offset="1" style="stop-color:#3CBEF0"></stop> </linearGradient> <path class="st5" d="M39.7,40.3C39.4,40.4,40,40.5,39.7,40.3L39.7,40.3z"></path> <linearGradient id="SVGID_6_" gradientUnits="userSpaceOnUse" x1="37.8148" y1="79.1937" x2="43.9385" y2="3.3538"> <stop offset="0" style="stop-color:#0050AA"></stop> <stop offset="1" style="stop-color:#3CBEF0"></stop> </linearGradient> <path class="st6" d="M40.9,39.6L40.7,40c0.2,0.1,0.5,0,0.4,0.2C41.4,39.9,41.3,39.8,40.9,39.6z"></path> <linearGradient id="SVGID_7_" gradientUnits="userSpaceOnUse" x1="37.6677" y1="79.1818" x2="43.7915" y2="3.3419"> <stop offset="0" style="stop-color:#0050AA"></stop> <stop offset="1" style="stop-color:#3CBEF0"></stop> </linearGradient> <path class="st7" d="M41,38.9l-0.1,0.2C40.9,39.1,41,39.1,41,38.9z"></path> <linearGradient id="SVGID_8_" gradientUnits="userSpaceOnUse" x1="37.4943" y1="79.1678" x2="43.618" y2="3.3279"> <stop offset="0" style="stop-color:#0050AA"></stop> <stop offset="1" style="stop-color:#3CBEF0"></stop> </linearGradient> <path class="st8" d="M40.7,39.2c-0.1-0.2,0,0-0.1,0.3l0.3-0.4C40.7,39,40.6,38.7,40.7,39.2z"></path> <linearGradient id="SVGID_9_" gradientUnits="userSpaceOnUse" x1="36.7696" y1="79.1093" x2="42.8933" y2="3.2694"> <stop offset="0" style="stop-color:#0050AA"></stop> <stop offset="1" style="stop-color:#3CBEF0"></stop> </linearGradient> <path class="st9" d="M40,39c-0.6,0.4-0.3,0.9,0.3,0.5C40,39.4,39.7,39.4,40,39z"></path> <linearGradient id="SVGID_10_" gradientUnits="userSpaceOnUse" x1="34.3475" y1="78.9137" x2="40.4712" y2="3.0738"> <stop offset="0" style="stop-color:#0050AA"></stop> <stop offset="1" style="stop-color:#3CBEF0"></stop> </linearGradient> <path class="st10" d="M37.9,38.1l-0.3-0.2l-0.1,0.3C37.5,38.1,38,38.3,37.9,38.1z"></path> <linearGradient id="SVGID_11_" gradientUnits="userSpaceOnUse" x1="39.6903" y1="79.3451" x2="45.814" y2="3.5052"> <stop offset="0" style="stop-color:#0050AA"></stop> <stop offset="1" style="stop-color:#3CBEF0"></stop> </linearGradient> <path class="st11" d="M42.8,38.3l-0.1,0.3c0.2,0,0.5,0,0.7,0.2C43.2,38.6,42.9,38.5,42.8,38.3z"></path> <linearGradient id="SVGID_12_" gradientUnits="userSpaceOnUse" x1="39.4932" y1="79.3292" x2="45.6169" y2="3.4893"> <stop offset="0" style="stop-color:#0050AA"></stop> <stop offset="1" style="stop-color:#3CBEF0"></stop> </linearGradient> <path class="st12" d="M42.8,38.3l0.2-0.5C42.6,37.9,42.7,38.1,42.8,38.3z"></path> <linearGradient id="SVGID_13_" gradientUnits="userSpaceOnUse" x1="37.2154" y1="79.1453" x2="43.3392" y2="3.3054"> <stop offset="0" style="stop-color:#0050AA"></stop> <stop offset="1" style="stop-color:#3CBEF0"></stop> </linearGradient> <polygon class="st13" points="40.6,38 40.3,38.9 40.7,37.9 "></polygon> <linearGradient id="SVGID_14_" gradientUnits="userSpaceOnUse" x1="41.3935" y1="79.4827" x2="47.5172" y2="3.6427"> <stop offset="0" style="stop-color:#0050AA"></stop> <stop offset="1" style="stop-color:#3CBEF0"></stop> </linearGradient> <polygon class="st14" points="44.7,37.9 44.8,38.3 44.7,37.6 "></polygon> <linearGradient id="SVGID_15_" gradientUnits="userSpaceOnUse" x1="42.4971" y1="79.5718" x2="48.6208" y2="3.7318"> <stop offset="0" style="stop-color:#0050AA"></stop> <stop offset="1" style="stop-color:#3CBEF0"></stop> </linearGradient> <path class="st15" d="M45.6,37.1c0.1,0.4,0.6,0.3,0.6,0.6c0.2-0.3,0.2-0.7,0.2-1C46.2,36.9,46,37.1,45.6,37.1z"></path> <linearGradient id="SVGID_16_" gradientUnits="userSpaceOnUse" x1="40.5324" y1="79.4131" x2="46.6561" y2="3.5732"> <stop offset="0" style="stop-color:#0050AA"></stop> <stop offset="1" style="stop-color:#3CBEF0"></stop> </linearGradient> <path class="st16" d="M43.6,37.5c0.1,0.1,0.3,0.3,0.6,0.2l-0.4-0.3C43.7,37.4,43.7,37.4,43.6,37.5z"></path> <linearGradient id="SVGID_17_" gradientUnits="userSpaceOnUse" x1="40.5044" y1="79.4109" x2="46.6282" y2="3.5709"> <stop offset="0" style="stop-color:#0050AA"></stop> <stop offset="1" style="stop-color:#3CBEF0"></stop> </linearGradient> <path class="st17" d="M43.7,37.4L43.7,37.4c0.2-0.1,0.3-0.2,0.3-0.2C44,37.2,43.9,37.2,43.7,37.4z"></path> <linearGradient id="SVGID_18_" gradientUnits="userSpaceOnUse" x1="40.2141" y1="79.3874" x2="46.3378" y2="3.5475"> <stop offset="0" style="stop-color:#0050AA"></stop> <stop offset="1" style="stop-color:#3CBEF0"></stop> </linearGradient> <path class="st18" d="M43.6,37.5L43.6,37.5C43.6,37.4,43.6,37.4,43.6,37.5z"></path> <linearGradient id="SVGID_19_" gradientUnits="userSpaceOnUse" x1="38.2709" y1="79.2305" x2="44.3946" y2="3.3906"> <stop offset="0" style="stop-color:#0050AA"></stop> <stop offset="1" style="stop-color:#3CBEF0"></stop> </linearGradient> <path class="st19" d="M41.5,36.9c0,0.4,0.4,0.5,0.3,1C41.8,37.5,42.1,37,41.5,36.9z"></path> <linearGradient id="SVGID_20_" gradientUnits="userSpaceOnUse" x1="39.4375" y1="79.3247" x2="45.5612" y2="3.4848"> <stop offset="0" style="stop-color:#0050AA"></stop> <stop offset="1" style="stop-color:#3CBEF0"></stop> </linearGradient> <path class="st20" d="M43.1,37.1c-0.1,0.1-0.3,0.1-0.4,0.1c0.1,0.1,0.3,0.2,0.2,0.4C42.9,37.4,43,37.3,43.1,37.1z"></path> <linearGradient id="SVGID_21_" gradientUnits="userSpaceOnUse" x1="39.7205" y1="79.3476" x2="45.8442" y2="3.5076"> <stop offset="0" style="stop-color:#0050AA"></stop> <stop offset="1" style="stop-color:#3CBEF0"></stop> </linearGradient> <polygon class="st21" points="43.1,36.8 43.1,37.1 43.2,37 "></polygon> <linearGradient id="SVGID_22_" gradientUnits="userSpaceOnUse" x1="41.8471" y1="79.5193" x2="47.9708" y2="3.6794"> <stop offset="0" style="stop-color:#0050AA"></stop> <stop offset="1" style="stop-color:#3CBEF0"></stop> </linearGradient> <path class="st22" d="M45.4,36.3c0-0.3,0.1-0.5,0.3-0.6c-0.3,0.1-0.5,0.2-0.7,0.4C45.1,36.2,45.2,36.5,45.4,36.3z"></path> <linearGradient id="SVGID_23_" gradientUnits="userSpaceOnUse" x1="41.1349" y1="79.4618" x2="47.2586" y2="3.6219"> <stop offset="0" style="stop-color:#0050AA"></stop> <stop offset="1" style="stop-color:#3CBEF0"></stop> </linearGradient> <path class="st23" d="M44.6,36.8L44.6,36.8C44.6,36.7,44.5,36.7,44.6,36.8z"></path> <linearGradient id="SVGID_24_" gradientUnits="userSpaceOnUse" x1="43.5918" y1="79.6602" x2="49.7155" y2="3.8202"> <stop offset="0" style="stop-color:#0050AA"></stop> <stop offset="1" style="stop-color:#3CBEF0"></stop> </linearGradient> <polygon class="st24" points="47.3,33.9 47.2,33.9 47.3,34 "></polygon> <linearGradient id="SVGID_25_" gradientUnits="userSpaceOnUse" x1="41.3936" y1="79.4827" x2="47.5173" y2="3.6427"> <stop offset="0" style="stop-color:#0050AA"></stop> <stop offset="1" style="stop-color:#3CBEF0"></stop> </linearGradient> <path class="st25" d="M44.9,36c-0.2,0.1-0.2,0.2-0.2,0.4C44.8,36.3,44.9,36.2,44.9,36C45,36,45,35.9,44.9,36z"></path> <linearGradient id="SVGID_26_" gradientUnits="userSpaceOnUse" x1="42.8698" y1="79.6019" x2="48.9936" y2="3.7619"> <stop offset="0" style="stop-color:#0050AA"></stop> <stop offset="1" style="stop-color:#3CBEF0"></stop> </linearGradient> <path class="st26" d="M46.6,35.5c-0.1,0-0.3,0-0.4,0C46.4,35.6,46.7,35.6,46.6,35.5z"></path> <linearGradient id="SVGID_27_" gradientUnits="userSpaceOnUse" x1="41.3386" y1="79.4782" x2="47.4623" y2="3.6383"> <stop offset="0" style="stop-color:#0050AA"></stop> <stop offset="1" style="stop-color:#3CBEF0"></stop> </linearGradient> <path class="st27" d="M44.8,36.8L44.8,36.8C44.9,36.9,44.8,36.9,44.8,36.8z"></path> <linearGradient id="SVGID_28_" gradientUnits="userSpaceOnUse" x1="41.237" y1="79.47" x2="47.3607" y2="3.6301"> <stop offset="0" style="stop-color:#0050AA"></stop> <stop offset="1" style="stop-color:#3CBEF0"></stop> </linearGradient> <path class="st28" d="M44.8,36.8c0-0.1,0-0.3,0-0.4c-0.1,0.1-0.1,0.2-0.1,0.3C44.7,36.8,44.7,36.8,44.8,36.8z"></path> <linearGradient id="SVGID_29_" gradientUnits="userSpaceOnUse" x1="43.3817" y1="79.6432" x2="49.5055" y2="3.8033"> <stop offset="0" style="stop-color:#0050AA"></stop> <stop offset="1" style="stop-color:#3CBEF0"></stop> </linearGradient> <path class="st29" d="M46.6,34.5l-0.1,0.2c0.2-0.1,0.4-0.1,0.9,0c0-0.4-0.1-0.5-0.2-0.7L46.6,34.5L46.6,34.5z"></path> <linearGradient id="SVGID_30_" gradientUnits="userSpaceOnUse" x1="42.2259" y1="79.5499" x2="48.3496" y2="3.7099"> <stop offset="0" style="stop-color:#0050AA"></stop> <stop offset="1" style="stop-color:#3CBEF0"></stop> </linearGradient> <path class="st30" d="M46,35.3c-0.3-0.5-0.1-0.9-0.7-1.1c-0.3,0.4,0.1,0.5,0,0.9C45.8,34.4,45.3,35.4,46,35.3 c-0.1,0.1-0.2,0.3-0.3,0.4c0.2-0.1,0.3-0.1,0.5-0.1l0,0l0,0l0,0c-0.1,0-0.1,0-0.1,0l0,0C46.1,35.4,46,35.3,46,35.3 c0.3-0.1,0.1,0.1,0.1,0.2l0,0.1l0,0c0.2-0.3,0.3-0.6,0.4-0.8C46.4,34.8,46.3,34.9,46,35.3z"></path> <linearGradient id="SVGID_31_" gradientUnits="userSpaceOnUse" x1="37.7742" y1="79.1904" x2="43.8979" y2="3.3505"> <stop offset="0" style="stop-color:#0050AA"></stop> <stop offset="1" style="stop-color:#3CBEF0"></stop> </linearGradient> <path class="st31" d="M41.2,35.7C41.3,35.7,41.3,35.8,41.2,35.7C41.3,35.7,41.3,35.7,41.2,35.7z"></path> <linearGradient id="SVGID_32_" gradientUnits="userSpaceOnUse" x1="38.5299" y1="79.2514" x2="44.6536" y2="3.4115"> <stop offset="0" style="stop-color:#0050AA"></stop> <stop offset="1" style="stop-color:#3CBEF0"></stop> </linearGradient> <path class="st32" d="M41.6,36.2c0.4,0,1.1,0.3,1.1,0.4c-0.3-0.3-0.6-0.6-1-0.9c0,0.1,0.1,0.3-0.1,0.3c-0.2-0.1-0.1-0.2-0.2-0.4 C41.3,36,41.2,36.3,41.6,36.2L41.6,36.2z"></path> <linearGradient id="SVGID_33_" gradientUnits="userSpaceOnUse" x1="40.2201" y1="79.3879" x2="46.3439" y2="3.548"> <stop offset="0" style="stop-color:#0050AA"></stop> <stop offset="1" style="stop-color:#3CBEF0"></stop> </linearGradient> <path class="st33" d="M43.7,35.6c0.1-0.2,0.2-0.4,0.3-0.6l-0.5-0.1l0.2,0.2C43.4,35.2,43.6,35.4,43.7,35.6z"></path> <linearGradient id="SVGID_34_" gradientUnits="userSpaceOnUse" x1="44.0905" y1="79.7004" x2="50.2142" y2="3.8605"> <stop offset="0" style="stop-color:#0050AA"></stop> <stop offset="1" style="stop-color:#3CBEF0"></stop> </linearGradient> <path class="st34" d="M47.6,34l0.4,0.4c-0.1-0.3-0.2-0.6-0.3-0.8L47.6,34z"></path> <linearGradient id="SVGID_35_" gradientUnits="userSpaceOnUse" x1="44.5451" y1="79.7371" x2="50.6689" y2="3.8972"> <stop offset="0" style="stop-color:#0050AA"></stop> <stop offset="1" style="stop-color:#3CBEF0"></stop> </linearGradient> <polygon class="st35" points="48.1,33.3 48.5,33.6 48.4,33.2 "></polygon> <linearGradient id="SVGID_36_" gradientUnits="userSpaceOnUse" x1="43.5331" y1="79.6554" x2="49.6568" y2="3.8155"> <stop offset="0" style="stop-color:#0050AA"></stop> <stop offset="1" style="stop-color:#3CBEF0"></stop> </linearGradient> <path class="st36" d="M49.2,10.6L48.8,11c0.2,0.1,0.2,0.3,0.2,0.5C49.2,11,49.6,10.3,49.2,10.6z"></path> <linearGradient id="SVGID_37_" gradientUnits="userSpaceOnUse" x1="47.178" y1="79.9497" x2="53.3018" y2="4.1098"> <stop offset="0" style="stop-color:#0050AA"></stop> <stop offset="1" style="stop-color:#3CBEF0"></stop> </linearGradient> <path class="st37" d="M51.6,24.4c0.2-0.2,0.4-0.4,0.4-0.6C51.6,24.1,51.2,24.2,51.6,24.4z"></path> <linearGradient id="SVGID_38_" gradientUnits="userSpaceOnUse" x1="17.5587" y1="77.5581" x2="23.6824" y2="1.7182"> <stop offset="0" style="stop-color:#0050AA"></stop> <stop offset="1" style="stop-color:#3CBEF0"></stop> </linearGradient> <path class="st38" d="M23.4,5c-0.1,0.1-0.1,0.3,0,0.4C23.5,5.2,23.5,5.1,23.4,5z"></path> <linearGradient id="SVGID_39_" gradientUnits="userSpaceOnUse" x1="47.4899" y1="79.9749" x2="53.6136" y2="4.135"> <stop offset="0" style="stop-color:#0050AA"></stop> <stop offset="1" style="stop-color:#3CBEF0"></stop> </linearGradient> <path class="st39" d="M52,23.8c0.3-0.2,0.4-0.5,0.1-0.8c-0.1,0-0.1,0.1-0.1,0.1C52,23.3,52,23.5,52,23.8z"></path> <linearGradient id="SVGID_40_" gradientUnits="userSpaceOnUse" x1="26.8354" y1="78.3072" x2="32.9591" y2="2.4672"> <stop offset="0" style="stop-color:#0050AA"></stop> <stop offset="1" style="stop-color:#3CBEF0"></stop> </linearGradient> <path class="st40" d="M30.1,40.1c-0.1,0-0.2,0-0.4,0C29.8,40.1,29.9,40.2,30.1,40.1z"></path> <linearGradient id="SVGID_41_" gradientUnits="userSpaceOnUse" x1="46.2557" y1="79.8753" x2="52.3794" y2="4.0353"> <stop offset="0" style="stop-color:#0050AA"></stop> <stop offset="1" style="stop-color:#3CBEF0"></stop> </linearGradient> <path class="st41" d="M50.3,30.1C50.2,30.3,50.3,30.2,50.3,30.1L50.3,30.1z"></path> <linearGradient id="SVGID_42_" gradientUnits="userSpaceOnUse" x1="46.1156" y1="79.8639" x2="52.2393" y2="4.024"> <stop offset="0" style="stop-color:#0050AA"></stop> <stop offset="1" style="stop-color:#3CBEF0"></stop> </linearGradient> <path class="st42" d="M50.2,30.3c-0.1,0.1-0.1,0.1-0.1,0.1C50.1,30.5,50.2,30.6,50.2,30.3z"></path> <linearGradient id="SVGID_43_" gradientUnits="userSpaceOnUse" x1="46.246" y1="79.8745" x2="52.3697" y2="4.0346"> <stop offset="0" style="stop-color:#0050AA"></stop> <stop offset="1" style="stop-color:#3CBEF0"></stop> </linearGradient> <path class="st43" d="M50.2,30.1C50.2,30.1,50.3,30.1,50.2,30.1c0.1-0.1,0.1-0.1,0.2-0.3C50.3,29.9,50.3,30,50.2,30.1z"></path> <linearGradient id="SVGID_44_" gradientUnits="userSpaceOnUse" x1="28.6773" y1="78.4559" x2="34.801" y2="2.616"> <stop offset="0" style="stop-color:#0050AA"></stop> <stop offset="1" style="stop-color:#3CBEF0"></stop> </linearGradient> <path class="st44" d="M52.4,17.8l-0.6,0.1c-0.1-0.5-0.4-0.9-0.7-1.4l-0.5,0.2c-0.5-0.4,0-1.3-0.3-2.1c0.2,0,0.2,0.2,0.2,0.4 c0.8-1.4-1.6-1.5-1.2-2.6c-0.3-0.1-0.3-0.2-0.3-0.4c0,0,0,0,0.1,0c0,0,0-0.1,0-0.1c0-0.1,0.1-0.3,0.1-0.4c-0.1,0.1-0.1,0.3-0.1,0.4 c-0.1-0.1-0.3-0.3-0.5-0.4l0.4-0.4c0,0,0,0,0,0c0-0.3-0.3,0-0.6,0.3c-0.1-0.1-0.3-0.1-0.5-0.1c0.7-0.7-0.6-0.3,0-1.1 c-0.5,0.2-1-0.7-1.9-0.1c0.1-0.1,0.1-0.2,0.2-0.1c-0.1-0.3-0.2-0.5-0.5-0.5l0.5-0.6c-0.4,0.1-0.7,0.2-1.1,0.3 c0.1-0.5,0.1-0.8,0.8-1c-1.2,0.1-0.7-0.2-1.8,0l0.3-0.3c-0.2-0.1-0.9,0.1-0.8-0.3c0.1-1.1-2.2-1.7-3.2-3c-0.3,1.4-0.4-0.9-0.9,0.1 c0-0.3-0.1-0.6,0.2-0.8c-0.8,0-0.9-0.9-1.7-0.2C37.7,3.3,38,3.2,38,3c-0.1,0.1-0.3,0.2-0.3,0c0-0.2,0.2-0.2,0.3-0.3 c-0.8-0.2-1.1,0.8-1.4,1.7c-0.3-0.5-0.5-0.5-0.9,0.1c-0.1-0.3-0.2-0.7,0.2-0.7c-0.2-0.1-1.6-0.7-1.7,0.1c-0.1-0.2-0.4-0.1-0.4,0 c-0.6-0.1-0.6-0.1-1.2-0.1l0.2,0.1c-0.2,0.9-0.5,0.2-0.9,0.3l0-0.1c-1.1-0.6-0.4,0.3-1.5-0.3l0.1,0.6c0.1,1.2-1-0.6-1.5,0l0.3,0.3 C29.1,5,28,3.1,27.6,3.1c-0.1-0.1,0.1-0.2,0.2-0.3c-1.1-0.5,0.1,0.8-0.5,1.1c-0.2-0.4-0.1-1-0.6-1c-0.4-0.2-0.8,1.7-1.7,1.2 c0.3,0.2,0.5,0.5,0.3,0.8c-0.4,0.3-1.7-0.5-1.6,0.6c-0.1,0-0.2-0.1-0.2-0.2c-0.2,0.4-0.8,1-0.7,1.5c-0.7-0.7-1-0.2-1.3,0.3 c-0.3,0.5-0.4,1-1,0.3l-0.8,0.8l-0.1-0.2c-0.6,0.4-0.4,0.9-0.3,1.4c-0.2,0-0.3-0.2-0.3-0.2c-1,0.5-1,0.7-0.8,1.9l-0.5-0.3 c0.1,0.3-1.6,0.8-1.5,2c-0.1,0-0.1-0.1-0.2-0.2c0.1,0.7-0.6,1.1-1.1,1.6c-0.4,0.5-0.7,1,0.3,1.5c0.1,0.3,0.2,0.6,0.3,0.9 c0.4-0.9,0.9,0.4,1.3,0.1c0,0.4-0.9,0.7-0.9,0.3l0.1,0c-1.1-0.5-0.7,1-1.4,0.9c-0.3,1.9-1,3.8-0.9,5.6l0.9-0.3c0,0.2,0,0.4,0,0.6 c-0.2,0.2-0.7,0.3-0.7-0.1c-0.5,0.3,0.5,0.7,0.7,0.7c-0.2,0.9-1.1-0.2-1,0.1l0.1,0.4l0.1-0.1c0.4,0.2,0.8,0.2,0.9,0.7 c-0.1,0.4-0.5,0.3-0.5,0.4c-0.1,0-0.1,0.1,0,0.2l0.1,0.8l0.6-0.5c0.4,0.2,0.2,0.7,0.8,0.1c-0.5,0.4-0.4,1.2-0.1,1.8 c0.3,0.7,0.7,1.2,0.6,1.5c0.6,0.2,0.9,0.6,1.2,1.1c0-0.2,0.7-0.7,0.8-0.2c-1.5,0.7-0.1,1.1-0.7,2.2c0.4-0.8,1.1,1.1,1.5-0.1 c0.2,0.4-0.4,0.4-0.5,0.9c1.1,0.4,1.3,2,2.5,2.6c0.1-0.2,0.2-0.5,0.6-0.6c0,0.4-0.1,0.8-0.1,1.3c0.3,0.1,0.9-0.9,0.9,0 c0-0.2,0.1-0.5,0.3-0.4c0.8,1.1,2,1.5,3.3,1.9c1.2,0.4,2.4,0.7,3.5,1.9c-0.3-0.5,0-0.5,0.2-0.4c-0.2-0.1,0.1-0.5,0.1-0.8 c0.3,0.3,0.6,0.6,0.9,0.9c0.3-0.8,1.2,0,1.3-0.8l-0.3,0.1c0.2-0.5,0.1-1-0.1-1.6c0.3,0,0.6,0,0.9,0c4.7,0,8.9-2,11.9-5.2 c0,0,0,0,0,0.1l0.2,0.2c0.1-0.2,0.1-0.4-0.1-0.4c0.1-0.1,0.3-0.3,0.4-0.4c0.1,0.5,1.4,1.3,2.3,1.6c-0.2-0.1-0.3-0.3-0.3-0.8 c-0.3,0-1.1,0.3-1.2-0.2c0.2-0.6,0.4-0.2,0.8-0.3c-0.5-0.2-0.4-0.9-0.9-1.3c0.6-0.8,1.1-1.7,1.6-2.6c0.1,0,0.1,0.1,0.2,0.1l0-0.3 c0.6,0,0.4,0.8,0.8,0.6c0.1,0.5,0.5,1.2-0.1,1.6l-0.7-0.3c0.2,0.1,0.6-0.1,0.5-0.3c0.2,0.4-1.3,0.2-0.6,1l0.6-0.1 c0.1,0.5,0.5,1.5,0,1.8c0.7,0.2,0-0.1,0.9,0c-1.1-0.3,0.8-1.2-0.5-1.3c1,0.2,0.7-0.4,1.7-0.4c-0.2-0.1-0.5,0-0.2-0.4 c-0.1-0.1-0.1-0.1-0.1-0.2l0,0l0,0c0,0,0,0,0,0c-0.1,0.1-0.3,0.1-0.4,0c-0.4-0.5-0.1-1.1-0.2-1.4c0.2-0.2,0.2,0.2,0.5,0.2 c-0.1-0.2-0.2-0.3-0.3-0.5c0.5,0.2,1.1-0.3,1.2,0.4l0.2-0.5c0.4-0.2,0.7-0.7,0.6-1c0.2-0.2-0.4-0.9,0-0.5l-0.1-1l0.1,0 c0.3-0.9-0.5-1.9,0.5-2.9c-0.1-0.3-0.3-0.6-0.1-1.1l0.5-0.1c-0.1-0.4,0.4-1.2-0.1-1.4C53.5,20,52.3,18.5,52.4,17.8z M14.5,26.1 l0.1-0.2C14.8,26.2,14.6,26.2,14.5,26.1z M48.9,21.1c0-0.2,0-0.3,0-0.5c0.2,0.1,0.5,0.2,0.5,0.4C49.2,21,49,21,48.9,21.1z M48.9,18.7c-0.1,0-0.2,0-0.3,0.1c0-0.2-0.1-0.4-0.1-0.6l0.9-0.2l-0.9,0.1c0-0.2-0.1-0.4-0.1-0.6c0.7-0.2,1.3-0.3,1.6-0.3 C50,17.4,49.4,18.5,48.9,18.7z M49,14.1l-0.3,0.3c0.2,0.1,0.5,0.2,0.7,0.4c-0.5,0-1.2,0-1.9,0c-0.1-0.3-0.3-0.5-0.4-0.8 C47.8,13.9,48.6,13.9,49,14.1z M44.7,9.1c-0.2,0.2-0.5,0.5-0.7,0.8c-0.1-0.1-0.2-0.2-0.3-0.3C44,9.5,44.3,9.3,44.7,9.1z M36.3,4.8 c0.1,0.1-0.1,0.4-0.3,0.7c0.1-0.1,0.1-0.1,0.2-0.1c0.1,0.1,0.1,0.3,0,0.4c-0.1,0-0.2-0.1-0.3-0.1c0-0.1,0.1-0.1,0.1-0.2 C36,5.5,36,5.6,35.9,5.6c0,0-0.1,0-0.2,0c-0.1-0.2-0.1-0.4-0.2-0.6C35.8,5,36.1,4.9,36.3,4.8z M45,32.2c0.1-0.2,0.3-0.3,0.4-0.5 C45.5,32,45.4,32.2,45,32.2z M45.5,31.7C45.5,31.7,45.5,31.6,45.5,31.7C45.5,31.6,45.5,31.6,45.5,31.7L45.5,31.7z M49.9,27.6 c-0.8,0.2-1.2-0.4-1.7-0.5c0-0.5,0.6-0.6,0.7-1l-0.4,0.3c-0.2-0.2-0.2-0.6,0-0.7c-0.1,0-0.1,0.1-0.2,0.1c0.2-0.7,0.4-1.5,0.5-2.3 c0.6,0.3,1.1,0.8,1.3,1.4c0.1,0.7-0.7,0.1-0.6,0.3C49,26.4,51,26.8,49.9,27.6z M50.7,27.9L50.7,27.9C51,27.6,50.9,27.7,50.7,27.9z"></path> <linearGradient id="SVGID_45_" gradientUnits="userSpaceOnUse" x1="45.5282" y1="79.8165" x2="51.6519" y2="3.9766"> <stop offset="0" style="stop-color:#0050AA"></stop> <stop offset="1" style="stop-color:#3CBEF0"></stop> </linearGradient> <path class="st45" d="M49.2,31.9c0.1,0.1,0.3,0.1,0.3,0.2l0.1-0.5C49.5,31.8,49.4,31.8,49.2,31.9z"></path> <linearGradient id="SVGID_46_" gradientUnits="userSpaceOnUse" x1="43.5397" y1="79.6559" x2="49.6634" y2="3.816"> <stop offset="0" style="stop-color:#0050AA"></stop> <stop offset="1" style="stop-color:#3CBEF0"></stop> </linearGradient> <path class="st46" d="M47.7,31.4c-0.4-0.2-0.4,0.1-0.5,0.3c0,0,0,0,0,0C47.7,32.1,47.7,31.8,47.7,31.4z"></path> <linearGradient id="SVGID_47_" gradientUnits="userSpaceOnUse" x1="43.2075" y1="79.6291" x2="49.3312" y2="3.7892"> <stop offset="0" style="stop-color:#0050AA"></stop> <stop offset="1" style="stop-color:#3CBEF0"></stop> </linearGradient> <path class="st47" d="M47.1,31.8c0,0.1-0.1,0.2-0.1,0.2C47.2,32.2,47.1,31.9,47.1,31.8z"></path> <linearGradient id="SVGID_48_" gradientUnits="userSpaceOnUse" x1="46.3557" y1="79.8833" x2="52.4794" y2="4.0434"> <stop offset="0" style="stop-color:#0050AA"></stop> <stop offset="1" style="stop-color:#3CBEF0"></stop> </linearGradient> <path class="st48" d="M50.2,29.3c-0.2,0.1,0.5,0.3,0.3,0.3C51,30.1,50.2,28.5,50.2,29.3z"></path> <linearGradient id="SVGID_49_" gradientUnits="userSpaceOnUse" x1="42.5312" y1="79.5745" x2="48.6549" y2="3.7346"> <stop offset="0" style="stop-color:#0050AA"></stop> <stop offset="1" style="stop-color:#3CBEF0"></stop> </linearGradient> <polygon class="st49" points="46.7,30.9 46.4,30.5 46.2,30.7 "></polygon> <linearGradient id="SVGID_50_" gradientUnits="userSpaceOnUse" x1="43.3903" y1="79.6439" x2="49.514" y2="3.804"> <stop offset="0" style="stop-color:#0050AA"></stop> <stop offset="1" style="stop-color:#3CBEF0"></stop> </linearGradient> <path class="st50" d="M47.6,29.1l-0.3,0.3c0.1,0,0.1,0.1,0.1,0.2C47.5,29.4,47.8,29.2,47.6,29.1z"></path> <linearGradient id="SVGID_51_" gradientUnits="userSpaceOnUse" x1="43.3176" y1="79.638" x2="49.4413" y2="3.7981"> <stop offset="0" style="stop-color:#0050AA"></stop> <stop offset="1" style="stop-color:#3CBEF0"></stop> </linearGradient> <path class="st51" d="M47.3,30c0-0.1,0.1-0.2,0.1-0.3C47.3,29.7,47.3,29.9,47.3,30z"></path> <linearGradient id="SVGID_52_" gradientUnits="userSpaceOnUse" x1="44.5205" y1="79.7351" x2="50.6443" y2="3.8952"> <stop offset="0" style="stop-color:#0050AA"></stop> <stop offset="1" style="stop-color:#3CBEF0"></stop> </linearGradient> <path class="st52" d="M48.8,24.6c0.1,0.1,0.2,0.3,0.4,0.3l-0.1-0.5C48.9,24.3,48.7,24.4,48.8,24.6z"></path> <linearGradient id="SVGID_53_" gradientUnits="userSpaceOnUse" x1="28.6471" y1="78.4534" x2="34.7708" y2="2.6135"> <stop offset="0" style="stop-color:#0050AA"></stop> <stop offset="1" style="stop-color:#3CBEF0"></stop> </linearGradient> <polygon class="st53" points="31.5,40.9 31.9,41.2 31.6,40.7 "></polygon> <linearGradient id="SVGID_54_" gradientUnits="userSpaceOnUse" x1="29.3132" y1="78.5072" x2="35.4369" y2="2.6673"> <stop offset="0" style="stop-color:#0050AA"></stop> <stop offset="1" style="stop-color:#3CBEF0"></stop> </linearGradient> <path class="st54" d="M32.3,40l0.1,0.8l0.2-0.7C32.5,40.1,32.3,40.2,32.3,40z"></path> <linearGradient id="SVGID_55_" gradientUnits="userSpaceOnUse" x1="86.2083" y1="83.1012" x2="92.332" y2="7.2613"> <stop offset="0" style="stop-color:#0050AA"></stop> <stop offset="1" style="stop-color:#3CBEF0"></stop> </linearGradient> <path class="st55" d="M89.6,40.9c0,0,0-0.1,0.1-0.1C89.6,40.8,89.6,40.8,89.6,40.9z"></path> <linearGradient id="SVGID_56_" gradientUnits="userSpaceOnUse" x1="77.3393" y1="82.3851" x2="83.463" y2="6.5452"> <stop offset="0" style="stop-color:#0050AA"></stop> <stop offset="1" style="stop-color:#3CBEF0"></stop> </linearGradient> <path class="st56" d="M81,35.8l0.1,0C81.1,35.8,81.1,35.8,81,35.8z"></path> <linearGradient id="SVGID_57_" gradientUnits="userSpaceOnUse" x1="92.2591" y1="83.5898" x2="98.3828" y2="7.7499"> <stop offset="0" style="stop-color:#0050AA"></stop> <stop offset="1" style="stop-color:#3CBEF0"></stop> </linearGradient> <path class="st57" d="M95.3,43C95.3,43,95.3,43,95.3,43c0.1,0.1,0.2,0.1,0.4,0.2L95.3,43z"></path> <linearGradient id="SVGID_58_" gradientUnits="userSpaceOnUse" x1="57.6088" y1="80.792" x2="63.7325" y2="4.952"> <stop offset="0" style="stop-color:#0050AA"></stop> <stop offset="1" style="stop-color:#3CBEF0"></stop> </linearGradient> <path class="st58" d="M61.3,34.2l0.1-0.1C61.4,34.2,61.3,34.2,61.3,34.2z"></path> <linearGradient id="SVGID_59_" gradientUnits="userSpaceOnUse" x1="70.2507" y1="81.8127" x2="76.3744" y2="5.9728"> <stop offset="0" style="stop-color:#0050AA"></stop> <stop offset="1" style="stop-color:#3CBEF0"></stop> </linearGradient> <path class="st59" d="M74.6,29.6c-0.1,0-0.2-0.1-0.2-0.1C74.4,29.6,74.5,29.7,74.6,29.6z"></path> <linearGradient id="SVGID_60_" gradientUnits="userSpaceOnUse" x1="94.7951" y1="83.7946" x2="100.9188" y2="7.9547"> <stop offset="0" style="stop-color:#0050AA"></stop> <stop offset="1" style="stop-color:#3CBEF0"></stop> </linearGradient> <path class="st60" d="M97.9,46.7l-0.1-0.2C97.7,46.5,97.8,46.6,97.9,46.7z"></path> <linearGradient id="SVGID_61_" gradientUnits="userSpaceOnUse" x1="101.2826" y1="84.3184" x2="107.4063" y2="8.4785"> <stop offset="0" style="stop-color:#0050AA"></stop> <stop offset="1" style="stop-color:#3CBEF0"></stop> </linearGradient> <path class="st61" d="M104.3,47.1C104.3,47.1,104.3,47.1,104.3,47.1C104.3,47.1,104.3,47.1,104.3,47.1z"></path> <linearGradient id="SVGID_62_" gradientUnits="userSpaceOnUse" x1="98.8223" y1="84.1198" x2="104.946" y2="8.2798"> <stop offset="0" style="stop-color:#0050AA"></stop> <stop offset="1" style="stop-color:#3CBEF0"></stop> </linearGradient> <path class="st62" d="M102,45.8c-0.1,0-0.1,0-0.2,0.1C101.9,45.9,102,45.9,102,45.8z"></path> <linearGradient id="SVGID_63_" gradientUnits="userSpaceOnUse" x1="98.6844" y1="84.1086" x2="104.8081" y2="8.2687"> <stop offset="0" style="stop-color:#0050AA"></stop> <stop offset="1" style="stop-color:#3CBEF0"></stop> </linearGradient> <path class="st63" d="M101.7,45.9L101.7,45.9C101.8,45.9,101.7,45.9,101.7,45.9z"></path> <linearGradient id="SVGID_64_" gradientUnits="userSpaceOnUse" x1="3.7882" y1="76.4462" x2="9.9119" y2="0.6063"> <stop offset="0" style="stop-color:#0050AA"></stop> <stop offset="1" style="stop-color:#3CBEF0"></stop> </linearGradient> <path class="st64" d="M4,74.9c-0.2,0.1-0.2,0.3-0.3,0.5L4,74.9z"></path> <linearGradient id="SVGID_65_" gradientUnits="userSpaceOnUse" x1="47.9659" y1="80.0133" x2="54.0896" y2="4.1734"> <stop offset="0" style="stop-color:#0050AA"></stop> <stop offset="1" style="stop-color:#3CBEF0"></stop> </linearGradient> <path class="st65" d="M50.3,51L50.3,51C50.3,51,50.3,51,50.3,51z"></path> <linearGradient id="SVGID_66_" gradientUnits="userSpaceOnUse" x1="4.6068" y1="76.5123" x2="10.7305" y2="0.6724"> <stop offset="0" style="stop-color:#0050AA"></stop> <stop offset="1" style="stop-color:#3CBEF0"></stop> </linearGradient> <path class="st66" d="M4.7,76.6l-0.1,0C4.6,76.7,4.6,76.7,4.7,76.6z"></path> <linearGradient id="SVGID_67_" gradientUnits="userSpaceOnUse" x1="91.1233" y1="83.4981" x2="97.247" y2="7.6582"> <stop offset="0" style="stop-color:#0050AA"></stop> <stop offset="1" style="stop-color:#3CBEF0"></stop> </linearGradient> <path class="st67" d="M94.4,46.4c-0.2,0.2-0.5-0.2-0.6,0C94,46.5,94.3,46.7,94.4,46.4z"></path> <linearGradient id="SVGID_68_" gradientUnits="userSpaceOnUse" x1="52.1169" y1="80.3485" x2="58.2407" y2="4.5086"> <stop offset="0" style="stop-color:#0050AA"></stop> <stop offset="1" style="stop-color:#3CBEF0"></stop> </linearGradient> <path class="st68" d="M53.9,59l-0.1,0.1C53.8,59.1,53.9,59.1,53.9,59z"></path> <linearGradient id="SVGID_69_" gradientUnits="userSpaceOnUse" x1="4.7455" y1="76.5235" x2="10.8692" y2="0.6836"> <stop offset="0" style="stop-color:#0050AA"></stop> <stop offset="1" style="stop-color:#3CBEF0"></stop> </linearGradient> <path class="st69" d="M4.7,76.6l0.2,0C4.8,76.6,4.8,76.6,4.7,76.6C4.7,76.6,4.7,76.6,4.7,76.6z"></path> <linearGradient id="SVGID_70_" gradientUnits="userSpaceOnUse" x1="36.7263" y1="79.1058" x2="42.85" y2="3.2659"> <stop offset="0" style="stop-color:#0050AA"></stop> <stop offset="1" style="stop-color:#3CBEF0"></stop> </linearGradient> <path class="st70" d="M38.5,57L38.5,57C38.5,57,38.5,57,38.5,57L38.5,57z"></path> <linearGradient id="SVGID_71_" gradientUnits="userSpaceOnUse" x1="36.1948" y1="79.0629" x2="42.3185" y2="3.223"> <stop offset="0" style="stop-color:#0050AA"></stop> <stop offset="1" style="stop-color:#3CBEF0"></stop> </linearGradient> <path class="st71" d="M37.9,56.2c0.1,0,0.1,0,0.2,0.1C38.1,56.2,38,56.2,37.9,56.2z"></path> <linearGradient id="SVGID_72_" gradientUnits="userSpaceOnUse" x1="3.5914" y1="76.4303" x2="9.7152" y2="0.5904"> <stop offset="0" style="stop-color:#0050AA"></stop> <stop offset="1" style="stop-color:#3CBEF0"></stop> </linearGradient> <path class="st72" d="M3.7,75.4l-0.2,0.3C3.7,75.6,3.7,75.5,3.7,75.4z"></path> <linearGradient id="SVGID_73_" gradientUnits="userSpaceOnUse" x1="20.9836" y1="77.8346" x2="27.1074" y2="1.9947"> <stop offset="0" style="stop-color:#0050AA"></stop> <stop offset="1" style="stop-color:#3CBEF0"></stop> </linearGradient> <path class="st73" d="M22.6,57.2C22.6,57.2,22.7,57.2,22.6,57.2C22.6,57.2,22.6,57.2,22.6,57.2z"></path> <linearGradient id="SVGID_74_" gradientUnits="userSpaceOnUse" x1="71.2794" y1="81.8958" x2="77.4031" y2="6.0559"> <stop offset="0" style="stop-color:#0050AA"></stop> <stop offset="1" style="stop-color:#3CBEF0"></stop> </linearGradient> <path class="st74" d="M75.4,30.7c0,0,0,0.1,0.1,0.1C75.5,30.8,75.5,30.8,75.4,30.7z"></path> <linearGradient id="SVGID_75_" gradientUnits="userSpaceOnUse" x1="65.0903" y1="81.3961" x2="68.3596" y2="40.9061"> <stop offset="0" style="stop-color:#0050AA"></stop> <stop offset="1" style="stop-color:#3CBEF0"></stop> </linearGradient> <polygon class="st75" points="68.9,33.9 68.9,33.9 68.9,33.9 "></polygon> <linearGradient id="SVGID_76_" gradientUnits="userSpaceOnUse" x1="65.0548" y1="81.3932" x2="71.1785" y2="5.5533"> <stop offset="0" style="stop-color:#0050AA"></stop> <stop offset="1" style="stop-color:#3CBEF0"></stop> </linearGradient> <path class="st76" d="M68.9,33.4c-0.1,0,0,0.2,0,0.4C69,33.8,69,33.7,68.9,33.4z"></path> <linearGradient id="SVGID_77_" gradientUnits="userSpaceOnUse" x1="67.6491" y1="46.5129" x2="69.6502" y2="21.7298"> <stop offset="0" style="stop-color:#0050AA"></stop> <stop offset="1" style="stop-color:#3CBEF0"></stop> </linearGradient> <path class="st77" d="M68.6,34.1L68.6,34.1C68.7,34.1,68.6,34.1,68.6,34.1z"></path> <linearGradient id="SVGID_78_" gradientUnits="userSpaceOnUse" x1="67.4873" y1="81.5896" x2="73.611" y2="5.7497"> <stop offset="0" style="stop-color:#0050AA"></stop> <stop offset="1" style="stop-color:#3CBEF0"></stop> </linearGradient> <polygon class="st78" points="71.3,34.7 71.3,34.6 71.3,34.7 "></polygon> <linearGradient id="SVGID_79_" gradientUnits="userSpaceOnUse" x1="66.9237" y1="81.5441" x2="73.0475" y2="5.7042"> <stop offset="0" style="stop-color:#0050AA"></stop> <stop offset="1" style="stop-color:#3CBEF0"></stop> </linearGradient> <path class="st79" d="M70.8,34.1c0,0,0-0.1,0-0.1C70.8,34,70.8,34.1,70.8,34.1z"></path> <linearGradient id="SVGID_80_" gradientUnits="userSpaceOnUse" x1="63.597" y1="81.2755" x2="69.675" y2="6.0023"> <stop offset="0" style="stop-color:#0050AA"></stop> <stop offset="1" style="stop-color:#3CBEF0"></stop> </linearGradient> <polygon class="st80" points="67.1,37.5 67.1,37.5 67.1,37.5 "></polygon> <linearGradient id="SVGID_81_" gradientUnits="userSpaceOnUse" x1="53.3413" y1="80.4474" x2="59.465" y2="4.6075"> <stop offset="0" style="stop-color:#0050AA"></stop> <stop offset="1" style="stop-color:#3CBEF0"></stop> </linearGradient> <path class="st81" d="M59.4,52.3c0.8-1.5,1.6-3.5,2.6-4.8c-0.2-0.5,0.1-1,0.3-1.5l0.5,0.3l0.1-0.5c0.2-0.1-0.1,0.3,0.3,0.2L63,45.6 c0.2,0.1,0.7-0.9,0.7,0l0.9-1.4c0.2-0.3-0.3-0.4,0.1-0.7c0.2,0,0,0.2,0.2,0.3c1-0.8-0.1-1.8,0.7-2.6l0,0.1c0-0.2,0.2-0.6,0.1-0.6 c-0.5-0.2,0.1,0.3-0.3,0.5c-0.4-0.3,0-0.5-0.3-0.7c0.3-0.1,0.2-0.4,0.3-0.6c0.5-0.2,0.6-0.8,1.1-0.8c0-0.2-0.3-0.7-0.1-1.1 c0.5-0.1,0.3,0.3,0.6,0l-0.2-0.2c0.2-0.3,0.3-0.2,0.4-0.1c0.2-0.3-0.1-0.5,0.2-0.7l0.1,0.4c0.1-0.3,0.2-0.4,0.5-0.8 c0.1,0.1,0,0.2-0.1,0.3c0.5,0,0.1-0.5,0.2-0.6c-0.1,0-0.3,0.2-0.5-0.1c0.2-0.2,0-0.6,0.3-0.6l0.1,0.4c0.1-0.5-0.1-0.4,0.3-0.8 c0,0,0.1,0.1,0.1,0.1c0-0.6,0.2-0.4,0.4-0.6l0,0.1c0-0.1-0.2-0.4-0.1-0.4c-0.2,0-0.2-0.1-0.4-0.3c0.4,0.2-0.2-0.7,0.2-0.8 c0.1,0.2,0.1,0.4,0,0.3c0.2,0.5,0.4,0.9,0.5,1.2c0-0.2,0-0.3,0.1-0.1L68.8,34c0-0.1,0.1-0.1,0.1-0.1c-0.1-0.3-0.3-0.3-0.3-0.6 c0-0.3,0.3,0.4,0.2,0.1c0.1-0.4-0.2-0.6,0.1-0.7c0,0.1,0,0.2,0,0.2c0.2,0,0.3-0.5,0.5,0.1c0,0.2,0.1,0.4,0,0.4l0-0.1 c0,0.6,0.1-0.2,0.2,0.4c-0.1-0.4,0.1-0.4,0.2-0.4l-0.1-0.4c0.2-1.4,0.1,0.9,0.4,0.7c0.2-0.3-0.1-0.1,0-0.4c0.1,0.1,0.2,0.5,0.3,0.4 c0,0.2,0.1,0.5,0,0.9c0.1-0.1,0.1,0.3,0.2,0c0-0.5-0.2,0.3-0.2-0.3l0.1-0.4c0.1,0.1,0.3,0.1,0.3,0.3c0-0.1,0-0.2,0.1-0.3 c0.2,0.1,0.5-0.2,0.6,0.2c-0.2,0.3-0.2,0.1-0.3,0.1c0,0.4,0.1,0.2,0.2,0.5c-0.2,0.2-0.1-0.2-0.3,0l0.2,0.1l0,0 c0.2-0.2,0.2-0.1,0.2,0c0,0.1,0,0.2,0.2,0.3c0.7,0.7,1.2,0.4,1.9,0.5c0,0.2,0,0.3-0.2,0.3c0-0.3-0.1-0.2-0.2-0.1 c0.3,0.2,0.2,0.8-0.1,0.8c0.5,0.3,0-0.3,0.4-0.2c0.2,0.2,0.3,0.3,0.5,0.5c0.1-0.2-0.1-0.4,0.3-0.3c0.3,0.2,0.4,0.3,0.7,0.6 c-0.1,0.1-0.1,0.4-0.4,0.1c0.1,0.2,0.3,0.4,0.6,0.3c-0.2-0.5,0.7,0.3,0.7-0.2c0.1,0.2,0.1,0.3,0.2,0.4c-0.1-0.1-0.2,0.1-0.3-0.1 c-0.1,0.4,0.4,0.1,0.5,0.2c0.1,0.1,0.4,0.4,0.3,0.5c0.2,0,0.4,0.3,0.3,0.5c0.2,0.1,0.1-0.2,0.3-0.2l0.5,0.4 c-0.1,0.2-0.3,0.7-0.5,0.7c0.3,0,0.4-0.4,0.7-0.2c-0.4,0.2,0.3,0.5-0.2,0.7c0,0.4,0.6,0.7,1,0.8c0.4-0.1-0.2-0.4-0.1-0.6 c0.9,0.5,1.4-0.3,2,0.2l-0.1-0.2c0.5,0.1,0.4,0.1,0.8,0c-0.3,0.3,0,1.2,0.7,1.5c0.1-0.1-0.2-0.5,0-0.7c0.2,0.1,0.3,0.1,0.5,0.2 c0,0-0.1,0.1-0.1,0.1c0.5,0.1,0.5,0.8,0.8,0.5l0.2,0.7l-0.1-0.3c0.1-0.1,0.6,0,0.7,0c0.5,0,0.7,0.2,0.8,0.6c0-0.2-0.1-0.6,0.3-0.5 c-0.2,0.6,0.7,0.5,0.5,0.8c0.2,0.1,0.3,0.3,0.5,0.1L86,43.7c0.2-0.5,0.8-0.2,1.2-0.2c-0.4,0.7,0.5,0.1,0.4,0.8 c0.2-0.4,0.8,0.1,1-0.3c0.3,0.1,0.1,0.5,0.2,0.7l0.2-0.1c0.1,0.3,0.7,0.5,1,0.8l0.5-0.3l0.1,0.2c0.1-0.1,0.4-0.1,0.3-0.3l0.2,0.1 c0.2-0.5,0.3,0,0.7-0.1c0.1,0.1,0,0.2-0.1,0.2c0.2,0.1,0,0.3,0.1,0.5c-0.1-0.2,0.9-0.7,0.5-1c0-0.2,0.3-0.3,0.5-0.1l0,0.5l0.3-0.4 c0.3,0,0.3,0.3,0.6,0.4c-0.2,0-0.7,0.7-0.1,0.8c-0.3,0-0.6,0.2-0.7,0.2c0.1,0.1,0.2,0.1-0.1,0.2c0.5,0,0.2-0.2,0.7-0.1 c-0.1,0.4,0,0.5,0.4,0.8l-0.2-0.4c0,0,0.1-0.1,0.1-0.1c-0.1-0.1-0.1-0.1-0.1-0.3c0.1,0,0.7-0.3,0.7-0.1c-0.3-0.7,0.9-0.3,0.7-0.7 c0.1-0.1,0.4,0,0.4,0.2c-0.5,0.2,0.2,0.5,0.1,0.8c0.2-0.1-0.2-0.4,0-0.5c0.2,0,0.4,0.3,0.5,0.5l-0.1,0l0.3,0.3 c0.1-0.2-0.3-0.4,0.1-0.4c0.1,0.1,0.4,0.1,0.4,0.2c-0.2,0.2-0.2,0.6-0.5,0.6c0.2,0,1,0.2,0.8-0.3l0.3,0.1c-0.1-0.2-0.6-0.6,0-0.5 l0,0.1l0.5-0.2l0.1,0.2c0-0.1,0.1-0.2,0.2-0.1c0,0.1,0.1,0.2,0.1,0.3c0.4,0.1,0.4-0.1,0.5-0.2c0.2,0,0.3,0.1,0.2,0.3 c0.3,0.1,0.9,0.2,1.1,0.4c0.5-0.1-0.1-0.1,0.2-0.3c0.2,0.7,1.4,0.6,2.1,0.6c-0.1-0.6,0.2,0,0.4-0.5c-0.2,0.2,0.6,0.6-0.1,0.6l0.4,0 c0.2,0.4-0.7,0.1-0.4,0.6c0.4,0.1,0.8-0.5,1.3-0.2c-0.2,0.4,0.4-0.1,0.2,0.4c-0.1,0.1-0.3,0.1-0.4,0.1l0.1,0.1 c0.9,0.3,0.4-0.4,0.9-0.6c0.6,0,0.4,0.4,0.4,0.6c0.1,0.1,0.4,0.1,0.5,0c-0.4,0.2-0.6-0.4-0.4-0.6c0.2,0.5,0.8,0.2,1,0 c-0.7-0.6-0.6-0.1-1.2-0.8c-0.1,0.1-0.2,0.6-0.6,0.3c0.3-0.2,0-0.2,0-0.3c0,0.3-0.3,0-0.5,0.1c-0.1-0.2,0.4-0.5-0.1-0.7l-0.2,0.6 c-0.2-0.1,0.2-0.4-0.3-0.3c0.3-0.3,0-0.5,0.6-0.5c-0.5-0.6-1,0.1-1.5,0.2c0.1,0,0.1-0.1,0.1-0.1c-0.1,0.1-0.3,0.1-0.5,0.1 c-0.3-0.2,0.3-0.2,0.2-0.4l-0.5-0.1c0,0,0,0,0,0c-0.2,0.1-0.3,0.1-0.3-0.1c0.2-0.2,0.3-0.3,0.4-0.5l-0.6,0.3c0.1-0.2-0.4-0.4,0-0.5 l-0.8-0.1l0-0.4c-0.2,0-0.2,0.1,0,0.2c-0.3-0.1-1.3,0.4-1-0.3c-0.7,0.2-0.9,0-1.7,0c0.7-0.2-0.6-0.6,0.1-0.6 c-0.3-0.2-0.5,0.2-0.8,0.2c-0.2-0.2,0-0.6,0.3-0.7l-0.4,0.1l0-0.1l-0.3,0.1c-0.3-0.3,0-0.4-0.3-0.5l-0.2,0.3L96,43.2 c0,0.2-0.2,0.2-0.4,0.2l0-0.1l-0.3,0c0.3-0.1-0.2-0.1,0-0.3c-0.2-0.1-0.2-0.1-0.7-0.1l0,0.3c-0.6,0,0.1-0.3-0.4-0.5l0,0.3 c-0.5-0.6-1.2-0.1-1.6-0.5c0.3,0,0.3-0.3,0.3-0.2c-0.4,0-1.1-0.3-1.6-0.1c0-0.4,0-0.6-0.4-0.9c-0.3-0.1-0.4-0.1-0.6,0.1 c-0.3-0.2-0.9-0.2-0.8-0.5c-0.1,0.2-0.3-0.1-0.5,0l0-0.1L89,41c-0.3-0.8-1,0-1.4-0.7l0.1,0l-0.3,0c0-0.1,0.1-0.2,0.2-0.3l-1-0.5 l0.1,0.3c-0.2-0.1-0.5,0.1-0.7-0.1c0.6-0.2-0.3-0.2-0.3-0.5l0.3,0c-0.3-0.1-0.3-0.1-0.4,0.2c-0.4-0.1,0-0.6-0.5-0.5l0.2,0.1 c0,0.2-0.3,0.3-0.4,0.2c0-0.1-0.1-0.2,0.1-0.2c-0.3,0-0.7-0.4-0.9-0.3c-0.1-0.2,0-0.3,0.1-0.3c-0.7-0.1-0.3-0.2-1-0.3l0.1-0.1 L83.2,38l-0.1-0.5l0,0.2c-0.2-0.1-0.4-0.1-0.6-0.3l0.2-0.2c-0.6-0.2-0.5-0.7-1.1-0.7c0-0.1,0.1-0.1,0.2-0.1c-0.7,0-0.1-0.6-0.8-0.5 c0.1,0,0.1-0.2,0.1-0.2l-0.3,0l0.2-0.3l-0.4,0.3l0-0.4l-0.2,0.1c0.1-0.6-0.4-0.5-0.5-1.1l-0.2,0.4c-1.3,0.1-1.4-1.6-2.4-2.1 l0.2-0.2c-0.2,0-0.4,0-0.6,0c0-0.4,0.3-0.1,0.3-0.3c-0.5-0.2-0.5,0.2-0.9-0.1c-0.1-0.4,0.2-0.1,0.4-0.1c-0.2-0.1-0.5-0.3-0.8-0.5 c-0.3-0.2-0.4-0.3-0.6-0.7c0,0-0.1,0-0.1,0.1c-0.5-0.3-0.9-1-1.3-1.5c0.1-0.1,0.2,0,0.3,0.1C74.2,29.3,74,29,73.8,29l0.3-0.1 c-0.3-0.5-1.1-1-1-1.3c0,0.2-0.1,0.4-0.4,0.1c0-0.6-0.9-0.4-1.4-0.9c0.1-0.1,0.5,0.1,0.4,0c-0.3-0.3-0.6-0.1-0.8-0.1l0.1-0.2 c-0.5-0.1-1-0.1-1.5,0.1c-0.1-0.2-0.5-0.2-0.8-0.1c-0.3,0.1-0.5,0.3-0.5,0.1c-0.5,0.2,0.4,0-0.1,0.4c-0.2-0.1-0.5,0.4-0.5,0.1 l0-0.1c-0.1,0.1-0.2,0.2-0.4,0.3l0.1-0.5c-0.3,0.3-0.4,0.8-0.3,1c-0.3,0.1-0.7,0.6-0.9,0.5l0.1-0.2c-0.7,1-1.8,1-2,2.3 c-0.1,0-0.1,0,0-0.2l-0.5,0.7l-0.1-0.3l-0.2,0.7c0,0.2-0.1,0.3-0.1,0.4l-0.1-0.1c-0.3,0.4-0.7,1.1-1,1.7l0-0.1 c-0.2,0.7-0.5,0.5-0.7,1c0,0,0-0.1,0-0.1l-0.3,0.4L61,34.5c0.1,0.5-0.9,0.6-0.6,0.6c0,0.2,0,0.6,0.1,0.8c-0.3,0.4-0.2,0-0.5,0.2 c-0.2,0.3,0,0.5-0.4,0.9l-0.1-0.1c-0.1,0.2-0.1,0.4-0.3,0.7l0-0.1c0,0.6-0.8,0.3-0.4,1c-0.2,0.1-0.4,0.5-0.6,0.4 c-0.2,0.7-0.4,1.2-0.7,1.8c-0.5-0.2-0.1,0.1-0.5,0.3l0.2,0.1c-0.5,0.8-1.7,1.4-2.1,2.3l-0.2-0.1l0.1,0.3c-0.7,0.9-1.6,2-2.1,2.8 c0,0.3,0,0.9-0.3,1.2l0-0.1c-0.3,0.8-0.7,1.6-1.3,2.2c-0.1-0.1-0.2-0.1-0.2-0.2c0.1,0.3-0.3,0.4-0.4,0.6L51,50 c0.1,0.4-0.3,0.5-0.6,0.5l0,0.5c0,0-0.1,0-0.1,0l0.1,0.1l-0.4,0c0,0.1-0.2,0.6,0,0.9c-0.1,0-0.4,0.2-0.3-0.1l-0.9,1l0.2-0.1 c0.2,0.1,0.1,0.6-0.1,0.6c0-0.3-0.3-0.3-0.5-0.3c0,0.2,0.3,0,0.3,0.2c0,0.3-0.2,0.7-0.4,0.7l0-0.2c-0.1,0.3-0.6,0.1-0.7,0.3 c0,0.3-0.3,0.3,0.1,0.6c-0.2,0.3-0.3-0.1-0.4-0.1c0,0.3-0.4,0.5-0.6,0.4c0.3,0.6-0.8,0.4-0.5,0.9l-0.4-0.1c0.1,0.1,0.3,0.4,0.1,0.6 c-0.3,0-0.4-0.3-0.5-0.4l0.2,0.5C44.4,57,43.2,58,42,57.6c-0.4,0.2-1,0.5-1.5,0.3l0.1-0.1c-0.2-0.1-0.3-0.2-0.4-0.2l0.3,0.3 c-0.1,0-0.2,0.1-0.3,0.1c-0.5-0.4-0.7-0.8-1.7-1.1c-0.9,0.2,0-0.7-0.8-0.7c0.1,0,0.2-0.1,0.2-0.1c-0.7-0.3-1.2-0.5-2.2-0.7 c0.5-0.5-0.5-0.4-0.3-0.6l-0.2,0.2c-0.1-0.3-0.5-0.6-0.4-0.7c-0.2,0-0.4,0-0.6,0l0.1-0.3c-0.8-0.5-2.5-0.8-2.9-1.4 c-1.1,0-2.5,0.2-3.9,0.7c-1.3,0.5-2.8,1.6-3.3,2.1c0,0.3-0.3,0.6-0.6,0.9l-0.5,0c-0.2,0.3-0.2,0.9-0.6,0.9c0,0,0-0.1,0-0.1 c-0.2,0.3-0.6,0.4-0.6,0.9c-0.3,0.3-0.7,0.4-0.8,0.1c0.4,0.4-0.6,0.5-0.6,0.5s-0.9,0.8-2.3,2.1c-1.3,1.3-3.2,3-5.1,4.9 c-1.8,1.7-3.8,3.6-5.5,5.2c-1.6,1.6-3,2.9-3.7,4.1c0,0.3-0.3,0.7,0,0.9c-0.2,0.2-0.6-0.1-0.5,0.1c0.5,0,0.2,0.7,0.7,0.8L4,76.9 c0,0.2,0.2-0.4,0.3,0l-0.2-0.5c0.2,0,0.4,0,0.5,0.1c0.1-0.3-0.1-0.9,0.5-0.9l-0.1,0.1c0.4-0.2,0.4,0.2,0.5,0.2l-0.1,0L6,76 c-0.3,0-0.5,0.6-0.3,0.4c0.5-0.1-0.2,0,0.1-0.3C6,76,6,76.3,6.1,76.4l0.4-0.2c0.1,0.2-0.2,0.1,0,0.3L6.8,76 c0.4,0.5,0.4-0.5,0.9-0.2c-0.3,0.3,0.1,0.2,0.2,0.3l0.8-0.6c0.1,0-0.1,0.3,0,0.2c0.2,0,0.2-0.3,0.3-0.3C9,75.5,9.5,75,9.7,75.3 c0.7-0.2-0.1-0.6,0.6-0.7c0.2,0.1-0.4,0.3,0,0.4l0.5-0.4c0,0.1,0.1,0.4-0.1,0.5c1.6-0.8,3.1-0.4,4.1-1.7c0.4,0.1,0,0.2,0,0.5 c0.6-1,1.6-0.6,2.4-1.3l-0.1-0.2c1.5-0.4,2.4-1.9,3.7-2.7l-0.2,0c0-0.3,0.2-0.6,0.3-0.8c0.1,0.1,0.2,0.5,0.5,0.1 c-0.1,0-0.3,0.1-0.4,0c1.4-0.5,3.2-2.6,4.8-3.8c0.9-1.1,2-2,3.1-2.9c0.5-0.4,1.2-1,1.4-1.1c0.1,0,0.1-0.1,0.2-0.1 c0,0-0.2-0.6-0.1-0.4c0.2,0.5,0.1,0.5,0.2,0.4c0-0.1,0.2-0.2,0.1,0.2c0-0.2,0.5,0.3,0.9,0.7c0.5,0.4,1,0.9,1.9,1.2l-0.1,0.2 c0.1,0.3,0.3,0.2,0.6,0.3l-0.1,0.1c0.5,0.5,1.5,0.8,1.9,1.1l0.2-0.3c0.5,0.2,0.1,0.3,0.7,0.4l-0.1,0.1l0.7-0.1 c-0.2,0.5,1.4,0.5,1.7,0.8c0.7,0.1,1.9-0.1,2.8,0c0.2,0.3,1.3,0.2,2.1,0.2c1.4-0.3,3.2-1,4.7-1.7l-0.2-0.3l0.4-0.2 c0,0.1,0.1,0.1,0.1,0.1c0.5,0.2,0.8-0.6,1.2-0.6c-0.4-0.1-0.3,0.1-0.5,0.3c-0.4,0.1-0.3-0.4,0.2-0.5l0,0.1l0.2-0.3 c0.2,0.2,0.5,0.1,0.7,0.3c1.1-0.9,1.4-1.9,2.4-2.7c0.1,0.3,0.6-0.8,0.8-0.2c0.4-0.7-0.4-0.2-0.5-0.7c0.1-0.2,0.2-0.4,0.4-0.3 c0,0.2,0.4,0.1,0.3,0.2l0.3-0.4c0.1,0,0,0.1,0,0.2c0.4-1,1.4-1.3,1.7-2.2c-0.1-0.2-0.3,0.3-0.4,0.1c0.2-1,0.7-0.5,1-1.3l0.1,0.3 c0-0.3-0.1-0.5,0.3-0.8c0.3,0.1,0,0.4,0,0.7c0.2-0.2,0.5-0.9,0.2-0.9c0.1-0.4,0.4-0.3,0.6-0.4c-0.1,0-0.4,0.2-0.4-0.1 c0.4-0.3,0.8-0.9,1.1-1.4c0.1,0,0.2,0.1,0.2,0.1C58.5,52.4,59.1,52.8,59.4,52.3z"></path> <linearGradient id="SVGID_82_" gradientUnits="userSpaceOnUse" x1="67.4168" y1="81.5839" x2="73.5406" y2="5.744"> <stop offset="0" style="stop-color:#0050AA"></stop> <stop offset="1" style="stop-color:#3CBEF0"></stop> </linearGradient> <path class="st82" d="M71.3,34.8l0-0.1c0,0.1-0.1,0.1-0.2,0.1L71.3,34.8z"></path> <linearGradient id="SVGID_83_" gradientUnits="userSpaceOnUse" x1="64.6126" y1="81.3575" x2="70.7363" y2="5.5176"> <stop offset="0" style="stop-color:#0050AA"></stop> <stop offset="1" style="stop-color:#3CBEF0"></stop> </linearGradient> <path class="st83" d="M68.3,35c0,0,0,0.1,0,0.1C68.4,35.1,68.4,35.1,68.3,35z"></path> <linearGradient id="SVGID_84_" gradientUnits="userSpaceOnUse" x1="63.7222" y1="81.2856" x2="69.8459" y2="5.4457"> <stop offset="0" style="stop-color:#0050AA"></stop> <stop offset="1" style="stop-color:#3CBEF0"></stop> </linearGradient> <path class="st84" d="M67.4,37.6c0-0.2-0.1-0.1-0.2-0.1C67.2,37.5,67.3,37.6,67.4,37.6z"></path> <linearGradient id="SVGID_85_" gradientUnits="userSpaceOnUse" x1="73.0131" y1="82.0358" x2="79.1368" y2="6.1959"> <stop offset="0" style="stop-color:#0050AA"></stop> <stop offset="1" style="stop-color:#3CBEF0"></stop> </linearGradient> <path class="st85" d="M76.6,38.4c-0.1,0-0.1,0-0.1,0.1C76.5,38.5,76.6,38.5,76.6,38.4z"></path> <linearGradient id="SVGID_86_" gradientUnits="userSpaceOnUse" x1="89.4999" y1="83.367" x2="95.6236" y2="7.5271"> <stop offset="0" style="stop-color:#0050AA"></stop> <stop offset="1" style="stop-color:#3CBEF0"></stop> </linearGradient> <path class="st86" d="M92.6,45.9C92.5,45.9,92.5,45.9,92.6,45.9C92.5,45.9,92.5,45.9,92.6,45.9z"></path> <linearGradient id="SVGID_87_" gradientUnits="userSpaceOnUse" x1="88.5824" y1="83.2929" x2="94.7061" y2="7.453"> <stop offset="0" style="stop-color:#0050AA"></stop> <stop offset="1" style="stop-color:#3CBEF0"></stop> </linearGradient> <path class="st87" d="M91.8,45.2c0,0-0.1,0-0.2,0C91.6,45.2,91.7,45.2,91.8,45.2z"></path> <linearGradient id="SVGID_88_" gradientUnits="userSpaceOnUse" x1="69.3477" y1="81.7398" x2="75.4714" y2="5.8999"> <stop offset="0" style="stop-color:#0050AA"></stop> <stop offset="1" style="stop-color:#3CBEF0"></stop> </linearGradient> <path class="st88" d="M73.2,35.7c-0.1,0-0.1-0.1-0.2-0.1C73,35.7,73.1,35.7,73.2,35.7z"></path> <linearGradient id="SVGID_89_" gradientUnits="userSpaceOnUse" x1="88.15" y1="83.258" x2="94.2737" y2="7.4181"> <stop offset="0" style="stop-color:#0050AA"></stop> <stop offset="1" style="stop-color:#3CBEF0"></stop> </linearGradient> <path class="st89" d="M91.3,45.2l-0.2-0.1c0,0,0,0,0,0.1L91.3,45.2z"></path> <linearGradient id="SVGID_90_" gradientUnits="userSpaceOnUse" x1="89.6756" y1="83.3812" x2="95.7993" y2="7.5413"> <stop offset="0" style="stop-color:#0050AA"></stop> <stop offset="1" style="stop-color:#3CBEF0"></stop> </linearGradient> <path class="st90" d="M92.8,46.1c-0.1,0-0.2-0.1-0.3-0.1C92.6,46,92.7,46.1,92.8,46.1z"></path> <linearGradient id="SVGID_91_" gradientUnits="userSpaceOnUse" x1="78.9957" y1="82.5189" x2="85.1194" y2="6.6789"> <stop offset="0" style="stop-color:#0050AA"></stop> <stop offset="1" style="stop-color:#3CBEF0"></stop> </linearGradient> <path class="st91" d="M82.4,41.5L82.4,41.5C82.1,41.5,82.3,41.5,82.4,41.5z"></path> <linearGradient id="SVGID_92_" gradientUnits="userSpaceOnUse" x1="87.063" y1="83.1702" x2="93.1867" y2="7.3303"> <stop offset="0" style="stop-color:#0050AA"></stop> <stop offset="1" style="stop-color:#3CBEF0"></stop> </linearGradient> <polygon class="st92" points="90.2,45.4 90.1,45.4 90.1,45.4 "></polygon> <linearGradient id="SVGID_93_" gradientUnits="userSpaceOnUse" x1="90.7655" y1="83.4692" x2="96.8892" y2="7.6293"> <stop offset="0" style="stop-color:#0050AA"></stop> <stop offset="1" style="stop-color:#3CBEF0"></stop> </linearGradient> <path class="st93" d="M93.8,46.4c0,0-0.1,0-0.1,0C93.7,46.5,93.8,46.5,93.8,46.4C93.8,46.5,93.8,46.5,93.8,46.4z"></path> <linearGradient id="SVGID_94_" gradientUnits="userSpaceOnUse" x1="82.4649" y1="82.799" x2="88.5886" y2="6.9591"> <stop offset="0" style="stop-color:#0050AA"></stop> <stop offset="1" style="stop-color:#3CBEF0"></stop> </linearGradient> <path class="st94" d="M85.6,43.4c0.1-0.1,0.2-0.1,0.2-0.2C85.7,43.2,85.6,43.2,85.6,43.4z"></path> </g> </svg> 