<svg width="400" height="31" viewBox="0 0 400 31" fill="none" xmlns="http://www.w3.org/2000/svg">
<path d="M20.432 27.0001H15.056L8.04797 17.3681L5.07197 20.9841V27.0001H0.719971V3.3521H5.07197V14.9681L14.48 3.3521H19.76L10.928 14.1681L20.432 27.0001Z" fill="black"/>
<path d="M34.331 11.8321V9.6241H38.299V27.0001H34.331V24.8561C32.8163 26.5628 30.9283 27.4161 28.667 27.4161C26.171 27.4161 24.1123 26.5414 22.491 24.7921C20.8696 23.0428 20.059 20.8561 20.059 18.2321C20.059 15.6081 20.8696 13.4534 22.491 11.7681C24.1336 10.0614 26.1923 9.2081 28.667 9.2081C30.8856 9.2081 32.7736 10.0828 34.331 11.8321ZM34.427 18.2961C34.427 16.8241 33.947 15.5761 32.987 14.5521C32.027 13.5281 30.8003 13.0161 29.307 13.0161C27.8136 13.0161 26.587 13.5281 25.627 14.5521C24.6883 15.5974 24.219 16.8454 24.219 18.2961C24.219 19.7681 24.6883 21.0268 25.627 22.0721C26.587 23.0961 27.8136 23.6081 29.307 23.6081C30.8003 23.6081 32.027 23.0961 32.987 22.0721C33.947 21.0481 34.427 19.7894 34.427 18.2961Z" fill="black"/>
<path d="M46.7095 27.0001H42.5495V2.6801H46.6135V11.8641C47.1255 11.0534 47.8721 10.4028 48.8535 9.9121C49.8348 9.42143 50.9228 9.1761 52.1175 9.1761C53.9735 9.1761 55.5628 9.80543 56.8855 11.0641C58.2081 12.3228 58.8695 14.1041 58.8695 16.4081V27.0001H54.7095V17.5281C54.7095 16.0988 54.3681 14.9894 53.6855 14.2001C53.0028 13.3894 52.0748 12.9841 50.9015 12.9841C49.6641 12.9841 48.6508 13.4108 47.8615 14.2641C47.0935 15.1174 46.7095 16.2268 46.7095 17.5921V27.0001Z" fill="black"/>
<path d="M67.0532 2.6801V27.0001H62.8932V2.6801H67.0532Z" fill="black"/>
<path d="M88.0035 17.9441C88.0035 18.4988 87.9608 19.1174 87.8755 19.8001H74.6275C74.9048 21.0374 75.4915 22.0188 76.3875 22.7441C77.3048 23.4481 78.4888 23.8001 79.9395 23.8001C82.0515 23.8001 83.9608 23.2028 85.6675 22.0081L87.3315 24.9841C85.1768 26.5841 82.6595 27.3841 79.7795 27.3841C78.2008 27.3841 76.7928 27.1281 75.5555 26.6161C74.3395 26.1041 73.3581 25.4214 72.6115 24.5681C71.8648 23.6934 71.2995 22.7334 70.9155 21.6881C70.5528 20.6214 70.3715 19.4908 70.3715 18.2961C70.3715 15.6508 71.2035 13.4854 72.8675 11.8001C74.5528 10.0721 76.7288 9.2081 79.3955 9.2081C81.8915 9.2081 83.9501 9.99743 85.5715 11.5761C87.1928 13.1334 88.0035 15.2561 88.0035 17.9441ZM79.3955 12.6961C78.1795 12.6961 77.1448 13.0481 76.2915 13.7521C75.4595 14.4561 74.9048 15.4161 74.6275 16.6321H83.9075C83.7368 15.4161 83.2355 14.4561 82.4035 13.7521C81.5928 13.0481 80.5901 12.6961 79.3955 12.6961Z" fill="black"/>
<path d="M93.8997 30.9361H89.4197L104.748 0.600098H109.228L93.8997 30.9361Z" fill="black"/>
<path d="M129.105 27.0001H124.465L122.513 21.6241H114.129L112.177 27.0001H107.537L116.689 3.3521H120.049L129.105 27.0001ZM121.265 17.6881L118.353 9.5921L115.409 17.6881H121.265Z" fill="black"/>
<path d="M138.822 27.4161C136.39 27.4161 134.47 26.7441 133.062 25.4001C131.675 24.0348 130.982 22.1468 130.982 19.7361V9.6241H135.174V19.7361C135.174 20.9094 135.494 21.8481 136.134 22.5521C136.795 23.2561 137.691 23.6081 138.822 23.6081C139.974 23.6081 140.87 23.2561 141.51 22.5521C142.171 21.8481 142.502 20.9094 142.502 19.7361V9.6241H146.694V19.7361C146.694 22.1468 145.99 24.0348 144.582 25.4001C143.195 26.7441 141.275 27.4161 138.822 27.4161Z" fill="black"/>
<path d="M156.243 27.4481C153.235 27.4481 150.899 26.2961 149.235 23.9921L151.603 21.4321C152.179 22.2001 152.883 22.8081 153.715 23.2561C154.569 23.6828 155.422 23.8961 156.275 23.8961C157.022 23.8961 157.63 23.7254 158.099 23.3841C158.59 23.0214 158.835 22.5841 158.835 22.0721C158.835 21.3894 158.398 20.8348 157.523 20.4081C157.246 20.2374 156.542 19.9494 155.411 19.5441C154.409 19.1601 153.673 18.8508 153.203 18.6161C151.262 17.6561 150.291 16.1841 150.291 14.2001C150.291 12.6854 150.867 11.4481 152.019 10.4881C153.171 9.5281 154.697 9.0481 156.595 9.0481C159.049 9.0481 161.033 9.90143 162.547 11.6081L160.371 14.2641C159.241 13.0694 157.939 12.4721 156.467 12.4721C155.827 12.4721 155.315 12.6321 154.931 12.9521C154.547 13.2508 154.355 13.6348 154.355 14.1041C154.355 14.8721 154.857 15.4374 155.859 15.8001C158.398 16.8028 159.795 17.3788 160.051 17.5281C162.014 18.5948 162.995 20.0668 162.995 21.9441C162.995 23.5228 162.377 24.8348 161.139 25.8801C159.902 26.9254 158.27 27.4481 156.243 27.4481Z" fill="black"/>
<path d="M176.932 22.7121L178.244 25.9761C176.878 26.9361 175.204 27.4161 173.22 27.4161C169.252 27.4161 167.268 25.1548 167.268 20.6321V13.1441H164.388V9.6241H167.332V3.4801H171.46V9.6241H177.284V13.1441H171.46V20.4721C171.46 22.5628 172.302 23.6081 173.988 23.6081C174.969 23.6081 175.95 23.3094 176.932 22.7121Z" fill="black"/>
<path d="M182.664 7.5441C181.896 7.5441 181.256 7.29876 180.744 6.8081C180.232 6.31743 179.976 5.6881 179.976 4.9201C179.976 4.17343 180.232 3.55477 180.744 3.0641C181.277 2.5521 181.917 2.2961 182.664 2.2961C183.41 2.2961 184.029 2.5521 184.52 3.0641C185.032 3.55477 185.288 4.17343 185.288 4.9201C185.288 5.6881 185.032 6.31743 184.52 6.8081C184.029 7.29876 183.41 7.5441 182.664 7.5441ZM184.712 9.6241V27.0001H180.52V9.6241H184.712Z" fill="black"/>
<path d="M193.022 27.0001H188.862V9.6241H192.958V12.0561C193.427 11.1601 194.142 10.4561 195.102 9.9441C196.062 9.4321 197.171 9.1761 198.43 9.1761C200.329 9.1761 201.939 9.80543 203.262 11.0641C204.585 12.3228 205.246 14.1041 205.246 16.4081V27.0001H201.054V17.5601C201.054 16.1308 200.713 15.0108 200.03 14.2001C199.347 13.3894 198.419 12.9841 197.246 12.9841C196.009 12.9841 194.995 13.4214 194.206 14.2961C193.417 15.1494 193.022 16.2588 193.022 17.6241V27.0001Z" fill="black"/>
<path d="M222.103 27.0001H217.751V3.3521H233.207V7.5121H222.103V13.2081H231.831V17.3681H222.103V27.0001Z" fill="black"/>
<path d="M234.746 18.2961C234.746 15.7361 235.61 13.5814 237.338 11.8321C239.108 10.0614 241.338 9.1761 244.026 9.1761C246.735 9.1761 248.954 10.0614 250.682 11.8321C252.431 13.5814 253.306 15.7361 253.306 18.2961C253.306 20.8988 252.431 23.0748 250.682 24.8241C248.954 26.5734 246.735 27.4481 244.026 27.4481C241.316 27.4481 239.087 26.5734 237.338 24.8241C235.61 23.0748 234.746 20.8988 234.746 18.2961ZM249.114 18.2961C249.114 16.8241 248.623 15.5868 247.642 14.5841C246.639 13.5601 245.434 13.0481 244.026 13.0481C242.618 13.0481 241.412 13.5601 240.41 14.5841C239.428 15.5868 238.938 16.8241 238.938 18.2961C238.938 19.7894 239.428 21.0374 240.41 22.0401C241.412 23.0641 242.618 23.5761 244.026 23.5761C245.434 23.5761 246.639 23.0641 247.642 22.0401C248.623 21.0374 249.114 19.7894 249.114 18.2961Z" fill="black"/>
<path d="M264.197 27.4161C261.765 27.4161 259.845 26.7441 258.437 25.4001C257.05 24.0348 256.357 22.1468 256.357 19.7361V9.6241H260.549V19.7361C260.549 20.9094 260.869 21.8481 261.509 22.5521C262.17 23.2561 263.066 23.6081 264.197 23.6081C265.349 23.6081 266.245 23.2561 266.885 22.5521C267.546 21.8481 267.877 20.9094 267.877 19.7361V9.6241H272.069V19.7361C272.069 22.1468 271.365 24.0348 269.957 25.4001C268.57 26.7441 266.65 27.4161 264.197 27.4161Z" fill="black"/>
<path d="M280.241 27.0001H276.081V9.6241H280.177V12.0561C280.646 11.1601 281.361 10.4561 282.321 9.9441C283.281 9.4321 284.39 9.1761 285.649 9.1761C287.547 9.1761 289.158 9.80543 290.481 11.0641C291.803 12.3228 292.465 14.1041 292.465 16.4081V27.0001H288.273V17.5601C288.273 16.1308 287.931 15.0108 287.249 14.2001C286.566 13.3894 285.638 12.9841 284.465 12.9841C283.227 12.9841 282.214 13.4214 281.425 14.2961C280.635 15.1494 280.241 16.2588 280.241 17.6241V27.0001Z" fill="black"/>
<path d="M309.608 11.8321V2.6801H313.768V27.0001H309.704V24.7281C308.253 26.5201 306.408 27.4161 304.168 27.4161C301.672 27.4161 299.613 26.5521 297.992 24.8241C296.349 23.0534 295.528 20.8774 295.528 18.2961C295.528 15.7574 296.349 13.6028 297.992 11.8321C299.656 10.0828 301.704 9.2081 304.136 9.2081C306.354 9.2081 308.178 10.0828 309.608 11.8321ZM304.744 23.6081C306.258 23.6081 307.485 23.0961 308.424 22.0721C309.362 21.0268 309.832 19.7681 309.832 18.2961C309.832 16.8241 309.352 15.5761 308.392 14.5521C307.474 13.5281 306.258 13.0161 304.744 13.0161C303.229 13.0161 302.013 13.5281 301.096 14.5521C300.157 15.5974 299.688 16.8454 299.688 18.2961C299.688 19.7681 300.157 21.0268 301.096 22.0721C302.013 23.0961 303.229 23.6081 304.744 23.6081Z" fill="black"/>
<path d="M331.362 11.8321V9.6241H335.33V27.0001H331.362V24.8561C329.848 26.5628 327.96 27.4161 325.698 27.4161C323.202 27.4161 321.144 26.5414 319.522 24.7921C317.901 23.0428 317.09 20.8561 317.09 18.2321C317.09 15.6081 317.901 13.4534 319.522 11.7681C321.165 10.0614 323.224 9.2081 325.698 9.2081C327.917 9.2081 329.805 10.0828 331.362 11.8321ZM331.458 18.2961C331.458 16.8241 330.978 15.5761 330.018 14.5521C329.058 13.5281 327.832 13.0161 326.338 13.0161C324.845 13.0161 323.618 13.5281 322.658 14.5521C321.72 15.5974 321.25 16.8454 321.25 18.2961C321.25 19.7681 321.72 21.0268 322.658 22.0721C323.618 23.0961 324.845 23.6081 326.338 23.6081C327.832 23.6081 329.058 23.0961 330.018 22.0721C330.978 21.0481 331.458 19.7894 331.458 18.2961Z" fill="black"/>
<path d="M350.557 22.7121L351.869 25.9761C350.503 26.9361 348.829 27.4161 346.845 27.4161C342.877 27.4161 340.893 25.1548 340.893 20.6321V13.1441H338.013V9.6241H340.957V3.4801H345.085V9.6241H350.909V13.1441H345.085V20.4721C345.085 22.5628 345.927 23.6081 347.613 23.6081C348.594 23.6081 349.575 23.3094 350.557 22.7121Z" fill="black"/>
<path d="M356.289 7.5441C355.521 7.5441 354.881 7.29876 354.369 6.8081C353.857 6.31743 353.601 5.6881 353.601 4.9201C353.601 4.17343 353.857 3.55477 354.369 3.0641C354.902 2.5521 355.542 2.2961 356.289 2.2961C357.035 2.2961 357.654 2.5521 358.145 3.0641C358.657 3.55477 358.913 4.17343 358.913 4.9201C358.913 5.6881 358.657 6.31743 358.145 6.8081C357.654 7.29876 357.035 7.5441 356.289 7.5441ZM358.337 9.6241V27.0001H354.145V9.6241H358.337Z" fill="black"/>
<path d="M361.527 18.2961C361.527 15.7361 362.391 13.5814 364.119 11.8321C365.89 10.0614 368.119 9.1761 370.807 9.1761C373.516 9.1761 375.735 10.0614 377.463 11.8321C379.212 13.5814 380.087 15.7361 380.087 18.2961C380.087 20.8988 379.212 23.0748 377.463 24.8241C375.735 26.5734 373.516 27.4481 370.807 27.4481C368.098 27.4481 365.868 26.5734 364.119 24.8241C362.391 23.0748 361.527 20.8988 361.527 18.2961ZM375.895 18.2961C375.895 16.8241 375.404 15.5868 374.423 14.5841C373.42 13.5601 372.215 13.0481 370.807 13.0481C369.399 13.0481 368.194 13.5601 367.191 14.5841C366.21 15.5868 365.719 16.8241 365.719 18.2961C365.719 19.7894 366.21 21.0374 367.191 22.0401C368.194 23.0641 369.399 23.5761 370.807 23.5761C372.215 23.5761 373.42 23.0641 374.423 22.0401C375.404 21.0374 375.895 19.7894 375.895 18.2961Z" fill="black"/>
<path d="M387.522 27.0001H383.362V9.6241H387.458V12.0561C387.927 11.1601 388.642 10.4561 389.602 9.9441C390.562 9.4321 391.671 9.1761 392.93 9.1761C394.829 9.1761 396.439 9.80543 397.762 11.0641C399.085 12.3228 399.746 14.1041 399.746 16.4081V27.0001H395.554V17.5601C395.554 16.1308 395.213 15.0108 394.53 14.2001C393.847 13.3894 392.919 12.9841 391.746 12.9841C390.509 12.9841 389.495 13.4214 388.706 14.2961C387.917 15.1494 387.522 16.2588 387.522 17.6241V27.0001Z" fill="black"/>
</svg>
