<?xml version="1.0" encoding="utf-8"?>
<!-- Generator: Adobe Illustrator 19.2.1, SVG Export Plug-In . SVG Version: 6.00 Build 0)  -->
<svg version="1.1" id="Layer_1" xmlns="http://www.w3.org/2000/svg" xmlns:xlink="http://www.w3.org/1999/xlink" x="0px" y="0px"
	 viewBox="0 0 242.5 63" style="enable-background:new 0 0 242.5 63;" xml:space="preserve">
<style type="text/css">
	.st0{fill:#45413F;}
	.st1{fill:#FAAF42;}
</style>
<g>
	<path class="st0" d="M27.9,28.4c-2.4-0.1-4.8-0.1-7.2-0.1c-2.5,0-5,0-7.5,0.1v-0.8c1.4,0.1,2.6-0.3,2.6-2.2V8.9
		c0-2.3-1.1-2.3-2.6-2.3V5.7c1.3,0,2.6,0.1,3.9,0.1c1.3,0,2.6,0,4-0.1v0.8c-1.5,0-2.6,0.1-2.6,2.3v15c0,2.4,0.5,3.4,4.5,3.4
		c3.3,0,4.4-0.9,5.3-4.1l0.6,0.1L27.9,28.4z"/>
	<path class="st0" d="M33,14.8c0-1.2-0.8-1.4-2.1-1.4v-0.8c1.1,0,2.2,0.1,3.3,0.1c1.1,0,2.3,0,3.4-0.1v0.8c-1.3,0-2.1,0.2-2.1,1.4
		v11.4c0,1.2,0.8,1.4,2.1,1.4v0.8c-1,0-2.2-0.1-3.4-0.1c-1.1,0-2.2,0-3.3,0.1v-0.8c1.3,0,2.1-0.2,2.1-1.4V14.8z"/>
	<path class="st0" d="M40.7,24.5h0.6c0.6,2.3,1.4,3.5,3.5,3.5c2.2,0,2.7-1.7,2.7-2.7c0-1.3-0.7-2.2-2.5-3.3
		c-3.1-1.9-3.9-3.1-3.9-5.6c0-2.2,1.7-4.2,4.1-4.2c1.1,0,2.4,0.3,3.3,0.3l0.3,3.2h-0.6c-0.3-1.3-0.9-2.7-2.8-2.7
		c-1.5,0-2.5,1.1-2.5,2.6c0,1.6,0.4,2.2,3.1,3.7c3,1.7,3.6,3.1,3.6,5.1c0,2.6-2.1,4.5-5,4.5c-1.3,0-2.4-0.3-3.5-0.9L40.7,24.5z"/>
	<path class="st0" d="M59.8,27.5h0.3c0.7,0,1.4-0.2,1.4-0.8c0-0.4-0.1-0.6-0.2-1.1l-1-3.3h-4.8L55,24.4c-0.1,0.4-0.5,1.5-0.5,2.1
		c0,0.8,0.9,0.9,1.5,0.9h0.3v0.8c-1,0-1.9-0.1-2.9-0.1c-0.7,0-1.6,0-2.3,0.1v-0.8c1.4,0,1.9-0.7,2.1-1.4l4-11.9
		c0.1-0.4,0.3-0.8,0.3-1.1c0-0.2,0-0.3-0.1-0.5l2.2-0.9l4.2,13.8c0.5,1.5,0.9,1.9,2.4,1.9v0.8c-1.1,0-2.1-0.1-3.2-0.1
		c-1,0-2.1,0-3.2,0.1L59.8,27.5L59.8,27.5z M58,14.8L58,14.8l-2.1,6.6h4.2L58,14.8z"/>
	<path class="st0" d="M92.4,18.2c-0.7,0-2.1-0.7-2.1-2.9c0-3.1,3.3-6.1,5.9-6.1c3.6,0,4.4,4.8,6.5,4.8c0.7,0,1.1-0.7,1.1-1.5
		c0-0.7-0.9-1.2-0.9-2.3c0-0.7,0.5-1.1,1.1-1.1c0.9,0,1.4,1,1.4,2c0,2.4-2.5,4.7-4.5,4.7c-1.2,0-2.2-1.2-2.9-2.1
		c-0.1,2.6-0.3,5.4-1.6,8.1c-1.6,3.2-4.5,7.3-10.6,7.3c-4.7,0-8.4-3.9-8.4-9.8c0-4.9,4.3-11.4,8.8-11.4c0.8,0,1.6,0.2,2.1,0.9
		c0.9-1.2,3.8-3.9,3.8-5.5c0-0.5-0.3-1.4-0.3-1.8c0-0.9,0.6-1.4,1.3-1.4c0.7,0,1.2,0.6,1.2,1.7c0,1.6-2.1,4-3.1,5.1l-6.9,7.5
		L83,15.9L81.4,18c-0.7,1-1.2,1.8-1.2,3.1c0,1,0.7,2,1.2,2.8c1.1,1.5,3.2,2.3,4.9,2.3c3.7,0,6.7-2.3,8.2-4.4c1.9-2.4,2.4-5.8,2.5-9
		c-0.2-0.8-2-1.6-2.9-1.6c-1.2,0-2.3,1.1-2.3,2.4c0,2.6,2.2,1,2.2,3.1C94.2,17.8,93.3,18.2,92.4,18.2z M79.3,17.6c0,0.5,0,1,0.1,1.5
		c0.9-1.5,1.9-2.7,2.9-3.9l3.1-3.8c0.1-0.2,0.2-0.3,0.2-0.4c0-0.6-0.8-1.2-1.4-1.2C81.4,9.9,79.3,14.2,79.3,17.6z"/>
	<path class="st0" d="M117.2,9.3c0-2.9-1.3-2.7-2.6-2.8V5.7c1.1,0.1,2.2,0.1,3.3,0.1c1.2,0,2.8-0.1,4.9-0.1
		c7.3,0,11.3,5.6,11.3,11.4c0,3.2-1.6,11.3-11.7,11.3c-1.4,0-2.8-0.1-4.1-0.1c-1.3,0-2.5,0-3.8,0.1v-0.8c1.7-0.2,2.5-0.3,2.6-2.5
		L117.2,9.3L117.2,9.3z M119.8,24.6c0,2.5,1.6,2.8,2.9,2.8c6.1,0,8.1-5.3,8.1-10.1c0-6.1-3.4-10.5-8.9-10.5c-1.2,0-1.7,0.1-2.2,0.1
		L119.8,24.6L119.8,24.6z"/>
	<path class="st0" d="M145.4,12.1c4.6,0,7.6,3.6,7.6,8.3c0,4-2.9,8.4-7.8,8.4c-4.7,0-7.8-3.4-7.8-8.4
		C137.4,15.3,141.1,12.1,145.4,12.1z M145.4,27.7c3.6,0,4.7-3.6,4.7-7.1c0-4.5-2.2-7.5-5.2-7.5c-3.4,0-4.8,3.4-4.8,6.9
		C140.1,24.4,142.4,27.7,145.4,27.7z"/>
	<path class="st0" d="M157.6,14.5c0-1.2-1.2-1.2-2-1.2v-0.8c1,0,2.2,0.1,3.2,0.1s2,0,3-0.1v0.8c-0.8,0-1.8,0-1.8,1.1v8.8
		c0,3,1.6,4.2,3.8,4.2c4,0,4-3.5,4-6.8v-3.8c0-3.2-0.3-3.5-2.2-3.5v-0.8c0.9,0,1.9,0.1,2.8,0.1c0.8,0,1.6,0,2.4-0.1v0.8
		c-1,0-1.7,0.2-1.7,2.3v6.6c0,3.7-1.6,6.6-5.7,6.6c-3.6,0-5.8-1.6-5.8-5.4V14.5z"/>
	<path class="st0" d="M186.9,16.8h-0.6c-0.7-1.8-1.4-3.7-4.4-3.7c-3.1,0-5.7,2.1-5.7,7.3c0,3,1.5,7.3,6,7.3c0.7,0,1.4-0.2,2-0.5
		c0-0.3,0.1-2.1,0.1-2.5c0-1.8-0.2-2.3-2.2-2.3v-0.8c1.1,0,2.3,0.1,3.4,0.1c0.8,0,1.9-0.1,2.7-0.1v0.8c-1.3,0-1.6,0.2-1.6,1.3v2.1
		c0,0.6,0,1.1,0.5,1.3v0.6c-1.4,0.5-3.5,1.1-5.8,1.1c-4.6,0-7.8-3.7-7.8-8.2c0-5.2,3.5-8.5,8-8.5c0.7,0,1.3,0.1,2.7,0.3
		c0.4,0.1,2.2,0.5,2.6,0.6L186.9,16.8z"/>
	<path class="st0" d="M193.1,14.8c0-1.2-0.8-1.4-2.1-1.4v-0.8c1.1,0,2.2,0.1,3.3,0.1s2.3,0,3.4-0.1v0.8c-1.2,0-2.1,0.1-2.1,1.4v10.8
		c0,1.4,0.4,1.8,2.6,1.8c2.5,0,3.1-0.5,4.2-3.1h0.7l-0.8,4.1c-0.7,0-4.4-0.1-5.2-0.1c-2,0-4,0-5.9,0.1v-0.8c1.3,0,2.1-0.2,2.1-1.4
		V14.8H193.1z"/>
	<path class="st0" d="M212.4,27.5h0.3c0.7,0,1.4-0.2,1.4-0.8c0-0.4-0.1-0.6-0.2-1.1l-1-3.3h-4.8l-0.6,2.1c-0.1,0.4-0.5,1.5-0.5,2.1
		c0,0.8,0.9,0.9,1.5,0.9h0.3v0.8c-1,0-1.9-0.1-2.9-0.1c-0.7,0-1.6,0-2.3,0.1v-0.8c1.4,0,1.9-0.7,2.1-1.4l4-11.9
		c0.1-0.4,0.3-0.8,0.3-1.1c0-0.2,0-0.3-0.1-0.5l2.2-0.9l4.2,13.8c0.5,1.5,0.9,1.9,2.4,1.9v0.8c-1.1,0-2.1-0.1-3.2-0.1
		c-1,0-2.1,0-3.2,0.1v-0.6H212.4z M210.6,14.8L210.6,14.8l-2.1,6.6h4.2L210.6,14.8z"/>
	<path class="st0" d="M220.4,24.5h0.7c0.6,2.3,1.4,3.5,3.5,3.5c2.2,0,2.7-1.7,2.7-2.7c0-1.3-0.7-2.2-2.5-3.3
		c-3.1-1.9-3.9-3.1-3.9-5.6c0-2.2,1.7-4.2,4.1-4.2c1.1,0,2.4,0.3,3.3,0.3l0.3,3.2H228c-0.3-1.3-0.9-2.7-2.8-2.7
		c-1.5,0-2.5,1.1-2.5,2.6c0,1.6,0.4,2.2,3.1,3.7c3,1.7,3.6,3.1,3.6,5.1c0,2.6-2.1,4.5-5,4.5c-1.3,0-2.4-0.3-3.5-0.9L220.4,24.5z"/>
</g>
<path class="st1" d="M22.1,42h-0.8c-0.9-4.6-4.2-6.4-8-6.4c-6.1,0-9.5,6.1-9.5,12.5c0,6.8,3.6,13.6,9.8,13.6c2.7,0,4.1-1.1,4.6-1.5
	v-5.9c0-2.9-1.3-2.9-3.1-2.9v-1c1.6,0,3.2,0.1,4.7,0.1c1.6,0,3.1,0,4.2-0.1v1c-1.1,0-2.4,0-2.4,2.9v5.1l0.5,0.6v0.7
	c-2.8,1.1-5.9,2.2-8.9,2.2C3.5,63,0,54.4,0,48.8c0-8.2,5.6-14.3,12.7-14.3c3,0,6,0.9,8.8,2.1L22.1,42z"/>
<path class="st1" d="M36.3,42.7c5.5,0,9.2,4.3,9.2,10c0,4.9-3.5,10.2-9.4,10.2c-5.6,0-9.4-4.2-9.4-10.2
	C26.7,46.6,31.2,42.7,36.3,42.7z M36.4,61.6c4.3,0,5.7-4.3,5.7-8.6c0-5.5-2.7-9.1-6.3-9.1c-4.1,0-5.7,4.1-5.7,8.4
	C30,57.6,32.8,61.6,36.4,61.6z"/>
<path class="st1" d="M50.8,45.9c0-1.5-0.9-1.7-2.5-1.7v-1c1.3,0,2.6,0.1,3.9,0.1c1.4,0,2.8,0,4.1-0.1v1c-1.5,0-2.5,0.1-2.5,1.7V59
	c0,1.6,0.4,2.2,3.1,2.2c3,0,3.8-0.5,5.1-3.7h0.9l-1,5c-0.9,0-5.3-0.1-6.3-0.1c-2.4,0-4.8,0-7.2,0.1v-1c1.6,0,2.5-0.2,2.5-1.7
	L50.8,45.9L50.8,45.9z"/>
<path class="st1" d="M66.1,45.9c0-1.5-0.9-1.7-2.5-1.7v-1c1.3,0,2.7,0.1,4.1,0.1c1.7,0,3.5-0.1,5.2-0.1c6.9,0,9.8,4.9,9.8,9.4
	c0,7.4-5,9.8-10,9.8c-1.5,0-3.2-0.1-4.6-0.1c-1.5,0-3,0-4.6,0.1v-1c1.6,0,2.5-0.2,2.5-1.7L66.1,45.9L66.1,45.9z M69.1,58.7
	c0,2.3,1.1,2.5,2.7,2.5c3.3,0,7.6-1.2,7.6-8.1c0-4.8-2-8.6-6.5-8.6c-1,0-2.7,0.1-3.8,0.1C69.1,44.6,69.1,58.7,69.1,58.7z"/>
<path class="st1" d="M104.2,43.2c0.8,0,1.6,0.1,2.4,0.1c0.9,0,1.9,0,2.8-0.1v1c-1.6,0-2.4,0.4-2.4,1.3c0,0.6,0,1.2,0.1,2.2l0.3,10.2
	c0.1,3.3,0.6,3.5,2.7,3.5v1c-1.3,0-2.7-0.1-4-0.1s-2.8,0-4.1,0.1v-1c1.8,0,2.5-0.2,2.5-2c0-2.9-0.2-7.4-0.4-13H104l-6.5,16.2H97
	L90.5,47h-0.1c-0.2,3.8-0.6,10.9-0.6,12.1c0,1.6,0.9,2.2,2.6,2.2v1c-1,0-2-0.1-3-0.1c-1.1,0-2.4,0-3.5,0.1v-1c2.3,0,2.6-0.9,2.7-2.6
	l0.6-10.2c0.1-1.5,0.1-2.3,0.1-3.3s-0.5-1.1-2.5-1.1v-1c1,0,2,0.1,3,0.1c0.7,0,1.5-0.1,2.2-0.1l6.2,14.5L104.2,43.2z"/>
<path class="st1" d="M122.4,61.4h0.4c0.9,0,1.7-0.3,1.7-0.9c0-0.5-0.1-0.8-0.3-1.3l-1.3-4h-5.8l-0.8,2.6c-0.1,0.5-0.6,1.8-0.6,2.6
	c0,0.9,1.1,1.1,1.8,1.1h0.4v1c-1.2,0-2.3-0.1-3.5-0.1c-0.9,0-1.9,0-2.8,0.1v-1c1.7,0,2.3-0.8,2.5-1.6l4.9-14.3
	c0.2-0.5,0.3-0.9,0.3-1.3c0-0.2,0-0.4-0.1-0.5l2.6-1.1l5.1,16.6c0.5,1.8,1.1,2.3,2.9,2.3v1c-1.3,0-2.6-0.1-3.8-0.1s-2.6,0-3.8,0.1
	v-1.2H122.4z M120.1,46L120.1,46l-2.6,7.9h5L120.1,46z"/>
<path class="st1" d="M134.2,46.1c0-1.8-2.1-1.8-2.7-1.8v-1c0.8,0,1.6,0.1,2.4,0.1c0.7,0,1.6,0,2.3-0.1l10.4,14.1V47
	c0-2.7-0.9-2.7-2.7-2.7v-1c1.1,0,2.3,0.1,3.4,0.1c1,0,2.1,0,3.1-0.1v1c-1.6,0-2.4,0.1-2.4,2v16.6h-0.8l-11.6-15.5v10.5
	c0,2.8,0.3,3.5,2.9,3.5v1c-1.1,0-2.4-0.1-3.6-0.1c-1.2,0-2.3,0-3.5,0.1v-1c2.8,0,2.8-1.6,2.8-4.4L134.2,46.1L134.2,46.1z"/>
<path class="st0" d="M168.5,58.6c0,2.7,1.3,2.8,3.1,2.8v1c-1.7,0-3.3-0.1-4.9-0.1c-1.5,0-3.1,0-4.9,0.1v-1c3,0,3.3-0.6,3.3-4.4V39.5
	c0-3.2-0.5-3.4-3.3-3.5v-1c2.4,0,4.9,0.1,7.4,0.1c3.1,0,6.3,0,9.3-0.1l0.2,5.5l-0.8,0.2c-0.3-3.3-1.8-4.4-5.5-4.4h-4v11.2h4
	c2.8,0,3-0.5,3.5-3.3h0.8c-0.1,0.7-0.1,2.9-0.1,4.3c0,1.3,0.1,3.1,0.1,4.2H176c-0.4-2.7-0.4-3.6-3.5-3.6h-4.2v9.5H168.5z"/>
<path class="st0" d="M183.5,45.6c0-1.4-1.4-1.4-2.4-1.4v-1c1.3,0,2.6,0.1,3.9,0.1c1.2,0,2.5,0,3.6-0.1v1c-1,0-2.2,0-2.2,1.3v10.7
	c0,3.6,2,5.1,4.6,5.1c4.8,0,4.8-4.3,4.8-8.2v-4.6c0-3.9-0.3-4.2-2.6-4.2v-1c1.1,0,2.3,0.1,3.4,0.1c1,0,1.9,0,2.8-0.1v1
	c-1.2,0-2.1,0.2-2.1,2.7v8c0,4.5-1.9,8-6.9,8c-4.4,0-7-1.9-7-6.5L183.5,45.6L183.5,45.6z"/>
<path class="st0" d="M204.6,46.1c0-1.8-2.1-1.8-2.7-1.8v-1c0.8,0,1.6,0.1,2.4,0.1c0.7,0,1.6,0,2.3-0.1L217,57.2V47
	c0-2.7-0.9-2.7-2.7-2.7v-1c1.1,0,2.3,0.1,3.4,0.1c1,0,2.1,0,3.1-0.1v1c-1.6,0-2.4,0.1-2.4,2v16.6h-0.8L206,47.4v10.5
	c0,2.8,0.3,3.5,2.9,3.5v1c-1.1,0-2.4-0.1-3.6-0.1c-1.2,0-2.3,0-3.5,0.1v-1c2.8,0,2.8-1.6,2.8-4.4L204.6,46.1L204.6,46.1z"/>
<path class="st0" d="M225.9,45.9c0-1.5-0.9-1.7-2.5-1.7v-1c1.3,0,2.7,0.1,4.1,0.1c1.7,0,3.5-0.1,5.2-0.1c6.9,0,9.8,4.9,9.8,9.4
	c0,7.4-5,9.8-10,9.8c-1.5,0-3.2-0.1-4.6-0.1c-1.5,0-3,0-4.6,0.1v-1c1.6,0,2.5-0.2,2.5-1.7V45.9H225.9z M228.9,58.7
	c0,2.3,1.1,2.5,2.7,2.5c3.3,0,7.6-1.2,7.6-8.1c0-4.8-2-8.6-6.5-8.6c-1,0-2.7,0.1-3.8,0.1V58.7z"/>
</svg>
