<svg width="243" height="63" viewBox="0 0 243 63" fill="none" xmlns="http://www.w3.org/2000/svg">
<g clip-path="url(#clip0_4121_15079)">
<path d="M27.9 28.4002C25.5 28.3002 23.1 28.3002 20.7 28.3002C18.2 28.3002 15.7 28.3002 13.2 28.4002V27.6002C14.6 27.7002 15.8 27.3002 15.8 25.4002V8.9002C15.8 6.6002 14.7 6.6002 13.2 6.6002V5.7002C14.5 5.7002 15.8 5.8002 17.1 5.8002C18.4 5.8002 19.7 5.8002 21.1 5.7002V6.5002C19.6 6.5002 18.5 6.6002 18.5 8.8002V23.8002C18.5 26.2002 19 27.2002 23 27.2002C26.3 27.2002 27.4 26.3002 28.3 23.1002L28.9 23.2002L27.9 28.4002Z" fill="#45413F"/>
<path d="M33 14.8001C33 13.6001 32.2 13.4001 30.9 13.4001V12.6001C32 12.6001 33.1 12.7001 34.2 12.7001C35.3 12.7001 36.5 12.7001 37.6 12.6001V13.4001C36.3 13.4001 35.5 13.6001 35.5 14.8001V26.2001C35.5 27.4001 36.3 27.6001 37.6 27.6001V28.4001C36.6 28.4001 35.4 28.3001 34.2 28.3001C33.1 28.3001 32 28.3001 30.9 28.4001V27.6001C32.2 27.6001 33 27.4001 33 26.2001V14.8001Z" fill="#45413F"/>
<path d="M40.7 24.5002H41.3C41.9 26.8002 42.7 28.0002 44.8 28.0002C47 28.0002 47.5 26.3002 47.5 25.3002C47.5 24.0002 46.8 23.1002 45 22.0002C41.9 20.1002 41.1 18.9002 41.1 16.4002C41.1 14.2002 42.8 12.2002 45.2 12.2002C46.3 12.2002 47.6 12.5002 48.5 12.5002L48.8 15.7002H48.2C47.9 14.4002 47.3 13.0002 45.4 13.0002C43.9 13.0002 42.9 14.1002 42.9 15.6002C42.9 17.2002 43.3 17.8002 46 19.3002C49 21.0002 49.6 22.4002 49.6 24.4002C49.6 27.0002 47.5 28.9002 44.6 28.9002C43.3 28.9002 42.2 28.6002 41.1 28.0002L40.7 24.5002Z" fill="#45413F"/>
<path d="M59.8 27.5001H60.1C60.8 27.5001 61.5 27.3001 61.5 26.7001C61.5 26.3001 61.4 26.1001 61.3 25.6001L60.3 22.3001H55.5L55 24.4001C54.9 24.8001 54.5 25.9001 54.5 26.5001C54.5 27.3001 55.4 27.4001 56 27.4001H56.3V28.2001C55.3 28.2001 54.4 28.1001 53.4 28.1001C52.7 28.1001 51.8 28.1001 51.1 28.2001V27.4001C52.5 27.4001 53 26.7001 53.2 26.0001L57.2 14.1001C57.3 13.7001 57.5 13.3001 57.5 13.0001C57.5 12.8001 57.5 12.7001 57.4 12.5001L59.6 11.6001L63.8 25.4001C64.3 26.9001 64.7 27.3001 66.2 27.3001V28.1001C65.1 28.1001 64.1 28.0001 63 28.0001C62 28.0001 60.9 28.0001 59.8 28.1001V27.5001ZM58 14.8001L55.9 21.4001H60.1L58 14.8001Z" fill="#45413F"/>
<path d="M92.4 18.2001C91.7 18.2001 90.3 17.5001 90.3 15.3001C90.3 12.2001 93.6 9.2001 96.2 9.2001C99.8 9.2001 100.6 14.0001 102.7 14.0001C103.4 14.0001 103.8 13.3001 103.8 12.5001C103.8 11.8001 102.9 11.3001 102.9 10.2001C102.9 9.5001 103.4 9.1001 104 9.1001C104.9 9.1001 105.4 10.1001 105.4 11.1001C105.4 13.5001 102.9 15.8001 100.9 15.8001C99.7 15.8001 98.7 14.6001 98 13.7001C97.9 16.3001 97.7 19.1001 96.4 21.8001C94.8 25.0001 91.9 29.1001 85.8 29.1001C81.1 29.1001 77.4 25.2001 77.4 19.3001C77.4 14.4001 81.7 7.9001 86.2 7.9001C87 7.9001 87.8 8.1001 88.3 8.8001C89.2 7.6001 92.1 4.9001 92.1 3.3001C92.1 2.8001 91.8 1.9001 91.8 1.5001C91.8 0.600098 92.4 0.100098 93.1 0.100098C93.8 0.100098 94.3 0.700098 94.3 1.8001C94.3 3.4001 92.2 5.8001 91.2 6.9001L84.3 14.4001L83 15.9001L81.4 18.0001C80.7 19.0001 80.2 19.8001 80.2 21.1001C80.2 22.1001 80.9 23.1001 81.4 23.9001C82.5 25.4001 84.6 26.2001 86.3 26.2001C90 26.2001 93 23.9001 94.5 21.8001C96.4 19.4001 96.9 16.0001 97 12.8001C96.8 12.0001 95 11.2001 94.1 11.2001C92.9 11.2001 91.8 12.3001 91.8 13.6001C91.8 16.2001 94 14.6001 94 16.7001C94.2 17.8001 93.3 18.2001 92.4 18.2001ZM79.3 17.6001C79.3 18.1001 79.3 18.6001 79.4 19.1001C80.3 17.6001 81.3 16.4001 82.3 15.2001L85.4 11.4001C85.5 11.2001 85.6 11.1001 85.6 11.0001C85.6 10.4001 84.8 9.8001 84.2 9.8001C81.4 9.9001 79.3 14.2001 79.3 17.6001Z" fill="#45413F"/>
<path d="M117.2 9.3002C117.2 6.4002 115.9 6.6002 114.6 6.5002V5.7002C115.7 5.8002 116.8 5.8002 117.9 5.8002C119.1 5.8002 120.7 5.7002 122.8 5.7002C130.1 5.7002 134.1 11.3002 134.1 17.1002C134.1 20.3002 132.5 28.4002 122.4 28.4002C121 28.4002 119.6 28.3002 118.3 28.3002C117 28.3002 115.8 28.3002 114.5 28.4002V27.6002C116.2 27.4002 117 27.3002 117.1 25.1002L117.2 9.3002ZM119.8 24.6002C119.8 27.1002 121.4 27.4002 122.7 27.4002C128.8 27.4002 130.8 22.1002 130.8 17.3002C130.8 11.2002 127.4 6.8002 121.9 6.8002C120.7 6.8002 120.2 6.9002 119.7 6.9002L119.8 24.6002Z" fill="#45413F"/>
<path d="M145.4 12.1001C150 12.1001 153 15.7001 153 20.4001C153 24.4001 150.1 28.8001 145.2 28.8001C140.5 28.8001 137.4 25.4001 137.4 20.4001C137.4 15.3001 141.1 12.1001 145.4 12.1001ZM145.4 27.7001C149 27.7001 150.1 24.1001 150.1 20.6001C150.1 16.1001 147.9 13.1001 144.9 13.1001C141.5 13.1001 140.1 16.5001 140.1 20.0001C140.1 24.4001 142.4 27.7001 145.4 27.7001Z" fill="#45413F"/>
<path d="M157.6 14.5C157.6 13.3 156.4 13.3 155.6 13.3V12.5C156.6 12.5 157.8 12.6 158.8 12.6C159.8 12.6 160.8 12.6 161.8 12.5V13.3C161 13.3 160 13.3 160 14.4V23.2C160 26.2 161.6 27.4 163.8 27.4C167.8 27.4 167.8 23.9 167.8 20.6V16.8C167.8 13.6 167.5 13.3 165.6 13.3V12.5C166.5 12.5 167.5 12.6 168.4 12.6C169.2 12.6 170 12.6 170.8 12.5V13.3C169.8 13.3 169.1 13.5 169.1 15.6V22.2C169.1 25.9 167.5 28.8 163.4 28.8C159.8 28.8 157.6 27.2 157.6 23.4V14.5Z" fill="#45413F"/>
<path d="M186.9 16.8001H186.3C185.6 15.0001 184.9 13.1001 181.9 13.1001C178.8 13.1001 176.2 15.2001 176.2 20.4001C176.2 23.4001 177.7 27.7001 182.2 27.7001C182.9 27.7001 183.6 27.5001 184.2 27.2001C184.2 26.9001 184.3 25.1001 184.3 24.7001C184.3 22.9001 184.1 22.4001 182.1 22.4001V21.6001C183.2 21.6001 184.4 21.7001 185.5 21.7001C186.3 21.7001 187.4 21.6001 188.2 21.6001V22.4001C186.9 22.4001 186.6 22.6001 186.6 23.7001V25.8001C186.6 26.4001 186.6 26.9001 187.1 27.1001V27.7001C185.7 28.2001 183.6 28.8001 181.3 28.8001C176.7 28.8001 173.5 25.1001 173.5 20.6001C173.5 15.4001 177 12.1001 181.5 12.1001C182.2 12.1001 182.8 12.2001 184.2 12.4001C184.6 12.5001 186.4 12.9001 186.8 13.0001L186.9 16.8001Z" fill="#45413F"/>
<path d="M193.1 14.8001C193.1 13.6001 192.3 13.4001 191 13.4001V12.6001C192.1 12.6001 193.2 12.7001 194.3 12.7001C195.4 12.7001 196.6 12.7001 197.7 12.6001V13.4001C196.5 13.4001 195.6 13.5001 195.6 14.8001V25.6001C195.6 27.0001 196 27.4001 198.2 27.4001C200.7 27.4001 201.3 26.9001 202.4 24.3001H203.1L202.3 28.4001C201.6 28.4001 197.9 28.3001 197.1 28.3001C195.1 28.3001 193.1 28.3001 191.2 28.4001V27.6001C192.5 27.6001 193.3 27.4001 193.3 26.2001V14.8001H193.1Z" fill="#45413F"/>
<path d="M212.4 27.5001H212.7C213.4 27.5001 214.1 27.3001 214.1 26.7001C214.1 26.3001 214 26.1001 213.9 25.6001L212.9 22.3001H208.1L207.5 24.4001C207.4 24.8001 207 25.9001 207 26.5001C207 27.3001 207.9 27.4001 208.5 27.4001H208.8V28.2001C207.8 28.2001 206.9 28.1001 205.9 28.1001C205.2 28.1001 204.3 28.1001 203.6 28.2001V27.4001C205 27.4001 205.5 26.7001 205.7 26.0001L209.7 14.1001C209.8 13.7001 210 13.3001 210 13.0001C210 12.8001 210 12.7001 209.9 12.5001L212.1 11.6001L216.3 25.4001C216.8 26.9001 217.2 27.3001 218.7 27.3001V28.1001C217.6 28.1001 216.6 28.0001 215.5 28.0001C214.5 28.0001 213.4 28.0001 212.3 28.1001V27.5001H212.4ZM210.6 14.8001L208.5 21.4001H212.7L210.6 14.8001Z" fill="#45413F"/>
<path d="M220.4 24.5002H221.1C221.7 26.8002 222.5 28.0002 224.6 28.0002C226.8 28.0002 227.3 26.3002 227.3 25.3002C227.3 24.0002 226.6 23.1002 224.8 22.0002C221.7 20.1002 220.9 18.9002 220.9 16.4002C220.9 14.2002 222.6 12.2002 225 12.2002C226.1 12.2002 227.4 12.5002 228.3 12.5002L228.6 15.7002H228C227.7 14.4002 227.1 13.0002 225.2 13.0002C223.7 13.0002 222.7 14.1002 222.7 15.6002C222.7 17.2002 223.1 17.8002 225.8 19.3002C228.8 21.0002 229.4 22.4002 229.4 24.4002C229.4 27.0002 227.3 28.9002 224.4 28.9002C223.1 28.9002 222 28.6002 220.9 28.0002L220.4 24.5002Z" fill="#45413F"/>
<path d="M22.1 42H21.3C20.4 37.4 17.1 35.6 13.3 35.6C7.2 35.6 3.8 41.7 3.8 48.1C3.8 54.9 7.4 61.7 13.6 61.7C16.3 61.7 17.7 60.6 18.2 60.2V54.3C18.2 51.4 16.9 51.4 15.1 51.4V50.4C16.7 50.4 18.3 50.5 19.8 50.5C21.4 50.5 22.9 50.5 24 50.4V51.4C22.9 51.4 21.6 51.4 21.6 54.3V59.4L22.1 60V60.7C19.3 61.8 16.2 62.9 13.2 62.9C3.5 63 0 54.4 0 48.8C0 40.6 5.6 34.5 12.7 34.5C15.7 34.5 18.7 35.4 21.5 36.6L22.1 42Z" fill="#FAAF42"/>
<path d="M36.3 42.7002C41.8 42.7002 45.5 47.0002 45.5 52.7002C45.5 57.6002 42 62.9002 36.1 62.9002C30.5 62.9002 26.7 58.7002 26.7 52.7002C26.7 46.6002 31.2 42.7002 36.3 42.7002ZM36.4 61.6002C40.7 61.6002 42.1 57.3002 42.1 53.0002C42.1 47.5002 39.4 43.9002 35.8 43.9002C31.7 43.9002 30.1 48.0002 30.1 52.3002C30 57.6002 32.8 61.6002 36.4 61.6002Z" fill="#FAAF42"/>
<path d="M50.8 45.9002C50.8 44.4002 49.9 44.2002 48.3 44.2002V43.2002C49.6 43.2002 50.9 43.3002 52.2 43.3002C53.6 43.3002 55 43.3002 56.3 43.2002V44.2002C54.8 44.2002 53.8 44.3002 53.8 45.9002V59.0002C53.8 60.6002 54.2 61.2002 56.9 61.2002C59.9 61.2002 60.7 60.7002 62 57.5002H62.9L61.9 62.5002C61 62.5002 56.6 62.4002 55.6 62.4002C53.2 62.4002 50.8 62.4002 48.4 62.5002V61.5002C50 61.5002 50.9 61.3002 50.9 59.8002L50.8 45.9002Z" fill="#FAAF42"/>
<path d="M66.1 45.9002C66.1 44.4002 65.2 44.2002 63.6 44.2002V43.2002C64.9 43.2002 66.3 43.3002 67.7 43.3002C69.4 43.3002 71.2 43.2002 72.9 43.2002C79.8 43.2002 82.7 48.1002 82.7 52.6002C82.7 60.0002 77.7 62.4002 72.7 62.4002C71.2 62.4002 69.5 62.3002 68.1 62.3002C66.6 62.3002 65.1 62.3002 63.5 62.4002V61.4002C65.1 61.4002 66 61.2002 66 59.7002L66.1 45.9002ZM69.1 58.7002C69.1 61.0002 70.2 61.2002 71.8 61.2002C75.1 61.2002 79.4 60.0002 79.4 53.1002C79.4 48.3002 77.4 44.5002 72.9 44.5002C71.9 44.5002 70.2 44.6002 69.1 44.6002V58.7002Z" fill="#FAAF42"/>
<path d="M104.2 43.2001C105 43.2001 105.8 43.3001 106.6 43.3001C107.5 43.3001 108.5 43.3001 109.4 43.2001V44.2001C107.8 44.2001 107 44.6001 107 45.5001C107 46.1001 107 46.7001 107.1 47.7001L107.4 57.9001C107.5 61.2001 108 61.4001 110.1 61.4001V62.4001C108.8 62.4001 107.4 62.3001 106.1 62.3001C104.8 62.3001 103.3 62.3001 102 62.4001V61.4001C103.8 61.4001 104.5 61.2001 104.5 59.4001C104.5 56.5001 104.3 52.0001 104.1 46.4001H104L97.5 62.6001H97L90.5 47.0001H90.4C90.2 50.8001 89.8 57.9001 89.8 59.1001C89.8 60.7001 90.7 61.3001 92.4 61.3001V62.3001C91.4 62.3001 90.4 62.2001 89.4 62.2001C88.3 62.2001 87 62.2001 85.9 62.3001V61.3001C88.2 61.3001 88.5 60.4001 88.6 58.7001L89.2 48.5001C89.3 47.0001 89.3 46.2001 89.3 45.2001C89.3 44.2001 88.8 44.1001 86.8 44.1001V43.1001C87.8 43.1001 88.8 43.2001 89.8 43.2001C90.5 43.2001 91.3 43.1001 92 43.1001L98.2 57.6001L104.2 43.2001Z" fill="#FAAF42"/>
<path d="M122.4 61.4002H122.8C123.7 61.4002 124.5 61.1002 124.5 60.5002C124.5 60.0002 124.4 59.7002 124.2 59.2002L122.9 55.2002H117.1L116.3 57.8002C116.2 58.3002 115.7 59.6002 115.7 60.4002C115.7 61.3002 116.8 61.5002 117.5 61.5002H117.9V62.5002C116.7 62.5002 115.6 62.4002 114.4 62.4002C113.5 62.4002 112.5 62.4002 111.6 62.5002V61.5002C113.3 61.5002 113.9 60.7002 114.1 59.9002L119 45.6002C119.2 45.1002 119.3 44.7002 119.3 44.3002C119.3 44.1002 119.3 43.9002 119.2 43.8002L121.8 42.7002L126.9 59.3002C127.4 61.1002 128 61.6002 129.8 61.6002V62.6002C128.5 62.6002 127.2 62.5002 126 62.5002C124.8 62.5002 123.4 62.5002 122.2 62.6002V61.4002H122.4ZM120.1 46.0002L117.5 53.9002H122.5L120.1 46.0002Z" fill="#FAAF42"/>
<path d="M134.2 46.0998C134.2 44.2998 132.1 44.2998 131.5 44.2998V43.2998C132.3 43.2998 133.1 43.3998 133.9 43.3998C134.6 43.3998 135.5 43.3998 136.2 43.2998L146.6 57.3998V46.9998C146.6 44.2998 145.7 44.2998 143.9 44.2998V43.2998C145 43.2998 146.2 43.3998 147.3 43.3998C148.3 43.3998 149.4 43.3998 150.4 43.2998V44.2998C148.8 44.2998 148 44.3998 148 46.2998V62.8998H147.2L135.6 47.3998V57.8998C135.6 60.6998 135.9 61.3998 138.5 61.3998V62.3998C137.4 62.3998 136.1 62.2998 134.9 62.2998C133.7 62.2998 132.6 62.2998 131.4 62.3998V61.3998C134.2 61.3998 134.2 59.7998 134.2 56.9998V46.0998Z" fill="#FAAF42"/>
<path d="M168.5 58.6C168.5 61.3 169.8 61.4 171.6 61.4V62.4C169.9 62.4 168.3 62.3 166.7 62.3C165.2 62.3 163.6 62.3 161.8 62.4V61.4C164.8 61.4 165.1 60.8 165.1 57V39.5C165.1 36.3 164.6 36.1 161.8 36V35C164.2 35 166.7 35.1 169.2 35.1C172.3 35.1 175.5 35.1 178.5 35L178.7 40.5L177.9 40.7C177.6 37.4 176.1 36.3 172.4 36.3H168.4V47.5H172.4C175.2 47.5 175.4 47 175.9 44.2H176.7C176.6 44.9 176.6 47.1 176.6 48.5C176.6 49.8 176.7 51.6 176.7 52.7H176C175.6 50 175.6 49.1 172.5 49.1H168.3V58.6H168.5Z" fill="#45413F"/>
<path d="M183.5 45.6002C183.5 44.2002 182.1 44.2002 181.1 44.2002V43.2002C182.4 43.2002 183.7 43.3002 185 43.3002C186.2 43.3002 187.5 43.3002 188.6 43.2002V44.2002C187.6 44.2002 186.4 44.2002 186.4 45.5002V56.2002C186.4 59.8002 188.4 61.3002 191 61.3002C195.8 61.3002 195.8 57.0002 195.8 53.1002V48.5002C195.8 44.6002 195.5 44.3002 193.2 44.3002V43.3002C194.3 43.3002 195.5 43.4002 196.6 43.4002C197.6 43.4002 198.5 43.4002 199.4 43.3002V44.3002C198.2 44.3002 197.3 44.5002 197.3 47.0002V55.0002C197.3 59.5002 195.4 63.0002 190.4 63.0002C186 63.0002 183.4 61.1002 183.4 56.5002L183.5 45.6002Z" fill="#45413F"/>
<path d="M204.6 46.0998C204.6 44.2998 202.5 44.2998 201.9 44.2998V43.2998C202.7 43.2998 203.5 43.3998 204.3 43.3998C205 43.3998 205.9 43.3998 206.6 43.2998L217 57.1998V46.9998C217 44.2998 216.1 44.2998 214.3 44.2998V43.2998C215.4 43.2998 216.6 43.3998 217.7 43.3998C218.7 43.3998 219.8 43.3998 220.8 43.2998V44.2998C219.2 44.2998 218.4 44.3998 218.4 46.2998V62.8998H217.6L206 47.3998V57.8998C206 60.6998 206.3 61.3998 208.9 61.3998V62.3998C207.8 62.3998 206.5 62.2998 205.3 62.2998C204.1 62.2998 203 62.2998 201.8 62.3998V61.3998C204.6 61.3998 204.6 59.7998 204.6 56.9998V46.0998Z" fill="#45413F"/>
<path d="M225.9 45.9002C225.9 44.4002 225 44.2002 223.4 44.2002V43.2002C224.7 43.2002 226.1 43.3002 227.5 43.3002C229.2 43.3002 231 43.2002 232.7 43.2002C239.6 43.2002 242.5 48.1002 242.5 52.6002C242.5 60.0002 237.5 62.4002 232.5 62.4002C231 62.4002 229.3 62.3002 227.9 62.3002C226.4 62.3002 224.9 62.3002 223.3 62.4002V61.4002C224.9 61.4002 225.8 61.2002 225.8 59.7002V45.9002H225.9ZM228.9 58.7002C228.9 61.0002 230 61.2002 231.6 61.2002C234.9 61.2002 239.2 60.0002 239.2 53.1002C239.2 48.3002 237.2 44.5002 232.7 44.5002C231.7 44.5002 230 44.6002 228.9 44.6002V58.7002Z" fill="#45413F"/>
</g>
<defs>
<clipPath id="clip0_4121_15079">
<rect width="242.5" height="63" fill="white"/>
</clipPath>
</defs>
</svg>
