<svg width="469" height="30" viewBox="0 0 469 30" fill="none" xmlns="http://www.w3.org/2000/svg">
<path d="M7.264 24.9999V5.5759H0.447998V1.3519H18.496V5.5759H11.68V24.9999H7.264Z" fill="black"/>
<path d="M25.2095 24.9999H21.0495V0.679897H25.1135V9.8639C25.6255 9.05323 26.3722 8.40256 27.3535 7.9119C28.3348 7.42123 29.4228 7.1759 30.6175 7.1759C32.4735 7.1759 34.0628 7.80523 35.3855 9.0639C36.7082 10.3226 37.3695 12.1039 37.3695 14.4079V24.9999H33.2095V15.5279C33.2095 14.0986 32.8682 12.9892 32.1855 12.1999C31.5028 11.3892 30.5748 10.9839 29.4015 10.9839C28.1642 10.9839 27.1508 11.4106 26.3615 12.2639C25.5935 13.1172 25.2095 14.2266 25.2095 15.5919V24.9999Z" fill="black"/>
<path d="M58.0972 15.9439C58.0972 16.4986 58.0546 17.1172 57.9692 17.7999H44.7212C44.9986 19.0372 45.5852 20.0186 46.4812 20.7439C47.3986 21.4479 48.5826 21.7999 50.0332 21.7999C52.1452 21.7999 54.0546 21.2026 55.7612 20.0079L57.4252 22.9839C55.2706 24.5839 52.7532 25.3839 49.8732 25.3839C48.2946 25.3839 46.8866 25.1279 45.6493 24.6159C44.4332 24.1039 43.4519 23.4212 42.7052 22.5679C41.9586 21.6932 41.3932 20.7332 41.0092 19.6879C40.6466 18.6212 40.4652 17.4906 40.4652 16.2959C40.4652 13.6506 41.2972 11.4852 42.9612 9.7999C44.6466 8.0719 46.8226 7.2079 49.4892 7.2079C51.9852 7.2079 54.0439 7.99723 55.6652 9.5759C57.2866 11.1332 58.0972 13.2559 58.0972 15.9439ZM49.4892 10.6959C48.2732 10.6959 47.2386 11.0479 46.3853 11.7519C45.5533 12.4559 44.9986 13.4159 44.7212 14.6319H54.0012C53.8306 13.4159 53.3292 12.4559 52.4972 11.7519C51.6866 11.0479 50.6839 10.6959 49.4892 10.6959Z" fill="black"/>
<path d="M69.845 1.3519H78.389C81.077 1.3519 83.1143 2.10923 84.501 3.6239C85.8663 5.11723 86.549 6.93056 86.549 9.0639C86.549 11.2399 85.8343 13.0426 84.405 14.4719C82.997 15.9226 80.8743 16.6479 78.037 16.6479H74.197V24.9999H69.845V1.3519ZM74.197 12.6479H78.165C79.4023 12.6479 80.3623 12.3066 81.045 11.6239C81.749 10.9199 82.101 10.0452 82.101 8.9999C82.101 7.95457 81.7703 7.10123 81.109 6.4399C80.469 5.75723 79.5943 5.4159 78.485 5.4159H74.197V12.6479Z" fill="black"/>
<path d="M93.6157 24.9999H89.4557V7.6239H93.4557V10.0239C94.5224 8.12523 96.1331 7.1759 98.2878 7.1759C99.0131 7.1759 99.7064 7.29323 100.368 7.5279L100.016 11.5279C99.2691 11.2932 98.5971 11.1759 97.9997 11.1759C96.6557 11.1759 95.5891 11.6346 94.7998 12.5519C94.0104 13.4479 93.6157 14.7706 93.6157 16.5199V24.9999Z" fill="black"/>
<path d="M118.753 15.9439C118.753 16.4986 118.711 17.1172 118.625 17.7999H105.377C105.655 19.0372 106.241 20.0186 107.137 20.7439C108.055 21.4479 109.239 21.7999 110.689 21.7999C112.801 21.7999 114.711 21.2026 116.417 20.0079L118.081 22.9839C115.927 24.5839 113.409 25.3839 110.529 25.3839C108.951 25.3839 107.543 25.1279 106.305 24.6159C105.089 24.1039 104.108 23.4212 103.361 22.5679C102.615 21.6932 102.049 20.7332 101.665 19.6879C101.303 18.6212 101.121 17.4906 101.121 16.2959C101.121 13.6506 101.954 11.4852 103.618 9.7999C105.303 8.0719 107.479 7.2079 110.146 7.2079C112.642 7.2079 114.7 7.99723 116.321 9.5759C117.943 11.1332 118.753 13.2559 118.753 15.9439ZM110.146 10.6959C108.93 10.6959 107.895 11.0479 107.041 11.7519C106.209 12.4559 105.655 13.4159 105.377 14.6319H114.658C114.487 13.4159 113.985 12.4559 113.153 11.7519C112.343 11.0479 111.34 10.6959 110.146 10.6959Z" fill="black"/>
<path d="M126.147 24.9999H121.987V7.6239H126.083V10.0559C126.552 9.1599 127.267 8.4559 128.227 7.9439C129.187 7.4319 130.296 7.1759 131.555 7.1759C133.454 7.1759 135.064 7.80523 136.387 9.0639C137.71 10.3226 138.371 12.1039 138.371 14.4079V24.9999H134.179V15.5599C134.179 14.1306 133.838 13.0106 133.155 12.1999C132.472 11.3892 131.544 10.9839 130.371 10.9839C129.134 10.9839 128.12 11.4212 127.331 12.2959C126.542 13.1492 126.147 14.2586 126.147 15.6239V24.9999Z" fill="black"/>
<path d="M153.15 20.7119L154.462 23.9759C153.097 24.9359 151.422 25.4159 149.438 25.4159C145.47 25.4159 143.486 23.1546 143.486 18.6319V11.1439H140.606V7.6239H143.55V1.4799H147.678V7.6239H153.503V11.1439H147.678V18.4719C147.678 20.5626 148.521 21.6079 150.206 21.6079C151.188 21.6079 152.169 21.3092 153.15 20.7119Z" fill="black"/>
<path d="M158.882 5.5439C158.114 5.5439 157.474 5.29856 156.962 4.8079C156.45 4.31723 156.195 3.6879 156.195 2.9199C156.195 2.17323 156.45 1.55456 156.962 1.0639C157.496 0.551898 158.136 0.295898 158.882 0.295898C159.629 0.295898 160.248 0.551898 160.738 1.0639C161.25 1.55456 161.507 2.17323 161.507 2.9199C161.507 3.6879 161.25 4.31723 160.738 4.8079C160.248 5.29856 159.629 5.5439 158.882 5.5439ZM160.93 7.6239V24.9999H156.738V7.6239H160.93Z" fill="black"/>
<path d="M173.337 25.3839C170.67 25.3839 168.462 24.5306 166.713 22.8239C165.006 21.1172 164.153 18.9412 164.153 16.2959C164.153 13.6506 165.017 11.4746 166.745 9.7679C168.494 8.06123 170.734 7.2079 173.465 7.2079C175.257 7.2079 176.867 7.63456 178.297 8.4879C179.747 9.3199 180.825 10.4826 181.529 11.9759L178.137 13.7999C177.027 11.9652 175.491 11.0479 173.529 11.0479C172.035 11.0479 170.787 11.5492 169.785 12.5519C168.803 13.5332 168.313 14.7812 168.313 16.2959C168.313 17.7892 168.793 19.0372 169.753 20.0399C170.713 21.0426 171.929 21.5439 173.401 21.5439C174.361 21.5439 175.267 21.2986 176.121 20.8079C176.995 20.2959 177.646 19.6346 178.073 18.8239L181.465 20.8079C180.697 22.2159 179.587 23.3359 178.137 24.1679C176.707 24.9786 175.107 25.3839 173.337 25.3839Z" fill="black"/>
<path d="M200.972 15.9439C200.972 16.4986 200.93 17.1172 200.844 17.7999H187.596C187.874 19.0372 188.46 20.0186 189.356 20.7439C190.274 21.4479 191.458 21.7999 192.908 21.7999C195.02 21.7999 196.93 21.2026 198.636 20.0079L200.3 22.9839C198.146 24.5839 195.628 25.3839 192.748 25.3839C191.17 25.3839 189.762 25.1279 188.524 24.6159C187.308 24.1039 186.327 23.4212 185.58 22.5679C184.834 21.6932 184.268 20.7332 183.884 19.6879C183.522 18.6212 183.34 17.4906 183.34 16.2959C183.34 13.6506 184.172 11.4852 185.836 9.7999C187.522 8.0719 189.698 7.2079 192.364 7.2079C194.86 7.2079 196.919 7.99723 198.54 9.5759C200.162 11.1332 200.972 13.2559 200.972 15.9439ZM192.364 10.6959C191.148 10.6959 190.114 11.0479 189.26 11.7519C188.428 12.4559 187.874 13.4159 187.596 14.6319H196.876C196.706 13.4159 196.204 12.4559 195.372 11.7519C194.562 11.0479 193.559 10.6959 192.364 10.6959Z" fill="black"/>
<path d="M217.072 24.9999H212.72V1.3519H228.176V5.5119H217.072V11.2079H226.8V15.3679H217.072V24.9999Z" fill="black"/>
<path d="M229.714 16.2959C229.714 13.7359 230.579 11.5812 232.307 9.8319C234.077 8.06123 236.306 7.1759 238.994 7.1759C241.704 7.1759 243.922 8.06123 245.65 9.8319C247.4 11.5812 248.275 13.7359 248.275 16.2959C248.275 18.8986 247.4 21.0746 245.65 22.8239C243.922 24.5732 241.704 25.4479 238.994 25.4479C236.285 25.4479 234.056 24.5732 232.307 22.8239C230.579 21.0746 229.714 18.8986 229.714 16.2959ZM244.083 16.2959C244.083 14.8239 243.592 13.5866 242.611 12.5839C241.608 11.5599 240.402 11.0479 238.994 11.0479C237.586 11.0479 236.381 11.5599 235.378 12.5839C234.397 13.5866 233.906 14.8239 233.906 16.2959C233.906 17.7892 234.397 19.0372 235.378 20.0399C236.381 21.0639 237.586 21.5759 238.994 21.5759C240.402 21.5759 241.608 21.0639 242.611 20.0399C243.592 19.0372 244.083 17.7892 244.083 16.2959Z" fill="black"/>
<path d="M259.165 25.4159C256.733 25.4159 254.814 24.7439 253.406 23.3999C252.019 22.0346 251.326 20.1466 251.326 17.7359V7.6239H255.518V17.7359C255.518 18.9092 255.838 19.8479 256.478 20.5519C257.139 21.2559 258.035 21.6079 259.165 21.6079C260.317 21.6079 261.213 21.2559 261.853 20.5519C262.515 19.8479 262.845 18.9092 262.845 17.7359V7.6239H267.038V17.7359C267.038 20.1466 266.334 22.0346 264.926 23.3999C263.539 24.7439 261.619 25.4159 259.165 25.4159Z" fill="black"/>
<path d="M275.21 24.9999H271.049V7.6239H275.146V10.0559C275.615 9.1599 276.329 8.4559 277.289 7.9439C278.249 7.4319 279.359 7.1759 280.617 7.1759C282.516 7.1759 284.127 7.80523 285.449 9.0639C286.772 10.3226 287.434 12.1039 287.434 14.4079V24.9999H283.241V15.5599C283.241 14.1306 282.9 13.0106 282.217 12.1999C281.535 11.3892 280.607 10.9839 279.434 10.9839C278.196 10.9839 277.183 11.4212 276.393 12.2959C275.604 13.1492 275.21 14.2586 275.21 15.6239V24.9999Z" fill="black"/>
<path d="M304.577 9.8319V0.679897H308.737V24.9999H304.672V22.7279C303.222 24.5199 301.377 25.4159 299.137 25.4159C296.641 25.4159 294.582 24.5519 292.961 22.8239C291.318 21.0532 290.496 18.8772 290.496 16.2959C290.496 13.7572 291.318 11.6026 292.961 9.8319C294.625 8.08256 296.672 7.2079 299.104 7.2079C301.323 7.2079 303.147 8.08256 304.577 9.8319ZM299.712 21.6079C301.227 21.6079 302.454 21.0959 303.392 20.0719C304.331 19.0266 304.801 17.7679 304.801 16.2959C304.801 14.8239 304.321 13.5759 303.361 12.5519C302.443 11.5279 301.227 11.0159 299.712 11.0159C298.198 11.0159 296.982 11.5279 296.064 12.5519C295.126 13.5972 294.656 14.8452 294.656 16.2959C294.656 17.7679 295.126 19.0266 296.064 20.0719C296.982 21.0959 298.198 21.6079 299.712 21.6079Z" fill="black"/>
<path d="M326.331 9.8319V7.6239H330.299V24.9999H326.331V22.8559C324.816 24.5626 322.928 25.4159 320.667 25.4159C318.171 25.4159 316.112 24.5412 314.491 22.7919C312.87 21.0426 312.059 18.8559 312.059 16.2319C312.059 13.6079 312.87 11.4532 314.491 9.7679C316.134 8.06123 318.192 7.2079 320.667 7.2079C322.886 7.2079 324.774 8.08256 326.331 9.8319ZM326.427 16.2959C326.427 14.8239 325.947 13.5759 324.987 12.5519C324.027 11.5279 322.8 11.0159 321.307 11.0159C319.814 11.0159 318.587 11.5279 317.627 12.5519C316.688 13.5972 316.219 14.8452 316.219 16.2959C316.219 17.7679 316.688 19.0266 317.627 20.0719C318.587 21.0959 319.814 21.6079 321.307 21.6079C322.8 21.6079 324.027 21.0959 324.987 20.0719C325.947 19.0479 326.427 17.7892 326.427 16.2959Z" fill="black"/>
<path d="M345.526 20.7119L346.837 23.9759C345.472 24.9359 343.798 25.4159 341.814 25.4159C337.846 25.4159 335.862 23.1546 335.862 18.6319V11.1439H332.982V7.6239H335.926V1.4799H340.053V7.6239H345.878V11.1439H340.053V18.4719C340.053 20.5626 340.896 21.6079 342.582 21.6079C343.563 21.6079 344.544 21.3092 345.526 20.7119Z" fill="black"/>
<path d="M351.258 5.5439C350.49 5.5439 349.849 5.29856 349.337 4.8079C348.825 4.31723 348.569 3.6879 348.569 2.9199C348.569 2.17323 348.825 1.55456 349.337 1.0639C349.871 0.551898 350.511 0.295898 351.258 0.295898C352.004 0.295898 352.623 0.551898 353.113 1.0639C353.625 1.55456 353.882 2.17323 353.882 2.9199C353.882 3.6879 353.625 4.31723 353.113 4.8079C352.623 5.29856 352.004 5.5439 351.258 5.5439ZM353.306 7.6239V24.9999H349.113V7.6239H353.306Z" fill="black"/>
<path d="M356.496 16.2959C356.496 13.7359 357.36 11.5812 359.088 9.8319C360.858 8.06123 363.088 7.1759 365.776 7.1759C368.485 7.1759 370.704 8.06123 372.432 9.8319C374.181 11.5812 375.056 13.7359 375.056 16.2959C375.056 18.8986 374.181 21.0746 372.432 22.8239C370.704 24.5732 368.485 25.4479 365.776 25.4479C363.066 25.4479 360.837 24.5732 359.088 22.8239C357.36 21.0746 356.496 18.8986 356.496 16.2959ZM370.864 16.2959C370.864 14.8239 370.373 13.5866 369.392 12.5839C368.389 11.5599 367.184 11.0479 365.776 11.0479C364.368 11.0479 363.162 11.5599 362.16 12.5839C361.178 13.5866 360.688 14.8239 360.688 16.2959C360.688 17.7892 361.178 19.0372 362.16 20.0399C363.162 21.0639 364.368 21.5759 365.776 21.5759C367.184 21.5759 368.389 21.0639 369.392 20.0399C370.373 19.0372 370.864 17.7892 370.864 16.2959Z" fill="black"/>
<path d="M382.491 24.9999H378.331V7.6239H382.427V10.0559C382.896 9.1599 383.611 8.4559 384.571 7.9439C385.531 7.4319 386.64 7.1759 387.899 7.1759C389.797 7.1759 391.408 7.80523 392.731 9.0639C394.053 10.3226 394.715 12.1039 394.715 14.4079V24.9999H390.523V15.5599C390.523 14.1306 390.181 13.0106 389.499 12.1999C388.816 11.3892 387.888 10.9839 386.715 10.9839C385.477 10.9839 384.464 11.4212 383.675 12.2959C382.885 13.1492 382.491 14.2586 382.491 15.6239V24.9999Z" fill="black"/>
<path d="M400.658 20.6479C401.426 20.6479 402.066 20.9252 402.578 21.4799C403.09 22.0132 403.346 22.6959 403.346 23.5279C403.346 25.7892 401.778 27.9226 398.642 29.9279L397.394 28.2319L398.674 27.2079C399.442 26.6319 400.007 26.0132 400.37 25.3519H400.274C399.676 25.3519 399.164 25.1386 398.738 24.7119C398.311 24.2639 398.098 23.7306 398.098 23.1119C398.098 22.4079 398.343 21.8212 398.834 21.3519C399.346 20.8826 399.954 20.6479 400.658 20.6479Z" fill="black"/>
<path d="M415.439 24.9999V1.3519H419.823V24.9999H415.439Z" fill="black"/>
<path d="M428.71 24.9999H424.549V7.6239H428.646V10.0559C429.115 9.1599 429.829 8.4559 430.789 7.9439C431.749 7.4319 432.859 7.1759 434.117 7.1759C436.016 7.1759 437.627 7.80523 438.949 9.0639C440.272 10.3226 440.934 12.1039 440.934 14.4079V24.9999H436.741V15.5599C436.741 14.1306 436.4 13.0106 435.717 12.1999C435.035 11.3892 434.107 10.9839 432.934 10.9839C431.696 10.9839 430.683 11.4212 429.893 12.2959C429.104 13.1492 428.71 14.2586 428.71 15.6239V24.9999Z" fill="black"/>
<path d="M453.181 25.3839C450.514 25.3839 448.306 24.5306 446.556 22.8239C444.85 21.1172 443.996 18.9412 443.996 16.2959C443.996 13.6506 444.861 11.4746 446.589 9.7679C448.338 8.06123 450.578 7.2079 453.309 7.2079C455.101 7.2079 456.711 7.63456 458.141 8.4879C459.591 9.3199 460.668 10.4826 461.372 11.9759L457.98 13.7999C456.871 11.9652 455.335 11.0479 453.372 11.0479C451.879 11.0479 450.631 11.5492 449.629 12.5519C448.647 13.5332 448.156 14.7812 448.156 16.2959C448.156 17.7892 448.636 19.0372 449.596 20.0399C450.556 21.0426 451.773 21.5439 453.245 21.5439C454.205 21.5439 455.111 21.2986 455.965 20.8079C456.839 20.2959 457.49 19.6346 457.917 18.8239L461.309 20.8079C460.541 22.2159 459.431 23.3359 457.98 24.1679C456.551 24.9786 454.951 25.3839 453.181 25.3839Z" fill="black"/>
<path d="M465.999 25.5119C465.295 25.5119 464.697 25.2772 464.207 24.8079C463.716 24.3172 463.47 23.7199 463.47 23.0159C463.47 22.3332 463.716 21.7572 464.207 21.2879C464.697 20.8186 465.295 20.5839 465.999 20.5839C466.681 20.5839 467.257 20.8186 467.727 21.2879C468.196 21.7572 468.431 22.3332 468.431 23.0159C468.431 23.7199 468.196 24.3172 467.727 24.8079C467.257 25.2772 466.681 25.5119 465.999 25.5119Z" fill="black"/>
</svg>
