<svg width="1440" height="521" viewBox="0 0 1440 521" fill="none" xmlns="http://www.w3.org/2000/svg">
<g clip-path="url(#clip0_4347_52053)">
<rect width="1440" height="521" fill="#73E3F2"/>
<path d="M1386.77 455.398L1386.92 455.611L1412.46 492.1L1437.91 455.612L1438.06 455.398H1452.38V528.5H1433.33V494.924L1416.19 518.925L1416.04 519.134H1408.7L1408.55 518.925L1391.4 494.923V528.5H1372.55V455.398H1386.77Z" fill="#1C1C1C" stroke="black"/>
<path d="M1319.9 454.13C1330.75 454.13 1339.86 457.787 1347.18 465.106C1354.49 472.423 1358.15 481.397 1358.15 491.998C1358.15 502.535 1354.49 511.476 1347.18 518.792C1339.92 526.047 1330.85 529.671 1319.99 529.671C1309.14 529.671 1300 526.047 1292.62 518.795L1292.61 518.792C1285.36 511.54 1281.73 502.597 1281.73 491.998C1281.73 481.397 1285.39 472.423 1292.71 465.106C1300.03 457.788 1309.1 454.13 1319.9 454.13ZM1319.9 473.18C1314.76 473.18 1310.43 474.981 1306.88 478.592L1306.88 478.595C1303.34 482.137 1301.56 486.56 1301.56 491.9C1301.56 497.307 1303.34 501.762 1306.88 505.304C1310.43 508.85 1314.76 510.621 1319.9 510.621C1325.1 510.621 1329.46 508.849 1333.01 505.304C1336.54 501.765 1338.32 497.314 1338.32 491.912L1338.31 491.401C1338.08 486.157 1336.24 481.868 1332.81 478.5L1332.81 478.497C1329.26 474.949 1324.97 473.18 1319.9 473.18Z" fill="#1C1C1C" stroke="black"/>
<path d="M1242.02 454.13C1248.47 454.13 1254.42 455.412 1259.89 457.981C1265.42 460.549 1269.91 464.079 1273.35 468.571L1273.61 468.91L1273.31 469.22L1261.7 481.415L1261.34 481.799L1260.98 481.412C1255.45 475.501 1249.53 472.595 1243.19 472.595C1237.79 472.595 1233.27 474.431 1229.6 478.106C1225.99 481.842 1224.18 486.494 1224.18 492.096C1224.18 497.564 1225.99 502.117 1229.59 505.789L1229.94 506.122C1233.55 509.512 1237.93 511.207 1243.1 511.207C1250.08 511.207 1256.13 508.198 1261.25 502.115L1261.6 501.707L1261.98 502.077L1274.08 513.687L1274.4 513.996L1274.13 514.35C1270.76 518.776 1266.24 522.432 1260.59 525.323L1260.59 525.324C1254.99 528.16 1248.76 529.573 1241.93 529.573C1231.27 529.573 1222.33 526.115 1215.14 519.189L1215.14 519.187C1207.94 512.189 1204.35 503.176 1204.35 492.193C1204.35 481.146 1207.97 472.037 1215.23 464.909C1222.48 457.722 1231.43 454.13 1242.02 454.13Z" fill="#1C1C1C" stroke="black"/>
<path d="M1154.61 455.398L1154.75 455.691L1166.88 482.319L1179.4 455.685L1179.54 455.398H1202.05L1201.66 456.132L1176.45 503.926V528.5H1157.3V503.926L1132.38 456.13L1132 455.398H1154.61Z" fill="#1C1C1C" stroke="black"/>
<path d="M1126.5 455.398V473.961H1106.6V528.5H1087.16V473.961H1067.15V455.398H1126.5Z" fill="#1C1C1C" stroke="black"/>
<path d="M1054.79 455.398V528.5H1035.45V455.398H1054.79Z" fill="#1C1C1C" stroke="black"/>
<path d="M965.767 455.398L965.916 455.574L998.403 493.665V455.398H1017.36V528.5H1002.87L1002.72 528.324L970.816 490.725V528.5H951.962V455.398H965.767Z" fill="#1C1C1C" stroke="black"/>
<path d="M893.423 455.398V499.706C893.423 503.525 894.408 506.374 896.307 508.334C898.275 510.234 900.933 511.207 904.338 511.207C907.678 511.207 910.27 510.202 912.175 508.236L912.18 508.23C914.141 506.269 915.156 503.453 915.156 499.706V455.398H934.596V499.999C934.596 505.19 933.741 509.779 932.019 513.755L932.02 513.756C930.366 517.659 928.074 520.787 925.139 523.123L925.133 523.127C922.225 525.374 919.018 527.06 915.516 528.183L915.508 528.186C912.01 529.242 908.285 529.768 904.338 529.768C900.391 529.768 896.667 529.242 893.169 528.186L893.157 528.182C889.721 527.059 886.517 525.374 883.548 523.131L883.538 523.123C880.604 520.789 878.281 517.662 876.562 513.761L876.558 513.753C874.901 509.778 874.08 505.189 874.08 499.999V455.398H893.423Z" fill="#1C1C1C" stroke="black"/>
<path d="M791.119 455.398L791.269 455.611L816.81 492.1L842.257 455.612L842.406 455.398H856.729V528.5H837.679V494.924L820.536 518.925L820.386 519.134H813.042L812.893 518.925L795.749 494.923V528.5H776.895V455.398H791.119Z" fill="#1C1C1C" stroke="black"/>
<path d="M693.151 455.398L693.301 455.611L718.843 492.099L744.289 455.612L744.438 455.398H758.761V528.5H739.711V494.924L722.568 518.925L722.418 519.134H715.074L714.925 518.925L697.781 494.923V528.5H678.927V455.398H693.151Z" fill="#1C1C1C" stroke="black"/>
<path d="M626.275 454.13C637.133 454.13 646.238 457.788 653.557 465.106C660.873 472.423 664.533 481.397 664.533 491.998C664.533 502.535 660.872 511.476 653.557 518.792C646.302 526.046 637.229 529.671 626.373 529.671C615.517 529.671 606.38 526.047 598.996 518.795L598.993 518.792C591.741 511.54 588.114 502.598 588.114 491.998C588.114 481.397 591.774 472.423 599.091 465.106C606.409 457.788 615.482 454.13 626.275 454.13ZM626.275 473.18C621.139 473.18 616.812 474.981 613.265 478.592L613.262 478.595C609.719 482.137 607.944 486.56 607.944 491.9C607.944 497.307 609.72 501.762 613.262 505.304C616.808 508.85 621.136 510.621 626.275 510.621C631.482 510.621 635.841 508.849 639.386 505.304C642.925 501.765 644.701 497.314 644.703 491.912L644.687 491.401C644.459 486.157 642.623 481.868 639.193 478.5L639.19 478.497C635.643 474.949 631.348 473.18 626.275 473.18Z" fill="#1C1C1C" stroke="black"/>
<path d="M548.403 454.13C554.845 454.13 560.804 455.412 566.273 457.981C571.804 460.549 576.294 464.079 579.729 468.571L579.988 468.91L579.694 469.22L568.084 481.415L567.719 481.799L567.356 481.412C561.831 475.501 555.906 472.595 549.574 472.595C544.173 472.595 539.651 474.431 535.976 478.106C532.369 481.842 530.561 486.494 530.561 492.096C530.561 497.564 532.367 502.117 535.973 505.789L536.319 506.122C539.93 509.512 544.306 511.207 549.477 511.207C556.464 511.207 562.51 508.198 567.632 502.115L567.976 501.707L568.36 502.077L580.459 513.687L580.78 513.996L580.511 514.35C577.142 518.776 572.624 522.432 566.974 525.323L566.972 525.324C561.367 528.16 555.141 529.573 548.306 529.573C537.649 529.573 528.708 526.115 521.519 519.189L521.517 519.187C514.32 512.189 510.731 503.176 510.73 492.193C510.73 481.145 514.353 472.036 521.612 464.908C528.865 457.722 537.806 454.13 548.403 454.13Z" fill="#1C1C1C" stroke="black"/>
<path d="M460.992 455.398L461.126 455.691L473.264 482.319L485.781 455.685L485.916 455.398H508.43L508.043 456.132L482.831 503.926V528.5H463.684V503.926L438.763 456.13L438.382 455.398H460.992Z" fill="#1C1C1C" stroke="black"/>
<path d="M432.878 455.398V473.961H412.975V528.5H393.534V473.961H373.533V455.398H432.878Z" fill="#1C1C1C" stroke="black"/>
<path d="M361.169 455.398V528.5H341.826V455.398H361.169Z" fill="#1C1C1C" stroke="black"/>
<path d="M272.146 455.398L272.296 455.574L304.783 493.665V455.398H323.736V528.5H309.247L309.098 528.324L277.196 490.725V528.5H258.342V455.398H272.146Z" fill="#1C1C1C" stroke="black"/>
<path d="M199.803 455.398V499.706C199.803 503.525 200.788 506.374 202.687 508.334C204.654 510.234 207.313 511.207 210.718 511.207C214.057 511.207 216.65 510.202 218.555 508.236L218.56 508.23C220.521 506.269 221.535 503.453 221.535 499.706V455.398H240.976V499.999C240.976 505.19 240.121 509.779 238.398 513.755C236.744 517.658 234.454 520.787 231.519 523.123L231.513 523.127C228.605 525.374 225.398 527.06 221.896 528.183L221.888 528.186C218.39 529.242 214.665 529.768 210.718 529.768C206.77 529.768 203.046 529.242 199.548 528.186L199.537 528.182C196.101 527.059 192.897 525.374 189.928 523.131L189.917 523.123V523.122C186.983 520.788 184.66 517.662 182.941 513.761L182.938 513.753C181.281 509.778 180.46 505.189 180.46 499.999V455.398H199.803Z" fill="#1C1C1C" stroke="black"/>
<path d="M97.498 455.398L97.6475 455.611L123.188 492.1L148.636 455.612L148.785 455.398H163.107V528.5H144.058V494.924L126.915 518.925L126.765 519.134H119.421L119.271 518.925L102.128 494.923V528.5H83.2734V455.398H97.498Z" fill="#1C1C1C" stroke="black"/>
<path d="M-0.46875 455.398L-0.319336 455.611L25.2217 492.1L50.6689 455.612L50.8184 455.398H65.1406V528.5H46.0908V494.924L28.9482 518.925L28.7979 519.134H21.4541L21.3047 518.925L4.16113 494.923V528.5H-14.6934V455.398H-0.46875Z" fill="#1C1C1C" stroke="black"/>
<path d="M1440.46 363.398V407.706C1440.46 411.525 1441.45 414.374 1443.35 416.334C1445.32 418.234 1447.97 419.207 1451.38 419.207C1454.72 419.207 1457.31 418.202 1459.22 416.236L1459.22 416.231C1461.18 414.27 1462.2 411.453 1462.2 407.706V363.398H1481.64V407.999C1481.64 413.19 1480.78 417.779 1479.06 421.755L1479.06 421.756C1477.41 425.659 1475.12 428.788 1472.18 431.123L1472.17 431.127C1469.27 433.374 1466.06 435.06 1462.56 436.183L1462.55 436.186C1459.05 437.242 1455.33 437.768 1451.38 437.768C1447.43 437.768 1443.71 437.242 1440.21 436.186L1440.2 436.182C1436.76 435.059 1433.56 433.374 1430.59 431.131L1430.58 431.123C1427.65 428.789 1425.32 425.662 1423.6 421.761L1423.6 421.753C1421.94 417.778 1421.12 413.189 1421.12 407.999V363.398H1440.46Z" fill="#1C1C1C" stroke="black"/>
<path d="M1338.16 363.398L1338.31 363.611L1363.85 400.1L1389.3 363.612L1389.45 363.398H1403.77V436.5H1384.72V402.924L1367.58 426.925L1367.43 427.134H1360.08L1359.93 426.925L1342.79 402.923V436.5H1323.94V363.398H1338.16Z" fill="#1C1C1C" stroke="black"/>
<path d="M1240.19 363.398L1240.34 363.611L1265.88 400.1L1291.33 363.612L1291.48 363.398H1305.8V436.5H1286.75V402.924L1269.61 426.925L1269.46 427.134H1262.12L1261.97 426.925L1244.82 402.923V436.5H1225.97V363.398H1240.19Z" fill="#1C1C1C" stroke="black"/>
<path d="M1173.32 362.13C1184.17 362.13 1193.28 365.787 1200.6 373.106C1207.92 380.423 1211.58 389.397 1211.58 399.998C1211.58 410.535 1207.92 419.476 1200.6 426.792C1193.34 434.047 1184.27 437.671 1173.42 437.671C1162.56 437.671 1153.42 434.047 1146.04 426.795L1146.04 426.792C1138.78 419.54 1135.16 410.597 1135.16 399.998C1135.16 389.397 1138.82 380.423 1146.13 373.106C1153.45 365.788 1162.52 362.13 1173.32 362.13ZM1173.32 381.18C1168.18 381.18 1163.85 382.981 1160.31 386.592L1160.3 386.595C1156.76 390.137 1154.99 394.56 1154.99 399.9C1154.99 405.307 1156.76 409.762 1160.3 413.304C1163.85 416.85 1168.18 418.621 1173.32 418.621C1178.52 418.621 1182.88 416.849 1186.43 413.304C1189.97 409.765 1191.74 405.314 1191.75 399.912L1191.73 399.401C1191.5 394.157 1189.67 389.868 1186.24 386.5L1186.23 386.497C1182.68 382.949 1178.39 381.18 1173.32 381.18Z" fill="#1C1C1C" stroke="black"/>
<path d="M1095.44 362.13C1101.89 362.13 1107.85 363.412 1113.31 365.981C1118.85 368.549 1123.34 372.079 1126.77 376.571L1127.03 376.91L1126.74 377.22L1115.12 389.415L1114.76 389.799L1114.4 389.412C1108.87 383.501 1102.95 380.595 1096.62 380.595C1091.21 380.595 1086.69 382.431 1083.02 386.106C1079.41 389.842 1077.6 394.494 1077.6 400.096C1077.6 405.564 1079.41 410.117 1083.01 413.789L1083.36 414.122C1086.97 417.512 1091.35 419.206 1096.52 419.206C1103.5 419.206 1109.55 416.198 1114.67 410.115L1115.02 409.707L1115.4 410.077L1127.5 421.687L1127.82 421.996L1127.55 422.35C1124.18 426.776 1119.67 430.432 1114.01 433.323L1114.01 433.324C1108.41 436.16 1102.18 437.573 1095.35 437.573C1084.69 437.573 1075.75 434.115 1068.56 427.189L1068.56 427.187C1061.36 420.189 1057.77 411.176 1057.77 400.193C1057.77 389.146 1061.39 380.037 1068.65 372.909C1075.9 365.722 1084.85 362.13 1095.44 362.13Z" fill="#1C1C1C" stroke="black"/>
<path d="M1008.03 363.398L1008.17 363.691L1020.3 390.319L1032.82 363.685L1032.96 363.398H1055.47L1055.08 364.132L1029.87 411.926V436.5H1010.72V411.926L985.804 364.13L985.423 363.398H1008.03Z" fill="#1C1C1C" stroke="black"/>
<path d="M979.92 363.398V381.961H960.017V436.5H940.576V381.961H920.575V363.398H979.92Z" fill="#1C1C1C" stroke="black"/>
<path d="M908.21 363.398V436.5H888.867V363.398H908.21Z" fill="#1C1C1C" stroke="black"/>
<path d="M819.188 363.398L819.337 363.574L851.824 401.665V363.398H870.777V436.5H856.288L856.139 436.324L824.237 398.725V436.5H805.383V363.398H819.188Z" fill="#1C1C1C" stroke="black"/>
<path d="M746.845 363.398V407.706C746.845 411.525 747.83 414.374 749.729 416.334C751.696 418.234 754.355 419.207 757.76 419.207C761.099 419.207 763.692 418.202 765.597 416.236L765.602 416.231C767.563 414.27 768.578 411.453 768.578 407.706V363.398H788.018V407.999C788.018 413.19 787.163 417.779 785.44 421.755C783.786 425.658 781.496 428.787 778.561 431.123L778.555 431.127C775.647 433.374 772.44 435.06 768.938 436.183L768.93 436.186C765.432 437.242 761.707 437.768 757.76 437.768C753.812 437.768 750.088 437.242 746.59 436.186L746.579 436.182C743.143 435.059 739.939 433.374 736.97 431.131L736.959 431.123V431.122C734.025 428.788 731.702 425.662 729.983 421.761L729.979 421.753C728.323 417.778 727.502 413.189 727.502 407.999V363.398H746.845Z" fill="#1C1C1C" stroke="black"/>
<path d="M644.54 363.398L644.689 363.611L670.231 400.099L695.678 363.612L695.827 363.398H710.149V436.5H691.1V402.924L673.957 426.925L673.807 427.134H666.463L666.313 426.925L649.17 402.923V436.5H630.315V363.398H644.54Z" fill="#1C1C1C" stroke="black"/>
<path d="M546.572 363.398L546.722 363.611L572.264 400.099L597.71 363.612L597.859 363.398H612.182V436.5H593.132V402.924L575.989 426.925L575.839 427.134H568.495L568.346 426.925L551.202 402.923V436.5H532.348V363.398H546.572Z" fill="#1C1C1C" stroke="black"/>
<path d="M479.696 362.13C490.554 362.13 499.659 365.788 506.978 373.106C514.294 380.423 517.954 389.397 517.954 399.998C517.954 410.535 514.293 419.476 506.978 426.792C499.723 434.047 490.65 437.671 479.794 437.671C468.938 437.671 459.801 434.047 452.417 426.795L452.414 426.792C445.162 419.54 441.535 410.598 441.535 399.998C441.535 389.397 445.195 380.423 452.512 373.106C459.83 365.788 468.903 362.13 479.696 362.13ZM479.696 381.18C474.56 381.18 470.233 382.981 466.686 386.592L466.683 386.595C463.14 390.137 461.365 394.56 461.365 399.9C461.365 405.307 463.141 409.762 466.683 413.304C470.229 416.85 474.557 418.621 479.696 418.621C484.902 418.621 489.262 416.849 492.807 413.304C496.345 409.765 498.121 405.314 498.124 399.912L498.107 399.401C497.88 394.157 496.044 389.868 492.614 386.5L492.611 386.497C489.064 382.949 484.769 381.18 479.696 381.18Z" fill="#1C1C1C" stroke="black"/>
<path d="M401.824 362.13C408.266 362.13 414.225 363.412 419.694 365.981C425.225 368.549 429.715 372.079 433.15 376.571L433.409 376.91L433.115 377.22L421.505 389.415L421.14 389.799L420.777 389.412C415.252 383.501 409.327 380.595 402.995 380.595C397.594 380.595 393.072 382.431 389.396 386.106C385.79 389.842 383.981 394.494 383.981 400.096C383.981 405.564 385.788 410.117 389.394 413.789L389.74 414.122C393.35 417.512 397.727 419.206 402.897 419.206C409.885 419.206 415.93 416.198 421.053 410.115L421.396 409.707L421.781 410.077L433.88 421.687L434.201 421.996L433.932 422.35C430.563 426.776 426.045 430.432 420.395 433.323L420.393 433.324C414.788 436.16 408.562 437.573 401.727 437.573C391.07 437.573 382.129 434.115 374.939 427.189L374.938 427.187C367.741 420.189 364.151 411.176 364.151 400.193C364.151 389.145 367.774 380.036 375.033 372.908C382.286 365.722 391.227 362.13 401.824 362.13Z" fill="#1C1C1C" stroke="black"/>
<path d="M314.413 363.398L314.547 363.691L326.685 390.319L339.202 363.685L339.337 363.398H361.851L361.464 364.132L336.252 411.926V436.5H317.104V411.926L292.184 364.13L291.803 363.398H314.413Z" fill="#1C1C1C" stroke="black"/>
<path d="M286.299 363.398V381.961H266.396V436.5H246.955V381.961H226.954V363.398H286.299Z" fill="#1C1C1C" stroke="black"/>
<path d="M214.59 363.398V436.5H195.247V363.398H214.59Z" fill="#1C1C1C" stroke="black"/>
<path d="M125.567 363.398L125.717 363.574L158.204 401.665V363.398H177.157V436.5H162.668L162.519 436.324L130.617 398.725V436.5H111.763V363.398H125.567Z" fill="#1C1C1C" stroke="black"/>
<path d="M53.2236 363.398V407.706C53.2236 411.525 54.2091 414.374 56.1074 416.334C58.0754 418.234 60.7335 419.207 64.1387 419.207C67.4784 419.207 70.071 418.202 71.9756 416.236L71.9805 416.231C73.9421 414.27 74.956 411.453 74.9561 407.706V363.398H94.3965V407.999C94.3964 413.19 93.5415 417.779 91.8193 421.755C90.1653 425.658 87.8752 428.787 84.9395 431.123L84.9336 431.127C82.0256 433.374 78.819 435.06 75.3164 436.183L75.3086 436.186C71.8106 437.242 68.0862 437.768 64.1387 437.768C60.1911 437.768 56.4667 437.242 52.9688 436.186L52.958 436.182C49.5218 435.059 46.3182 433.374 43.3486 431.131L43.3379 431.123V431.122C40.4041 428.788 38.0811 425.662 36.3623 421.761L36.3584 421.753C34.7021 417.778 33.8809 413.189 33.8809 407.999V363.398H53.2236Z" fill="#1C1C1C" stroke="black"/>
<path d="M-49.0811 363.398L-48.9316 363.611L-23.3906 400.1L2.05664 363.612L2.20605 363.398H16.5283V436.5H-2.52148V402.924L-19.6641 426.925L-19.8145 427.134H-27.1582L-27.3076 426.925L-44.4512 402.923V436.5H-63.3057V363.398H-49.0811Z" fill="#1C1C1C" stroke="black"/>
<path d="M1488.47 271.398V289.961H1468.56V344.5H1449.12V289.961H1429.12V271.398H1488.47Z" fill="#1C1C1C" stroke="black"/>
<path d="M1416.76 271.398V344.5H1397.42V271.398H1416.76Z" fill="#1C1C1C" stroke="black"/>
<path d="M1327.74 271.398L1327.89 271.574L1360.37 309.665V271.398H1379.33V344.5H1364.84L1364.69 344.324L1332.79 306.725V344.5H1313.93V271.398H1327.74Z" fill="#1C1C1C" stroke="black"/>
<path d="M1255.39 271.398V315.706C1255.39 319.525 1256.38 322.374 1258.28 324.334C1260.24 326.234 1262.9 327.207 1266.31 327.207C1269.65 327.207 1272.24 326.202 1274.14 324.236L1274.15 324.231C1276.11 322.27 1277.13 319.453 1277.13 315.706V271.398H1296.57V315.999C1296.57 321.19 1295.71 325.779 1293.99 329.755L1293.99 329.756C1292.34 333.659 1290.04 336.788 1287.11 339.123L1287.1 339.127C1284.19 341.374 1280.99 343.06 1277.49 344.183L1277.48 344.186C1273.98 345.242 1270.26 345.768 1266.31 345.768C1262.36 345.768 1258.64 345.242 1255.14 344.186L1255.13 344.182C1251.69 343.059 1248.49 341.374 1245.52 339.131L1245.51 339.123C1242.57 336.789 1240.25 333.662 1238.53 329.761L1238.53 329.753C1236.87 325.778 1236.05 321.189 1236.05 315.999V271.398H1255.39Z" fill="#1C1C1C" stroke="black"/>
<path d="M1153.09 271.398L1153.24 271.611L1178.78 308.1L1204.23 271.612L1204.38 271.398H1218.7V344.5H1199.65V310.924L1182.5 334.925L1182.35 335.134H1175.01L1174.86 334.925L1157.72 310.923V344.5H1138.86V271.398H1153.09Z" fill="#1C1C1C" stroke="black"/>
<path d="M1055.12 271.398L1055.27 271.611L1080.81 308.1L1106.26 271.612L1106.41 271.398H1120.73V344.5H1101.68V310.924L1084.54 334.925L1084.39 335.134H1077.04L1076.89 334.925L1059.75 310.923V344.5H1040.9V271.398H1055.12Z" fill="#1C1C1C" stroke="black"/>
<path d="M988.245 270.13C999.102 270.13 1008.21 273.787 1015.53 281.106C1022.84 288.423 1026.5 297.397 1026.5 307.998C1026.5 318.535 1022.84 327.476 1015.53 334.792C1008.27 342.047 999.199 345.671 988.343 345.671C977.487 345.671 968.349 342.047 960.966 334.795L960.963 334.792C953.711 327.54 950.084 318.597 950.084 307.998C950.084 297.397 953.744 288.423 961.061 281.106C968.379 273.788 977.452 270.13 988.245 270.13ZM988.245 289.18C983.109 289.18 978.781 290.981 975.234 294.592L975.231 294.595C971.689 298.137 969.914 302.56 969.914 307.9C969.914 313.307 971.69 317.762 975.231 321.304C978.778 324.85 983.106 326.621 988.245 326.621C993.451 326.621 997.81 324.849 1001.36 321.304C1004.89 317.765 1006.67 313.314 1006.67 307.912L1006.66 307.401C1006.43 302.157 1004.59 297.868 1001.16 294.5L1001.16 294.497C997.613 290.949 993.317 289.18 988.245 289.18Z" fill="#1C1C1C" stroke="black"/>
<path d="M910.372 270.13C916.814 270.13 922.773 271.412 928.242 273.981C933.773 276.549 938.263 280.079 941.698 284.571L941.957 284.91L941.663 285.22L930.053 297.415L929.688 297.799L929.325 297.412C923.8 291.501 917.875 288.595 911.543 288.595C906.141 288.595 901.619 290.431 897.944 294.106C894.338 297.842 892.529 302.494 892.529 308.096C892.529 313.564 894.335 318.117 897.941 321.789L898.288 322.122C901.898 325.512 906.275 327.206 911.445 327.206C918.433 327.206 924.478 324.198 929.601 318.115L929.944 317.707L930.329 318.077L942.428 329.687L942.749 329.996L942.479 330.35C939.111 334.776 934.593 338.432 928.942 341.323L928.94 341.324C923.335 344.16 917.11 345.573 910.274 345.573C899.618 345.573 890.677 342.115 883.487 335.189L883.485 335.187C876.289 328.189 872.699 319.176 872.699 308.193C872.699 297.146 876.32 288.037 883.579 280.909C890.832 273.722 899.774 270.13 910.372 270.13Z" fill="#1C1C1C" stroke="black"/>
<path d="M822.962 271.398L823.096 271.691L835.233 298.319L847.75 271.685L847.886 271.398H870.399L870.013 272.132L844.801 319.926V344.5H825.653V319.926L800.732 272.13L800.352 271.398H822.962Z" fill="#1C1C1C" stroke="black"/>
<path d="M794.848 271.398V289.961H774.944V344.5H755.504V289.961H735.503V271.398H794.848Z" fill="#1C1C1C" stroke="black"/>
<path d="M723.138 271.398V344.5H703.795V271.398H723.138Z" fill="#1C1C1C" stroke="black"/>
<path d="M634.115 271.398L634.265 271.574L666.752 309.665V271.398H685.705V344.5H671.216L671.066 344.324L639.165 306.725V344.5H620.311V271.398H634.115Z" fill="#1C1C1C" stroke="black"/>
<path d="M561.772 271.398V315.706C561.772 319.525 562.758 322.374 564.656 324.334C566.624 326.234 569.282 327.207 572.688 327.207C576.027 327.207 578.62 326.202 580.524 324.236L580.529 324.231C582.491 322.27 583.505 319.453 583.505 315.706V271.398H602.945V315.999C602.945 321.19 602.09 325.779 600.368 329.755C598.714 333.658 596.424 336.787 593.488 339.123L593.482 339.127C590.574 341.374 587.368 343.06 583.865 344.183L583.857 344.186C580.359 345.242 576.635 345.768 572.688 345.768C568.74 345.768 565.016 345.242 561.518 344.186L561.507 344.182C558.071 343.059 554.867 341.374 551.897 339.131L551.887 339.123V339.122C548.953 336.788 546.63 333.662 544.911 329.761L544.907 329.753C543.251 325.778 542.43 321.189 542.43 315.999V271.398H561.772Z" fill="#1C1C1C" stroke="black"/>
<path d="M459.468 271.398L459.617 271.611L485.159 308.099L510.605 271.612L510.755 271.398H525.077V344.5H506.027V310.924L488.885 334.925L488.734 335.134H481.391L481.241 334.925L464.098 310.923V344.5H445.243V271.398H459.468Z" fill="#1C1C1C" stroke="black"/>
<path d="M361.5 271.398L361.649 271.611L387.191 308.099L412.638 271.612L412.787 271.398H427.109V344.5H408.06V310.924L390.917 334.925L390.767 335.134H383.423L383.273 334.925L366.13 310.923V344.5H347.275V271.398H361.5Z" fill="#1C1C1C" stroke="black"/>
<path d="M294.624 270.13C305.481 270.13 314.586 273.788 321.905 281.106C329.222 288.423 332.882 297.397 332.882 307.998C332.882 318.535 329.221 327.476 321.905 334.792C314.651 342.047 305.577 345.671 294.722 345.671C283.866 345.671 274.728 342.047 267.345 334.795L267.342 334.792C260.09 327.54 256.463 318.598 256.463 307.998C256.463 297.397 260.123 288.423 267.439 281.106C274.758 273.788 283.831 270.13 294.624 270.13ZM294.624 289.18C289.487 289.18 285.16 290.981 281.613 294.592L281.61 294.595C278.068 298.137 276.293 302.56 276.293 307.9C276.293 313.307 278.069 317.762 281.61 321.304C285.157 324.85 289.485 326.621 294.624 326.621C299.83 326.621 304.189 324.849 307.734 321.304C311.273 317.765 313.049 313.314 313.052 307.912L313.035 307.401C312.808 302.157 310.972 297.868 307.542 294.5L307.539 294.497C303.991 290.949 299.696 289.18 294.624 289.18Z" fill="#1C1C1C" stroke="black"/>
<path d="M216.752 270.13C223.194 270.13 229.153 271.412 234.622 273.981C240.153 276.549 244.643 280.079 248.078 284.571L248.337 284.91L248.043 285.22L236.433 297.415L236.067 297.799L235.705 297.412C230.18 291.501 224.255 288.595 217.923 288.595C212.521 288.595 207.999 290.431 204.324 294.106C200.718 297.842 198.909 302.494 198.909 308.096C198.909 313.564 200.715 318.117 204.321 321.789L204.668 322.122C208.278 325.512 212.655 327.206 217.825 327.206C224.813 327.206 230.858 324.198 235.98 318.115L236.324 317.707L236.709 318.077L248.808 329.687L249.129 329.996L248.859 330.35C245.491 334.776 240.973 338.432 235.322 341.323L235.32 341.324C229.715 344.16 223.49 345.573 216.654 345.573C205.998 345.573 197.057 342.115 189.867 335.189L189.865 335.187C182.669 328.189 179.079 319.176 179.079 308.193C179.079 297.145 182.701 288.036 189.961 280.908C197.213 273.722 206.155 270.13 216.752 270.13Z" fill="#1C1C1C" stroke="black"/>
<path d="M129.341 271.398L129.475 271.691L141.612 298.319L154.13 271.685L154.265 271.398H176.778L176.392 272.132L151.18 319.926V344.5H132.032V319.926L107.111 272.13L106.73 271.398H129.341Z" fill="#1C1C1C" stroke="black"/>
<path d="M101.228 271.398V289.961H81.3242V344.5H61.8838V289.961H41.8828V271.398H101.228Z" fill="#1C1C1C" stroke="black"/>
<path d="M29.5176 271.398V344.5H10.1748V271.398H29.5176Z" fill="#1C1C1C" stroke="black"/>
<path d="M1428.92 177.13C1435.37 177.13 1441.33 178.412 1446.79 180.981C1452.33 183.549 1456.82 187.079 1460.25 191.571L1460.51 191.91L1460.22 192.22L1448.61 204.415L1448.24 204.799L1447.88 204.412C1442.35 198.501 1436.43 195.595 1430.1 195.595C1424.69 195.595 1420.17 197.431 1416.5 201.106C1412.89 204.842 1411.08 209.494 1411.08 215.096C1411.08 220.564 1412.89 225.117 1416.49 228.789L1416.84 229.122C1420.45 232.512 1424.83 234.206 1430 234.206C1436.99 234.206 1443.03 231.198 1448.15 225.115L1448.5 224.707L1448.88 225.077L1460.98 236.687L1461.3 236.996L1461.03 237.35C1457.66 241.776 1453.15 245.432 1447.5 248.323L1447.49 248.324C1441.89 251.16 1435.66 252.573 1428.83 252.573C1418.17 252.573 1409.23 249.115 1402.04 242.189L1402.04 242.187C1394.84 235.189 1391.25 226.176 1391.25 215.193C1391.25 204.146 1394.87 195.037 1402.13 187.909C1409.38 180.722 1418.33 177.13 1428.92 177.13Z" fill="#1C1C1C" stroke="black"/>
<path d="M1341.51 178.398L1341.65 178.691L1353.79 205.319L1366.3 178.685L1366.44 178.398H1388.95L1388.56 179.132L1363.35 226.926V251.5H1344.21V226.926L1319.28 179.13L1318.9 178.398H1341.51Z" fill="#1C1C1C" stroke="black"/>
<path d="M1313.4 178.398V196.961H1293.5V251.5H1274.06V196.961H1254.06V178.398H1313.4Z" fill="#1C1C1C" stroke="black"/>
<path d="M1241.69 178.398V251.5H1222.35V178.398H1241.69Z" fill="#1C1C1C" stroke="black"/>
<path d="M1152.67 178.398L1152.82 178.574L1185.3 216.665V178.398H1204.26V251.5H1189.77L1189.62 251.324L1157.72 213.725V251.5H1138.86V178.398H1152.67Z" fill="#1C1C1C" stroke="black"/>
<path d="M1080.33 178.398V222.706C1080.33 226.525 1081.31 229.374 1083.21 231.334C1085.18 233.234 1087.84 234.207 1091.24 234.207C1094.58 234.207 1097.17 233.202 1099.08 231.236L1099.08 231.23C1101.04 229.269 1102.06 226.453 1102.06 222.706V178.398H1121.5V222.999C1121.5 228.19 1120.64 232.779 1118.92 236.755L1118.92 236.756C1117.27 240.659 1114.98 243.788 1112.04 246.123L1112.04 246.127C1109.13 248.374 1105.92 250.06 1102.42 251.183L1102.41 251.186C1098.91 252.242 1095.19 252.768 1091.24 252.768C1087.29 252.768 1083.57 252.242 1080.07 251.186L1080.06 251.182C1076.62 250.059 1073.42 248.374 1070.45 246.131L1070.44 246.123C1067.51 243.789 1065.18 240.662 1063.46 236.761L1063.46 236.753C1061.8 232.778 1060.98 228.189 1060.98 222.999V178.398H1080.33Z" fill="#1C1C1C" stroke="black"/>
<path d="M978.021 178.398L978.17 178.611L1003.71 215.1L1029.16 178.612L1029.31 178.398H1043.63V251.5H1024.58V217.924L1007.44 241.925L1007.29 242.134H999.943L999.794 241.925L982.65 217.923V251.5H963.796V178.398H978.021Z" fill="#1C1C1C" stroke="black"/>
<path d="M880.053 178.398L880.202 178.611L905.743 215.1L931.19 178.612L931.34 178.398H945.662V251.5H926.612V217.924L909.47 241.925L909.319 242.134H901.976L901.826 241.925L884.683 217.923V251.5H865.828V178.398H880.053Z" fill="#1C1C1C" stroke="black"/>
<path d="M813.177 177.13C824.034 177.13 833.14 180.787 840.459 188.106C847.775 195.423 851.435 204.397 851.435 214.998C851.435 225.535 847.774 234.476 840.459 241.792C833.204 249.047 824.13 252.671 813.274 252.671C802.418 252.671 793.281 249.047 785.897 241.795L785.895 241.792C778.642 234.54 775.016 225.597 775.016 214.998C775.016 204.397 778.676 195.423 785.992 188.106C793.31 180.788 802.383 177.13 813.177 177.13ZM813.177 196.18C808.04 196.18 803.713 197.981 800.166 201.592L800.163 201.595C796.621 205.137 794.846 209.56 794.846 214.9C794.846 220.307 796.622 224.762 800.163 228.304C803.709 231.85 808.037 233.621 813.177 233.621C818.383 233.621 822.742 231.849 826.287 228.304C829.826 224.765 831.602 220.314 831.604 214.912L831.588 214.401C831.361 209.157 829.524 204.868 826.095 201.5L826.092 201.497C822.544 197.949 818.249 196.18 813.177 196.18Z" fill="#1C1C1C" stroke="black"/>
<path d="M735.305 177.13C741.747 177.13 747.706 178.412 753.175 180.981C758.706 183.549 763.195 187.079 766.631 191.571L766.89 191.91L766.596 192.22L754.985 204.415L754.62 204.799L754.258 204.412C748.732 198.501 742.807 195.595 736.476 195.595C731.074 195.595 726.552 197.431 722.877 201.106C719.27 204.842 717.462 209.494 717.462 215.096C717.462 220.564 719.268 225.117 722.874 228.789L723.221 229.122C726.831 232.512 731.207 234.206 736.378 234.206C743.365 234.206 749.411 231.198 754.533 225.115L754.877 224.707L755.262 225.077L767.36 236.687L767.682 236.996L767.412 237.35C764.043 241.776 759.526 245.432 753.875 248.323L753.873 248.324C748.268 251.16 742.043 252.573 735.207 252.573C724.551 252.573 715.61 249.115 708.42 242.189L708.418 242.187C701.221 235.189 697.632 226.176 697.632 215.193C697.632 204.145 701.254 195.036 708.514 187.908C715.766 180.722 724.707 177.13 735.305 177.13Z" fill="#1C1C1C" stroke="black"/>
<path d="M647.894 178.398L648.027 178.691L660.165 205.319L672.683 178.685L672.817 178.398H695.331L694.944 179.132L669.732 226.926V251.5H650.585V226.926L625.664 179.13L625.283 178.398H647.894Z" fill="#1C1C1C" stroke="black"/>
<path d="M619.78 178.398V196.961H599.877V251.5H580.437V196.961H560.436V178.398H619.78Z" fill="#1C1C1C" stroke="black"/>
<path d="M548.07 178.398V251.5H528.728V178.398H548.07Z" fill="#1C1C1C" stroke="black"/>
<path d="M459.048 178.398L459.197 178.574L491.685 216.665V178.398H510.638V251.5H496.148L495.999 251.324L464.098 213.725V251.5H445.243V178.398H459.048Z" fill="#1C1C1C" stroke="black"/>
<path d="M386.704 178.398V222.706C386.704 226.525 387.69 229.374 389.588 231.334C391.556 233.234 394.214 234.207 397.619 234.207C400.959 234.207 403.552 233.202 405.456 231.236L405.461 231.23C407.423 229.269 408.437 226.453 408.437 222.706V178.398H427.877V222.999C427.877 228.19 427.022 232.779 425.3 236.755C423.646 240.658 421.356 243.787 418.42 246.123L418.414 246.127C415.506 248.374 412.299 250.06 408.797 251.183L408.789 251.186C405.291 252.242 401.567 252.768 397.619 252.768C393.672 252.768 389.947 252.242 386.449 251.186L386.438 251.182C383.002 250.059 379.799 248.374 376.829 246.131L376.818 246.123V246.122C373.885 243.788 371.562 240.662 369.843 236.761L369.839 236.753C368.183 232.778 367.361 228.189 367.361 222.999V178.398H386.704Z" fill="#1C1C1C" stroke="black"/>
<path d="M284.399 178.398L284.549 178.611L310.091 215.099L335.537 178.612L335.687 178.398H350.009V251.5H330.959V217.924L313.816 241.925L313.666 242.134H306.322L306.173 241.925L289.029 217.923V251.5H270.175V178.398H284.399Z" fill="#1C1C1C" stroke="black"/>
<path d="M186.433 178.398L186.582 178.611L212.123 215.1L237.57 178.612L237.72 178.398H252.042V251.5H232.992V217.924L215.85 241.925L215.699 242.134H208.355L208.206 241.925L191.062 217.923V251.5H172.208V178.398H186.433Z" fill="#1C1C1C" stroke="black"/>
<path d="M119.557 177.13C130.414 177.13 139.519 180.788 146.838 188.106C154.154 195.423 157.814 204.397 157.814 214.998C157.814 225.535 154.154 234.476 146.838 241.792C139.583 249.046 130.51 252.671 119.654 252.671C108.798 252.671 99.661 249.047 92.2773 241.795L92.2744 241.792C85.0222 234.54 81.3955 225.597 81.3955 214.998C81.3955 204.397 85.0557 195.423 92.3721 188.106C99.6904 180.788 108.763 177.13 119.557 177.13ZM119.557 196.18C114.42 196.18 110.093 197.981 106.546 201.592L106.543 201.595C103 205.137 101.226 209.56 101.226 214.9C101.226 220.307 103.002 224.762 106.543 228.304C110.089 231.85 114.417 233.621 119.557 233.621C124.763 233.621 129.122 231.849 132.667 228.304C136.206 224.765 137.982 220.314 137.984 214.912L137.968 214.401C137.741 209.157 135.904 204.868 132.475 201.5L132.472 201.497C128.924 197.949 124.629 196.18 119.557 196.18Z" fill="#1C1C1C" stroke="black"/>
<path d="M41.6836 177.13C48.1255 177.13 54.0846 178.412 59.5537 180.981C65.0847 183.549 69.5743 187.079 73.0098 191.571L73.2686 191.91L72.9746 192.22L61.3643 204.415L60.999 204.799L60.6367 204.412C55.1113 198.501 49.1864 195.595 42.8545 195.595C37.453 195.595 32.9309 197.431 29.2559 201.106C25.6493 204.842 23.8408 209.494 23.8408 215.096C23.8409 220.564 25.6469 225.117 29.2529 228.789L29.5996 229.122C33.2098 232.512 37.5862 234.206 42.7568 234.206C49.7442 234.206 55.7898 231.198 60.9121 225.115L61.2559 224.707L61.6406 225.077L73.7393 236.687L74.0605 236.996L73.791 237.35C70.4222 241.776 65.9046 245.432 60.2539 248.323L60.252 248.324C54.6469 251.16 48.4217 252.573 41.5859 252.573C30.9296 252.573 21.9887 249.115 14.7988 242.189L14.7969 242.187C7.60023 235.189 4.01079 226.176 4.01074 215.193C4.01074 204.145 7.63298 195.036 14.8926 187.908C22.1449 180.722 31.0861 177.13 41.6836 177.13Z" fill="#1C1C1C" stroke="black"/>
<path d="M1452.72 86.3982L1452.87 86.6111L1478.42 123.1L1503.86 86.6121L1504.01 86.3982H1518.33V159.5H1499.28V125.924L1482.14 149.925L1481.99 150.134H1474.65L1474.5 149.925L1457.35 125.923V159.5H1438.5V86.3982H1452.72Z" fill="#1C1C1C" stroke="black"/>
<path d="M1385.85 85.1298C1396.71 85.1298 1405.81 88.7875 1413.13 96.1063C1420.45 103.423 1424.11 112.397 1424.11 122.998C1424.11 133.535 1420.45 142.476 1413.13 149.792C1405.88 157.047 1396.8 160.671 1385.95 160.671C1375.09 160.671 1365.95 157.047 1358.57 149.795L1358.57 149.792C1351.31 142.54 1347.69 133.597 1347.69 122.998C1347.69 112.397 1351.35 103.423 1358.66 96.1063C1365.98 88.788 1375.06 85.1298 1385.85 85.1298ZM1385.85 104.18C1380.71 104.18 1376.38 105.981 1372.84 109.592L1372.83 109.595C1369.29 113.137 1367.52 117.56 1367.52 122.9C1367.52 128.307 1369.29 132.762 1372.83 136.304C1376.38 139.85 1380.71 141.621 1385.85 141.621C1391.05 141.621 1395.41 139.849 1398.96 136.304C1402.5 132.765 1404.27 128.314 1404.28 122.912L1404.26 122.401C1404.03 117.157 1402.2 112.868 1398.77 109.5L1398.76 109.497C1395.22 105.949 1390.92 104.18 1385.85 104.18Z" fill="#1C1C1C" stroke="black"/>
<path d="M1307.98 85.1298C1314.42 85.1298 1320.38 86.4119 1325.85 88.9813C1331.38 91.5493 1335.87 95.0787 1339.3 99.5712L1339.56 99.91L1339.27 100.22L1327.66 112.415L1327.29 112.799L1326.93 112.412C1321.4 106.501 1315.48 103.595 1309.15 103.595C1303.75 103.595 1299.22 105.431 1295.55 109.106C1291.94 112.842 1290.13 117.494 1290.13 123.096C1290.13 128.564 1291.94 133.117 1295.55 136.789L1295.89 137.122C1299.5 140.512 1303.88 142.206 1309.05 142.206C1316.04 142.206 1322.08 139.198 1327.21 133.115L1327.55 132.707L1327.93 133.077L1340.03 144.687L1340.35 144.996L1340.08 145.35C1336.72 149.776 1332.2 153.432 1326.55 156.323L1326.54 156.324C1320.94 159.16 1314.71 160.573 1307.88 160.573C1297.22 160.573 1288.28 157.115 1281.09 150.189L1281.09 150.187C1273.89 143.189 1270.3 134.176 1270.3 123.193C1270.3 112.146 1273.92 103.037 1281.18 95.9091C1288.44 88.7224 1297.38 85.1298 1307.98 85.1298Z" fill="#1C1C1C" stroke="black"/>
<path d="M1220.57 86.3982L1220.7 86.6912L1232.84 113.319L1245.35 86.6853L1245.49 86.3982H1268L1267.62 87.1316L1242.4 134.926V159.5H1223.26V134.926L1198.34 87.1296L1197.96 86.3982H1220.57Z" fill="#1C1C1C" stroke="black"/>
<path d="M1192.45 86.3982V104.961H1172.55V159.5H1153.11V104.961H1133.11V86.3982H1192.45Z" fill="#1C1C1C" stroke="black"/>
<path d="M1120.74 86.3982V159.5H1101.4V86.3982H1120.74Z" fill="#1C1C1C" stroke="black"/>
<path d="M1031.72 86.3982L1031.87 86.574L1064.36 124.665V86.3982H1083.31V159.5H1068.82L1068.67 159.324L1036.77 121.725V159.5H1017.92V86.3982H1031.72Z" fill="#1C1C1C" stroke="black"/>
<path d="M959.376 86.3982V130.706C959.376 134.525 960.361 137.374 962.26 139.334C964.228 141.234 966.886 142.207 970.291 142.207C973.631 142.207 976.223 141.202 978.128 139.236L978.133 139.23C980.094 137.269 981.109 134.453 981.109 130.706V86.3982H1000.55V130.999C1000.55 136.19 999.694 140.779 997.972 144.755L997.973 144.756C996.319 148.659 994.028 151.788 991.092 154.123L991.086 154.127C988.178 156.374 984.971 158.06 981.469 159.183L981.461 159.186C977.963 160.242 974.239 160.768 970.291 160.768C966.344 160.768 962.62 160.242 959.122 159.186L959.11 159.182C955.674 158.059 952.471 156.374 949.501 154.131L949.491 154.123C946.557 151.789 944.234 148.662 942.515 144.761L942.511 144.753C940.854 140.778 940.033 136.189 940.033 130.999V86.3982H959.376Z" fill="#1C1C1C" stroke="black"/>
<path d="M857.071 86.3982L857.221 86.6111L882.762 123.1L908.209 86.6121L908.358 86.3982H922.681V159.5H903.631V125.924L886.488 149.925L886.338 150.134H878.994L878.845 149.925L861.701 125.923V159.5H842.847V86.3982H857.071Z" fill="#1C1C1C" stroke="black"/>
<path d="M759.104 86.3982L759.254 86.6111L784.795 123.1L810.242 86.6121L810.392 86.3982H824.714V159.5H805.664V125.924L788.521 149.925L788.371 150.134H781.027L780.878 149.925L763.734 125.923V159.5H744.88V86.3982H759.104Z" fill="#1C1C1C" stroke="black"/>
<path d="M692.229 85.1298C703.086 85.1298 712.191 88.7875 719.51 96.1063C726.826 103.423 730.486 112.397 730.486 122.998C730.486 133.535 726.825 142.476 719.51 149.792C712.255 157.047 703.182 160.671 692.326 160.671C681.47 160.671 672.333 157.047 664.949 149.795L664.946 149.792C657.694 142.54 654.067 133.597 654.067 122.998C654.067 112.397 657.728 103.423 665.044 96.1063C672.362 88.788 681.435 85.1298 692.229 85.1298ZM692.229 104.18C687.092 104.18 682.765 105.981 679.218 109.592L679.215 109.595C675.672 113.137 673.897 117.56 673.897 122.9C673.897 128.307 675.674 132.762 679.215 136.304C682.761 139.85 687.089 141.621 692.229 141.621C697.435 141.621 701.794 139.849 705.339 136.304C708.878 132.765 710.654 128.314 710.656 122.912L710.64 122.401C710.412 117.157 708.576 112.868 705.146 109.5L705.144 109.497C701.596 105.949 697.301 104.18 692.229 104.18Z" fill="#1C1C1C" stroke="black"/>
<path d="M614.355 85.1298C620.797 85.1298 626.756 86.4119 632.226 88.9813C637.757 91.5493 642.246 95.0787 645.682 99.5712L645.94 99.91L645.646 100.22L634.036 112.415L633.671 112.799L633.309 112.412C627.783 106.501 621.858 103.595 615.526 103.595C610.125 103.595 605.603 105.431 601.928 109.106C598.321 112.842 596.513 117.494 596.513 123.096C596.513 128.564 598.319 133.117 601.925 136.789L602.271 137.122C605.882 140.512 610.258 142.206 615.429 142.206C622.416 142.206 628.462 139.198 633.584 133.115L633.928 132.707L634.312 133.077L646.411 144.687L646.732 144.996L646.463 145.35C643.094 149.776 638.576 153.432 632.926 156.323L632.924 156.324C627.319 159.16 621.094 160.573 614.258 160.573C603.601 160.573 594.661 157.115 587.471 150.189L587.469 150.187C580.272 143.189 576.683 134.176 576.683 123.193C576.683 112.145 580.305 103.036 587.564 95.9081C594.817 88.7223 603.758 85.1298 614.355 85.1298Z" fill="#1C1C1C" stroke="black"/>
<path d="M526.945 86.3982L527.079 86.6912L539.217 113.319L551.734 86.6853L551.869 86.3982H574.383L573.996 87.1316L548.784 134.926V159.5H529.637V134.926L504.716 87.1296L504.335 86.3982H526.945Z" fill="#1C1C1C" stroke="black"/>
<path d="M498.831 86.3982V104.961H478.928V159.5H459.487V104.961H439.486V86.3982H498.831Z" fill="#1C1C1C" stroke="black"/>
<path d="M427.121 86.3982V159.5H407.778V86.3982H427.121Z" fill="#1C1C1C" stroke="black"/>
<path d="M338.099 86.3982L338.248 86.574L370.735 124.665V86.3982H389.688V159.5H375.199L375.05 159.324L343.148 121.725V159.5H324.294V86.3982H338.099Z" fill="#1C1C1C" stroke="black"/>
<path d="M265.756 86.3982V130.706C265.756 134.525 266.741 137.374 268.64 139.334C270.608 141.234 273.266 142.207 276.671 142.207C280.011 142.207 282.603 141.202 284.508 139.236L284.513 139.23C286.474 137.269 287.488 134.453 287.488 130.706V86.3982H306.929V130.999C306.929 136.19 306.074 140.779 304.352 144.755C302.698 148.658 300.407 151.787 297.472 154.123L297.466 154.127C294.558 156.374 291.351 158.06 287.849 159.183L287.841 159.186C284.343 160.242 280.618 160.768 276.671 160.768C272.723 160.768 268.999 160.242 265.501 159.186L265.49 159.182C262.054 158.059 258.85 156.374 255.881 154.131L255.87 154.123V154.122C252.936 151.788 250.613 148.662 248.895 144.761L248.891 144.753C247.234 140.778 246.413 136.189 246.413 130.999V86.3982H265.756Z" fill="#1C1C1C" stroke="black"/>
<path d="M163.451 86.3982L163.601 86.6111L189.142 123.1L214.589 86.6121L214.738 86.3982H229.061V159.5H210.011V125.924L192.868 149.925L192.718 150.134H185.374L185.225 149.925L168.081 125.923V159.5H149.227V86.3982H163.451Z" fill="#1C1C1C" stroke="black"/>
<path d="M65.4844 86.3982L65.6338 86.6111L91.1748 123.1L116.622 86.6121L116.771 86.3982H131.094V159.5H112.044V125.924L94.9014 149.925L94.751 150.134H87.4072L87.2578 149.925L70.1143 125.923V159.5H51.2598V86.3982H65.4844Z" fill="#1C1C1C" stroke="black"/>
<path d="M-1.39258 85.1298C9.46464 85.1298 18.5698 88.7876 25.8887 96.1063C33.205 103.423 36.8652 112.397 36.8652 122.998C36.8652 133.535 33.2044 142.476 25.8887 149.792C18.634 157.046 9.56087 160.671 -1.29492 160.671C-12.1509 160.671 -21.2882 157.047 -28.6719 149.795L-28.6748 149.792C-35.927 142.54 -39.5537 133.597 -39.5537 122.998C-39.5537 112.397 -35.8935 103.423 -28.5771 96.1063C-21.2589 88.788 -12.1859 85.1298 -1.39258 85.1298ZM-1.39258 104.18C-6.52912 104.18 -10.8563 105.981 -14.4033 109.592L-14.4062 109.595C-17.9487 113.137 -19.7236 117.56 -19.7236 122.9C-19.7236 128.307 -17.9475 132.762 -14.4062 136.304C-10.8599 139.85 -6.53197 141.621 -1.39258 141.621C3.81357 141.621 8.17276 139.849 11.7178 136.304C15.2566 132.765 17.0326 128.314 17.0352 122.912L17.0186 122.401C16.7913 117.157 14.955 112.868 11.5254 109.5L11.5225 109.497C7.97489 105.949 3.67971 104.18 -1.39258 104.18Z" fill="#1C1C1C" stroke="black"/>
<path d="M1415.64 -5.60193L1415.79 -5.38904L1441.33 31.1002L1466.78 -5.38806L1466.93 -5.60193H1481.25V67.4996H1462.2V33.9235L1445.06 57.9244L1444.91 58.1334H1437.56L1437.42 57.9244L1420.27 33.9225V67.4996H1401.42V-5.60193H1415.64Z" fill="#1C1C1C" stroke="black"/>
<path d="M1317.67 -5.60193L1317.82 -5.38904L1343.37 31.1002L1368.81 -5.38806L1368.96 -5.60193H1383.28V67.4996H1364.23V33.9235L1347.09 57.9244L1346.94 58.1334H1339.6L1339.45 57.9244L1322.3 33.9225V67.4996H1303.45V-5.60193H1317.67Z" fill="#1C1C1C" stroke="black"/>
<path d="M1250.8 -6.87024C1261.66 -6.87018 1270.76 -3.21254 1278.08 4.10632C1285.4 11.4226 1289.06 20.3971 1289.06 30.9979C1289.06 41.5346 1285.4 50.4762 1278.08 57.7919C1270.83 65.0466 1261.75 68.6707 1250.9 68.6708C1240.04 68.6708 1230.9 65.0466 1223.52 57.7948L1223.52 57.7919C1216.26 50.5396 1212.64 41.5975 1212.64 30.9979C1212.64 20.3969 1216.3 11.4227 1223.61 4.10632C1230.93 -3.21197 1240.01 -6.87024 1250.8 -6.87024ZM1250.8 12.1796C1245.66 12.1796 1241.34 13.9813 1237.79 17.5917L1237.79 17.5946C1234.24 21.1372 1232.47 25.5603 1232.47 30.9003C1232.47 36.3071 1234.24 40.7622 1237.79 44.3036C1241.33 47.85 1245.66 49.621 1250.8 49.621C1256.01 49.6209 1260.36 47.8486 1263.91 44.3036C1267.45 40.7647 1269.22 36.3137 1269.23 30.912L1269.21 30.4012C1268.98 25.1568 1267.15 20.8683 1263.72 17.4999L1263.71 17.4969C1260.17 13.9494 1255.87 12.1796 1250.8 12.1796Z" fill="#1C1C1C" stroke="black"/>
<path d="M1172.93 -6.87024C1179.37 -6.87024 1185.33 -5.58811 1190.8 -3.01868C1196.33 -0.450709 1200.82 3.07865 1204.25 7.57117L1204.51 7.91003L1204.22 8.2196L1192.61 20.4149L1192.24 20.7987L1191.88 20.412C1186.35 14.5011 1180.43 11.5946 1174.1 11.5946C1168.7 11.5946 1164.17 13.4313 1160.5 17.1063C1156.89 20.8425 1155.08 25.494 1155.08 31.0956C1155.08 36.5636 1156.89 41.1167 1160.5 44.7889L1160.84 45.1219C1164.45 48.512 1168.83 50.2059 1174 50.2059C1180.99 50.2059 1187.03 47.1979 1192.16 41.1151L1192.5 40.7069L1192.88 41.077L1204.98 52.6874L1205.3 52.996L1205.03 53.3505C1201.67 57.7762 1197.15 61.4321 1191.5 64.3231L1191.5 64.3241C1185.89 67.1596 1179.66 68.5731 1172.83 68.5731C1162.17 68.5731 1153.23 65.1152 1146.04 58.1893L1146.04 58.1874C1138.84 51.1888 1135.25 42.1759 1135.25 31.1932C1135.25 20.1457 1138.88 11.0366 1146.13 3.90906C1153.39 -3.27758 1162.33 -6.87021 1172.93 -6.87024Z" fill="#1C1C1C" stroke="black"/>
<path d="M1085.52 -5.60193L1085.65 -5.30896L1097.79 21.319L1110.3 -5.31482L1110.44 -5.60193H1132.95L1132.57 -4.86853L1107.35 42.9254V67.4996H1088.21V42.9254L1063.29 -4.87048L1062.91 -5.60193H1085.52Z" fill="#1C1C1C" stroke="black"/>
<path d="M1057.4 -5.60193V12.9606H1037.5V67.4996H1018.06V12.9606H998.057V-5.60193H1057.4Z" fill="#1C1C1C" stroke="black"/>
<path d="M985.692 -5.60193V67.4996H966.35V-5.60193H985.692Z" fill="#1C1C1C" stroke="black"/>
<path d="M896.669 -5.60193L896.818 -5.42615L929.306 32.6647V-5.60193H948.259V67.4996H933.77L933.62 67.3239L901.719 29.7252V67.4996H882.864V-5.60193H896.669Z" fill="#1C1C1C" stroke="black"/>
<path d="M824.326 -5.60193V38.7057C824.326 42.5246 825.312 45.3741 827.21 47.3336C829.178 49.2339 831.836 50.2066 835.241 50.2067C838.581 50.2067 841.174 49.2019 843.078 47.236L843.083 47.2301C845.045 45.2685 846.06 42.4526 846.06 38.7057V-5.60193H865.499V38.9987C865.499 44.1898 864.644 48.7784 862.922 52.7545L862.923 52.7555C861.269 56.6589 858.978 59.7874 856.042 62.1227L856.036 62.1266C853.128 64.3736 849.922 66.0598 846.419 67.1832L846.411 67.1862C842.913 68.2422 839.189 68.7682 835.241 68.7682C831.294 68.7682 827.57 68.242 824.072 67.1862L824.061 67.1823C820.624 66.0588 817.421 64.3741 814.451 62.1305L814.441 62.1227C811.507 59.7887 809.184 56.6622 807.465 52.7614L807.461 52.7526C805.805 48.7774 804.983 44.1892 804.983 38.9987V-5.60193H824.326Z" fill="#1C1C1C" stroke="black"/>
<path d="M722.021 -5.60193L722.171 -5.38904L747.713 31.0992L773.159 -5.38806L773.309 -5.60193H787.631V67.4996H768.581V33.9235L751.438 57.9244L751.288 58.1334H743.944L743.795 57.9244L726.651 33.9225V67.4996H707.797V-5.60193H722.021Z" fill="#1C1C1C" stroke="black"/>
<path d="M624.055 -5.60193L624.204 -5.38904L649.746 31.0992L675.192 -5.38806L675.342 -5.60193H689.664V67.4996H670.614V33.9235L653.472 57.9244L653.321 58.1334H645.978L645.828 57.9244L628.685 33.9225V67.4996H609.83V-5.60193H624.055Z" fill="#1C1C1C" stroke="black"/>
<path d="M557.179 -6.87024C568.036 -6.87017 577.141 -3.21245 584.46 4.10632C591.776 11.4227 595.437 20.3969 595.437 30.9979C595.437 41.5348 591.776 50.4762 584.46 57.7919C577.205 65.0465 568.132 68.6707 557.276 68.6708C546.42 68.6708 537.283 65.0466 529.899 57.7948L529.896 57.7919C522.644 50.5396 519.018 41.5975 519.018 30.9979C519.018 20.3969 522.678 11.4227 529.994 4.10632C537.312 -3.21196 546.385 -6.87024 557.179 -6.87024ZM557.179 12.1796C552.042 12.1796 547.715 13.9813 544.168 17.5917L544.165 17.5946C540.623 21.1372 538.848 25.5603 538.848 30.9003C538.848 36.3071 540.624 40.7622 544.165 44.3036C547.711 47.85 552.039 49.621 557.179 49.621C562.385 49.6209 566.744 47.8486 570.289 44.3036C573.828 40.7648 575.604 36.3136 575.606 30.912L575.59 30.4012C575.363 25.1568 573.526 20.8683 570.097 17.4999L570.094 17.4969C566.546 13.9494 562.251 12.1796 557.179 12.1796Z" fill="#1C1C1C" stroke="black"/>
<path d="M479.306 -6.87024C485.748 -6.87024 491.707 -5.58809 497.176 -3.01868C502.707 -0.450708 507.196 3.07866 510.632 7.57117L510.891 7.91003L510.597 8.2196L498.986 20.4149L498.621 20.7987L498.259 20.412C492.733 14.5011 486.808 11.5946 480.477 11.5946C475.075 11.5946 470.553 13.4313 466.878 17.1063C463.271 20.8425 461.463 25.494 461.463 31.0956C461.463 36.5637 463.269 41.1167 466.875 44.7889L467.222 45.1219C470.832 48.512 475.208 50.2059 480.379 50.2059C487.366 50.2059 493.412 47.1979 498.534 41.1151L498.878 40.7069L499.263 41.077L511.361 52.6874L511.683 52.996L511.413 53.3505C508.044 57.7762 503.527 61.4321 497.876 64.3231L497.874 64.3241C492.269 67.1596 486.044 68.5731 479.208 68.5731C468.552 68.5731 459.611 65.1152 452.421 58.1893L452.419 58.1874C445.222 51.1888 441.633 42.1759 441.633 31.1932C441.633 20.145 445.255 11.0358 452.515 3.90808C459.767 -3.27765 468.708 -6.87021 479.306 -6.87024Z" fill="#1C1C1C" stroke="black"/>
<path d="M391.895 -5.60193L392.028 -5.30896L404.166 21.319L416.684 -5.31482L416.818 -5.60193H439.332L438.945 -4.86853L413.733 42.9254V67.4996H394.586V42.9254L369.665 -4.87048L369.284 -5.60193H391.895Z" fill="#1C1C1C" stroke="black"/>
<path d="M363.781 -5.60193V12.9606H343.878V67.4996H324.438V12.9606H304.437V-5.60193H363.781Z" fill="#1C1C1C" stroke="black"/>
<path d="M292.071 -5.60193V67.4996H272.729V-5.60193H292.071Z" fill="#1C1C1C" stroke="black"/>
<path d="M203.049 -5.60193L203.198 -5.42615L235.686 32.6647V-5.60193H254.639V67.4996H240.149L240 67.3239L208.099 29.7252V67.4996H189.244V-5.60193H203.049Z" fill="#1C1C1C" stroke="black"/>
<path d="M130.706 -5.60193V38.7057C130.706 42.5246 131.692 45.3741 133.59 47.3336C135.558 49.2339 138.216 50.2067 141.621 50.2067C144.961 50.2067 147.553 49.2019 149.458 47.236L149.463 47.2301C151.424 45.2685 152.438 42.4526 152.438 38.7057V-5.60193H171.879V38.9987C171.879 44.1898 171.024 48.7785 169.302 52.7545C167.648 56.658 165.358 59.7873 162.422 62.1227L162.416 62.1266C159.508 64.3736 156.301 66.0598 152.799 67.1832L152.791 67.1862C149.293 68.2422 145.569 68.7682 141.621 68.7682C137.674 68.7682 133.949 68.2421 130.451 67.1862L130.44 67.1823C127.004 66.0588 123.801 64.3741 120.831 62.1305L120.82 62.1227V62.1217C117.887 59.7878 115.564 56.6618 113.845 52.7614L113.841 52.7526C112.185 48.7774 111.363 44.1892 111.363 38.9987V-5.60193H130.706Z" fill="#1C1C1C" stroke="black"/>
<path d="M28.4014 -5.60193L28.5508 -5.38904L54.0918 31.1002L79.5391 -5.38806L79.6885 -5.60193H94.0107V67.4996H74.9609V33.9235L57.8184 57.9244L57.668 58.1334H50.3242L50.1748 57.9244L33.0312 33.9225V67.4996H14.1768V-5.60193H28.4014Z" fill="#1C1C1C" stroke="black"/>
<path d="M1381.77 450.398L1381.92 450.611L1407.46 487.1L1432.91 450.612L1433.06 450.398H1447.38V523.5H1428.33V489.924L1411.19 513.925L1411.04 514.134H1403.7L1403.55 513.925L1386.4 489.923V523.5H1367.55V450.398H1381.77Z" fill="#FCABF2" stroke="black"/>
<path d="M1314.9 449.13C1325.75 449.13 1334.86 452.787 1342.18 460.106C1349.49 467.423 1353.15 476.397 1353.15 486.998C1353.15 497.535 1349.49 506.476 1342.18 513.792C1334.92 521.047 1325.85 524.671 1314.99 524.671C1304.14 524.671 1295 521.047 1287.62 513.795L1287.61 513.792C1280.36 506.54 1276.73 497.597 1276.73 486.998C1276.73 476.397 1280.39 467.423 1287.71 460.106C1295.03 452.788 1304.1 449.13 1314.9 449.13ZM1314.9 468.18C1309.76 468.18 1305.43 469.981 1301.88 473.592L1301.88 473.595C1298.34 477.137 1296.56 481.56 1296.56 486.9C1296.56 492.307 1298.34 496.762 1301.88 500.304C1305.43 503.85 1309.76 505.621 1314.9 505.621C1320.1 505.621 1324.46 503.849 1328.01 500.304C1331.54 496.765 1333.32 492.314 1333.32 486.912L1333.31 486.401C1333.08 481.157 1331.24 476.868 1327.81 473.5L1327.81 473.497C1324.26 469.949 1319.97 468.18 1314.9 468.18Z" fill="#FF5E6B" stroke="black"/>
<path d="M1237.02 449.13C1243.47 449.13 1249.42 450.412 1254.89 452.981C1260.42 455.549 1264.91 459.079 1268.35 463.571L1268.61 463.91L1268.31 464.22L1256.7 476.415L1256.34 476.799L1255.98 476.412C1250.45 470.501 1244.53 467.595 1238.19 467.595C1232.79 467.595 1228.27 469.431 1224.6 473.106C1220.99 476.842 1219.18 481.494 1219.18 487.096C1219.18 492.564 1220.99 497.117 1224.59 500.789L1224.94 501.122C1228.55 504.512 1232.93 506.207 1238.1 506.207C1245.08 506.207 1251.13 503.198 1256.25 497.115L1256.6 496.707L1256.98 497.077L1269.08 508.687L1269.4 508.996L1269.13 509.35C1265.76 513.776 1261.24 517.432 1255.59 520.323L1255.59 520.324C1249.99 523.16 1243.76 524.573 1236.93 524.573C1226.27 524.573 1217.33 521.115 1210.14 514.189L1210.14 514.187C1202.94 507.189 1199.35 498.176 1199.35 487.193C1199.35 476.146 1202.97 467.037 1210.23 459.909C1217.48 452.722 1226.43 449.13 1237.02 449.13Z" fill="#4759CC" stroke="black"/>
<path d="M1149.61 450.398L1149.75 450.691L1161.88 477.319L1174.4 450.685L1174.54 450.398H1197.05L1196.66 451.132L1171.45 498.926V523.5H1152.3V498.926L1127.38 451.13L1127 450.398H1149.61Z" fill="#40C2B0" stroke="black"/>
<path d="M1121.5 450.398V468.961H1101.6V523.5H1082.16V468.961H1062.15V450.398H1121.5Z" fill="#FCABF2" stroke="black"/>
<path d="M1049.79 450.398V523.5H1030.45V450.398H1049.79Z" fill="#FF5E6B" stroke="black"/>
<path d="M960.767 450.398L960.916 450.574L993.403 488.665V450.398H1012.36V523.5H997.867L997.718 523.324L965.816 485.725V523.5H946.962V450.398H960.767Z" fill="#4759CC" stroke="black"/>
<path d="M888.423 450.398V494.706C888.423 498.525 889.408 501.374 891.307 503.334C893.275 505.234 895.933 506.207 899.338 506.207C902.678 506.207 905.27 505.202 907.175 503.236L907.18 503.23C909.141 501.269 910.156 498.453 910.156 494.706V450.398H929.596V494.999C929.596 500.19 928.741 504.779 927.019 508.755L927.02 508.756C925.366 512.659 923.074 515.787 920.139 518.123L920.133 518.127C917.225 520.374 914.018 522.06 910.516 523.183L910.508 523.186C907.01 524.242 903.285 524.768 899.338 524.768C895.391 524.768 891.667 524.242 888.169 523.186L888.157 523.182C884.721 522.059 881.517 520.374 878.548 518.131L878.538 518.123C875.604 515.789 873.281 512.662 871.562 508.761L871.558 508.753C869.901 504.778 869.08 500.189 869.08 494.999V450.398H888.423Z" fill="#73E3F2" stroke="black"/>
<path d="M786.119 450.398L786.269 450.611L811.81 487.1L837.257 450.612L837.406 450.398H851.729V523.5H832.679V489.924L815.536 513.925L815.386 514.134H808.042L807.893 513.925L790.749 489.923V523.5H771.895V450.398H786.119Z" fill="#40C2B0" stroke="black"/>
<path d="M688.151 450.398L688.301 450.611L713.843 487.099L739.289 450.612L739.438 450.398H753.761V523.5H734.711V489.924L717.568 513.925L717.418 514.134H710.074L709.925 513.925L692.781 489.923V523.5H673.927V450.398H688.151Z" fill="#FCABF2" stroke="black"/>
<path d="M621.275 449.13C632.133 449.13 641.238 452.788 648.557 460.106C655.873 467.423 659.533 476.397 659.533 486.998C659.533 497.535 655.872 506.476 648.557 513.792C641.302 521.046 632.229 524.671 621.373 524.671C610.517 524.671 601.38 521.047 593.996 513.795L593.993 513.792C586.741 506.54 583.114 497.598 583.114 486.998C583.114 476.397 586.774 467.423 594.091 460.106C601.409 452.788 610.482 449.13 621.275 449.13ZM621.275 468.18C616.139 468.18 611.812 469.981 608.265 473.592L608.262 473.595C604.719 477.137 602.944 481.56 602.944 486.9C602.944 492.307 604.72 496.762 608.262 500.304C611.808 503.85 616.136 505.621 621.275 505.621C626.482 505.621 630.841 503.849 634.386 500.304C637.925 496.765 639.701 492.314 639.703 486.912L639.687 486.401C639.459 481.157 637.623 476.868 634.193 473.5L634.19 473.497C630.643 469.949 626.348 468.18 621.275 468.18Z" fill="#FF5E6B" stroke="black"/>
<path d="M543.403 449.13C549.845 449.13 555.804 450.412 561.273 452.981C566.804 455.549 571.294 459.079 574.729 463.571L574.988 463.91L574.694 464.22L563.084 476.415L562.719 476.799L562.356 476.412C556.831 470.501 550.906 467.595 544.574 467.595C539.173 467.595 534.651 469.431 530.976 473.106C527.369 476.842 525.561 481.494 525.561 487.096C525.561 492.564 527.367 497.117 530.973 500.789L531.319 501.122C534.93 504.512 539.306 506.207 544.477 506.207C551.464 506.207 557.51 503.198 562.632 497.115L562.976 496.707L563.36 497.077L575.459 508.687L575.78 508.996L575.511 509.35C572.142 513.776 567.624 517.432 561.974 520.323L561.972 520.324C556.367 523.16 550.141 524.573 543.306 524.573C532.649 524.573 523.708 521.115 516.519 514.189L516.517 514.187C509.32 507.189 505.731 498.176 505.73 487.193C505.73 476.145 509.353 467.036 516.612 459.908C523.865 452.722 532.806 449.13 543.403 449.13Z" fill="#4759CC" stroke="black"/>
<path d="M455.992 450.398L456.126 450.691L468.264 477.319L480.781 450.685L480.916 450.398H503.43L503.043 451.132L477.831 498.926V523.5H458.684V498.926L433.763 451.13L433.382 450.398H455.992Z" fill="#40C2B0" stroke="black"/>
<path d="M427.878 450.398V468.961H407.975V523.5H388.534V468.961H368.533V450.398H427.878Z" fill="#FCABF2" stroke="black"/>
<path d="M356.169 450.398V523.5H336.826V450.398H356.169Z" fill="#FF5E6B" stroke="black"/>
<path d="M267.146 450.398L267.296 450.574L299.783 488.665V450.398H318.736V523.5H304.247L304.098 523.324L272.196 485.725V523.5H253.342V450.398H267.146Z" fill="#4759CC" stroke="black"/>
<path d="M194.803 450.398V494.706C194.803 498.525 195.788 501.374 197.687 503.334C199.654 505.234 202.313 506.207 205.718 506.207C209.057 506.207 211.65 505.202 213.555 503.236L213.56 503.23C215.521 501.269 216.535 498.453 216.535 494.706V450.398H235.976V494.999C235.976 500.19 235.121 504.779 233.398 508.755C231.744 512.658 229.454 515.787 226.519 518.123L226.513 518.127C223.605 520.374 220.398 522.06 216.896 523.183L216.888 523.186C213.39 524.242 209.665 524.768 205.718 524.768C201.77 524.768 198.046 524.242 194.548 523.186L194.537 523.182C191.101 522.059 187.897 520.374 184.928 518.131L184.917 518.123V518.122C181.983 515.788 179.66 512.662 177.941 508.761L177.938 508.753C176.281 504.778 175.46 500.189 175.46 494.999V450.398H194.803Z" fill="#73E3F2" stroke="black"/>
<path d="M92.498 450.398L92.6475 450.611L118.188 487.1L143.636 450.612L143.785 450.398H158.107V523.5H139.058V489.924L121.915 513.925L121.765 514.134H114.421L114.271 513.925L97.1279 489.923V523.5H78.2734V450.398H92.498Z" fill="#40C2B0" stroke="black"/>
<path d="M-5.46875 450.398L-5.31934 450.611L20.2217 487.1L45.6689 450.612L45.8184 450.398H60.1406V523.5H41.0908V489.924L23.9482 513.925L23.7979 514.134H16.4541L16.3047 513.925L-0.838867 489.923V523.5H-19.6934V450.398H-5.46875Z" fill="#FCABF2" stroke="black"/>
<path d="M1435.46 358.398V402.706C1435.46 406.525 1436.45 409.374 1438.35 411.334C1440.32 413.234 1442.97 414.207 1446.38 414.207C1449.72 414.207 1452.31 413.202 1454.22 411.236L1454.22 411.231C1456.18 409.27 1457.2 406.453 1457.2 402.706V358.398H1476.64V402.999C1476.64 408.19 1475.78 412.779 1474.06 416.755L1474.06 416.756C1472.41 420.659 1470.12 423.788 1467.18 426.123L1467.17 426.127C1464.27 428.374 1461.06 430.06 1457.56 431.183L1457.55 431.186C1454.05 432.242 1450.33 432.768 1446.38 432.768C1442.43 432.768 1438.71 432.242 1435.21 431.186L1435.2 431.182C1431.76 430.059 1428.56 428.374 1425.59 426.131L1425.58 426.123C1422.65 423.789 1420.32 420.662 1418.6 416.761L1418.6 416.753C1416.94 412.778 1416.12 408.189 1416.12 402.999V358.398H1435.46Z" fill="#73E3F2" stroke="black"/>
<path d="M1333.16 358.398L1333.31 358.611L1358.85 395.1L1384.3 358.612L1384.45 358.398H1398.77V431.5H1379.72V397.924L1362.58 421.925L1362.43 422.134H1355.08L1354.93 421.925L1337.79 397.923V431.5H1318.94V358.398H1333.16Z" fill="#40C2B0" stroke="black"/>
<path d="M1235.19 358.398L1235.34 358.611L1260.88 395.1L1286.33 358.612L1286.48 358.398H1300.8V431.5H1281.75V397.924L1264.61 421.925L1264.46 422.134H1257.12L1256.97 421.925L1239.82 397.923V431.5H1220.97V358.398H1235.19Z" fill="#FCABF2" stroke="black"/>
<path d="M1168.32 357.13C1179.17 357.13 1188.28 360.787 1195.6 368.106C1202.92 375.423 1206.58 384.397 1206.58 394.998C1206.58 405.535 1202.92 414.476 1195.6 421.792C1188.34 429.047 1179.27 432.671 1168.42 432.671C1157.56 432.671 1148.42 429.047 1141.04 421.795L1141.04 421.792C1133.78 414.54 1130.16 405.597 1130.16 394.998C1130.16 384.397 1133.82 375.423 1141.13 368.106C1148.45 360.788 1157.52 357.13 1168.32 357.13ZM1168.32 376.18C1163.18 376.18 1158.85 377.981 1155.31 381.592L1155.3 381.595C1151.76 385.137 1149.99 389.56 1149.99 394.9C1149.99 400.307 1151.76 404.762 1155.3 408.304C1158.85 411.85 1163.18 413.621 1168.32 413.621C1173.52 413.621 1177.88 411.849 1181.43 408.304C1184.97 404.765 1186.74 400.314 1186.75 394.912L1186.73 394.401C1186.5 389.157 1184.67 384.868 1181.24 381.5L1181.23 381.497C1177.68 377.949 1173.39 376.18 1168.32 376.18Z" fill="#FF5E6B" stroke="black"/>
<path d="M1090.44 357.13C1096.89 357.13 1102.85 358.412 1108.31 360.981C1113.85 363.549 1118.34 367.079 1121.77 371.571L1122.03 371.91L1121.74 372.22L1110.12 384.415L1109.76 384.799L1109.4 384.412C1103.87 378.501 1097.95 375.595 1091.62 375.595C1086.21 375.595 1081.69 377.431 1078.02 381.106C1074.41 384.842 1072.6 389.494 1072.6 395.096C1072.6 400.564 1074.41 405.117 1078.01 408.789L1078.36 409.122C1081.97 412.512 1086.35 414.206 1091.52 414.206C1098.5 414.206 1104.55 411.198 1109.67 405.115L1110.02 404.707L1110.4 405.077L1122.5 416.687L1122.82 416.996L1122.55 417.35C1119.18 421.776 1114.67 425.432 1109.01 428.323L1109.01 428.324C1103.41 431.16 1097.18 432.573 1090.35 432.573C1079.69 432.573 1070.75 429.115 1063.56 422.189L1063.56 422.187C1056.36 415.189 1052.77 406.176 1052.77 395.193C1052.77 384.146 1056.39 375.037 1063.65 367.909C1070.9 360.722 1079.85 357.13 1090.44 357.13Z" fill="#4759CC" stroke="black"/>
<path d="M1003.03 358.398L1003.17 358.691L1015.3 385.319L1027.82 358.685L1027.96 358.398H1050.47L1050.08 359.132L1024.87 406.926V431.5H1005.72V406.926L980.804 359.13L980.423 358.398H1003.03Z" fill="#40C2B0" stroke="black"/>
<path d="M974.92 358.398V376.961H955.017V431.5H935.576V376.961H915.575V358.398H974.92Z" fill="#FCABF2" stroke="black"/>
<path d="M903.21 358.398V431.5H883.867V358.398H903.21Z" fill="#FF5E6B" stroke="black"/>
<path d="M814.188 358.398L814.337 358.574L846.824 396.665V358.398H865.777V431.5H851.288L851.139 431.324L819.237 393.725V431.5H800.383V358.398H814.188Z" fill="#4759CC" stroke="black"/>
<path d="M741.845 358.398V402.706C741.845 406.525 742.83 409.374 744.729 411.334C746.696 413.234 749.355 414.207 752.76 414.207C756.099 414.207 758.692 413.202 760.597 411.236L760.602 411.231C762.563 409.27 763.578 406.453 763.578 402.706V358.398H783.018V402.999C783.018 408.19 782.163 412.779 780.44 416.755C778.786 420.658 776.496 423.787 773.561 426.123L773.555 426.127C770.647 428.374 767.44 430.06 763.938 431.183L763.93 431.186C760.432 432.242 756.707 432.768 752.76 432.768C748.812 432.768 745.088 432.242 741.59 431.186L741.579 431.182C738.143 430.059 734.939 428.374 731.97 426.131L731.959 426.123V426.122C729.025 423.788 726.702 420.662 724.983 416.761L724.979 416.753C723.323 412.778 722.502 408.189 722.502 402.999V358.398H741.845Z" fill="#73E3F2" stroke="black"/>
<path d="M639.54 358.398L639.689 358.611L665.231 395.099L690.678 358.612L690.827 358.398H705.149V431.5H686.1V397.924L668.957 421.925L668.807 422.134H661.463L661.313 421.925L644.17 397.923V431.5H625.315V358.398H639.54Z" fill="#40C2B0" stroke="black"/>
<path d="M541.572 358.398L541.722 358.611L567.264 395.099L592.71 358.612L592.859 358.398H607.182V431.5H588.132V397.924L570.989 421.925L570.839 422.134H563.495L563.346 421.925L546.202 397.923V431.5H527.348V358.398H541.572Z" fill="#FCABF2" stroke="black"/>
<path d="M474.696 357.13C485.554 357.13 494.659 360.788 501.978 368.106C509.294 375.423 512.954 384.397 512.954 394.998C512.954 405.535 509.293 414.476 501.978 421.792C494.723 429.047 485.65 432.671 474.794 432.671C463.938 432.671 454.801 429.047 447.417 421.795L447.414 421.792C440.162 414.54 436.535 405.598 436.535 394.998C436.535 384.397 440.195 375.423 447.512 368.106C454.83 360.788 463.903 357.13 474.696 357.13ZM474.696 376.18C469.56 376.18 465.233 377.981 461.686 381.592L461.683 381.595C458.14 385.137 456.365 389.56 456.365 394.9C456.365 400.307 458.141 404.762 461.683 408.304C465.229 411.85 469.557 413.621 474.696 413.621C479.902 413.621 484.262 411.849 487.807 408.304C491.345 404.765 493.121 400.314 493.124 394.912L493.107 394.401C492.88 389.157 491.044 384.868 487.614 381.5L487.611 381.497C484.064 377.949 479.769 376.18 474.696 376.18Z" fill="#FF5E6B" stroke="black"/>
<path d="M396.824 357.13C403.266 357.13 409.225 358.412 414.694 360.981C420.225 363.549 424.715 367.079 428.15 371.571L428.409 371.91L428.115 372.22L416.505 384.415L416.14 384.799L415.777 384.412C410.252 378.501 404.327 375.595 397.995 375.595C392.594 375.595 388.072 377.431 384.396 381.106C380.79 384.842 378.981 389.494 378.981 395.096C378.981 400.564 380.788 405.117 384.394 408.789L384.74 409.122C388.35 412.512 392.727 414.206 397.897 414.206C404.885 414.206 410.93 411.198 416.053 405.115L416.396 404.707L416.781 405.077L428.88 416.687L429.201 416.996L428.932 417.35C425.563 421.776 421.045 425.432 415.395 428.323L415.393 428.324C409.788 431.16 403.562 432.573 396.727 432.573C386.07 432.573 377.129 429.115 369.939 422.189L369.938 422.187C362.741 415.189 359.151 406.176 359.151 395.193C359.151 384.145 362.774 375.036 370.033 367.908C377.286 360.722 386.227 357.13 396.824 357.13Z" fill="#4759CC" stroke="black"/>
<path d="M309.413 358.398L309.547 358.691L321.685 385.319L334.202 358.685L334.337 358.398H356.851L356.464 359.132L331.252 406.926V431.5H312.104V406.926L287.184 359.13L286.803 358.398H309.413Z" fill="#40C2B0" stroke="black"/>
<path d="M281.299 358.398V376.961H261.396V431.5H241.955V376.961H221.954V358.398H281.299Z" fill="#FCABF2" stroke="black"/>
<path d="M209.59 358.398V431.5H190.247V358.398H209.59Z" fill="#FF5E6B" stroke="black"/>
<path d="M120.567 358.398L120.717 358.574L153.204 396.665V358.398H172.157V431.5H157.668L157.519 431.324L125.617 393.725V431.5H106.763V358.398H120.567Z" fill="#4759CC" stroke="black"/>
<path d="M48.2236 358.398V402.706C48.2236 406.525 49.2091 409.374 51.1074 411.334C53.0754 413.234 55.7335 414.207 59.1387 414.207C62.4784 414.207 65.071 413.202 66.9756 411.236L66.9805 411.231C68.9421 409.27 69.956 406.453 69.9561 402.706V358.398H89.3965V402.999C89.3964 408.19 88.5415 412.779 86.8193 416.755C85.1653 420.658 82.8752 423.787 79.9395 426.123L79.9336 426.127C77.0256 428.374 73.819 430.06 70.3164 431.183L70.3086 431.186C66.8106 432.242 63.0862 432.768 59.1387 432.768C55.1911 432.768 51.4667 432.242 47.9688 431.186L47.958 431.182C44.5218 430.059 41.3182 428.374 38.3486 426.131L38.3379 426.123V426.122C35.4041 423.788 33.0811 420.662 31.3623 416.761L31.3584 416.753C29.7021 412.778 28.8809 408.189 28.8809 402.999V358.398H48.2236Z" fill="#73E3F2" stroke="black"/>
<path d="M-54.0811 358.398L-53.9316 358.611L-28.3906 395.1L-2.94336 358.612L-2.79395 358.398H11.5283V431.5H-7.52148V397.924L-24.6641 421.925L-24.8145 422.134H-32.1582L-32.3076 421.925L-49.4512 397.923V431.5H-68.3057V358.398H-54.0811Z" fill="#40C2B0" stroke="black"/>
<path d="M1483.47 266.398V284.961H1463.56V339.5H1444.12V284.961H1424.12V266.398H1483.47Z" fill="#FCABF2" stroke="black"/>
<path d="M1411.76 266.398V339.5H1392.42V266.398H1411.76Z" fill="#FF5E6B" stroke="black"/>
<path d="M1322.74 266.398L1322.89 266.574L1355.37 304.665V266.398H1374.33V339.5H1359.84L1359.69 339.324L1327.79 301.725V339.5H1308.93V266.398H1322.74Z" fill="#4759CC" stroke="black"/>
<path d="M1250.39 266.398V310.706C1250.39 314.525 1251.38 317.374 1253.28 319.334C1255.24 321.234 1257.9 322.207 1261.31 322.207C1264.65 322.207 1267.24 321.202 1269.14 319.236L1269.15 319.231C1271.11 317.27 1272.13 314.453 1272.13 310.706V266.398H1291.57V310.999C1291.57 316.19 1290.71 320.779 1288.99 324.755L1288.99 324.756C1287.34 328.659 1285.04 331.788 1282.11 334.123L1282.1 334.127C1279.19 336.374 1275.99 338.06 1272.49 339.183L1272.48 339.186C1268.98 340.242 1265.26 340.768 1261.31 340.768C1257.36 340.768 1253.64 340.242 1250.14 339.186L1250.13 339.182C1246.69 338.059 1243.49 336.374 1240.52 334.131L1240.51 334.123C1237.57 331.789 1235.25 328.662 1233.53 324.761L1233.53 324.753C1231.87 320.778 1231.05 316.189 1231.05 310.999V266.398H1250.39Z" fill="#73E3F2" stroke="black"/>
<path d="M1148.09 266.398L1148.24 266.611L1173.78 303.1L1199.23 266.612L1199.38 266.398H1213.7V339.5H1194.65V305.924L1177.5 329.925L1177.35 330.134H1170.01L1169.86 329.925L1152.72 305.923V339.5H1133.86V266.398H1148.09Z" fill="#40C2B0" stroke="black"/>
<path d="M1050.12 266.398L1050.27 266.611L1075.81 303.1L1101.26 266.612L1101.41 266.398H1115.73V339.5H1096.68V305.924L1079.54 329.925L1079.39 330.134H1072.04L1071.89 329.925L1054.75 305.923V339.5H1035.9V266.398H1050.12Z" fill="#FCABF2" stroke="black"/>
<path d="M983.245 265.13C994.102 265.13 1003.21 268.787 1010.53 276.106C1017.84 283.423 1021.5 292.397 1021.5 302.998C1021.5 313.535 1017.84 322.476 1010.53 329.792C1003.27 337.047 994.199 340.671 983.343 340.671C972.487 340.671 963.349 337.047 955.966 329.795L955.963 329.792C948.711 322.54 945.084 313.597 945.084 302.998C945.084 292.397 948.744 283.423 956.061 276.106C963.379 268.788 972.452 265.13 983.245 265.13ZM983.245 284.18C978.109 284.18 973.781 285.981 970.234 289.592L970.231 289.595C966.689 293.137 964.914 297.56 964.914 302.9C964.914 308.307 966.69 312.762 970.231 316.304C973.778 319.85 978.106 321.621 983.245 321.621C988.451 321.621 992.81 319.849 996.355 316.304C999.894 312.765 1001.67 308.314 1001.67 302.912L1001.66 302.401C1001.43 297.157 999.593 292.868 996.163 289.5L996.16 289.497C992.613 285.949 988.317 284.18 983.245 284.18Z" fill="#FF5E6B" stroke="black"/>
<path d="M905.372 265.13C911.814 265.13 917.773 266.412 923.242 268.981C928.773 271.549 933.263 275.079 936.698 279.571L936.957 279.91L936.663 280.22L925.053 292.415L924.688 292.799L924.325 292.412C918.8 286.501 912.875 283.595 906.543 283.595C901.141 283.595 896.619 285.431 892.944 289.106C889.338 292.842 887.529 297.494 887.529 303.096C887.529 308.564 889.335 313.117 892.941 316.789L893.288 317.122C896.898 320.512 901.275 322.206 906.445 322.206C913.433 322.206 919.478 319.198 924.601 313.115L924.944 312.707L925.329 313.077L937.428 324.687L937.749 324.996L937.479 325.35C934.111 329.776 929.593 333.432 923.942 336.323L923.94 336.324C918.335 339.16 912.11 340.573 905.274 340.573C894.618 340.573 885.677 337.115 878.487 330.189L878.485 330.187C871.289 323.189 867.699 314.176 867.699 303.193C867.699 292.146 871.32 283.037 878.579 275.909C885.832 268.722 894.774 265.13 905.372 265.13Z" fill="#4759CC" stroke="black"/>
<path d="M817.962 266.398L818.096 266.691L830.233 293.319L842.75 266.685L842.886 266.398H865.399L865.013 267.132L839.801 314.926V339.5H820.653V314.926L795.732 267.13L795.352 266.398H817.962Z" fill="#40C2B0" stroke="black"/>
<path d="M789.848 266.398V284.961H769.944V339.5H750.504V284.961H730.503V266.398H789.848Z" fill="#FCABF2" stroke="black"/>
<path d="M718.138 266.398V339.5H698.795V266.398H718.138Z" fill="#FF5E6B" stroke="black"/>
<path d="M629.115 266.398L629.265 266.574L661.752 304.665V266.398H680.705V339.5H666.216L666.066 339.324L634.165 301.725V339.5H615.311V266.398H629.115Z" fill="#4759CC" stroke="black"/>
<path d="M556.772 266.398V310.706C556.772 314.525 557.758 317.374 559.656 319.334C561.624 321.234 564.282 322.207 567.688 322.207C571.027 322.207 573.62 321.202 575.524 319.236L575.529 319.231C577.491 317.27 578.505 314.453 578.505 310.706V266.398H597.945V310.999C597.945 316.19 597.09 320.779 595.368 324.755C593.714 328.658 591.424 331.787 588.488 334.123L588.482 334.127C585.574 336.374 582.368 338.06 578.865 339.183L578.857 339.186C575.359 340.242 571.635 340.768 567.688 340.768C563.74 340.768 560.016 340.242 556.518 339.186L556.507 339.182C553.071 338.059 549.867 336.374 546.897 334.131L546.887 334.123V334.122C543.953 331.788 541.63 328.662 539.911 324.761L539.907 324.753C538.251 320.778 537.43 316.189 537.43 310.999V266.398H556.772Z" fill="#73E3F2" stroke="black"/>
<path d="M454.468 266.398L454.617 266.611L480.159 303.099L505.605 266.612L505.755 266.398H520.077V339.5H501.027V305.924L483.885 329.925L483.734 330.134H476.391L476.241 329.925L459.098 305.923V339.5H440.243V266.398H454.468Z" fill="#40C2B0" stroke="black"/>
<path d="M356.5 266.398L356.649 266.611L382.191 303.099L407.638 266.612L407.787 266.398H422.109V339.5H403.06V305.924L385.917 329.925L385.767 330.134H378.423L378.273 329.925L361.13 305.923V339.5H342.275V266.398H356.5Z" fill="#FCABF2" stroke="black"/>
<path d="M289.624 265.13C300.481 265.13 309.586 268.788 316.905 276.106C324.222 283.423 327.882 292.397 327.882 302.998C327.882 313.535 324.221 322.476 316.905 329.792C309.651 337.047 300.577 340.671 289.722 340.671C278.866 340.671 269.728 337.047 262.345 329.795L262.342 329.792C255.09 322.54 251.463 313.598 251.463 302.998C251.463 292.397 255.123 283.423 262.439 276.106C269.758 268.788 278.831 265.13 289.624 265.13ZM289.624 284.18C284.487 284.18 280.16 285.981 276.613 289.592L276.61 289.595C273.068 293.137 271.293 297.56 271.293 302.9C271.293 308.307 273.069 312.762 276.61 316.304C280.157 319.85 284.485 321.621 289.624 321.621C294.83 321.621 299.189 319.849 302.734 316.304C306.273 312.765 308.049 308.314 308.052 302.912L308.035 302.401C307.808 297.157 305.972 292.868 302.542 289.5L302.539 289.497C298.991 285.949 294.696 284.18 289.624 284.18Z" fill="#FF5E6B" stroke="black"/>
<path d="M211.752 265.13C218.194 265.13 224.153 266.412 229.622 268.981C235.153 271.549 239.643 275.079 243.078 279.571L243.337 279.91L243.043 280.22L231.433 292.415L231.067 292.799L230.705 292.412C225.18 286.501 219.255 283.595 212.923 283.595C207.521 283.595 202.999 285.431 199.324 289.106C195.718 292.842 193.909 297.494 193.909 303.096C193.909 308.564 195.715 313.117 199.321 316.789L199.668 317.122C203.278 320.512 207.655 322.206 212.825 322.206C219.813 322.206 225.858 319.198 230.98 313.115L231.324 312.707L231.709 313.077L243.808 324.687L244.129 324.996L243.859 325.35C240.491 329.776 235.973 333.432 230.322 336.323L230.32 336.324C224.715 339.16 218.49 340.573 211.654 340.573C200.998 340.573 192.057 337.115 184.867 330.189L184.865 330.187C177.669 323.189 174.079 314.176 174.079 303.193C174.079 292.145 177.701 283.036 184.961 275.908C192.213 268.722 201.155 265.13 211.752 265.13Z" fill="#4759CC" stroke="black"/>
<path d="M124.341 266.398L124.475 266.691L136.612 293.319L149.13 266.685L149.265 266.398H171.778L171.392 267.132L146.18 314.926V339.5H127.032V314.926L102.111 267.13L101.73 266.398H124.341Z" fill="#40C2B0" stroke="black"/>
<path d="M96.2275 266.398V284.961H76.3242V339.5H56.8838V284.961H36.8828V266.398H96.2275Z" fill="#FCABF2" stroke="black"/>
<path d="M24.5176 266.398V339.5H5.1748V266.398H24.5176Z" fill="#FF5E6B" stroke="black"/>
<path d="M1423.92 172.13C1430.37 172.13 1436.33 173.412 1441.79 175.981C1447.33 178.549 1451.82 182.079 1455.25 186.571L1455.51 186.91L1455.22 187.22L1443.61 199.415L1443.24 199.799L1442.88 199.412C1437.35 193.501 1431.43 190.595 1425.1 190.595C1419.69 190.595 1415.17 192.431 1411.5 196.106C1407.89 199.842 1406.08 204.494 1406.08 210.096C1406.08 215.564 1407.89 220.117 1411.49 223.789L1411.84 224.122C1415.45 227.512 1419.83 229.206 1425 229.206C1431.99 229.206 1438.03 226.198 1443.15 220.115L1443.5 219.707L1443.88 220.077L1455.98 231.687L1456.3 231.996L1456.03 232.35C1452.66 236.776 1448.15 240.432 1442.5 243.323L1442.49 243.324C1436.89 246.16 1430.66 247.573 1423.83 247.573C1413.17 247.573 1404.23 244.115 1397.04 237.189L1397.04 237.187C1389.84 230.189 1386.25 221.176 1386.25 210.193C1386.25 199.146 1389.87 190.037 1397.13 182.909C1404.38 175.722 1413.33 172.13 1423.92 172.13Z" fill="#4759CC" stroke="black"/>
<path d="M1336.51 173.398L1336.65 173.691L1348.79 200.319L1361.3 173.685L1361.44 173.398H1383.95L1383.56 174.132L1358.35 221.926V246.5H1339.21V221.926L1314.28 174.13L1313.9 173.398H1336.51Z" fill="#40C2B0" stroke="black"/>
<path d="M1308.4 173.398V191.961H1288.5V246.5H1269.06V191.961H1249.06V173.398H1308.4Z" fill="#FCABF2" stroke="black"/>
<path d="M1236.69 173.398V246.5H1217.35V173.398H1236.69Z" fill="#FF5E6B" stroke="black"/>
<path d="M1147.67 173.398L1147.82 173.574L1180.3 211.665V173.398H1199.26V246.5H1184.77L1184.62 246.324L1152.72 208.725V246.5H1133.86V173.398H1147.67Z" fill="#4759CC" stroke="black"/>
<path d="M1075.33 173.398V217.706C1075.33 221.525 1076.31 224.374 1078.21 226.334C1080.18 228.234 1082.84 229.207 1086.24 229.207C1089.58 229.207 1092.17 228.202 1094.08 226.236L1094.08 226.23C1096.04 224.269 1097.06 221.453 1097.06 217.706V173.398H1116.5V217.999C1116.5 223.19 1115.64 227.779 1113.92 231.755L1113.92 231.756C1112.27 235.659 1109.98 238.788 1107.04 241.123L1107.04 241.127C1104.13 243.374 1100.92 245.06 1097.42 246.183L1097.41 246.186C1093.91 247.242 1090.19 247.768 1086.24 247.768C1082.29 247.768 1078.57 247.242 1075.07 246.186L1075.06 246.182C1071.62 245.059 1068.42 243.374 1065.45 241.131L1065.44 241.123C1062.51 238.789 1060.18 235.662 1058.46 231.761L1058.46 231.753C1056.8 227.778 1055.98 223.189 1055.98 217.999V173.398H1075.33Z" fill="#73E3F2" stroke="black"/>
<path d="M973.021 173.398L973.17 173.611L998.711 210.1L1024.16 173.612L1024.31 173.398H1038.63V246.5H1019.58V212.924L1002.44 236.925L1002.29 237.134H994.943L994.794 236.925L977.65 212.923V246.5H958.796V173.398H973.021Z" fill="#40C2B0" stroke="black"/>
<path d="M875.053 173.398L875.202 173.611L900.743 210.1L926.19 173.612L926.34 173.398H940.662V246.5H921.612V212.924L904.47 236.925L904.319 237.134H896.976L896.826 236.925L879.683 212.923V246.5H860.828V173.398H875.053Z" fill="#FCABF2" stroke="black"/>
<path d="M808.177 172.13C819.034 172.13 828.14 175.787 835.459 183.106C842.775 190.423 846.435 199.397 846.435 209.998C846.435 220.535 842.774 229.476 835.459 236.792C828.204 244.047 819.13 247.671 808.274 247.671C797.418 247.671 788.281 244.047 780.897 236.795L780.895 236.792C773.642 229.54 770.016 220.597 770.016 209.998C770.016 199.397 773.676 190.423 780.992 183.106C788.31 175.788 797.383 172.13 808.177 172.13ZM808.177 191.18C803.04 191.18 798.713 192.981 795.166 196.592L795.163 196.595C791.621 200.137 789.846 204.56 789.846 209.9C789.846 215.307 791.622 219.762 795.163 223.304C798.709 226.85 803.037 228.621 808.177 228.621C813.383 228.621 817.742 226.849 821.287 223.304C824.826 219.765 826.602 215.314 826.604 209.912L826.588 209.401C826.361 204.157 824.524 199.868 821.095 196.5L821.092 196.497C817.544 192.949 813.249 191.18 808.177 191.18Z" fill="#FF5E6B" stroke="black"/>
<path d="M730.305 172.13C736.747 172.13 742.706 173.412 748.175 175.981C753.706 178.549 758.195 182.079 761.631 186.571L761.89 186.91L761.596 187.22L749.985 199.415L749.62 199.799L749.258 199.412C743.732 193.501 737.807 190.595 731.476 190.595C726.074 190.595 721.552 192.431 717.877 196.106C714.27 199.842 712.462 204.494 712.462 210.096C712.462 215.564 714.268 220.117 717.874 223.789L718.221 224.122C721.831 227.512 726.207 229.206 731.378 229.206C738.365 229.206 744.411 226.198 749.533 220.115L749.877 219.707L750.262 220.077L762.36 231.687L762.682 231.996L762.412 232.35C759.043 236.776 754.526 240.432 748.875 243.323L748.873 243.324C743.268 246.16 737.043 247.573 730.207 247.573C719.551 247.573 710.61 244.115 703.42 237.189L703.418 237.187C696.221 230.189 692.632 221.176 692.632 210.193C692.632 199.145 696.254 190.036 703.514 182.908C710.766 175.722 719.707 172.13 730.305 172.13Z" fill="#4759CC" stroke="black"/>
<path d="M642.894 173.398L643.027 173.691L655.165 200.319L667.683 173.685L667.817 173.398H690.331L689.944 174.132L664.732 221.926V246.5H645.585V221.926L620.664 174.13L620.283 173.398H642.894Z" fill="#40C2B0" stroke="black"/>
<path d="M614.78 173.398V191.961H594.877V246.5H575.437V191.961H555.436V173.398H614.78Z" fill="#FCABF2" stroke="black"/>
<path d="M543.07 173.398V246.5H523.728V173.398H543.07Z" fill="#FF5E6B" stroke="black"/>
<path d="M454.048 173.398L454.197 173.574L486.685 211.665V173.398H505.638V246.5H491.148L490.999 246.324L459.098 208.725V246.5H440.243V173.398H454.048Z" fill="#4759CC" stroke="black"/>
<path d="M381.704 173.398V217.706C381.704 221.525 382.69 224.374 384.588 226.334C386.556 228.234 389.214 229.207 392.619 229.207C395.959 229.207 398.552 228.202 400.456 226.236L400.461 226.23C402.423 224.269 403.437 221.453 403.437 217.706V173.398H422.877V217.999C422.877 223.19 422.022 227.779 420.3 231.755C418.646 235.658 416.356 238.787 413.42 241.123L413.414 241.127C410.506 243.374 407.299 245.06 403.797 246.183L403.789 246.186C400.291 247.242 396.567 247.768 392.619 247.768C388.672 247.768 384.947 247.242 381.449 246.186L381.438 246.182C378.002 245.059 374.799 243.374 371.829 241.131L371.818 241.123V241.122C368.885 238.788 366.562 235.662 364.843 231.761L364.839 231.753C363.183 227.778 362.361 223.189 362.361 217.999V173.398H381.704Z" fill="#73E3F2" stroke="black"/>
<path d="M279.399 173.398L279.549 173.611L305.091 210.099L330.537 173.612L330.687 173.398H345.009V246.5H325.959V212.924L308.816 236.925L308.666 237.134H301.322L301.173 236.925L284.029 212.923V246.5H265.175V173.398H279.399Z" fill="#40C2B0" stroke="black"/>
<path d="M181.433 173.398L181.582 173.611L207.123 210.1L232.57 173.612L232.72 173.398H247.042V246.5H227.992V212.924L210.85 236.925L210.699 237.134H203.355L203.206 236.925L186.062 212.923V246.5H167.208V173.398H181.433Z" fill="#FCABF2" stroke="black"/>
<path d="M114.557 172.13C125.414 172.13 134.519 175.788 141.838 183.106C149.154 190.423 152.814 199.397 152.814 209.998C152.814 220.535 149.154 229.476 141.838 236.792C134.583 244.046 125.51 247.671 114.654 247.671C103.798 247.671 94.661 244.047 87.2773 236.795L87.2744 236.792C80.0222 229.54 76.3955 220.597 76.3955 209.998C76.3955 199.397 80.0557 190.423 87.3721 183.106C94.6904 175.788 103.763 172.13 114.557 172.13ZM114.557 191.18C109.42 191.18 105.093 192.981 101.546 196.592L101.543 196.595C98.0005 200.137 96.2256 204.56 96.2256 209.9C96.2256 215.307 98.0017 219.762 101.543 223.304C105.089 226.85 109.417 228.621 114.557 228.621C119.763 228.621 124.122 226.849 127.667 223.304C131.206 219.765 132.982 215.314 132.984 209.912L132.968 209.401C132.741 204.157 130.904 199.868 127.475 196.5L127.472 196.497C123.924 192.949 119.629 191.18 114.557 191.18Z" fill="#FF5E6B" stroke="black"/>
<path d="M36.6836 172.13C43.1255 172.13 49.0846 173.412 54.5537 175.981C60.0847 178.549 64.5743 182.079 68.0098 186.571L68.2686 186.91L67.9746 187.22L56.3643 199.415L55.999 199.799L55.6367 199.412C50.1113 193.501 44.1864 190.595 37.8545 190.595C32.453 190.595 27.9309 192.431 24.2559 196.106C20.6493 199.842 18.8408 204.494 18.8408 210.096C18.8409 215.564 20.6469 220.117 24.2529 223.789L24.5996 224.122C28.2098 227.512 32.5862 229.206 37.7568 229.206C44.7442 229.206 50.7898 226.198 55.9121 220.115L56.2559 219.707L56.6406 220.077L68.7393 231.687L69.0605 231.996L68.791 232.35C65.4222 236.776 60.9046 240.432 55.2539 243.323L55.252 243.324C49.6469 246.16 43.4217 247.573 36.5859 247.573C25.9296 247.573 16.9887 244.115 9.79883 237.189L9.79688 237.187C2.60023 230.189 -0.989208 221.176 -0.989258 210.193C-0.989258 199.145 2.63298 190.036 9.89258 182.908C17.1449 175.722 26.0861 172.13 36.6836 172.13Z" fill="#4759CC" stroke="black"/>
<path d="M1447.72 81.3982L1447.87 81.6111L1473.42 118.1L1498.86 81.6121L1499.01 81.3982H1513.33V154.5H1494.28V120.924L1477.14 144.925L1476.99 145.134H1469.65L1469.5 144.925L1452.35 120.923V154.5H1433.5V81.3982H1447.72Z" fill="#FCABF2" stroke="black"/>
<path d="M1380.85 80.1298C1391.71 80.1298 1400.81 83.7875 1408.13 91.1063C1415.45 98.4226 1419.11 107.397 1419.11 117.998C1419.11 128.535 1415.45 137.476 1408.13 144.792C1400.88 152.047 1391.8 155.671 1380.95 155.671C1370.09 155.671 1360.95 152.047 1353.57 144.795L1353.57 144.792C1346.31 137.54 1342.69 128.597 1342.69 117.998C1342.69 107.397 1346.35 98.4227 1353.66 91.1063C1360.98 83.788 1370.06 80.1298 1380.85 80.1298ZM1380.85 99.1796C1375.71 99.1796 1371.38 100.981 1367.84 104.592L1367.83 104.595C1364.29 108.137 1362.52 112.56 1362.52 117.9C1362.52 123.307 1364.29 127.762 1367.83 131.304C1371.38 134.85 1375.71 136.621 1380.85 136.621C1386.05 136.621 1390.41 134.849 1393.96 131.304C1397.5 127.765 1399.27 123.314 1399.28 117.912L1399.26 117.401C1399.03 112.157 1397.2 107.868 1393.77 104.5L1393.76 104.497C1390.22 100.949 1385.92 99.1796 1380.85 99.1796Z" fill="#FF5E6B" stroke="black"/>
<path d="M1302.98 80.1298C1309.42 80.1298 1315.38 81.4119 1320.85 83.9813C1326.38 86.5493 1330.87 90.0787 1334.3 94.5712L1334.56 94.91L1334.27 95.2196L1322.66 107.415L1322.29 107.799L1321.93 107.412C1316.4 101.501 1310.48 98.5946 1304.15 98.5946C1298.75 98.5946 1294.22 100.431 1290.55 104.106C1286.94 107.842 1285.13 112.494 1285.13 118.096C1285.13 123.564 1286.94 128.117 1290.55 131.789L1290.89 132.122C1294.5 135.512 1298.88 137.206 1304.05 137.206C1311.04 137.206 1317.08 134.198 1322.21 128.115L1322.55 127.707L1322.93 128.077L1335.03 139.687L1335.35 139.996L1335.08 140.35C1331.72 144.776 1327.2 148.432 1321.55 151.323L1321.54 151.324C1315.94 154.16 1309.71 155.573 1302.88 155.573C1292.22 155.573 1283.28 152.115 1276.09 145.189L1276.09 145.187C1268.89 138.189 1265.3 129.176 1265.3 118.193C1265.3 107.146 1268.92 98.0366 1276.18 90.9091C1283.44 83.7224 1292.38 80.1298 1302.98 80.1298Z" fill="#4759CC" stroke="black"/>
<path d="M1215.57 81.3982L1215.7 81.6912L1227.84 108.319L1240.35 81.6853L1240.49 81.3982H1263L1262.62 82.1316L1237.4 129.926V154.5H1218.26V129.926L1193.34 82.1296L1192.96 81.3982H1215.57Z" fill="#40C2B0" stroke="black"/>
<path d="M1187.45 81.3982V99.9607H1167.55V154.5H1148.11V99.9607H1128.11V81.3982H1187.45Z" fill="#FCABF2" stroke="black"/>
<path d="M1115.74 81.3982V154.5H1096.4V81.3982H1115.74Z" fill="#FF5E6B" stroke="black"/>
<path d="M1026.72 81.3982L1026.87 81.574L1059.36 119.665V81.3982H1078.31V154.5H1063.82L1063.67 154.324L1031.77 116.725V154.5H1012.92V81.3982H1026.72Z" fill="#4759CC" stroke="black"/>
<path d="M954.376 81.3982V125.706C954.376 129.525 955.361 132.374 957.26 134.334C959.228 136.234 961.886 137.207 965.291 137.207C968.631 137.207 971.223 136.202 973.128 134.236L973.133 134.23C975.094 132.269 976.109 129.453 976.109 125.706V81.3982H995.549V125.999C995.549 131.19 994.694 135.779 992.972 139.755L992.973 139.756C991.319 143.659 989.028 146.788 986.092 149.123L986.086 149.127C983.178 151.374 979.971 153.06 976.469 154.183L976.461 154.186C972.963 155.242 969.239 155.768 965.291 155.768C961.344 155.768 957.62 155.242 954.122 154.186L954.11 154.182C950.674 153.059 947.471 151.374 944.501 149.131L944.491 149.123C941.557 146.789 939.234 143.662 937.515 139.761L937.511 139.753C935.854 135.778 935.033 131.189 935.033 125.999V81.3982H954.376Z" fill="#73E3F2" stroke="black"/>
<path d="M852.071 81.3982L852.221 81.6111L877.762 118.1L903.209 81.6121L903.358 81.3982H917.681V154.5H898.631V120.924L881.488 144.925L881.338 145.134H873.994L873.845 144.925L856.701 120.923V154.5H837.847V81.3982H852.071Z" fill="#40C2B0" stroke="black"/>
<path d="M754.104 81.3982L754.254 81.6111L779.795 118.1L805.242 81.6121L805.392 81.3982H819.714V154.5H800.664V120.924L783.521 144.925L783.371 145.134H776.027L775.878 144.925L758.734 120.923V154.5H739.88V81.3982H754.104Z" fill="#FCABF2" stroke="black"/>
<path d="M687.229 80.1298C698.086 80.1298 707.191 83.7875 714.51 91.1063C721.826 98.4227 725.486 107.397 725.486 117.998C725.486 128.535 721.825 137.476 714.51 144.792C707.255 152.047 698.182 155.671 687.326 155.671C676.47 155.671 667.333 152.047 659.949 144.795L659.946 144.792C652.694 137.54 649.067 128.597 649.067 117.998C649.067 107.397 652.728 98.4227 660.044 91.1063C667.362 83.788 676.435 80.1298 687.229 80.1298ZM687.229 99.1796C682.092 99.1796 677.765 100.981 674.218 104.592L674.215 104.595C670.672 108.137 668.897 112.56 668.897 117.9C668.897 123.307 670.674 127.762 674.215 131.304C677.761 134.85 682.089 136.621 687.229 136.621C692.435 136.621 696.794 134.849 700.339 131.304C703.878 127.765 705.654 123.314 705.656 117.912L705.64 117.401C705.412 112.157 703.576 107.868 700.146 104.5L700.144 104.497C696.596 100.949 692.301 99.1796 687.229 99.1796Z" fill="#FF5E6B" stroke="black"/>
<path d="M609.355 80.1298C615.797 80.1298 621.756 81.4119 627.226 83.9813C632.757 86.5493 637.246 90.0787 640.682 94.5712L640.94 94.91L640.646 95.2196L629.036 107.415L628.671 107.799L628.309 107.412C622.783 101.501 616.858 98.5946 610.526 98.5946C605.125 98.5946 600.603 100.431 596.928 104.106C593.321 107.842 591.513 112.494 591.513 118.096C591.513 123.564 593.319 128.117 596.925 131.789L597.271 132.122C600.882 135.512 605.258 137.206 610.429 137.206C617.416 137.206 623.462 134.198 628.584 128.115L628.928 127.707L629.312 128.077L641.411 139.687L641.732 139.996L641.463 140.35C638.094 144.776 633.576 148.432 627.926 151.323L627.924 151.324C622.319 154.16 616.094 155.573 609.258 155.573C598.601 155.573 589.661 152.115 582.471 145.189L582.469 145.187C575.272 138.189 571.683 129.176 571.683 118.193C571.683 107.145 575.305 98.0358 582.564 90.9081C589.817 83.7223 598.758 80.1298 609.355 80.1298Z" fill="#4759CC" stroke="black"/>
<path d="M521.945 81.3982L522.079 81.6912L534.217 108.319L546.734 81.6853L546.869 81.3982H569.383L568.996 82.1316L543.784 129.926V154.5H524.637V129.926L499.716 82.1296L499.335 81.3982H521.945Z" fill="#40C2B0" stroke="black"/>
<path d="M493.831 81.3982V99.9607H473.928V154.5H454.487V99.9607H434.486V81.3982H493.831Z" fill="#FCABF2" stroke="black"/>
<path d="M422.121 81.3982V154.5H402.778V81.3982H422.121Z" fill="#FF5E6B" stroke="black"/>
<path d="M333.099 81.3982L333.248 81.574L365.735 119.665V81.3982H384.688V154.5H370.199L370.05 154.324L338.148 116.725V154.5H319.294V81.3982H333.099Z" fill="#4759CC" stroke="black"/>
<path d="M260.756 81.3982V125.706C260.756 129.525 261.741 132.374 263.64 134.334C265.608 136.234 268.266 137.207 271.671 137.207C275.011 137.207 277.603 136.202 279.508 134.236L279.513 134.23C281.474 132.269 282.488 129.453 282.488 125.706V81.3982H301.929V125.999C301.929 131.19 301.074 135.779 299.352 139.755C297.698 143.658 295.407 146.787 292.472 149.123L292.466 149.127C289.558 151.374 286.351 153.06 282.849 154.183L282.841 154.186C279.343 155.242 275.618 155.768 271.671 155.768C267.723 155.768 263.999 155.242 260.501 154.186L260.49 154.182C257.054 153.059 253.85 151.374 250.881 149.131L250.87 149.123V149.122C247.936 146.788 245.613 143.662 243.895 139.761L243.891 139.753C242.234 135.778 241.413 131.189 241.413 125.999V81.3982H260.756Z" fill="#73E3F2" stroke="black"/>
<path d="M158.451 81.3982L158.601 81.6111L184.142 118.1L209.589 81.6121L209.738 81.3982H224.061V154.5H205.011V120.924L187.868 144.925L187.718 145.134H180.374L180.225 144.925L163.081 120.923V154.5H144.227V81.3982H158.451Z" fill="#40C2B0" stroke="black"/>
<path d="M60.4844 81.3982L60.6338 81.6111L86.1748 118.1L111.622 81.6121L111.771 81.3982H126.094V154.5H107.044V120.924L89.9014 144.925L89.751 145.134H82.4072L82.2578 144.925L65.1143 120.923V154.5H46.2598V81.3982H60.4844Z" fill="#FCABF2" stroke="black"/>
<path d="M-6.39258 80.1298C4.46464 80.1298 13.5698 83.7876 20.8887 91.1063C28.205 98.4227 31.8652 107.397 31.8652 117.998C31.8652 128.535 28.2044 137.476 20.8887 144.792C13.634 152.046 4.56087 155.671 -6.29492 155.671C-17.1509 155.671 -26.2882 152.047 -33.6719 144.795L-33.6748 144.792C-40.927 137.54 -44.5537 128.597 -44.5537 117.998C-44.5537 107.397 -40.8935 98.4227 -33.5771 91.1063C-26.2589 83.788 -17.1859 80.1298 -6.39258 80.1298ZM-6.39258 99.1796C-11.5291 99.1796 -15.8563 100.981 -19.4033 104.592L-19.4062 104.595C-22.9487 108.137 -24.7236 112.56 -24.7236 117.9C-24.7236 123.307 -22.9475 127.762 -19.4062 131.304C-15.8599 134.85 -11.532 136.621 -6.39258 136.621C-1.18643 136.621 3.17276 134.849 6.71777 131.304C10.2566 127.765 12.0326 123.314 12.0352 117.912L12.0186 117.401C11.7913 112.157 9.95505 107.868 6.52539 104.5L6.52246 104.497C2.97489 100.949 -1.32029 99.1796 -6.39258 99.1796Z" fill="#FF5E6B" stroke="black"/>
<path d="M1410.64 -10.6019L1410.79 -10.389L1436.33 26.1002L1461.78 -10.3881L1461.93 -10.6019H1476.25V62.4996H1457.2V28.9235L1440.06 52.9244L1439.91 53.1334H1432.56L1432.42 52.9244L1415.27 28.9225V62.4996H1396.42V-10.6019H1410.64Z" fill="#40C2B0" stroke="black"/>
<path d="M1312.67 -10.6019L1312.82 -10.389L1338.37 26.1002L1363.81 -10.3881L1363.96 -10.6019H1378.28V62.4996H1359.23V28.9235L1342.09 52.9244L1341.94 53.1334H1334.6L1334.45 52.9244L1317.3 28.9225V62.4996H1298.45V-10.6019H1312.67Z" fill="#FCABF2" stroke="black"/>
<path d="M1245.8 -11.8702C1256.66 -11.8702 1265.76 -8.21254 1273.08 -0.893677C1280.4 6.42264 1284.06 15.3971 1284.06 25.9979C1284.06 36.5346 1280.4 45.4762 1273.08 52.7919C1265.83 60.0466 1256.75 63.6707 1245.9 63.6708C1235.04 63.6708 1225.9 60.0466 1218.52 52.7948L1218.52 52.7919C1211.26 45.5396 1207.64 36.5975 1207.64 25.9979C1207.64 15.3969 1211.3 6.42269 1218.61 -0.893677C1225.93 -8.21197 1235.01 -11.8702 1245.8 -11.8702ZM1245.8 7.17957C1240.66 7.17957 1236.34 8.98129 1232.79 12.5917L1232.79 12.5946C1229.24 16.1372 1227.47 20.5603 1227.47 25.9003C1227.47 31.3071 1229.24 35.7622 1232.79 39.3036C1236.33 42.85 1240.66 44.621 1245.8 44.621C1251.01 44.6209 1255.36 42.8486 1258.91 39.3036C1262.45 35.7647 1264.22 31.3137 1264.23 25.912L1264.21 25.4012C1263.98 20.1568 1262.15 15.8683 1258.72 12.4999L1258.71 12.4969C1255.17 8.9494 1250.87 7.17962 1245.8 7.17957Z" fill="#FF5E6B" stroke="black"/>
<path d="M1167.93 -11.8702C1174.37 -11.8702 1180.33 -10.5881 1185.8 -8.01868C1191.33 -5.45071 1195.82 -1.92135 1199.25 2.57117L1199.51 2.91003L1199.22 3.2196L1187.61 15.4149L1187.24 15.7987L1186.88 15.412C1181.35 9.50109 1175.43 6.5946 1169.1 6.5946C1163.7 6.5946 1159.17 8.4313 1155.5 12.1063C1151.89 15.8425 1150.08 20.494 1150.08 26.0956C1150.08 31.5636 1151.89 36.1167 1155.5 39.7889L1155.84 40.1219C1159.45 43.512 1163.83 45.2059 1169 45.2059C1175.99 45.2059 1182.03 42.1979 1187.16 36.1151L1187.5 35.7069L1187.88 36.077L1199.98 47.6874L1200.3 47.996L1200.03 48.3505C1196.67 52.7762 1192.15 56.4321 1186.5 59.3231L1186.5 59.3241C1180.89 62.1596 1174.66 63.5731 1167.83 63.5731C1157.17 63.5731 1148.23 60.1152 1141.04 53.1893L1141.04 53.1874C1133.84 46.1888 1130.25 37.1759 1130.25 26.1932C1130.25 15.1457 1133.88 6.03658 1141.13 -1.09094C1148.39 -8.27758 1157.33 -11.8702 1167.93 -11.8702Z" fill="#4759CC" stroke="black"/>
<path d="M1080.52 -10.6019L1080.65 -10.309L1092.79 16.319L1105.3 -10.3148L1105.44 -10.6019H1127.95L1127.57 -9.86853L1102.35 37.9254V62.4996H1083.21V37.9254L1058.29 -9.87048L1057.91 -10.6019H1080.52Z" fill="#40C2B0" stroke="black"/>
<path d="M1052.4 -10.6019V7.96057H1032.5V62.4996H1013.06V7.96057H993.057V-10.6019H1052.4Z" fill="#FCABF2" stroke="black"/>
<path d="M980.692 -10.6019V62.4996H961.35V-10.6019H980.692Z" fill="#FF5E6B" stroke="black"/>
<path d="M891.669 -10.6019L891.818 -10.4261L924.306 27.6647V-10.6019H943.259V62.4996H928.77L928.62 62.3239L896.719 24.7252V62.4996H877.864V-10.6019H891.669Z" fill="#4759CC" stroke="black"/>
<path d="M819.326 -10.6019V33.7057C819.326 37.5246 820.312 40.3741 822.21 42.3336C824.178 44.2339 826.836 45.2066 830.241 45.2067C833.581 45.2067 836.174 44.2019 838.078 42.236L838.083 42.2301C840.045 40.2685 841.06 37.4526 841.06 33.7057V-10.6019H860.499V33.9987C860.499 39.1898 859.644 43.7784 857.922 47.7545L857.923 47.7555C856.269 51.6589 853.978 54.7874 851.042 57.1227L851.036 57.1266C848.128 59.3736 844.922 61.0598 841.419 62.1832L841.411 62.1862C837.913 63.2422 834.189 63.7682 830.241 63.7682C826.294 63.7682 822.57 63.242 819.072 62.1862L819.061 62.1823C815.624 61.0588 812.421 59.3741 809.451 57.1305L809.441 57.1227C806.507 54.7887 804.184 51.6622 802.465 47.7614L802.461 47.7526C800.805 43.7774 799.983 39.1892 799.983 33.9987V-10.6019H819.326Z" fill="#73E3F2" stroke="black"/>
<path d="M717.021 -10.6019L717.171 -10.389L742.713 26.0992L768.159 -10.3881L768.309 -10.6019H782.631V62.4996H763.581V28.9235L746.438 52.9244L746.288 53.1334H738.944L738.795 52.9244L721.651 28.9225V62.4996H702.797V-10.6019H717.021Z" fill="#40C2B0" stroke="black"/>
<path d="M619.055 -10.6019L619.204 -10.389L644.746 26.0992L670.192 -10.3881L670.342 -10.6019H684.664V62.4996H665.614V28.9235L648.472 52.9244L648.321 53.1334H640.978L640.828 52.9244L623.685 28.9225V62.4996H604.83V-10.6019H619.055Z" fill="#FCABF2" stroke="black"/>
<path d="M552.179 -11.8702C563.036 -11.8702 572.141 -8.21245 579.46 -0.893677C586.776 6.4227 590.437 15.3969 590.437 25.9979C590.437 36.5348 586.776 45.4762 579.46 52.7919C572.205 60.0465 563.132 63.6707 552.276 63.6708C541.42 63.6708 532.283 60.0466 524.899 52.7948L524.896 52.7919C517.644 45.5396 514.018 36.5975 514.018 25.9979C514.018 15.3969 517.678 6.4227 524.994 -0.893677C532.312 -8.21196 541.385 -11.8702 552.179 -11.8702ZM552.179 7.17957C547.042 7.17957 542.715 8.98129 539.168 12.5917L539.165 12.5946C535.623 16.1372 533.848 20.5603 533.848 25.9003C533.848 31.3071 535.624 35.7622 539.165 39.3036C542.711 42.85 547.039 44.621 552.179 44.621C557.385 44.6209 561.744 42.8486 565.289 39.3036C568.828 35.7648 570.604 31.3136 570.606 25.912L570.59 25.4012C570.363 20.1568 568.526 15.8683 565.097 12.4999L565.094 12.4969C561.546 8.9494 557.251 7.17964 552.179 7.17957Z" fill="#FF5E6B" stroke="black"/>
<path d="M474.306 -11.8702C480.748 -11.8702 486.707 -10.5881 492.176 -8.01868C497.707 -5.45071 502.196 -1.92134 505.632 2.57117L505.891 2.91003L505.597 3.2196L493.986 15.4149L493.621 15.7987L493.259 15.412C487.733 9.50109 481.808 6.5946 475.477 6.5946C470.075 6.59462 465.553 8.43131 461.878 12.1063C458.271 15.8425 456.463 20.494 456.463 26.0956C456.463 31.5637 458.269 36.1167 461.875 39.7889L462.222 40.1219C465.832 43.512 470.208 45.2059 475.379 45.2059C482.366 45.2059 488.412 42.1979 493.534 36.1151L493.878 35.7069L494.263 36.077L506.361 47.6874L506.683 47.996L506.413 48.3505C503.044 52.7762 498.527 56.4321 492.876 59.3231L492.874 59.3241C487.269 62.1596 481.044 63.5731 474.208 63.5731C463.552 63.5731 454.611 60.1152 447.421 53.1893L447.419 53.1874C440.222 46.1888 436.633 37.1759 436.633 26.1932C436.633 15.145 440.255 6.03581 447.515 -1.09192C454.767 -8.27765 463.708 -11.8702 474.306 -11.8702Z" fill="#4759CC" stroke="black"/>
<path d="M386.895 -10.6019L387.028 -10.309L399.166 16.319L411.684 -10.3148L411.818 -10.6019H434.332L433.945 -9.86853L408.733 37.9254V62.4996H389.586V37.9254L364.665 -9.87048L364.284 -10.6019H386.895Z" fill="#40C2B0" stroke="black"/>
<path d="M358.781 -10.6019V7.96057H338.878V62.4996H319.438V7.96057H299.437V-10.6019H358.781Z" fill="#FCABF2" stroke="black"/>
<path d="M287.071 -10.6019V62.4996H267.729V-10.6019H287.071Z" fill="#FF5E6B" stroke="black"/>
<path d="M198.049 -10.6019L198.198 -10.4261L230.686 27.6647V-10.6019H249.639V62.4996H235.149L235 62.3239L203.099 24.7252V62.4996H184.244V-10.6019H198.049Z" fill="#4759CC" stroke="black"/>
<path d="M125.706 -10.6019V33.7057C125.706 37.5246 126.692 40.3741 128.59 42.3336C130.558 44.2339 133.216 45.2067 136.621 45.2067C139.961 45.2067 142.553 44.2019 144.458 42.236L144.463 42.2301C146.424 40.2685 147.438 37.4526 147.438 33.7057V-10.6019H166.879V33.9987C166.879 39.1898 166.024 43.7785 164.302 47.7545C162.648 51.658 160.358 54.7873 157.422 57.1227L157.416 57.1266C154.508 59.3736 151.301 61.0598 147.799 62.1832L147.791 62.1862C144.293 63.2422 140.569 63.7682 136.621 63.7682C132.674 63.7682 128.949 63.2421 125.451 62.1862L125.44 62.1823C122.004 61.0588 118.801 59.3741 115.831 57.1305L115.82 57.1227V57.1217C112.887 54.7878 110.564 51.6618 108.845 47.7614L108.841 47.7526C107.185 43.7774 106.363 39.1892 106.363 33.9987V-10.6019H125.706Z" fill="#73E3F2" stroke="black"/>
<path d="M23.4014 -10.6019L23.5508 -10.389L49.0918 26.1002L74.5391 -10.3881L74.6885 -10.6019H89.0107V62.4996H69.9609V28.9235L52.8184 52.9244L52.668 53.1334H45.3242L45.1748 52.9244L28.0312 28.9225V62.4996H9.17676V-10.6019H23.4014Z" fill="#40C2B0" stroke="black"/>
</g>
<defs>
<clipPath id="clip0_4347_52053">
<rect width="1440" height="521" fill="white"/>
</clipPath>
</defs>
</svg>
