<svg width="640" height="574" viewBox="0 0 640 574" fill="none" xmlns="http://www.w3.org/2000/svg">
<g clip-path="url(#clip0_5510_14979)">
<path d="M1128.98 -216.386H-437.811V1138.21H1128.98V-216.386Z" fill="#40C2B0" stroke="#40C2B0" stroke-miterlimit="10"/>
<path d="M609.242 -216.908V1138.05" stroke="#66CEC0" stroke-width="3" stroke-miterlimit="10"/>
<path d="M569.766 -216.908V1138.05" stroke="#66CEC0" stroke-width="3" stroke-miterlimit="10"/>
<path d="M589.512 -216.908V1138.05" stroke="#66CEC0" stroke-width="15.01" stroke-miterlimit="10"/>
<path d="M487.277 -216.908V1138.05" stroke="#66CEC0" stroke-width="3" stroke-miterlimit="10"/>
<path d="M447.805 -216.908V1138.05" stroke="#66CEC0" stroke-width="3" stroke-miterlimit="10"/>
<path d="M467.549 -216.908V1138.05" stroke="#66CEC0" stroke-width="15.01" stroke-miterlimit="10"/>
<path d="M365.314 -216.908V1138.05" stroke="#66CEC0" stroke-width="3" stroke-miterlimit="10"/>
<path d="M325.855 -216.908V1138.05" stroke="#66CEC0" stroke-width="3" stroke-miterlimit="10"/>
<path d="M345.584 -216.908V1138.05" stroke="#66CEC0" stroke-width="15.01" stroke-miterlimit="10"/>
<path d="M243.365 -216.908V1138.05" stroke="#66CEC0" stroke-width="3" stroke-miterlimit="10"/>
<path d="M203.893 -216.908V1138.05" stroke="#66CEC0" stroke-width="3" stroke-miterlimit="10"/>
<path d="M223.621 -216.908V1138.05" stroke="#66CEC0" stroke-width="15.01" stroke-miterlimit="10"/>
<path d="M121.404 -216.908V1138.05" stroke="#66CEC0" stroke-width="3" stroke-miterlimit="10"/>
<path d="M81.9277 -216.908V1138.05" stroke="#66CEC0" stroke-width="3" stroke-miterlimit="10"/>
<path d="M101.658 -216.908V1138.05" stroke="#66CEC0" stroke-width="15.01" stroke-miterlimit="10"/>
<path d="M-0.560547 -216.908V1138.05" stroke="#66CEC0" stroke-width="3" stroke-miterlimit="10"/>
<path fill-rule="evenodd" clip-rule="evenodd" d="M-45.9395 1187.19V-49.1172L693.398 -32.2047L678.136 1190.08L-45.9395 1187.19Z" fill="white"/>
<path fill-rule="evenodd" clip-rule="evenodd" d="M171.149 1162.56L632.105 1163.74L660.104 -4.47169L-10.4688 -6.37183L13.1057 1162.17L171.149 1162.56Z" fill="#2B357A"/>
<path fill-rule="evenodd" clip-rule="evenodd" d="M-10.4688 -7.30011L24.581 28.9327H612.085L660.104 -4.47167L-10.4688 -7.30011Z" fill="#20285C"/>
<path fill-rule="evenodd" clip-rule="evenodd" d="M-10.4688 -7.30011L11.2342 1162.9L33.9237 1162.33L24.581 28.9327L-10.4688 -7.30011Z" fill="#20285C"/>
<path fill-rule="evenodd" clip-rule="evenodd" d="M660.105 -1.70129L612.085 28.9327L598.564 1162.87L635.703 1163.85L660.105 -1.70129Z" fill="#20285C"/>
<path fill-rule="evenodd" clip-rule="evenodd" d="M633.425 276.891L592.05 309.657H31.7917L14.5859 276.891H633.425Z" fill="#20285C"/>
<path fill-rule="evenodd" clip-rule="evenodd" d="M14.76 238.613L629.073 241.992V278.631L14.5859 276.891L14.76 238.613Z" fill="white"/>
<path fill-rule="evenodd" clip-rule="evenodd" d="M9.95898 544.967L624.446 548.521V585.174L9.95898 583.433V544.967Z" fill="white"/>
<path d="M493.154 544.517C493.024 546.069 491.95 547.259 490.209 547.259C417.818 547.114 342.568 547.375 311.363 547.259C305.357 547.23 298.872 542.849 297.32 524.631C295.985 508.937 299.96 500.176 313.597 496.623C326.03 493.388 357.134 488.631 405.254 489.936C459.019 491.387 482.637 494.142 488.889 501.598C497.231 511.548 495.737 526.502 487.554 531.985C487.554 531.985 492.226 534.944 493.024 540.079C493.299 541.877 493.241 543.371 493.154 544.517Z" fill="#FEEEFC"/>
<path d="M305.936 499.756C308.054 498.45 310.593 497.406 313.611 496.623C326.044 493.388 357.147 488.631 405.268 489.936C453.969 491.256 477.935 493.635 486.654 499.611C486.567 499.582 486.495 499.553 486.408 499.524C471.697 494.621 413.523 496.028 363.095 496.724C336.866 497.087 320.27 496.333 306.038 500.002C306.038 500.002 305.994 499.915 305.922 499.756H305.936Z" fill="#FCAAF2"/>
<path d="M488.527 532.696C487.439 533.117 484.465 534.219 481.752 534.785C475.166 536.192 451.824 534.727 438.68 534.683C418.878 534.625 396.348 534.393 376.371 534.567C363.024 534.683 344.527 535.22 333.139 534.901C328.149 534.756 324.493 534.437 323.144 533.885C321.446 533.175 320.199 531.159 319.647 528.722C319.169 526.633 319.169 524.254 319.72 522.296C320.112 520.918 320.764 519.729 321.693 518.946C322.549 518.22 324.594 517.452 328.323 516.799C336.621 515.363 353.58 514.319 384.887 514.493C418.036 514.681 473.715 516.755 480.215 517.002C480.374 517.002 480.534 517.074 480.65 517.205C480.766 517.321 480.824 517.495 480.809 517.655C480.809 518.003 480.505 518.264 480.157 518.264C473.657 518.017 418.007 515.943 384.872 515.754C353.682 515.58 336.781 516.61 328.526 518.046C325.146 518.626 323.274 519.25 322.491 519.903C321.736 520.541 321.229 521.527 320.909 522.644C320.416 524.428 320.416 526.575 320.851 528.461C321.316 530.448 322.23 532.174 323.622 532.754C324.899 533.291 328.395 533.552 333.168 533.682C344.542 534.001 363.01 533.465 376.357 533.349C396.333 533.175 418.878 533.421 438.68 533.465C451.737 533.508 474.934 534.988 481.477 533.595C484.668 532.914 487.541 532 487.541 532C487.541 532 487.932 532.246 488.498 532.725L488.527 532.696Z" fill="#FCAAF2"/>
<path d="M482.1 494.433C409.708 494.287 342.176 494.36 311.377 494.375C305.371 494.375 298.858 489.588 297.32 471.37C295.985 455.676 299.96 446.915 313.597 443.361C326.03 440.127 357.134 435.369 405.254 436.675C459.019 438.125 482.637 440.881 488.889 448.337C497.231 458.287 495.737 473.241 487.554 478.724C487.554 478.724 491.167 480.465 491.37 484.613C490.862 490.139 489.237 494.94 482.085 494.433H482.1Z" fill="#FEEEFC"/>
<path d="M306.589 446.117C308.562 444.986 310.897 444.087 313.596 443.376C326.029 440.141 357.132 435.384 405.253 436.689C451.111 437.937 475.048 440.112 484.956 445.363C468.201 440.968 411.999 442.317 363.08 442.999C337.185 443.361 320.69 442.636 306.574 446.132L306.589 446.117Z" fill="#FCAAF2"/>
<path d="M488.555 479.478C487.482 479.899 484.522 480.987 481.766 481.552C475.165 482.887 451.837 481.494 438.694 481.451C418.891 481.393 396.361 481.161 376.385 481.335C363.038 481.451 344.541 481.988 333.153 481.668C328.162 481.523 324.506 481.204 323.157 480.653C321.46 479.942 320.212 477.926 319.661 475.489C319.182 473.401 319.182 471.022 319.734 469.064C320.125 467.686 320.778 466.496 321.707 465.713C322.562 464.988 324.608 464.219 328.336 463.567C336.635 462.131 353.594 461.086 384.9 461.26C418.093 461.449 473.86 463.523 480.243 463.77C480.402 463.77 480.547 463.842 480.663 463.958C480.765 464.074 480.823 464.234 480.823 464.393C480.823 464.408 480.823 464.422 480.823 464.437C480.823 464.77 480.533 465.031 480.199 465.017C473.816 464.77 418.064 462.696 384.886 462.508C353.695 462.334 336.794 463.363 328.54 464.799C325.159 465.38 323.288 466.003 322.504 466.656C321.75 467.294 321.242 468.281 320.923 469.397C320.43 471.181 320.43 473.328 320.865 475.214C321.329 477.201 322.243 478.927 323.636 479.507C324.913 480.044 328.409 480.305 333.182 480.436C344.556 480.755 363.023 480.218 376.37 480.102C396.347 479.928 418.891 480.174 438.694 480.218C451.75 480.261 474.948 481.741 481.49 480.348C484.682 479.667 487.554 478.753 487.554 478.753C487.554 478.753 487.961 479.014 488.541 479.493L488.555 479.478Z" fill="#FCAAF2"/>
<path d="M470.218 441.273C398.421 438.038 342.162 440.867 311.377 440.881C305.371 440.881 298.858 436.095 297.32 417.877C295.985 402.183 299.96 393.422 313.597 389.868C326.03 386.634 357.134 381.876 405.254 383.181C459.019 384.632 482.637 387.388 488.889 394.843C497.231 404.793 495.737 419.748 487.554 425.231C487.554 425.231 490.993 427.247 490.456 434.253C489.919 443.971 475.339 441.809 470.218 441.273Z" fill="#FEEEFC"/>
<path d="M488.483 425.912C487.598 426.246 484.58 427.348 481.751 427.957C475.165 429.364 451.837 427.899 438.708 427.856C418.906 427.798 396.361 427.566 376.385 427.74C363.038 427.856 344.556 428.393 333.167 428.073C328.191 427.943 324.55 427.624 323.215 427.058C321.532 426.362 320.314 424.36 319.763 421.952C319.284 419.878 319.284 417.529 319.835 415.57C320.212 414.207 320.865 413.032 321.779 412.263C322.635 411.538 324.666 410.784 328.365 410.146C336.664 408.71 353.608 407.665 384.915 407.839C418.238 408.028 474.324 410.117 480.33 410.349C480.475 410.349 480.605 410.421 480.692 410.523C480.794 410.624 480.837 410.755 480.837 410.9C480.837 410.9 480.837 410.9 480.837 410.914C480.837 411.204 480.576 411.437 480.286 411.422C474.28 411.19 418.209 409.101 384.9 408.913C353.695 408.739 336.809 409.769 328.54 411.204C325.145 411.799 323.259 412.423 322.461 413.09C321.692 413.743 321.17 414.729 320.851 415.875C320.343 417.674 320.357 419.835 320.793 421.735C321.257 423.751 322.2 425.492 323.607 426.086C324.898 426.623 328.394 426.884 333.182 427.015C344.556 427.334 363.038 426.797 376.37 426.681C396.347 426.507 418.891 426.739 438.694 426.797C451.765 426.841 474.962 428.32 481.519 426.928C484.726 426.246 487.569 425.245 487.569 425.245C487.569 425.245 487.932 425.477 488.483 425.927V425.912Z" fill="#FCAAF2"/>
<path d="M256.309 542.893C256.178 544.445 255.104 545.634 253.364 545.634C180.972 545.489 105.722 545.75 74.5171 545.634C68.5111 545.605 62.0263 541.225 60.4741 523.007C59.1394 507.313 63.1144 498.552 76.7513 494.998C89.1841 491.764 120.288 487.006 168.409 488.312C222.173 489.762 245.791 492.518 252.043 499.973C260.385 509.924 258.891 524.878 250.709 530.361C250.709 530.361 255.38 533.32 256.178 538.454C256.454 540.253 256.396 541.747 256.309 542.893Z" fill="#FEEEFC"/>
<path d="M69.0907 498.131C71.2088 496.826 73.7476 495.781 76.7651 494.998C89.1979 491.764 120.302 487.006 168.422 488.312C217.124 489.631 241.09 492.01 249.809 497.986C249.722 497.957 249.649 497.928 249.562 497.899C234.852 492.997 176.677 494.403 126.25 495.1C100.02 495.462 83.424 494.708 69.1923 498.378C69.1923 498.378 69.1487 498.291 69.0762 498.131H69.0907Z" fill="#FCAAF2"/>
<path d="M251.693 531.086C250.605 531.507 247.631 532.609 244.918 533.175C238.332 534.582 214.99 533.117 201.846 533.073C182.044 533.015 159.514 532.783 139.537 532.957C126.19 533.073 107.693 533.61 96.3052 533.291C91.3147 533.146 87.6588 532.827 86.3096 532.275C84.6123 531.565 83.3646 529.549 82.8133 527.112C82.3346 525.023 82.3346 522.644 82.8859 520.686C83.2776 519.308 83.9304 518.119 84.8589 517.336C85.7148 516.61 87.7604 515.842 91.4888 515.189C99.7869 513.753 116.746 512.708 148.053 512.883C181.202 513.071 236.881 515.145 243.381 515.392C243.54 515.392 243.7 515.464 243.816 515.595C243.932 515.711 243.99 515.885 243.975 516.045C243.975 516.393 243.671 516.654 243.323 516.654C236.823 516.407 181.173 514.333 148.038 514.144C116.848 513.97 99.9465 515 91.6918 516.436C88.3116 517.016 86.4402 517.64 85.6568 518.293C84.9024 518.931 84.3946 519.917 84.0755 521.034C83.5822 522.818 83.5823 524.965 84.0175 526.851C84.4817 528.838 85.3956 530.564 86.7883 531.144C88.065 531.681 91.5613 531.942 96.3342 532.072C107.708 532.391 126.176 531.855 139.523 531.739C159.499 531.565 182.044 531.811 201.846 531.855C214.903 531.898 238.1 533.378 244.643 531.985C247.834 531.304 250.707 530.39 250.707 530.39C250.707 530.39 251.098 530.636 251.664 531.115L251.693 531.086Z" fill="#FCAAF2"/>
<path d="M256.309 491.082C256.178 492.634 255.104 493.823 253.364 493.823C180.972 493.678 105.722 493.939 74.5171 493.823C68.5111 493.794 62.0263 489.414 60.4741 471.196C59.1394 455.502 63.1144 446.741 76.7513 443.187C89.1841 439.953 120.288 435.195 168.409 436.501C222.173 437.951 245.791 440.707 252.043 448.163C260.385 458.113 258.891 473.067 250.709 478.55C250.709 478.55 255.38 481.509 256.178 486.644C256.454 488.442 256.396 489.936 256.309 491.082Z" fill="#FEEEFC"/>
<path d="M69.0907 446.32C71.2088 445.015 73.7476 443.971 76.7651 443.187C89.1979 439.953 120.302 435.195 168.422 436.501C217.124 437.821 241.09 440.199 249.809 446.175C249.722 446.146 249.649 446.117 249.562 446.088C234.852 441.186 176.677 442.593 126.25 443.289C100.02 443.652 83.424 442.897 69.1923 446.567C69.1923 446.567 69.1487 446.48 69.0762 446.32H69.0907Z" fill="#FCAAF2"/>
<path d="M251.693 479.275C250.605 479.696 247.631 480.798 244.918 481.364C238.332 482.771 214.99 481.306 201.846 481.262C182.044 481.204 159.514 480.972 139.537 481.146C126.19 481.262 107.693 481.799 96.3052 481.48C91.3147 481.335 87.6588 481.016 86.3096 480.464C84.6123 479.754 83.3646 477.738 82.8133 475.301C82.3346 473.212 82.3346 470.833 82.8859 468.875C83.2776 467.497 83.9304 466.308 84.8589 465.525C85.7148 464.799 87.7604 464.031 91.4888 463.378C99.7869 461.942 116.746 460.898 148.053 461.072C181.202 461.26 236.881 463.334 243.381 463.581C243.54 463.581 243.7 463.654 243.816 463.784C243.932 463.9 243.99 464.074 243.975 464.234C243.975 464.582 243.671 464.843 243.323 464.843C236.823 464.596 181.173 462.522 148.038 462.334C116.848 462.16 99.9465 463.189 91.6918 464.625C88.3116 465.206 86.4402 465.829 85.6568 466.482C84.9024 467.12 84.3946 468.106 84.0755 469.223C83.5822 471.007 83.5823 473.154 84.0175 475.04C84.4817 477.027 85.3956 478.753 86.7883 479.333C88.065 479.87 91.5613 480.131 96.3342 480.261C107.708 480.581 126.176 480.044 139.523 479.928C159.499 479.754 182.044 480 201.846 480.044C214.903 480.087 238.1 481.567 244.643 480.174C247.834 479.493 250.707 478.579 250.707 478.579C250.707 478.579 251.098 478.825 251.664 479.304L251.693 479.275Z" fill="#FCAAF2"/>
<path d="M245.254 441.012C172.862 440.867 105.331 440.939 74.5317 440.954C68.5256 440.954 62.0118 436.167 60.4741 417.949C59.1394 402.255 63.1144 393.494 76.7513 389.941C89.1841 386.706 120.288 381.948 168.409 383.254C222.173 384.704 245.791 387.46 252.043 394.916C260.385 404.866 258.891 419.82 250.709 425.303C250.709 425.303 254.321 427.044 254.524 431.192C254.016 436.718 252.392 441.519 245.239 441.012H245.254Z" fill="#FEEEFC"/>
<path d="M69.741 392.682C71.714 391.551 74.0497 390.651 76.7481 389.941C89.1809 386.706 120.285 381.948 168.405 383.254C214.263 384.501 238.2 386.677 248.109 391.928C231.353 387.533 175.151 388.882 126.233 389.563C100.337 389.926 83.8422 389.201 69.7266 392.696L69.741 392.682Z" fill="#FCAAF2"/>
<path d="M251.708 426.043C250.634 426.463 247.675 427.551 244.918 428.117C238.317 429.451 214.99 428.059 201.846 428.015C182.044 427.957 159.514 427.725 139.537 427.899C126.19 428.015 107.693 428.552 96.3052 428.233C91.3147 428.088 87.6588 427.769 86.3096 427.218C84.6123 426.507 83.3646 424.491 82.8133 422.054C82.3346 419.965 82.3346 417.587 82.8859 415.628C83.2776 414.251 83.9304 413.061 84.8589 412.278C85.7148 411.553 87.7604 410.784 91.4888 410.131C99.7869 408.695 116.746 407.651 148.053 407.825C181.246 408.013 237.012 410.088 243.395 410.334C243.555 410.334 243.7 410.407 243.816 410.523C243.917 410.639 243.975 410.798 243.975 410.958C243.975 410.972 243.975 410.987 243.975 411.001C243.975 411.335 243.685 411.596 243.352 411.582C236.968 411.335 181.217 409.261 148.038 409.072C116.848 408.898 99.9465 409.928 91.6918 411.364C88.3116 411.944 86.4402 412.568 85.6568 413.221C84.9024 413.859 84.3946 414.845 84.0755 415.962C83.5822 417.746 83.5823 419.893 84.0175 421.778C84.4817 423.766 85.3956 425.492 86.7883 426.072C88.065 426.609 91.5613 426.87 96.3342 427C107.708 427.319 126.176 426.783 139.523 426.667C159.499 426.492 182.044 426.739 201.846 426.783C214.903 426.826 238.1 428.306 244.643 426.913C247.834 426.231 250.707 425.318 250.707 425.318C250.707 425.318 251.113 425.579 251.693 426.057L251.708 426.043Z" fill="#FCAAF2"/>
<path d="M233.386 387.852C161.589 384.617 105.33 387.446 74.5453 387.46C68.5393 387.46 62.0255 382.674 60.4877 364.456C59.1531 348.762 63.1281 340.001 76.765 336.447C89.1977 333.213 120.301 328.455 168.422 329.761C222.186 331.211 245.804 333.967 252.057 341.422C260.399 351.373 258.905 366.327 250.722 371.81C250.722 371.81 254.161 373.826 253.624 380.832C253.087 390.55 238.507 388.389 233.386 387.852Z" fill="#FEEEFC"/>
<path d="M251.637 372.491C250.752 372.825 247.735 373.927 244.906 374.537C238.319 375.943 214.992 374.479 201.863 374.435C182.06 374.377 159.516 374.145 139.539 374.319C126.192 374.435 107.71 374.972 96.3216 374.653C91.3456 374.522 87.7043 374.203 86.3696 373.637C84.6868 372.941 83.4682 370.939 82.9169 368.532C82.4381 366.457 82.4381 364.108 82.9894 362.149C83.3666 360.786 84.0194 359.611 84.9334 358.842C85.7893 358.117 87.8204 357.363 91.5197 356.725C99.8179 355.289 116.763 354.244 148.069 354.418C181.393 354.607 237.478 356.696 243.484 356.928C243.629 356.928 243.76 357 243.847 357.102C243.948 357.203 243.992 357.334 243.992 357.479C243.992 357.479 243.992 357.479 243.992 357.493C243.992 357.784 243.731 358.016 243.441 358.001C237.435 357.769 181.364 355.68 148.055 355.492C116.85 355.318 99.963 356.348 91.6938 357.784C88.2991 358.378 86.4131 359.002 85.6152 359.669C84.8463 360.322 84.3241 361.308 84.0049 362.454C83.4972 364.253 83.5117 366.414 83.9469 368.314C84.4111 370.33 85.3541 372.071 86.7613 372.665C88.0525 373.202 91.5487 373.463 96.3362 373.594C107.71 373.913 126.192 373.376 139.524 373.26C159.501 373.086 182.046 373.318 201.848 373.376C214.919 373.42 238.116 374.899 244.674 373.507C247.88 372.825 250.723 371.824 250.723 371.824C250.723 371.824 251.086 372.056 251.637 372.506V372.491Z" fill="#FCAAF2"/>
<path d="M572.422 547.984C585.203 548.535 586.871 534.654 586.871 534.654V456.851C584.651 440.736 567.968 435.181 567.968 435.181H543.508C543.508 435.181 526.84 440.736 524.605 456.851V534.654C524.605 534.654 526.274 548.55 539.055 547.984H572.407H572.422Z" fill="#FDD5F9"/>
<path d="M568.927 423.084H542.596V435.166H568.927V423.084Z" fill="#FEEEFC"/>
<path d="M563.456 406.839H548.035V423.098H563.456V406.839Z" fill="#FDD5F9"/>
<path d="M557.363 399.746H554.143V406.824H557.363V399.746Z" fill="#FCAAF2"/>
<path d="M546.091 403.43C546.091 403.43 558.204 396.7 570.637 403.459C570.637 403.459 571.319 403.793 571.522 403.154L571.798 400.34C571.972 398.426 570.376 397.773 570.376 397.773C567.01 396.323 557.508 393.393 545.583 400.456C545.583 400.456 544.945 400.834 545.191 401.588L546.091 403.43Z" fill="#976691"/>
<path d="M575.829 466.003H535.688V516.407H575.829V466.003Z" fill="#FEEEFC"/>
<g opacity="0.05">
<path d="M537.388 534.64V456.836C539.607 440.722 552.403 435.166 552.403 435.166H543.524C543.524 435.166 526.855 440.722 524.621 456.836V534.64C524.621 534.64 526.289 548.535 539.07 547.969H550.488C538.925 547.534 537.373 534.64 537.373 534.64H537.388Z" fill="black"/>
<path d="M579.227 542.066H577.893C578.328 542.081 578.763 542.081 579.227 542.066Z" fill="black"/>
<path d="M572.422 547.984C572.872 547.998 573.307 547.998 573.742 547.984H572.422Z" fill="black"/>
</g>
<path d="M547.046 401.704H480.922V548.55H547.046V401.704Z" fill="#D9F3EF"/>
<path d="M480.908 401.704H463.514V548.55H480.908V401.704Z" fill="#9FE1D7"/>
<path d="M532.077 431.555H495.881V520.309H532.077V431.555Z" fill="#9FE1D7"/>
<path d="M526.359 390.709H494.689V401.704H526.359V390.709Z" fill="#9FE1D7"/>
<path d="M522.531 399.427C522.531 399.833 522.865 400.166 523.257 400.166C523.663 400.166 523.982 399.833 523.982 399.427V392.987C523.982 392.58 523.648 392.247 523.257 392.247C522.85 392.247 522.531 392.58 522.531 392.987V399.427Z" fill="#40C2B0"/>
<path d="M518.279 399.427C518.279 399.833 518.613 400.166 519.005 400.166C519.411 400.166 519.73 399.833 519.73 399.427V392.987C519.73 392.58 519.396 392.247 519.005 392.247C518.598 392.247 518.279 392.58 518.279 392.987V399.427Z" fill="#40C2B0"/>
<path d="M514.029 399.427C514.029 399.833 514.363 400.166 514.755 400.166C515.161 400.166 515.48 399.833 515.48 399.427V392.987C515.48 392.58 515.146 392.247 514.755 392.247C514.348 392.247 514.029 392.58 514.029 392.987V399.427Z" fill="#40C2B0"/>
<path d="M509.793 399.427C509.793 399.833 510.127 400.166 510.518 400.166C510.925 400.166 511.244 399.833 511.244 399.427V392.987C511.244 392.58 510.91 392.247 510.518 392.247C510.112 392.247 509.793 392.58 509.793 392.987V399.427Z" fill="#40C2B0"/>
<path d="M505.543 399.427C505.543 399.833 505.877 400.166 506.268 400.166C506.675 400.166 506.994 399.833 506.994 399.427V392.987C506.994 392.58 506.66 392.247 506.268 392.247C505.862 392.247 505.543 392.58 505.543 392.987V399.427Z" fill="#40C2B0"/>
<path d="M501.307 399.427C501.307 399.833 501.64 400.166 502.032 400.166C502.438 400.166 502.757 399.833 502.757 399.427V392.987C502.757 392.58 502.424 392.247 502.032 392.247C501.626 392.247 501.307 392.58 501.307 392.987V399.427Z" fill="#40C2B0"/>
<path d="M497.057 399.427C497.057 399.833 497.39 400.166 497.782 400.166C498.188 400.166 498.507 399.833 498.507 399.427V392.987C498.507 392.58 498.174 392.247 497.782 392.247C497.376 392.247 497.057 392.58 497.057 392.987V399.427Z" fill="#40C2B0"/>
<path d="M462.615 145.362V241.122C462.905 241.412 551.008 241.514 551.008 241.514L551.27 145.362H462.615Z" fill="white"/>
<path d="M481.997 223.572L481.634 145.362H462.601L462.514 240.789C462.586 240.716 551.168 241.514 551.168 241.688L550.994 236.814C542.58 236.988 481.721 236.843 481.983 223.572H481.997Z" fill="#F6F6F6"/>
<path d="M551.661 144.796C551.661 147.117 531.815 148.988 507.327 148.988C482.838 148.988 462.992 147.103 462.992 144.796C462.992 142.49 482.838 140.604 507.327 140.604C531.815 140.604 551.661 142.49 551.661 144.796Z" fill="#E7E6E6"/>
<path d="M521.458 144.579C521.458 145.319 515.132 145.913 507.327 145.913C499.522 145.913 493.197 145.319 493.197 144.579C493.197 143.839 499.522 143.244 507.327 143.244C515.132 143.244 521.458 143.839 521.458 144.579Z" fill="#C6C5C6"/>
<path d="M374.135 145.362V241.122C374.425 241.412 462.528 241.514 462.528 241.514L462.789 145.362H374.135Z" fill="white"/>
<path d="M393.53 223.572L393.168 145.362H374.134L374.047 240.789C374.119 240.716 462.701 241.514 462.701 241.688L462.527 236.814C454.113 236.988 393.255 236.843 393.516 223.572H393.53Z" fill="#F6F6F6"/>
<path d="M463.181 144.796C463.181 147.117 443.335 148.988 418.846 148.988C394.358 148.988 374.512 147.103 374.512 144.796C374.512 142.49 394.358 140.604 418.846 140.604C443.335 140.604 463.181 142.49 463.181 144.796Z" fill="#E7E6E6"/>
<path d="M432.977 144.579C432.977 145.318 426.652 145.913 418.847 145.913C411.042 145.913 404.717 145.318 404.717 144.579C404.717 143.839 411.042 143.244 418.847 143.244C426.652 143.244 432.977 143.839 432.977 144.579Z" fill="#C6C5C6"/>
<path d="M285.668 145.362V241.122C285.958 241.412 374.061 241.514 374.061 241.514L374.322 145.362H285.668Z" fill="white"/>
<path d="M305.052 223.572L304.689 145.362H285.655L285.568 240.789C285.641 240.716 374.223 241.514 374.223 241.688L374.049 236.814C365.634 236.988 304.776 236.843 305.037 223.572H305.052Z" fill="#F6F6F6"/>
<path d="M374.718 144.796C374.718 147.117 354.872 148.988 330.383 148.988C305.895 148.988 286.049 147.103 286.049 144.796C286.049 142.49 305.895 140.604 330.383 140.604C354.872 140.604 374.718 142.49 374.718 144.796Z" fill="#E7E6E6"/>
<path d="M344.51 144.579C344.51 145.318 338.185 145.913 330.38 145.913C322.575 145.913 316.25 145.318 316.25 144.579C316.25 143.839 322.575 143.244 330.38 143.244C338.185 143.244 344.51 143.839 344.51 144.579Z" fill="#C6C5C6"/>
<path d="M333.965 58.2758V145.362C333.965 149.742 353.811 153.296 378.299 153.296C402.788 153.296 422.619 149.742 422.619 145.362V58.2758H333.965Z" fill="white"/>
<path d="M397.261 145.174C372.773 145.174 352.927 141.62 352.927 137.239V58.2758H333.951V145.362C333.951 149.742 353.797 153.296 378.286 153.296C402.774 153.296 422.606 149.742 422.606 145.362V143.738C415.424 144.637 406.676 145.159 397.247 145.159L397.261 145.174Z" fill="#F6F6F6"/>
<path d="M423.011 57.1154C423.011 61.4958 403.165 65.0494 378.676 65.0494C354.188 65.0494 334.342 61.4958 334.342 57.1154C334.342 52.7349 354.188 49.1813 378.676 49.1813C403.165 49.1813 423.011 52.7349 423.011 57.1154Z" fill="#E7E6E6"/>
<path d="M392.807 56.7237C392.807 58.1161 386.482 59.233 378.677 59.233C370.872 59.233 364.547 58.1161 364.547 56.7237C364.547 55.3312 370.872 54.2144 378.677 54.2144C386.482 54.2144 392.807 55.3457 392.807 56.7237Z" fill="#C6C5C6"/>
<path d="M422.531 59.088V146.174C422.531 150.555 442.377 154.108 466.866 154.108C491.354 154.108 511.186 150.555 511.186 146.174V59.088H422.531Z" fill="white"/>
<path d="M485.826 145.986C461.337 145.986 441.491 142.432 441.491 138.052V59.088H422.516V146.174C422.516 150.555 442.362 154.108 466.85 154.108C491.338 154.108 511.17 150.555 511.17 146.174V144.55C503.989 145.449 495.241 145.971 485.811 145.971L485.826 145.986Z" fill="#F6F6F6"/>
<path d="M511.579 57.9276C511.579 62.308 491.733 65.8617 467.245 65.8617C442.756 65.8617 422.91 62.308 422.91 57.9276C422.91 53.5472 442.756 49.9935 467.245 49.9935C491.733 49.9935 511.579 53.5472 511.579 57.9276Z" fill="#E7E6E6"/>
<path d="M481.372 57.536C481.372 58.9285 475.046 60.0453 467.241 60.0453C459.437 60.0453 453.111 58.9285 453.111 57.536C453.111 56.1436 459.437 55.0267 467.241 55.0267C475.046 55.0267 481.372 56.1581 481.372 57.536Z" fill="#C6C5C6"/>
<path fill-rule="evenodd" clip-rule="evenodd" d="M174.369 235.697L172.236 160.418H216.672L214.844 235.683C214.786 237.815 213.06 239.498 210.927 239.498H178.286C176.168 239.498 174.427 237.815 174.369 235.697Z" fill="url(#paint0_linear_5510_14979)"/>
<path fill-rule="evenodd" clip-rule="evenodd" d="M170.19 163.928H218.79L218.833 154.312C218.833 152.614 217.527 151.237 215.903 151.251L172.874 151.628C171.249 151.628 169.958 153.05 169.987 154.747L170.19 163.928Z" fill="white"/>
<path d="M176.98 163.957L176.719 152.237L177.183 152.179L177.444 163.899L176.98 163.957Z" fill="#D5D5D6"/>
<path d="M181.318 163.972L181.057 151.889L181.506 151.802L181.782 163.885L181.318 163.972Z" fill="#D5D5D6"/>
<path d="M185.338 163.972L185.033 151.875L185.497 151.788L185.802 163.885L185.338 163.972Z" fill="#D5D5D6"/>
<path d="M189.458 151.817H188.994V163.928H189.458V151.817Z" fill="#D5D5D6"/>
<path d="M193.23 151.686H192.766V163.928H193.23V151.686Z" fill="#D5D5D6"/>
<path d="M197.753 163.972L197.289 163.885L197.405 151.585L197.869 151.657L197.753 163.972Z" fill="#D5D5D6"/>
<path d="M173.236 163.972L173.004 152.107L173.468 151.991L173.7 163.87L173.236 163.972Z" fill="#D5D5D6"/>
<path d="M202.196 163.638L201.92 151.556L202.384 151.483L202.66 163.551L202.196 163.638Z" fill="#D5D5D6"/>
<path d="M206.215 163.638L205.91 151.541L206.374 151.469L206.679 163.551L206.215 163.638Z" fill="#D5D5D6"/>
<path d="M210.318 151.483H209.854V163.594H210.318V151.483Z" fill="#D5D5D6"/>
<path d="M214.089 151.353H213.625V163.595H214.089V151.353Z" fill="#D5D5D6"/>
<path fill-rule="evenodd" clip-rule="evenodd" d="M175.109 199.073L175.777 231.085C175.82 233.261 177.387 235.088 179.52 235.48C185.874 236.626 199.25 238.308 209.898 234.769C211.711 234.174 212.945 232.477 212.988 230.577L213.786 202.279L175.109 199.088V199.073Z" fill="#FFA835"/>
<path fill-rule="evenodd" clip-rule="evenodd" d="M173.035 185.497H216.064L215.339 215.057L173.804 216.014L173.035 185.497Z" fill="white"/>
<g opacity="0.5" style="mix-blend-mode:multiply">
<path fill-rule="evenodd" clip-rule="evenodd" d="M181.666 186.918L181.985 188.934L207.199 189.166L207.634 186.918H181.666Z" fill="#E5E5E5"/>
</g>
<g opacity="0.5" style="mix-blend-mode:multiply">
<path fill-rule="evenodd" clip-rule="evenodd" d="M171.176 163.827L171.669 165.277H217.367L217.831 163.609" fill="#E5E5E5"/>
</g>
<path d="M217.195 163.638L216.73 163.565L216.847 151.643L217.311 151.715L217.195 163.638Z" fill="#D5D5D6"/>
<path d="M177.053 192.836H177.691L178.924 194.591L180.157 192.836H180.796V196.259H179.94V194.62L179.084 195.824H178.765L177.909 194.62V196.259H177.067V192.836H177.053Z" fill="black"/>
<path d="M182.449 192.836V196.259H181.578V192.836H182.449Z" fill="black"/>
<path d="M182.959 195.722L183.394 195.084C183.655 195.345 183.989 195.519 184.366 195.519C184.555 195.519 184.758 195.447 184.758 195.273C184.758 195.157 184.642 195.07 184.482 195.012C184.279 194.939 183.989 194.867 183.742 194.736C183.438 194.577 183.177 194.315 183.177 193.851C183.177 193.257 183.699 192.792 184.453 192.792C184.874 192.792 185.309 192.923 185.672 193.228L185.266 193.88C185.063 193.706 184.714 193.605 184.468 193.605C184.221 193.605 184.105 193.706 184.105 193.822C184.105 193.967 184.25 194.025 184.381 194.069C184.555 194.141 184.845 194.228 185.077 194.33C185.44 194.49 185.73 194.736 185.73 195.229C185.73 195.853 185.208 196.317 184.381 196.317C183.815 196.317 183.336 196.1 182.988 195.722H182.959Z" fill="black"/>
<path d="M186.121 194.548C186.121 193.561 186.89 192.778 187.906 192.778C188.921 192.778 189.69 193.561 189.69 194.548C189.69 195.534 188.921 196.303 187.906 196.303C186.89 196.303 186.121 195.519 186.121 194.548ZM188.805 194.548C188.805 194.011 188.399 193.634 187.906 193.634C187.412 193.634 187.006 194.011 187.006 194.548C187.006 195.084 187.398 195.461 187.906 195.461C188.413 195.461 188.805 195.07 188.805 194.548Z" fill="black"/>
<path d="M192.954 194.025C192.954 194.649 192.576 195.186 191.604 195.186H191.169V196.259H190.299V192.836H191.663C192.591 192.836 192.954 193.416 192.954 194.025ZM192.069 194.011C192.069 193.793 191.909 193.619 191.677 193.619H191.184V194.402H191.663C191.953 194.402 192.083 194.214 192.083 194.011H192.069Z" fill="black"/>
<path d="M194.708 195.128H194.374V196.259H193.504V192.836H194.926C195.782 192.836 196.173 193.358 196.173 193.967C196.173 194.373 195.999 194.78 195.549 194.983L196.289 196.245H195.303L194.708 195.113V195.128ZM194.36 194.373H194.882C195.172 194.373 195.288 194.185 195.288 193.996C195.288 193.808 195.158 193.634 194.911 193.634H194.36V194.373Z" fill="black"/>
<path d="M196.652 194.548C196.652 193.561 197.421 192.778 198.437 192.778C199.452 192.778 200.221 193.561 200.221 194.548C200.221 195.534 199.452 196.303 198.437 196.303C197.421 196.303 196.652 195.519 196.652 194.548ZM199.336 194.548C199.336 194.011 198.93 193.634 198.437 193.634C197.944 193.634 197.537 194.011 197.537 194.548C197.537 195.084 197.929 195.461 198.437 195.461C198.945 195.461 199.336 195.07 199.336 194.548Z" fill="black"/>
<path d="M200.525 195.722L200.961 195.084C201.222 195.345 201.555 195.519 201.933 195.519C202.121 195.519 202.324 195.447 202.324 195.273C202.324 195.157 202.208 195.07 202.049 195.012C201.846 194.939 201.555 194.867 201.309 194.736C201.004 194.577 200.743 194.315 200.743 193.851C200.743 193.257 201.265 192.792 202.02 192.792C202.44 192.792 202.876 192.923 203.238 193.228L202.832 193.88C202.629 193.706 202.281 193.605 202.034 193.605C201.787 193.605 201.671 193.706 201.671 193.822C201.671 193.967 201.817 194.025 201.947 194.069C202.121 194.141 202.411 194.228 202.643 194.33C203.006 194.49 203.296 194.736 203.296 195.229C203.296 195.853 202.774 196.317 201.947 196.317C201.381 196.317 200.903 196.1 200.554 195.722H200.525Z" fill="black"/>
<path d="M203.543 193.677V192.85H206.314V193.677H205.371V196.259H204.5V193.677H203.557H203.543Z" fill="black"/>
<path d="M206.561 194.548C206.561 193.561 207.329 192.778 208.345 192.778C209.36 192.778 210.129 193.561 210.129 194.548C210.129 195.534 209.36 196.303 208.345 196.303C207.329 196.303 206.561 195.519 206.561 194.548ZM209.23 194.548C209.23 194.011 208.824 193.634 208.33 193.634C207.837 193.634 207.431 194.011 207.431 194.548C207.431 195.084 207.823 195.461 208.33 195.461C208.838 195.461 209.23 195.07 209.23 194.548Z" fill="black"/>
<path d="M210.74 192.836H211.611V195.432H213.265V196.259H210.74V192.836Z" fill="black"/>
<path d="M205.924 205.571C205.924 203.932 206.403 202.235 205.025 201.06C205.025 201.06 205.039 200.959 204.967 200.901C204.038 200.233 202.805 200.088 201.688 200.059C190.996 199.813 162.591 199.929 151.87 199.871V199.9C147.358 199.856 142.237 199.494 137.827 199.827C136.594 199.914 135.361 200.335 135.158 201.713C134.824 204.048 134.983 206.906 134.983 209.299C134.983 216.711 135.085 221.584 135.158 229.025C135.172 231.433 135.012 233.986 135.1 236.365C135.129 237.104 135.433 237.96 135.97 238.468C136.101 238.584 136.26 238.598 136.347 238.656C137.682 239.599 138.799 239.28 140.308 239.309C144.558 239.382 148.823 239.367 153.118 239.382V239.353C161.111 239.396 186.804 239.469 194.841 239.498C197.234 239.498 199.976 239.672 202.356 239.512C203.24 239.454 203.908 239.251 204.59 238.714C206.345 237.336 205.808 235.03 205.823 233.087C205.939 223.078 205.968 215.608 205.924 205.6V205.571Z" fill="#C6C5C6"/>
<path d="M142.439 214.027C142.701 213.143 142.889 212.229 143.02 211.329C143.179 210.271 143.31 209.168 143.353 208.109C143.411 206.543 143.353 204.933 142.773 203.439C146.385 203.25 147.952 207.036 147.923 209.168C147.894 211.3 146.037 214.84 142.439 214.027Z" fill="#DDDDDD"/>
<path d="M142.437 214.027C136.91 212.78 137.229 203.729 142.771 203.439C143.351 204.947 143.409 206.557 143.351 208.109C143.307 209.168 143.177 210.271 143.017 211.33C142.887 212.229 142.698 213.143 142.437 214.027Z" fill="#E5E4E5"/>
<path d="M141.408 232.216C141.669 231.332 141.858 230.418 141.988 229.518C142.148 228.46 142.279 227.357 142.322 226.298C142.38 224.732 142.322 223.122 141.742 221.628C145.354 221.439 146.921 225.225 146.892 227.357C146.863 229.489 145.006 233.029 141.408 232.216Z" fill="#DDDDDD"/>
<path d="M141.41 232.216C135.882 230.969 136.201 221.918 141.743 221.628C142.324 223.136 142.382 224.746 142.324 226.298C142.28 227.357 142.149 228.46 141.99 229.518C141.859 230.418 141.671 231.332 141.41 232.216Z" fill="#E5E4E5"/>
<path d="M195.885 231.317C196.146 230.432 196.334 229.518 196.465 228.619C196.625 227.56 196.755 226.458 196.799 225.399C196.857 223.833 196.799 222.223 196.218 220.729C199.831 220.54 201.398 224.326 201.369 226.458C201.34 228.59 199.483 232.129 195.885 231.317Z" fill="#DDDDDD"/>
<path d="M195.882 231.317C190.355 230.07 190.674 221.019 196.216 220.729C196.796 222.237 196.854 223.847 196.796 225.399C196.753 226.458 196.622 227.56 196.462 228.619C196.332 229.518 196.143 230.432 195.882 231.317Z" fill="#E5E4E5"/>
<path d="M195.1 214.027C195.361 213.143 195.549 212.229 195.68 211.329C195.84 210.271 195.97 209.168 196.014 208.109C196.072 206.543 196.014 204.933 195.433 203.439C199.046 203.25 200.612 207.036 200.583 209.168C200.554 211.3 198.697 214.84 195.1 214.027Z" fill="#DDDDDD"/>
<path d="M195.101 214.027C189.574 212.78 189.893 203.729 195.435 203.439C196.015 204.947 196.073 206.557 196.015 208.109C195.971 209.168 195.841 210.271 195.681 211.33C195.551 212.229 195.362 213.143 195.101 214.027Z" fill="#E5E4E5"/>
<path d="M167.057 224.92L172.236 210.053C182.217 213.302 177.197 228.518 167.057 224.92Z" fill="#DDDDDD"/>
<path d="M167.056 224.92C157.38 221.483 162.269 206.804 172.236 210.053L167.056 224.92Z" fill="#E5E4E5"/>
<path opacity="0.1" d="M205.995 210.72C205.995 210.72 201.439 224.079 192.474 229.112C175.718 238.511 135.475 238.627 135.475 238.627C136.838 239.57 137.709 239.469 139.246 239.498C143.483 239.57 152.303 239.353 152.303 239.353C160.529 239.396 199.945 239.672 202.368 239.512C203.267 239.454 203.935 239.251 204.646 238.714C206.43 237.336 205.879 235.03 205.908 233.087C206.024 223.078 206.009 211.982 206.009 210.735L205.995 210.72Z" fill="#868686"/>
<path fill-rule="evenodd" clip-rule="evenodd" d="M92.3151 239.004L87.7598 178.389L168.217 177.606L166.288 239.541L92.3151 239.004Z" fill="#72E1F1"/>
<path fill-rule="evenodd" clip-rule="evenodd" d="M88.791 192.967L167.856 189.195L166.739 227.459L91.5329 228.271L88.791 192.967Z" fill="white"/>
<path fill-rule="evenodd" clip-rule="evenodd" d="M105.646 193.634L150.735 191.937L150.75 194.112L105.661 195.563L105.646 193.634Z" fill="#E1E1E1"/>
<path fill-rule="evenodd" clip-rule="evenodd" d="M99.4531 223.397L111.32 222.948L111.335 224.34L99.4676 224.645L99.4531 223.397Z" fill="#E1E1E1"/>
<path fill-rule="evenodd" clip-rule="evenodd" d="M99.1191 220.99L110.986 220.54L111.001 221.932L99.1337 222.223L99.1191 220.99Z" fill="#E1E1E1"/>
<path d="M148.354 234.682L112.625 235.068L112.641 236.533L148.37 236.147L148.354 234.682Z" fill="#E1E1E1"/>
<path fill-rule="evenodd" clip-rule="evenodd" d="M118.923 217.871L117.689 205.107L141.206 204.599L140.06 217.639L118.923 217.871Z" fill="#C6F2F9"/>
<path d="M111.016 198.565H111.654L112.887 200.32L114.12 198.565H114.759V201.988H113.903V200.349L113.047 201.553H112.727L111.872 200.349V201.988H111.03V198.565H111.016Z" fill="black"/>
<path d="M116.411 198.565V201.988H115.541V198.565H116.411Z" fill="black"/>
<path d="M117.212 198.565H119.634V199.378H118.068V199.943H119.446V200.741H118.068V201.974H117.197V198.551L117.212 198.565Z" fill="black"/>
<path d="M120.215 198.565H122.681V199.363H121.085V199.871H122.565V200.669H121.085V201.191H122.681V201.988H120.215V198.565Z" fill="black"/>
<path d="M126.032 199.755C126.032 200.378 125.655 200.915 124.683 200.915H124.247V201.988H123.377V198.565H124.741C125.669 198.565 126.032 199.146 126.032 199.755ZM125.147 199.755C125.147 199.537 124.987 199.363 124.755 199.363H124.262V200.146H124.741C125.031 200.146 125.161 199.958 125.161 199.755H125.147Z" fill="black"/>
<path d="M127.77 200.857H127.437V201.988H126.566V198.565H127.988C128.844 198.565 129.236 199.087 129.236 199.697C129.236 200.103 129.062 200.509 128.612 200.712L129.352 201.974H128.365L127.77 200.843V200.857ZM127.437 200.103H127.959C128.249 200.103 128.365 199.914 128.365 199.726C128.365 199.537 128.235 199.363 127.988 199.363H127.437V200.103Z" fill="black"/>
<path d="M130.804 198.565V201.988H129.934V198.565H130.804Z" fill="black"/>
<path d="M131.312 201.452L131.748 200.814C132.009 201.075 132.343 201.249 132.72 201.249C132.908 201.249 133.111 201.176 133.111 201.002C133.111 200.886 132.995 200.799 132.836 200.741C132.633 200.668 132.343 200.596 132.096 200.465C131.791 200.306 131.53 200.045 131.53 199.581C131.53 198.986 132.052 198.522 132.807 198.522C133.227 198.522 133.663 198.652 134.025 198.957L133.619 199.61C133.416 199.436 133.068 199.334 132.821 199.334C132.575 199.334 132.459 199.436 132.459 199.552C132.459 199.697 132.604 199.755 132.734 199.798C132.908 199.871 133.198 199.958 133.431 200.059C133.793 200.219 134.083 200.465 134.083 200.959C134.083 201.582 133.561 202.046 132.734 202.046C132.168 202.046 131.69 201.829 131.342 201.452H131.312Z" fill="black"/>
<path d="M134.33 199.407V198.58H137.101V199.407H136.158V201.988H135.288V199.407H134.345H134.33Z" fill="black"/>
<path d="M137.33 200.277C137.33 199.291 138.099 198.507 139.114 198.507C140.13 198.507 140.899 199.291 140.899 200.277C140.899 201.263 140.13 202.032 139.114 202.032C138.099 202.032 137.33 201.249 137.33 200.277ZM140.014 200.277C140.014 199.74 139.608 199.363 139.114 199.363C138.621 199.363 138.215 199.74 138.215 200.277C138.215 200.814 138.607 201.191 139.114 201.191C139.622 201.191 140.014 200.799 140.014 200.277Z" fill="black"/>
<path d="M144.586 198.565V201.988H143.933L142.38 200.161V201.988H141.539V198.565H142.163L143.744 200.422V198.565H144.6H144.586Z" fill="black"/>
<path d="M145.369 198.565H147.835V199.363H146.24V199.871H147.719V200.669H146.24V201.191H147.835V201.988H145.369V198.565Z" fill="black"/>
<path d="M55.4246 117.847C51.8848 118.92 50.0859 122.038 50.0859 124.997V128.957C50.0859 129.842 50.7968 130.553 51.6818 130.553H79.3182C83.0176 130.553 245.065 130.176 245.065 130.176C245.065 130.176 258.382 129.799 259.862 129.799C261.342 129.799 261.719 125.36 260.239 122.764C258.76 120.167 258.759 118.325 252.841 117.208C246.922 116.092 197.35 117.208 197.35 117.208C197.35 117.208 57.3831 117.237 55.4391 117.832L55.4246 117.847Z" fill="white"/>
<path opacity="0.2" d="M50.5653 130.016L60.0966 132.975C60.0966 132.975 63.2157 170.136 64.2022 171.616C65.1887 173.095 67.0021 173.922 67.3213 175.227C67.6404 176.533 73.5594 234.116 74.0526 234.929C74.5459 235.741 75.0537 238.976 81.1322 238.976C87.2108 238.976 234.576 239.788 234.576 239.788C234.576 239.788 236.854 240.165 237.681 237.366C238.508 234.566 240.974 208.269 240.974 208.269L244.093 174.894C244.093 174.894 246.893 174.734 247.546 171.282C248.199 167.83 251.985 131.336 251.985 131.336L259.543 129.697L50.5508 130.031L50.5653 130.016Z" fill="#F6F6F6"/>
<path opacity="0.1" d="M60.0653 132.525C60.0653 132.525 65.8682 161.506 71.9033 168.033C78.5477 175.213 120.982 174.197 120.982 174.197C120.285 174.676 89.9069 174.531 89.1235 174.546C86.9619 174.575 82.4792 174.473 82.4792 174.473C78.2865 174.488 68.6101 174.72 67.377 174.633C66.9128 174.604 65.0268 172.674 64.6641 172.399C63.7501 171.688 63.6921 169.106 63.402 166.974C62.7201 161.926 60.0508 133.149 60.0508 132.511L60.0653 132.525Z" fill="#C6C5C6"/>
<path opacity="0.1" d="M252.014 131.409C252.014 131.409 245.805 161.956 239.77 168.497C233.125 175.677 190.691 174.662 190.691 174.662C191.388 175.14 221.766 174.995 222.55 175.01C224.711 175.039 229.194 174.937 229.194 174.937C233.386 174.952 243.034 174.937 244.267 174.937C245.297 174.937 246.371 173.733 246.719 173.458C247.633 172.747 247.981 169.135 248.271 167.003C248.953 161.956 252.014 132.061 252.014 131.423V131.409Z" fill="#C6C5C6"/>
<path d="M180.795 158.605H128.264V181.783H180.795V158.605Z" fill="#F6F6F6"/>
<path d="M140.277 168.207C140.277 168.207 140.19 168.279 140.132 168.381C140.074 168.483 140.001 168.599 139.914 168.744C139.842 168.889 139.755 169.048 139.668 169.222C139.581 169.396 139.508 169.57 139.436 169.73C139.363 169.904 139.305 170.049 139.233 170.194C139.16 170.339 139.131 170.441 139.102 170.513C139.073 170.586 139.044 170.658 139.015 170.76C138.986 170.861 138.957 170.948 138.942 171.05C138.913 171.151 138.899 171.224 138.87 171.311C138.841 171.384 138.826 171.427 138.812 171.456C138.71 171.63 138.565 171.717 138.406 171.717C138.232 171.717 138.101 171.616 137.985 171.427C137.84 171.166 137.738 170.977 137.666 170.861C137.593 170.745 137.55 170.644 137.521 170.586C137.492 170.528 137.463 170.47 137.448 170.441C137.434 170.412 137.405 170.339 137.361 170.238C137.318 170.136 137.245 170.006 137.158 169.817C137.071 169.628 136.926 169.367 136.752 169.019C136.723 168.961 136.694 168.903 136.679 168.845C136.665 168.787 136.621 168.729 136.549 168.686C136.52 168.715 136.505 168.773 136.505 168.86C136.505 168.947 136.505 169.092 136.52 169.295C136.52 169.498 136.52 169.759 136.52 170.107C136.52 170.455 136.476 170.876 136.418 171.384C136.404 171.543 136.389 171.659 136.375 171.761C136.36 171.862 136.36 171.935 136.346 171.993C136.346 172.065 136.346 172.123 136.331 172.181C136.331 172.239 136.331 172.326 136.317 172.428C136.317 172.529 136.302 172.66 136.288 172.805C136.273 172.95 136.259 173.168 136.244 173.429C136.244 173.574 136.186 173.69 136.099 173.762C136.012 173.835 135.896 173.864 135.736 173.849C135.649 173.849 135.577 173.777 135.519 173.69C135.461 173.588 135.432 173.501 135.432 173.414C135.432 173.139 135.432 172.877 135.461 172.66C135.49 172.442 135.504 172.196 135.533 171.92C135.562 171.645 135.591 171.326 135.62 170.948C135.649 170.571 135.664 170.093 135.664 169.498C135.664 169.048 135.693 168.671 135.751 168.381C135.809 168.091 135.838 167.859 135.852 167.685V167.598C135.852 167.598 135.852 167.496 135.867 167.453C135.867 167.395 135.91 167.351 135.939 167.293C135.983 167.25 136.041 167.206 136.113 167.177C136.215 167.134 136.302 167.148 136.404 167.192C136.505 167.235 136.592 167.322 136.679 167.424C136.766 167.525 136.839 167.627 136.911 167.743C136.984 167.859 137.042 167.975 137.1 168.062C137.202 168.25 137.289 168.396 137.361 168.526C137.434 168.642 137.492 168.744 137.55 168.831C137.608 168.918 137.651 168.99 137.695 169.063C137.738 169.135 137.782 169.222 137.84 169.309C137.883 169.411 137.941 169.527 137.999 169.657C138.057 169.788 138.144 169.962 138.246 170.18C138.246 170.194 138.275 170.223 138.275 170.252C138.275 170.281 138.304 170.296 138.333 170.296C138.362 170.296 138.391 170.296 138.406 170.252L138.449 170.18C138.58 169.933 138.681 169.715 138.754 169.541C138.841 169.367 138.913 169.208 138.971 169.063C139.029 168.932 139.087 168.802 139.146 168.7C139.204 168.584 139.262 168.483 139.334 168.367C139.407 168.251 139.479 168.134 139.581 168.004C139.668 167.873 139.784 167.714 139.929 167.525C140.074 167.337 140.234 167.25 140.408 167.25C140.582 167.25 140.712 167.337 140.799 167.496C140.843 167.569 140.872 167.627 140.886 167.699C140.901 167.772 140.93 167.844 140.944 167.96C140.959 168.062 140.988 168.207 141.002 168.367C141.017 168.541 141.046 168.758 141.06 169.034C141.089 169.396 141.133 169.788 141.177 170.194C141.22 170.6 141.235 171.035 141.22 171.485C141.22 171.616 141.22 171.746 141.22 171.891C141.22 172.036 141.22 172.167 141.249 172.297C141.249 172.37 141.249 172.457 141.249 172.529C141.249 172.602 141.22 172.689 141.249 172.761C141.249 172.892 141.278 173.037 141.307 173.197C141.336 173.356 141.307 173.53 141.249 173.719C141.22 173.806 141.162 173.878 141.104 173.907C141.031 173.951 140.973 173.965 140.901 173.951C140.828 173.951 140.77 173.922 140.712 173.878C140.654 173.835 140.625 173.791 140.596 173.733C140.553 173.588 140.509 173.429 140.451 173.284C140.408 173.139 140.364 172.979 140.364 172.805C140.35 172.529 140.35 172.254 140.364 171.993C140.379 171.732 140.393 171.456 140.379 171.18C140.379 170.789 140.379 170.47 140.379 170.209C140.379 169.948 140.379 169.744 140.364 169.585C140.364 169.425 140.364 169.295 140.35 169.193C140.335 169.092 140.35 169.019 140.35 168.947V168.381C140.35 168.381 140.335 168.294 140.306 168.265L140.277 168.207Z" fill="black"/>
<path d="M145.848 167.569C145.95 167.569 146.051 167.569 146.138 167.569C146.24 167.569 146.327 167.612 146.414 167.685C146.53 167.786 146.588 167.888 146.617 167.989C146.646 168.091 146.617 168.192 146.573 168.279C146.53 168.367 146.443 168.439 146.341 168.483C146.24 168.526 146.124 168.541 145.993 168.526C145.63 168.468 145.355 168.425 145.166 168.381C144.992 168.352 144.862 168.323 144.789 168.323C144.716 168.323 144.687 168.323 144.687 168.337V168.439C144.687 168.686 144.687 168.918 144.687 169.164C144.687 169.411 144.702 169.643 144.687 169.889C144.687 169.962 144.687 170.02 144.687 170.049C144.687 170.078 144.731 170.107 144.789 170.107C144.847 170.107 144.934 170.136 145.065 170.136C145.195 170.136 145.369 170.165 145.616 170.194C145.732 170.194 145.819 170.238 145.892 170.281C145.964 170.325 146.008 170.383 146.037 170.441C146.066 170.499 146.066 170.571 146.037 170.629C146.022 170.687 145.964 170.745 145.892 170.774C145.848 170.803 145.775 170.818 145.688 170.832C145.601 170.832 145.5 170.847 145.398 170.847C145.297 170.847 145.21 170.847 145.108 170.847C145.007 170.847 144.934 170.847 144.891 170.832C144.774 170.818 144.716 170.818 144.687 170.832C144.658 170.861 144.644 170.919 144.644 171.035C144.644 171.238 144.615 171.427 144.586 171.616C144.557 171.804 144.542 172.007 144.542 172.196C144.542 172.268 144.542 172.355 144.513 172.428C144.484 172.5 144.499 172.587 144.513 172.674C144.528 172.747 144.557 172.805 144.571 172.805C144.586 172.805 144.644 172.805 144.716 172.805C144.92 172.79 145.094 172.776 145.224 172.761C145.355 172.761 145.456 172.747 145.543 172.747C145.63 172.747 145.688 172.747 145.746 172.761C145.805 172.761 145.848 172.805 145.921 172.834C146.051 172.892 146.124 173.008 146.124 173.139C146.124 173.284 146.051 173.385 145.906 173.472C145.863 173.487 145.819 173.516 145.775 173.516C145.732 173.516 145.645 173.53 145.543 173.53C145.442 173.53 145.297 173.53 145.108 173.501C144.92 173.487 144.673 173.458 144.354 173.443C144.325 173.443 144.281 173.443 144.223 173.443C144.165 173.443 144.093 173.443 144.02 173.443C143.948 173.443 143.875 173.443 143.803 173.443C143.73 173.443 143.657 173.443 143.614 173.443C143.527 173.443 143.454 173.385 143.425 173.327C143.396 173.269 143.396 173.197 143.454 173.124C143.483 173.081 143.498 173.023 143.498 172.95C143.498 172.877 143.498 172.761 143.498 172.631C143.498 172.5 143.498 172.341 143.498 172.152C143.498 171.964 143.527 171.746 143.57 171.485C143.614 171.238 143.657 170.948 143.701 170.6C143.744 170.252 143.788 169.919 143.817 169.585C143.846 169.251 143.875 168.961 143.904 168.729C143.933 168.483 143.948 168.352 143.948 168.323C143.962 168.207 143.948 168.134 143.919 168.105C143.875 168.076 143.832 168.018 143.788 167.931C143.744 167.859 143.73 167.786 143.744 167.728C143.759 167.67 143.802 167.612 143.875 167.583C143.904 167.583 143.948 167.554 143.977 167.54C144.006 167.525 144.049 167.511 144.093 167.511H145.05C145.181 167.511 145.311 167.511 145.442 167.511C145.572 167.511 145.703 167.511 145.863 167.511L145.848 167.569Z" fill="black"/>
<path d="M148.401 170.571C148.415 170.151 148.415 169.73 148.401 169.309C148.386 168.889 148.401 168.483 148.444 168.062C148.444 167.917 148.517 167.786 148.647 167.67C148.734 167.598 148.836 167.54 148.937 167.482C149.039 167.424 149.155 167.395 149.271 167.366C149.518 167.322 149.75 167.322 149.982 167.337C150.214 167.351 150.446 167.409 150.678 167.511C150.78 167.554 150.881 167.612 150.997 167.685C151.113 167.757 151.215 167.83 151.317 167.917C151.418 168.004 151.52 168.091 151.607 168.178C151.694 168.265 151.752 168.367 151.81 168.468C151.839 168.541 151.882 168.628 151.94 168.7C151.998 168.773 152.027 168.86 152.056 168.947C152.085 169.063 152.114 169.179 152.143 169.295C152.173 169.411 152.187 169.541 152.187 169.657C152.187 169.962 152.158 170.267 152.056 170.571C151.955 170.876 151.81 171.166 151.636 171.442C151.462 171.703 151.259 171.949 151.026 172.152C150.794 172.355 150.577 172.515 150.345 172.616C150.214 172.674 150.069 172.718 149.953 172.747C149.822 172.776 149.706 172.805 149.605 172.819C149.503 172.834 149.402 172.863 149.315 172.877C149.227 172.892 149.155 172.921 149.097 172.95C149.068 172.965 149.024 172.979 148.966 172.994C148.908 172.994 148.85 172.994 148.807 172.994C148.749 172.994 148.705 172.994 148.662 172.965C148.618 172.965 148.589 172.936 148.575 172.907C148.546 172.834 148.502 172.747 148.444 172.689C148.386 172.616 148.372 172.529 148.386 172.442C148.386 172.341 148.401 172.123 148.386 171.804C148.386 171.471 148.386 171.064 148.415 170.571H148.401ZM149.619 168.004C149.619 168.004 149.518 167.975 149.46 167.989C149.402 167.989 149.358 167.989 149.3 168.004C149.169 168.004 149.082 168.047 149.039 168.105C148.995 168.163 148.981 168.25 148.995 168.381C149.024 168.729 149.068 169.048 149.097 169.338C149.126 169.628 149.155 169.904 149.184 170.18C149.213 170.441 149.228 170.716 149.242 170.992C149.242 171.267 149.257 171.558 149.257 171.891C149.257 171.993 149.271 172.051 149.315 172.08C149.358 172.109 149.416 172.109 149.518 172.08C149.793 172.007 150.04 171.891 150.243 171.703C150.446 171.529 150.635 171.326 150.794 171.093C150.867 170.977 150.925 170.861 150.997 170.745C151.055 170.629 151.113 170.513 151.171 170.397C151.259 170.209 151.317 170.02 151.317 169.817C151.317 169.614 151.302 169.425 151.244 169.237C151.186 169.048 151.099 168.874 150.983 168.715C150.867 168.555 150.722 168.41 150.562 168.309C150.417 168.207 150.272 168.134 150.112 168.076C149.953 168.018 149.793 167.989 149.605 168.004H149.619Z" fill="black"/>
<path d="M154.117 167.83C154.117 167.728 154.16 167.656 154.204 167.598C154.247 167.554 154.305 167.525 154.363 167.525C154.421 167.525 154.465 167.554 154.523 167.598C154.566 167.641 154.61 167.714 154.61 167.801C154.61 167.888 154.639 168.047 154.653 168.308C154.653 168.555 154.682 168.845 154.697 169.179C154.697 169.512 154.726 169.86 154.726 170.238C154.726 170.615 154.74 170.977 154.74 171.325C154.74 171.441 154.74 171.572 154.726 171.674C154.726 171.79 154.711 171.891 154.711 172.007C154.711 172.123 154.711 172.225 154.711 172.326C154.711 172.428 154.726 172.544 154.769 172.66C154.798 172.79 154.784 172.906 154.711 172.994C154.639 173.081 154.552 173.124 154.421 173.11C154.218 173.095 154.088 173.023 154.001 172.892C153.914 172.761 153.87 172.602 153.855 172.428C153.855 172.239 153.855 172.051 153.87 171.833C153.899 171.616 153.913 171.427 153.943 171.238C153.943 171.195 153.943 171.093 153.957 170.963C153.957 170.818 153.957 170.658 153.972 170.455C153.972 170.252 153.986 170.035 154.001 169.802C154.001 169.556 154.015 169.324 154.03 169.092C154.03 168.845 154.059 168.628 154.073 168.41C154.088 168.192 154.102 168.004 154.117 167.844V167.83Z" fill="black"/>
<path d="M157.512 171.325C157.483 171.485 157.512 171.63 157.57 171.732C157.642 171.848 157.744 171.949 157.845 172.036C157.889 172.08 157.976 172.094 158.092 172.109C158.208 172.123 158.339 172.123 158.484 172.123C158.629 172.123 158.759 172.123 158.875 172.123C159.006 172.123 159.093 172.109 159.151 172.094C159.325 172.036 159.485 171.993 159.644 171.949C159.804 171.906 159.949 171.833 160.108 171.761C160.239 171.703 160.341 171.674 160.442 171.703C160.544 171.732 160.602 171.775 160.631 171.862C160.66 171.935 160.631 172.036 160.587 172.152C160.544 172.268 160.413 172.399 160.225 172.529C159.978 172.703 159.717 172.849 159.427 172.95C159.151 173.052 158.846 173.11 158.527 173.124C158.353 173.124 158.208 173.124 158.077 173.124C157.947 173.124 157.831 173.095 157.715 173.052C157.599 173.023 157.497 172.965 157.396 172.907C157.294 172.849 157.192 172.776 157.076 172.689C156.946 172.573 156.83 172.442 156.728 172.297C156.627 172.152 156.583 171.978 156.554 171.804C156.511 171.413 156.554 171.035 156.641 170.702C156.743 170.354 156.902 170.035 157.105 169.715C157.309 169.411 157.555 169.121 157.845 168.86C158.135 168.599 158.44 168.367 158.774 168.149C158.904 168.062 159.049 167.989 159.209 167.931C159.354 167.873 159.514 167.859 159.688 167.859C159.76 167.859 159.833 167.873 159.905 167.888C159.978 167.888 160.036 167.931 160.094 167.989C160.152 168.047 160.195 168.105 160.195 168.178C160.195 168.251 160.195 168.309 160.152 168.367C160.108 168.425 160.065 168.454 160.036 168.439C160.007 168.439 159.949 168.41 159.891 168.396C159.833 168.381 159.746 168.396 159.644 168.396C159.543 168.425 159.398 168.497 159.209 168.642C159.035 168.773 158.875 168.903 158.701 169.063C158.527 169.222 158.368 169.382 158.223 169.556C158.077 169.73 157.947 169.919 157.831 170.122C157.715 170.325 157.642 170.513 157.599 170.716C157.57 170.818 157.541 170.905 157.526 171.006C157.497 171.108 157.497 171.209 157.512 171.325Z" fill="black"/>
<path d="M162.519 167.83C162.519 167.728 162.562 167.656 162.606 167.598C162.649 167.554 162.708 167.525 162.766 167.525C162.824 167.525 162.867 167.554 162.925 167.598C162.969 167.641 163.012 167.714 163.012 167.801C163.012 167.888 163.041 168.047 163.056 168.308C163.056 168.555 163.085 168.845 163.099 169.179C163.099 169.512 163.128 169.86 163.128 170.238C163.128 170.615 163.143 170.977 163.143 171.325C163.143 171.441 163.143 171.572 163.128 171.674C163.128 171.79 163.114 171.891 163.114 172.007C163.114 172.123 163.114 172.225 163.114 172.326C163.114 172.428 163.128 172.544 163.172 172.66C163.201 172.79 163.186 172.906 163.114 172.994C163.041 173.081 162.954 173.124 162.824 173.11C162.62 173.095 162.49 173.023 162.403 172.892C162.316 172.761 162.272 172.602 162.258 172.428C162.258 172.239 162.258 172.051 162.272 171.833C162.301 171.616 162.316 171.427 162.345 171.238C162.345 171.195 162.345 171.093 162.359 170.963C162.359 170.818 162.359 170.658 162.374 170.455C162.374 170.252 162.388 170.035 162.403 169.802C162.403 169.556 162.417 169.324 162.432 169.092C162.432 168.845 162.461 168.628 162.475 168.41C162.49 168.192 162.504 168.004 162.519 167.844V167.83Z" fill="black"/>
<path d="M166.274 169.744C166.158 170.455 166.057 171.021 165.984 171.456C165.912 171.891 165.854 172.225 165.825 172.471C165.796 172.718 165.767 172.878 165.752 172.979C165.738 173.081 165.738 173.139 165.738 173.168C165.738 173.197 165.738 173.226 165.738 173.226C165.738 173.226 165.723 173.284 165.709 173.356C165.68 173.458 165.622 173.53 165.564 173.574C165.506 173.617 165.433 173.632 165.36 173.617C165.288 173.617 165.23 173.588 165.186 173.545C165.128 173.501 165.099 173.443 165.099 173.371C165.099 173.298 165.07 173.226 165.07 173.153C165.07 173.081 165.07 173.008 165.07 172.921C165.085 172.79 165.099 172.674 165.099 172.544C165.099 172.413 165.099 172.297 165.143 172.167C165.259 171.601 165.346 171.108 165.433 170.716C165.52 170.325 165.593 169.977 165.651 169.701C165.709 169.425 165.752 169.193 165.781 169.019C165.81 168.845 165.839 168.7 165.854 168.584C165.854 168.468 165.868 168.367 165.868 168.28C165.868 168.192 165.854 168.105 165.825 168.004C165.796 167.902 165.81 167.815 165.854 167.728C165.897 167.641 165.955 167.598 166.028 167.569C166.1 167.54 166.173 167.54 166.245 167.569C166.318 167.612 166.376 167.685 166.405 167.815C166.507 168.163 166.623 168.512 166.753 168.86C166.884 169.208 167.014 169.556 167.159 169.904C167.304 170.252 167.45 170.6 167.595 170.934C167.74 171.282 167.885 171.616 168.015 171.949C168.059 171.949 168.088 171.949 168.102 171.906C168.117 171.862 168.131 171.79 168.131 171.645C168.131 171.5 168.146 171.282 168.16 170.992C168.16 170.702 168.189 170.296 168.233 169.759C168.262 169.353 168.291 169.005 168.305 168.744C168.32 168.483 168.349 168.265 168.378 168.105C168.407 167.946 168.451 167.83 168.509 167.743C168.567 167.656 168.639 167.583 168.726 167.525C168.842 167.467 168.944 167.453 169.031 167.496C169.118 167.54 169.161 167.627 169.176 167.757C169.176 167.902 169.176 168.062 169.176 168.221C169.176 168.381 169.161 168.526 169.132 168.686C169.089 169.15 169.045 169.556 169.031 169.919C169.002 170.281 168.987 170.629 168.973 170.963C168.958 171.296 168.929 171.659 168.9 172.007C168.871 172.37 168.828 172.776 168.77 173.24C168.77 173.327 168.726 173.4 168.683 173.458C168.639 173.516 168.567 173.559 168.494 173.588C168.421 173.617 168.334 173.632 168.247 173.617C168.16 173.617 168.073 173.559 168.001 173.501C167.856 173.385 167.725 173.24 167.624 173.052C167.522 172.863 167.406 172.631 167.29 172.355C167.174 172.08 167.043 171.732 166.913 171.34C166.768 170.934 166.608 170.455 166.405 169.89C166.405 169.861 166.376 169.832 166.376 169.817C166.376 169.788 166.332 169.759 166.289 169.73L166.274 169.744Z" fill="black"/>
<path d="M173.557 167.569C173.659 167.569 173.76 167.569 173.847 167.569C173.949 167.569 174.036 167.612 174.123 167.685C174.239 167.786 174.297 167.888 174.326 167.989C174.355 168.091 174.326 168.192 174.282 168.279C174.239 168.367 174.152 168.439 174.05 168.483C173.949 168.526 173.833 168.541 173.702 168.526C173.339 168.468 173.064 168.425 172.875 168.381C172.701 168.352 172.571 168.323 172.498 168.323C172.425 168.323 172.396 168.323 172.396 168.337V168.439C172.396 168.686 172.396 168.918 172.396 169.164C172.396 169.411 172.411 169.643 172.396 169.889C172.396 169.962 172.396 170.02 172.396 170.049C172.396 170.078 172.44 170.107 172.498 170.107C172.556 170.107 172.643 170.136 172.774 170.136C172.904 170.136 173.078 170.165 173.325 170.194C173.441 170.194 173.528 170.238 173.601 170.281C173.673 170.325 173.717 170.383 173.746 170.441C173.775 170.499 173.775 170.571 173.746 170.629C173.731 170.687 173.673 170.745 173.601 170.774C173.557 170.803 173.484 170.818 173.397 170.832C173.31 170.832 173.209 170.847 173.107 170.847C173.006 170.847 172.919 170.847 172.817 170.847C172.716 170.847 172.643 170.847 172.6 170.832C172.483 170.818 172.425 170.818 172.396 170.832C172.367 170.861 172.353 170.919 172.353 171.035C172.353 171.238 172.324 171.427 172.295 171.616C172.266 171.804 172.251 172.007 172.251 172.196C172.251 172.268 172.251 172.355 172.222 172.428C172.193 172.5 172.208 172.587 172.222 172.674C172.237 172.747 172.266 172.805 172.28 172.805C172.295 172.805 172.353 172.805 172.425 172.805C172.629 172.79 172.803 172.776 172.933 172.761C173.064 172.761 173.165 172.747 173.252 172.747C173.339 172.747 173.397 172.747 173.455 172.761C173.514 172.761 173.557 172.805 173.63 172.834C173.76 172.892 173.833 173.008 173.833 173.139C173.833 173.284 173.76 173.385 173.615 173.472C173.572 173.487 173.528 173.516 173.484 173.516C173.441 173.516 173.354 173.53 173.252 173.53C173.151 173.53 173.006 173.53 172.817 173.501C172.629 173.487 172.382 173.458 172.063 173.443C172.034 173.443 171.99 173.443 171.932 173.443C171.874 173.443 171.802 173.443 171.729 173.443C171.657 173.443 171.584 173.443 171.512 173.443C171.439 173.443 171.366 173.443 171.323 173.443C171.236 173.443 171.163 173.385 171.134 173.327C171.105 173.269 171.105 173.197 171.163 173.124C171.192 173.081 171.207 173.023 171.207 172.95C171.207 172.877 171.207 172.761 171.207 172.631C171.207 172.5 171.207 172.341 171.207 172.152C171.207 171.964 171.236 171.746 171.279 171.485C171.323 171.238 171.366 170.948 171.41 170.6C171.453 170.252 171.497 169.919 171.526 169.585C171.555 169.251 171.584 168.961 171.613 168.729C171.642 168.483 171.657 168.352 171.657 168.323C171.671 168.207 171.657 168.134 171.628 168.105C171.584 168.076 171.541 168.018 171.497 167.931C171.453 167.859 171.439 167.786 171.453 167.728C171.468 167.67 171.511 167.612 171.584 167.583C171.613 167.583 171.657 167.554 171.686 167.54C171.715 167.525 171.758 167.511 171.802 167.511H172.759C172.89 167.511 173.02 167.511 173.151 167.511C173.281 167.511 173.412 167.511 173.572 167.511L173.557 167.569Z" fill="black"/>
</g>
<defs>
<linearGradient id="paint0_linear_5510_14979" x1="194.447" y1="239.498" x2="194.447" y2="160.403" gradientUnits="userSpaceOnUse">
<stop offset="0.02" stop-color="#FF8547"/>
<stop offset="1" stop-color="#FFB834"/>
</linearGradient>
<clipPath id="clip0_5510_14979">
<rect width="640" height="574" fill="white"/>
</clipPath>
</defs>
</svg>
