<svg width="541" height="385" viewBox="0 0 541 385" fill="none" xmlns="http://www.w3.org/2000/svg">
<path d="M59.8313 222.406C52.6128 222.399 46.5773 220.054 41.7247 215.371C36.8722 210.644 34.4493 204.559 34.4561 197.118C34.4629 189.632 36.9192 183.485 41.8251 178.677C46.7309 173.825 52.7708 171.402 59.9447 171.409C64.3114 171.413 68.3432 172.285 72.0399 174.026C75.7813 175.767 78.8091 178.154 81.1233 181.186L73.162 189.534C69.3337 185.431 65.1917 183.377 60.7358 183.373C56.9484 183.37 53.7613 184.659 51.1745 187.241C48.6323 189.868 47.3594 193.142 47.3558 197.063C47.3523 200.895 48.6193 204.104 51.1568 206.691C53.7388 209.233 56.9013 210.506 60.6442 210.509C65.5456 210.514 69.7806 208.401 73.3492 204.171L81.6298 212.133C79.3546 215.116 76.3001 217.586 72.4662 219.543C68.677 221.456 64.4654 222.41 59.8313 222.406Z" fill="#4759CC"/>
<path d="M131.698 215.186C126.792 220.083 120.663 222.528 113.311 222.521C105.959 222.515 99.7895 220.058 94.8034 215.152C89.9065 210.246 87.4613 204.206 87.4678 197.033C87.4744 189.859 89.9529 183.801 94.9034 178.859C99.8539 173.918 105.983 171.451 113.291 171.457C120.643 171.464 126.789 173.943 131.731 178.893C136.672 183.844 139.14 189.906 139.133 197.08C139.127 204.209 136.648 210.244 131.698 215.186ZM113.255 210.156C116.909 210.16 119.985 208.915 122.482 206.422C124.98 203.929 126.23 200.789 126.234 197.001C126.148 193.169 124.859 190.026 122.366 187.573C119.873 185.076 116.844 183.826 113.279 183.822C109.67 183.819 106.617 185.086 104.119 187.624C101.621 190.117 100.371 193.235 100.368 196.977C100.364 200.765 101.609 203.907 104.102 206.405C106.595 208.903 109.646 210.153 113.255 210.156Z" fill="#4759CC"/>
<path d="M161.887 221.764L149.656 221.752L149.701 172.359L158.925 172.368L176.68 197.782L194.415 172.4L203.706 172.409L203.661 221.802L191.296 221.79L191.318 198.063L178.937 215.363L174.258 215.358L161.909 198.036L161.887 221.764Z" fill="#4759CC"/>
<path d="M228.999 221.825L216.768 221.814L216.813 172.421L226.036 172.429L243.792 197.844L261.527 172.462L270.818 172.47L270.773 221.863L258.408 221.852L258.429 198.124L246.049 215.424L241.37 215.42L229.021 198.098L228.999 221.825Z" fill="#4759CC"/>
<path d="M283.362 202.692L283.39 172.481L295.955 172.493L295.928 202.503C295.926 205.177 296.614 207.227 297.994 208.654C299.419 210.037 301.334 210.729 303.741 210.731C306.102 210.733 307.974 210.022 309.357 208.598C310.784 207.173 311.499 205.146 311.501 202.517L311.529 172.507L324.161 172.519L324.133 202.729C324.13 206.249 323.548 209.346 322.387 212.018C321.271 214.646 319.732 216.739 317.77 218.297C315.808 219.81 313.645 220.944 311.283 221.699C308.921 222.41 306.403 222.764 303.73 222.762C301.056 222.76 298.539 222.401 296.178 221.686C293.862 220.926 291.701 219.788 289.698 218.271C287.739 216.71 286.181 214.614 285.025 211.984C283.913 209.31 283.359 206.212 283.362 202.692Z" fill="#4759CC"/>
<path d="M368.532 199.361L368.557 172.559L380.855 172.57L380.81 221.963L371.386 221.955L348.952 195.467L348.928 221.934L336.697 221.923L336.742 172.53L345.698 172.538L368.532 199.361Z" fill="#4759CC"/>
<path d="M393.888 221.975L393.933 172.582L406.498 172.594L406.453 221.987L393.888 221.975Z" fill="#4759CC"/>
<path d="M429.31 222.008L429.345 184.646L415.643 184.633L415.654 172.602L455.623 172.639L455.612 184.669L441.977 184.657L441.943 222.019L429.31 222.008Z" fill="#4759CC"/>
<path d="M492.516 172.672L507.153 172.686L489.812 205.487L489.797 222.063L477.365 222.052L477.38 205.476L460.3 172.643L475.004 172.656L483.609 191.579L492.516 172.672Z" fill="#4759CC"/>
<path d="M64.5464 48.1559L34.7583 48.1287L34.7543 52.4426L64.5424 52.4698L64.5464 48.1559Z" fill="#4759CC"/>
<path d="M64.5404 56.6383L34.7523 56.6111L34.7483 60.9251L64.5365 60.9522L64.5404 56.6383Z" fill="#4759CC"/>
<path d="M64.5328 65.2566L34.7447 65.2294L34.7407 69.5433L64.5288 69.5705L64.5328 65.2566Z" fill="#4759CC"/>
<path d="M64.523 73.9019L34.7349 73.8747L34.731 78.1886L64.5191 78.2158L64.523 73.9019Z" fill="#4759CC"/>
<path d="M64.5154 82.5201L34.7273 82.4929L34.7234 86.8069L64.5115 86.8341L64.5154 82.5201Z" fill="#4759CC"/>
<path d="M383.336 82.8066L353.548 82.7794L353.544 87.0933L383.333 87.1205L383.336 82.8066Z" fill="#4759CC"/>
<path d="M383.344 74.1883L353.556 74.1611L353.552 78.4751L383.34 78.5023L383.344 74.1883Z" fill="#4759CC"/>
<path d="M383.35 65.7059L353.562 65.6787L353.558 69.9926L383.346 70.0198L383.35 65.7059Z" fill="#4759CC"/>
<path d="M383.359 57.0696L353.571 57.0424L353.567 61.3563L383.355 61.3835L383.359 57.0696Z" fill="#4759CC"/>
<path d="M383.367 48.4513L353.579 48.4241L353.575 52.7381L383.363 52.7653L383.367 48.4513Z" fill="#4759CC"/>
<path d="M64.5122 89.809L104.918 89.8459C104.918 89.3996 104.919 89.1021 104.919 88.6558C105.087 66.1937 86.9653 47.8801 64.5505 47.8596L64.5122 89.809Z" fill="#4759CC"/>
<path d="M181.868 116.841L122.144 116.786L122.14 121.1L181.864 121.155L181.868 116.841Z" fill="#4759CC"/>
<path d="M181.854 125.313L122.13 125.259L122.126 129.573L181.85 129.627L181.854 125.313Z" fill="#4759CC"/>
<path d="M181.845 133.941L122.122 133.886L122.118 138.2L181.841 138.255L181.845 133.941Z" fill="#4759CC"/>
<path d="M181.836 142.577L122.113 142.522L122.109 146.836L181.832 146.891L181.836 142.577Z" fill="#4759CC"/>
<path d="M484.456 121.575L507.019 121.596L507.023 117.282L484.46 117.261C474.138 117.252 465.003 108.616 465.012 97.9052C465.022 87.1947 473.436 78.5745 483.906 78.5841L507.205 78.6053L507.209 74.2914L483.91 74.2701C471.08 74.2584 460.748 84.8107 460.736 97.9013C460.724 110.992 471.774 121.564 484.456 121.575Z" fill="#4759CC"/>
<path d="M483.864 130.202L507.164 130.224L507.168 125.91L483.868 125.888C468.826 125.875 456.598 113.368 456.612 97.8972C456.626 82.4265 468.877 69.9421 483.919 69.9559L507.219 69.9771L507.223 65.6632L483.923 65.6419C466.522 65.626 452.352 80.0425 452.336 97.8933C452.319 115.744 466.463 130.186 483.864 130.202Z" fill="#4759CC"/>
<path d="M483.857 138.825L507.156 138.847L507.16 134.533L484.156 134.512C464.543 134.494 448.631 118.116 448.65 98.0338C448.668 77.9516 464.609 61.4542 484.222 61.4721L507.227 61.4931L507.231 57.0304L483.932 57.0091C461.959 57.1378 444.246 75.4187 444.226 97.881C444.205 120.343 462.032 138.657 483.857 138.825Z" fill="#4759CC"/>
<path d="M507.157 147.474L507.161 143.16L483.861 143.139C459.235 143.117 439.198 122.867 439.22 98.025C439.243 73.1826 459.317 52.97 483.944 52.9925L507.243 53.0138L507.247 48.5511L483.948 48.5298C456.962 48.5052 434.969 70.6499 434.944 97.8723C434.919 125.095 456.871 147.28 483.858 147.304L507.157 147.326L507.157 147.474Z" fill="#4759CC"/>
<path d="M64.5042 90.991L34.7161 90.9638L34.7121 95.2777L64.5002 95.3049L64.5042 90.991Z" fill="#4759CC"/>
<path d="M64.5042 99.628L34.716 99.6008L34.7121 103.915L64.5002 103.942L64.5042 99.628Z" fill="#4759CC"/>
<path d="M64.4958 108.255L34.7077 108.228L34.7038 112.542L64.4919 112.569L64.4958 108.255Z" fill="#4759CC"/>
<path d="M64.4882 116.873L34.7001 116.846L34.6962 121.16L64.4843 121.187L64.4882 116.873Z" fill="#4759CC"/>
<path d="M64.4792 125.51L34.6911 125.483L34.6871 129.797L64.4753 129.824L64.4792 125.51Z" fill="#4759CC"/>
<path d="M64.4649 133.983L34.6768 133.955L34.6729 138.269L64.461 138.296L64.4649 133.983Z" fill="#4759CC"/>
<path d="M64.4656 142.61L34.6775 142.583L34.6735 146.897L64.4617 146.924L64.4656 142.61Z" fill="#4759CC"/>
<path d="M295.187 48.213L353.493 147.338L383.134 147.365L383.134 147.217L383.282 147.217L324.975 48.5377L324.975 48.2402" fill="#4759CC"/>
<path d="M228.946 78.2089C237.204 78.2164 244.274 87.1483 246.917 99.6463L228.927 99.6299L228.946 78.2089ZM247.651 104.11C247.797 105.449 247.943 106.936 247.942 108.424L228.771 108.406L228.775 104.092L247.651 104.11ZM228.915 112.72L248.085 112.738C248.084 113.779 248.083 115.118 248.081 117.052L228.911 117.034L228.915 112.72ZM228.907 121.348L248.077 121.366C248.076 122.705 248.075 124.043 248.073 125.68L228.903 125.662L228.907 121.348ZM252.366 108.279C251.499 89.0887 241.337 73.7575 228.95 73.7462L228.954 69.4322C244.291 69.4463 256.663 85.9696 256.644 106.2L256.643 107.093C256.64 110.961 256.632 120.035 256.312 146.96L260.589 146.963C260.908 120.039 260.916 110.965 260.92 106.948L260.921 106.056C260.942 83.4446 246.654 64.8369 228.958 64.8208L228.962 60.9531C249.017 60.9714 265.222 79.4321 265.201 102.043L265.2 102.936C265.196 107.25 265.187 117.365 264.865 147.116L269.141 147.12C269.464 117.369 269.473 107.253 269.477 102.94L269.478 102.047C269.5 77.0559 251.381 56.6596 228.966 56.6392L228.97 52.3252C253.744 52.3478 273.781 72.5971 273.758 97.5882L273.757 98.6295C273.753 103.39 273.743 114.398 273.271 147.124L277.547 147.128C278.019 114.402 278.029 103.245 278.034 98.6334L278.035 97.5921C278.06 70.2209 255.96 48.0359 228.974 48.0113L228.884 146.637L228.899 129.827L248.07 129.845C248.065 134.456 248.06 140.109 247.906 147.101L252.183 147.105" fill="#4759CC"/>
<path d="M126.476 47.9159L122.199 47.912L122.109 146.835L126.386 146.839L126.476 47.9159Z" fill="#4759CC"/>
<path d="M135.04 47.9193L130.764 47.9154L130.673 146.839L134.95 146.842L135.04 47.9193Z" fill="#4759CC"/>
<path d="M143.595 47.9309L139.318 47.927L139.228 146.85L143.504 146.854L143.595 47.9309Z" fill="#4759CC"/>
<path d="M152.131 47.9412L147.855 47.9373L147.764 146.86L152.041 146.864L152.131 47.9412Z" fill="#4759CC"/>
<path d="M324.965 48.2391L320.689 48.2352L320.598 147.158L324.875 147.162L324.965 48.2391Z" fill="#4759CC"/>
<path d="M316.42 48.2282L312.143 48.2243L312.053 147.147L316.329 147.151L316.42 48.2282Z" fill="#4759CC"/>
<path d="M308.018 48.2286L303.742 48.2247L303.652 147.148L307.928 147.152L308.018 48.2286Z" fill="#4759CC"/>
<path d="M299.464 48.2169L295.187 48.213L295.097 147.136L299.374 147.14L299.464 48.2169Z" fill="#4759CC"/>
<path d="M64.477 129.822C86.8918 129.843 105.047 111.562 105.067 88.9513C105.088 66.3403 86.9665 48.0267 64.5516 48.0062" fill="#4759CC"/>
<path d="M228.972 48.0074L199.184 47.9802L199.093 147.052L228.881 147.079L228.972 48.0074Z" fill="#4759CC"/>
<path d="M383.277 142.905L353.489 142.878L353.485 147.192L383.273 147.219L383.277 142.905Z" fill="#4759CC"/>
<path d="M383.285 134.278L353.497 134.251L353.493 138.565L383.281 138.592L383.285 134.278Z" fill="#4759CC"/>
<path d="M383.297 125.497L353.508 125.47L353.505 129.784L383.293 129.811L383.297 125.497Z" fill="#4759CC"/>
<path d="M383.298 116.724L353.51 116.697L353.506 121.011L383.294 121.038L383.298 116.724Z" fill="#4759CC"/>
<path d="M383.307 108.55L353.519 108.523L353.515 112.837L383.303 112.864L383.307 108.55Z" fill="#4759CC"/>
<path d="M383.314 100.059L353.526 100.031L353.522 104.345L383.31 104.373L383.314 100.059Z" fill="#4759CC"/>
<path d="M383.322 91.4313L353.534 91.4041L353.53 95.718L383.318 95.7452L383.322 91.4313Z" fill="#4759CC"/>
<path d="M295.182 48.3656L353.488 147.342L383.276 147.369L324.97 48.6903L324.97 48.3928" fill="#4759CC"/>
<path d="M151.927 116.826L122.139 116.799L122.135 121.113L151.923 121.14L151.927 116.826Z" fill="#4759CC"/>
<path d="M151.913 125.3L122.125 125.273L122.121 129.587L151.909 129.614L151.913 125.3Z" fill="#4759CC"/>
<path d="M151.914 133.916L122.126 133.889L122.122 138.203L151.91 138.23L151.914 133.916Z" fill="#4759CC"/>
<path d="M151.899 142.542L122.111 142.515L122.107 146.829L151.896 146.856L151.899 142.542Z" fill="#4759CC"/>
<path d="M60.4365 300.165C60.9619 300.481 62.0654 300.85 63.7471 301.272C65.4289 301.589 67.3734 301.959 69.5807 302.382C71.8932 302.804 74.3107 303.332 76.8332 303.965C79.3559 304.493 81.7733 305.126 84.0854 305.864C86.3977 306.497 88.3945 307.235 90.0758 308.077C91.8622 308.92 93.1229 309.92 93.8577 311.077C94.4875 312.129 94.9597 313.181 95.2741 314.232C95.6937 315.179 95.535 316.282 94.798 317.543C94.1662 318.699 93.3244 319.487 92.2727 319.906C91.2211 320.221 90.0647 320.272 88.8033 320.061C85.1243 319.532 81.603 318.898 78.2395 318.159C72.2485 316.682 67.6764 315.521 64.5233 314.677C61.3703 313.728 59.058 313.148 57.5863 312.936C56.2199 312.725 55.4313 312.829 55.2206 313.249C55.1151 313.67 55.0618 314.511 55.0606 315.772C55.0574 319.347 55.0019 322.501 54.8943 325.234C54.8918 327.967 54.6795 330.227 54.2573 332.014C53.8353 333.696 53.1508 334.957 52.2039 335.797C51.3622 336.532 50.1004 336.794 48.4185 336.582C47.052 336.37 46.1589 335.791 45.7393 334.845C45.3196 333.898 45.0051 332.899 44.7958 331.848C44.482 330.165 44.2207 328.483 44.012 326.801C43.8033 325.119 43.8048 323.384 44.0167 321.597C44.3346 318.864 44.495 315.92 44.4979 312.766C44.6059 309.613 43.8724 306.984 42.2974 304.88C40.4075 302.145 40.7253 299.569 43.2506 297.154C44.0923 296.418 44.5661 295.63 44.672 294.79C44.883 293.949 44.989 293.003 44.99 291.951C45.2047 287.01 45.156 282.858 44.8436 279.493C44.5313 276.129 44.4287 273.343 44.5359 271.135C44.7482 268.928 45.3805 267.246 46.4328 266.091C47.5903 264.935 49.6937 264.096 52.7429 263.573C57.0539 262.841 61.4693 262.793 65.9893 263.428C70.5093 264.063 74.3454 265.275 77.4977 267.065C80.65 268.75 82.6455 270.96 83.484 273.694C84.4277 276.428 83.4787 279.529 80.637 282.995C79.5846 284.256 78.0062 285.831 75.9019 287.722C73.7976 289.612 71.6933 291.45 69.5891 293.235C67.4849 295.021 65.5385 296.596 63.7501 297.961C62.0669 299.221 60.9623 299.956 60.4365 300.165ZM57.4671 270.832C56.1004 270.83 55.0491 270.882 54.3131 270.986C53.6822 271.091 53.2612 271.616 53.0501 272.562C52.9442 273.403 52.9953 274.928 53.2036 277.136C53.4119 279.238 53.7245 282.34 54.1413 286.44C54.3502 287.912 54.6647 288.806 55.085 289.122C55.5053 289.333 56.2941 289.018 57.4513 288.178C59.7654 286.708 61.9221 285.081 63.9212 283.295C66.0255 281.405 68.0246 279.567 69.9186 277.782C71.7074 275.996 71.4985 274.577 69.2917 273.523C67.7154 272.786 66.4544 272.259 65.5085 271.943C64.5627 271.521 63.6693 271.258 62.8284 271.152C62.0927 270.941 61.3043 270.835 60.4633 270.834C59.7274 270.834 58.7286 270.833 57.4671 270.832Z" fill="black"/>
<path d="M107.86 277.501C108.913 276.24 109.912 275.295 110.859 274.665C111.806 274.035 112.7 273.458 113.541 272.933C114.488 272.408 115.33 271.831 116.066 271.201C116.803 270.57 117.487 269.625 118.119 268.364C118.961 266.788 120.486 266.106 122.694 266.318C124.901 266.425 127.213 267.321 129.63 269.005C132.046 270.584 134.305 272.899 136.404 275.95C138.504 278.895 139.815 282.419 140.337 286.519C140.859 290.62 140.277 295.192 138.59 300.237C137.008 305.176 133.745 310.483 128.798 316.155C126.799 318.361 124.59 320.094 122.17 321.353C119.751 322.507 117.333 323.083 114.915 323.081C112.497 323.079 110.185 322.498 107.978 321.34C105.876 320.182 104.091 318.34 102.621 315.816C101.257 313.397 100.261 310.61 99.6329 307.455C99.1101 304.301 99.008 301.042 99.3264 297.678C99.645 294.209 100.489 290.74 101.859 287.272C103.334 283.804 105.334 280.547 107.86 277.501ZM110.513 308.254C111.667 310.673 113.085 312.041 114.767 312.358C116.554 312.569 118.342 311.625 120.131 309.524C122.026 307.318 123.657 305.007 125.026 302.59C126.5 300.173 127.501 297.704 128.029 295.181C128.662 292.658 128.717 290.188 128.194 287.77C127.67 285.246 126.463 282.879 124.573 280.67C122.158 277.934 119.95 277.196 117.952 278.456C116.058 279.716 114.217 281.975 112.426 285.232C111.373 287.123 110.583 289.225 110.055 291.538C109.633 293.745 109.368 295.952 109.261 298.16C109.154 300.263 109.204 302.26 109.413 304.153C109.727 305.94 110.093 307.307 110.513 308.254Z" fill="black"/>
<path d="M190.57 320.469C190.567 323.203 189.357 324.936 186.938 325.67C185.782 325.984 184.73 325.983 183.784 325.667C182.944 325.246 182.103 324.351 181.264 322.984C180.109 321.196 179.48 319.092 179.377 316.674C179.379 314.256 179.383 310.682 179.387 305.951C179.493 304.795 179.231 304.059 178.6 303.743C178.075 303.427 177.287 303.373 176.235 303.583C173.922 303.896 172.082 304.157 170.715 304.366C169.453 304.575 168.454 304.995 167.718 305.625C166.981 306.255 166.35 307.201 165.823 308.462C165.401 309.723 164.821 311.457 164.084 313.664C163.662 315.03 163.293 316.449 162.976 317.921C162.659 319.392 162.29 320.759 161.868 322.02C161.552 323.281 161.025 324.332 160.288 325.172C159.552 325.908 158.448 326.275 156.976 326.273C155.504 326.272 154.243 325.798 153.192 324.85C152.142 323.798 151.513 322.378 151.304 320.591C151.095 318.804 151.413 316.176 152.257 312.707C153.102 309.134 154.262 305.245 155.737 301.041C157.213 296.732 158.899 292.213 160.796 287.484C162.692 282.755 164.536 278.288 166.327 274.085C168.224 269.776 169.962 265.941 171.542 262.578C173.122 259.215 174.281 256.693 175.018 255.012C175.439 254.171 175.913 253.436 176.439 252.805C177.071 252.175 177.912 251.913 178.963 252.019C180.225 252.126 181.223 252.705 181.958 253.757C182.693 254.809 183.27 256.071 183.689 257.543C184.108 259.015 184.422 260.592 184.631 262.275C184.945 263.957 185.206 265.534 185.415 267.006C186.356 272.474 187.245 277.941 188.081 283.409C188.917 288.771 189.595 294.238 190.116 299.811C190.115 300.126 190.167 300.967 190.271 302.334C190.375 303.701 190.426 305.33 190.424 307.223C190.528 309.115 190.578 311.218 190.576 313.531C190.574 315.843 190.572 318.156 190.57 320.469ZM177.679 276.461C176.521 278.667 175.362 281.347 174.203 284.5C173.148 287.653 172.147 290.385 171.199 292.697C170.883 293.538 170.882 294.116 171.197 294.432C171.618 294.643 172.143 294.748 172.774 294.749C173.405 294.749 174.088 294.697 174.824 294.593C175.56 294.488 176.086 294.436 176.401 294.437C178.189 294.228 179.031 293.283 178.927 291.6C178.822 290.97 178.718 289.918 178.614 288.446C178.511 286.974 178.407 285.397 178.303 283.715C178.2 282.033 178.096 280.509 177.992 279.142C177.888 277.775 177.784 276.881 177.679 276.461Z" fill="black"/>
<path d="M213.559 334.367C209.669 334.889 206.516 334.045 204.1 331.836C201.789 329.521 200.741 326.366 200.954 322.371C201.168 318.797 201.433 316.064 201.75 314.172C202.068 312.28 202.437 310.493 202.859 308.811C203.281 307.024 203.651 304.922 203.969 302.504C204.286 299.981 204.553 296.355 204.767 291.624C205.195 283.424 205.516 277.169 205.73 272.859C206.05 268.549 206.21 265.396 206.212 263.398C206.319 261.296 206.321 259.929 206.216 259.298C206.217 258.667 206.059 257.984 205.745 257.248C204.906 254.619 205.276 252.516 206.854 250.941C208.538 249.365 210.904 248.527 213.953 248.424C217.107 248.322 220.575 249.061 224.359 250.641C228.247 252.222 231.977 254.906 235.548 258.694C241.009 264.481 244.736 270.319 246.728 276.208C248.72 282.097 249.503 287.775 249.078 293.241C248.652 298.708 247.228 303.858 244.806 308.692C242.384 313.525 239.436 317.78 235.963 321.457C232.491 325.133 228.756 328.126 224.759 330.435C220.867 332.639 217.134 333.95 213.559 334.367ZM213.569 323.329C214.095 323.224 214.621 323.119 215.146 323.015C215.777 322.805 216.514 322.438 217.355 321.913C221.353 318.868 224.983 315.56 228.245 311.988C231.507 308.417 234.192 304.266 236.299 299.538C237.563 296.7 238.092 293.337 237.885 289.447C237.678 285.451 236.841 281.508 235.373 277.617C234.01 273.621 232.068 269.94 229.548 266.573C227.028 263.102 224.087 260.471 220.724 258.681C218.728 257.522 217.362 257.101 216.626 257.415C215.889 257.625 215.468 258.623 215.361 260.41C215.36 262.092 215.515 264.563 215.828 267.822C216.14 271.082 216.346 275.182 216.447 280.123C216.549 284.118 216.651 287.272 216.754 289.585C216.857 291.898 216.908 293.843 216.906 295.42C217.01 296.892 217.009 298.258 216.902 299.52C216.796 300.676 216.637 302.2 216.425 304.093C216.213 305.985 215.843 308.402 215.315 311.345C214.892 314.289 214.31 318.283 213.569 323.329Z" fill="black"/>
<path d="M321.518 261.312C327.511 260.476 333.293 260.376 338.864 261.012C340.441 261.224 341.702 261.803 342.647 262.75C343.593 263.592 344.17 264.591 344.379 265.748C344.588 266.905 344.377 268.061 343.745 269.217C343.219 270.373 342.166 271.318 340.589 272.052C338.485 272.997 336.592 273.731 334.91 274.255C333.332 274.674 331.808 274.935 330.336 275.039C328.864 275.143 327.34 275.194 325.763 275.193C324.291 275.191 322.504 275.19 320.401 275.188C319.139 275.187 318.193 275.238 317.562 275.343C316.932 275.447 316.458 275.657 316.143 275.972C315.827 276.287 315.616 276.76 315.51 277.391C315.51 278.022 315.562 278.968 315.666 280.23C316.29 286.748 316.495 293.214 316.279 299.627C316.063 305.934 315.741 312.294 315.315 318.707C315.314 319.863 315.366 320.862 315.47 321.703C315.68 322.544 315.731 323.333 315.626 324.069C315.625 324.699 315.362 325.33 314.835 325.96C314.414 326.591 313.573 327.326 312.31 328.166C311.469 328.691 310.312 328.795 308.841 328.478C307.474 328.161 306.371 327.582 305.531 326.74C303.745 324.951 302.696 322.953 302.382 320.745C302.174 318.537 302.229 316.224 302.546 313.807C303.712 303.4 304.666 295.516 305.406 290.155C306.147 284.689 306.571 280.852 306.678 278.645C306.891 276.332 306.734 275.07 306.209 274.859C305.789 274.649 304.948 274.543 303.686 274.542C301.268 274.54 298.587 274.485 295.644 274.377C292.7 274.269 289.809 273.951 286.971 273.423C285.185 273.001 283.819 272.316 282.873 271.369C281.928 270.422 281.508 269.318 281.615 268.056C281.616 267.005 282.195 265.954 283.352 264.904C284.51 263.854 285.772 263.224 287.139 263.015C290.713 262.703 294.288 262.443 297.863 262.236C301.437 261.924 305.064 261.665 308.744 261.458C310.847 261.249 312.95 261.199 315.052 261.306C317.26 261.308 319.415 261.31 321.518 261.312Z" fill="black"/>
<path d="M373.476 302.202C374.002 302.518 375.105 302.887 376.787 303.309C378.469 303.626 380.413 303.996 382.62 304.418C384.933 304.841 387.35 305.369 389.873 306.002C392.396 306.53 394.813 307.163 397.125 307.901C399.437 308.533 401.434 309.271 403.116 310.114C404.902 310.956 406.163 311.956 406.897 313.113C407.527 314.165 407.999 315.217 408.314 316.269C408.733 317.215 408.575 318.319 407.838 319.58C407.206 320.736 406.364 321.523 405.312 321.943C404.261 322.257 403.104 322.309 401.843 322.097C398.164 321.568 394.643 320.934 391.279 320.195C385.288 318.718 380.716 317.558 377.563 316.714C374.41 315.765 372.098 315.184 370.626 314.973C369.26 314.761 368.471 314.866 368.26 315.286C368.155 315.706 368.102 316.547 368.1 317.809C368.097 321.383 368.042 324.537 367.934 327.27C367.932 330.004 367.719 332.264 367.297 334.051C366.875 335.732 366.191 336.993 365.244 337.833C364.402 338.569 363.14 338.83 361.458 338.618C360.092 338.407 359.199 337.828 358.779 336.881C358.359 335.935 358.045 334.936 357.836 333.884C357.522 332.202 357.26 330.52 357.052 328.837C356.843 327.155 356.845 325.42 357.056 323.633C357.374 320.9 357.535 317.957 357.538 314.803C357.646 311.649 356.912 309.02 355.337 306.916C353.447 304.181 353.765 301.606 356.29 299.19C357.132 298.455 357.606 297.667 357.712 296.826C357.923 295.985 358.029 295.039 358.03 293.988C358.244 289.047 358.196 284.894 357.883 281.53C357.571 278.165 357.468 275.379 357.576 273.172C357.788 270.964 358.42 269.283 359.473 268.127C360.63 266.972 362.733 266.133 365.783 265.61C370.094 264.878 374.509 264.829 379.029 265.464C383.549 266.099 387.385 267.312 390.537 269.102C393.69 270.787 395.685 272.996 396.524 275.73C397.467 278.465 396.518 281.565 393.677 285.032C392.624 286.292 391.046 287.868 388.942 289.758C386.837 291.649 384.733 293.487 382.629 295.272C380.525 297.057 378.578 298.632 376.79 299.997C375.107 301.257 374.002 301.992 373.476 302.202ZM370.507 272.868C369.14 272.867 368.089 272.919 367.353 273.023C366.722 273.128 366.301 273.653 366.09 274.599C365.984 275.44 366.035 276.964 366.243 279.172C366.452 281.275 366.764 284.376 367.181 288.477C367.39 289.949 367.704 290.843 368.125 291.159C368.545 291.369 369.334 291.054 370.491 290.215C372.805 288.745 374.962 287.117 376.961 285.332C379.065 283.441 381.064 281.604 382.958 279.818C384.747 278.032 384.538 276.613 382.331 275.56C380.755 274.822 379.494 274.296 378.548 273.979C377.602 273.558 376.709 273.294 375.868 273.188C375.132 272.977 374.344 272.872 373.503 272.871C372.767 272.87 371.768 272.869 370.507 272.868Z" fill="black"/>
<path d="M427.495 310.609C427.07 315.34 426.804 319.282 426.696 322.435C426.588 325.589 426.375 328.112 426.058 330.004C425.741 331.896 425.161 333.262 424.32 334.103C423.478 334.838 422.111 335.204 420.218 335.203C418.431 335.306 416.75 334.621 415.174 333.148C413.704 331.675 412.759 329.887 412.341 327.784C411.922 325.681 411.819 323.631 412.031 321.634C412.348 319.636 412.613 317.587 412.825 315.484C413.673 307.285 414.258 300.662 414.578 295.616C415.003 290.465 415.375 286.366 415.693 283.317C416.011 280.164 416.381 277.799 416.803 276.222C417.225 274.54 417.91 273.122 418.857 271.966C419.594 271.021 420.54 270.391 421.697 270.076C422.854 269.762 423.958 269.816 425.009 270.237C426.06 270.553 426.953 271.185 427.688 272.132C428.423 273.079 428.79 274.341 428.788 275.918C428.785 279.177 428.782 282.278 428.78 285.222C428.777 288.06 428.722 290.846 428.614 293.579C428.507 296.312 428.346 299.098 428.134 301.937C428.026 304.67 427.813 307.561 427.495 310.609ZM423.135 249.42C425.238 249.001 426.92 249.476 428.18 250.844C429.546 252.106 430.07 253.631 429.753 255.418C429.436 257.31 428.751 258.834 427.699 259.989C426.647 261.04 425.542 261.722 424.385 262.036C423.229 262.351 422.072 262.297 420.916 261.876C419.865 261.454 419.077 260.717 418.553 259.666C417.503 257.667 417.558 255.67 418.716 253.673C419.242 252.728 419.821 251.835 420.453 250.994C421.085 250.154 421.979 249.629 423.135 249.42Z" fill="black"/>
<path d="M445.498 260.479C445.604 259.428 445.5 258.376 445.186 257.325C444.976 256.273 444.819 255.222 444.715 254.17C444.506 252.698 444.718 251.542 445.349 250.702C446.086 249.756 447.138 249.389 448.504 249.601C451.027 249.813 453.918 249.658 457.178 249.135C460.437 248.508 463.854 248.143 467.429 248.041C471.109 247.939 474.84 248.468 478.624 249.628C482.407 250.683 486.032 252.946 489.498 256.419C490.864 257.787 491.966 259.417 492.806 261.31C493.645 263.204 494.169 265.254 494.377 267.462C494.585 269.67 494.425 271.93 493.898 274.242C493.37 276.45 492.422 278.604 491.053 280.705C488.737 284.067 486.159 287.166 483.318 290.002C480.582 292.838 477.531 295.464 474.164 297.878C471.534 299.768 468.957 301.764 466.432 303.864C464.012 305.859 461.277 307.433 458.227 308.587C456.755 309.111 456.123 310.267 456.332 312.055C456.539 315.209 456.589 318.363 456.481 321.516C456.373 324.67 456.738 327.772 457.576 330.821C457.89 332.294 457.784 333.555 457.257 334.606C456.836 335.552 456.152 336.182 455.206 336.496C454.259 336.811 453.208 336.862 452.052 336.651C450.895 336.335 449.845 335.65 448.9 334.598C447.534 333.02 446.537 331.442 445.908 329.865C445.279 328.182 444.86 326.132 444.652 323.713C444.549 321.295 444.552 318.299 444.66 314.725C444.768 311.151 444.825 306.577 444.83 301.006C444.832 299.534 444.888 295.171 445 287.917C445.112 280.558 445.278 271.412 445.498 260.479ZM456.348 294.551C458.03 294.342 459.345 293.765 460.292 292.82C461.239 291.769 462.238 290.824 463.291 289.984C466.762 287.359 470.076 284.628 473.233 281.793C476.494 278.852 478.915 276.016 480.494 273.284C482.179 270.447 482.707 267.819 482.079 265.401C481.555 262.982 479.244 260.93 475.146 259.244C472.413 258.085 469.523 257.505 466.474 257.502C463.53 257.499 460.692 257.602 457.958 257.809C456.802 257.808 456.066 258.123 455.75 258.753C455.434 259.384 455.275 260.277 455.274 261.434C455.585 266.796 455.79 272.21 455.89 277.677C455.99 283.144 456.143 288.768 456.348 294.551Z" fill="black"/>
</svg>
