<svg width="250" height="68" viewBox="0 0 250 68" fill="none" xmlns="http://www.w3.org/2000/svg">
<path d="M2.76423 40.0464H15.1077V43.0661H6.21951V51.7561H14.6138V54.7759H6.21951V67.5348H2.76423V40.0464ZM30.9085 39.7399C37.0203 39.7399 40.9695 44.9758 40.9695 53.4831C40.9695 62.9747 37.1443 67.7803 30.6016 67.7803C24.4898 67.7803 20.5406 62.5424 20.5406 54.0371C20.5406 44.5456 24.4289 39.7399 30.9085 39.7399ZM30.5996 65.0061C34.2419 65.0061 37.3272 61.9884 37.3272 53.544C37.3272 47.9976 35.5996 42.6359 30.9085 42.6359C27.2683 42.6359 24.1809 45.6557 24.1809 54.098C24.1809 59.6464 25.9695 65.0081 30.6016 65.0081L30.5996 65.0061ZM65.0996 57.4263C65.0996 60.1396 64.9126 61.617 63.9878 63.5896C62.815 65.8706 60.4085 67.8432 56.4573 67.8432C52.4451 67.8432 50.0386 65.8706 48.9268 63.5896C48 61.6799 47.815 60.1396 47.815 57.4263V40.0464H51.2724V57.9194C51.2724 62.2339 53.187 65.0081 56.4573 65.0081C59.7297 65.0081 61.6402 62.2339 61.6402 57.9194V40.0464H65.0996V57.4263ZM73.8171 40.0464H78.1382L88.5081 62.788H88.5691V40.0464H91.9024V67.5956H87.5813L77.2154 44.9779H77.1545V67.5348H73.8211V40.0464H73.8171ZM100.661 40.0464H106.648C110.352 40.0464 112.388 40.9109 113.994 42.019C116.463 43.744 119.116 47.196 119.116 53.3593C119.116 61.3106 115.352 67.5348 104.982 67.5348H100.661V40.0464ZM104.118 64.5759H106.217C112.327 64.5759 115.476 60.446 115.476 53.3593C115.476 47.6283 113.006 43.0053 106.217 43.0053H104.118V64.5759ZM135.659 40.0464L144.669 67.5956H141.028L138.807 60.3851H128.313L126.091 67.5348H122.634L131.892 39.9855H135.659V40.0464ZM137.941 57.3654L133.744 43.6222H133.683L129.362 57.3654H137.941ZM152.935 43.0053H146.64V40.0464H162.75V43.0661H156.453V67.5956H152.998V43.0053H152.935ZM169.228 40.0464H172.683V67.5956H169.228V40.0464ZM190.411 39.7399C196.522 39.7399 200.472 44.9758 200.472 53.4831C200.472 62.9747 196.644 67.7803 190.102 67.7803C183.992 67.7803 180.041 62.5424 180.041 54.0371C180.041 44.5456 183.868 39.7399 190.411 39.7399ZM190.041 65.0061C193.681 65.0061 196.768 61.9884 196.768 53.544C196.768 47.9976 195.041 42.6359 190.35 42.6359C186.707 42.6359 183.622 45.6557 183.622 54.098C183.683 59.6464 185.411 65.0061 190.041 65.0061ZM207.187 40.0464H211.506L221.876 62.788H221.939V40.0464H225.272V67.5956H220.951L210.581 44.9779H210.518V67.5348H207.187V40.0464ZM245.396 43.9916C244.102 43.1899 242.372 42.7597 240.705 42.7597C238.114 42.7597 236.386 44.5456 236.386 46.8875C236.386 48.6754 237.126 49.7855 241.077 52.0646C245.335 54.5303 246.754 56.9351 246.754 60.0767C246.754 64.4521 244.039 67.9041 238.732 67.9041C236.508 67.9041 234.411 67.411 232.99 66.7331V63.1594C234.596 64.0827 236.632 64.9452 238.238 64.9452C241.384 64.9452 243.114 62.8509 243.114 60.6307C243.114 58.4755 242.557 57.3025 238.854 55.0234C233.854 52.0037 232.744 50.3396 232.744 46.7637C232.744 42.2036 236.199 39.8637 240.396 39.8637C242.187 39.8637 244.163 40.2311 245.396 40.7871V43.9916ZM11.2947 28.9597C5.80285 28.9597 0 25.2033 0 14.5428C0 3.87618 5.80285 0.0568235 11.2947 0.0568235C16.7276 0.0568235 22.5915 3.87821 22.5915 14.5407C22.5915 25.2012 16.7276 28.9597 11.2947 28.9597ZM11.2947 4.55603C7.77846 4.55603 5.86382 8.12982 5.86382 14.5407C5.86382 20.9496 7.77642 24.5254 11.2947 24.5254C14.813 24.5254 16.7276 20.9496 16.7276 14.5407C16.7276 8.12982 14.813 4.55603 11.2947 4.55603ZM33.2683 28.5964H27.5894V0.432265H35.8008C41.4776 0.432265 44.75 3.57379 44.75 9.12221C44.75 14.6686 41.4776 17.8121 35.7988 17.8121H33.2683V28.5964ZM33.2683 13.3738H34.874C37.7744 13.3738 39.1321 12.0791 39.1321 9.12221C39.1321 6.22421 37.8354 4.92944 34.874 4.92944H33.2683V13.3738ZM65.3659 28.5964H49.872V0.432265H64.9939V5.05324H55.5508V11.7706H64.502V16.3936H55.5488V23.9126H65.3638L65.3659 28.5964ZM91.8394 28.5964H85.2947L76.5955 8.13591V28.5944H71.4106V0.432265H77.9533L86.6565 21.0166V0.432265H91.8394V28.5964ZM115.919 28.9658C113.079 28.9658 110.858 28.5356 109.5 27.6731L109.315 27.5493L109.624 22.3722L110.055 22.6807C110.673 23.0501 112.833 24.3448 115.734 24.3448C117.585 24.3448 119.622 23.3585 119.622 20.6472C119.622 18.9222 118.697 18.1186 116.167 16.7629L113.573 15.3464C110.427 13.6214 108.882 11.1557 108.882 7.88832C108.943 4.00606 111.722 0.0608824 117.957 0.0608824C119.847 0.0628148 121.724 0.375468 123.512 0.986294L124.006 1.17097L123.758 6.04156L123.079 5.79397C121.907 5.30082 120.425 4.74476 118.327 4.74476C116.104 4.74476 114.809 5.85485 114.809 7.64276C114.809 9.55244 116.104 10.2303 117.585 11.0928L120.549 12.7569C123.76 14.5448 125.488 16.3327 125.488 20.4605C125.427 25.7005 121.783 28.9658 115.919 28.9658ZM140.114 28.9658C134.683 28.9658 128.819 25.1444 128.819 14.4839C128.819 3.82138 134.622 0.0608824 140.114 0.0608824C145.547 0.0608824 151.411 3.88226 151.411 14.5448C151.411 25.2073 145.547 28.9658 140.114 28.9658ZM140.114 4.56009C136.598 4.56009 134.683 8.13591 134.683 14.5448C134.683 20.9537 136.596 24.5295 140.114 24.5295C143.632 24.5295 145.547 20.9537 145.547 14.5448C145.547 8.13591 143.632 4.56009 140.114 4.56009ZM167.707 28.9658C159.683 28.9658 154.746 23.4194 154.746 14.4839C154.746 5.67018 159.807 0 167.581 0C170.36 0 172.705 0.738706 173.817 1.17097L174 1.23185L173.693 6.47179L172.953 6.10041C171.965 5.60929 170.421 4.80768 168.199 4.80768C165.978 4.80768 160.732 5.73106 160.732 14.4839C160.732 23.2347 165.976 24.1601 168.199 24.1601C170.299 24.1601 171.965 23.7279 173.26 22.8025L173.693 22.494L174.002 27.8577L173.817 27.9795C172.705 28.5964 170.177 28.9658 167.707 28.9658ZM205.978 28.5964H190.486V0.432265H205.547V5.05324H196.102V11.7706H205.053V16.3936H196.102V23.9126H205.917V28.5964H205.978ZM219.681 28.5964H214.002V5.11615H207.829V0.432265H225.791V5.05324H219.681V28.5964ZM240.724 28.5964H235.045V17.319L226.772 0.432265H232.884L238.069 11.0319L242.945 0.432265H249.118L240.724 17.4408V28.5964ZM184.986 28.5964H179.307V0.432265H184.986V28.5964Z" fill="black"/>
</svg>
