<svg width="479" height="132" viewBox="0 0 479 132" fill="none" xmlns="http://www.w3.org/2000/svg">
<g clip-path="url(#clip0_4121_15104)">
<path d="M132.652 66C132.652 102.451 103.103 132 66.652 132C30.201 132 0.651978 102.451 0.651978 66C0.651978 29.549 30.201 0 66.652 0C103.103 0 132.652 29.549 132.652 66ZM24.647 49.295V51.311C28.967 51.671 29.399 51.887 29.399 57.144V75.29C29.399 80.042 28.967 80.33 24.359 80.762V82.706H40.848V80.762C35.591 80.33 35.16 80.042 35.16 75.218V68.88L39.408 70.032C40.2 70.032 41.064 70.032 42.001 69.888C48.121 69.096 53.162 65.64 53.162 59.159C53.162 52.174 48.049 49.294 40.272 49.294L24.647 49.295ZM35.159 54.551C35.159 52.031 35.231 51.455 38.687 51.455C42.935 51.455 46.608 53.687 46.608 59.232C46.608 66.217 41.855 67.369 39.336 67.369C37.535 67.369 36.024 66.937 35.159 66.649V54.551ZM108.945 57.719C108.586 54.263 108.441 50.734 108.369 49.294H82.592V51.238C87.2 51.598 87.56 51.958 87.56 56.998V75C87.56 79.896 87.201 80.4 82.592 80.76V82.704H99.225V80.76C93.897 80.4 93.393 79.968 93.393 75V67.511H98.937C103.69 67.511 103.978 67.871 104.698 71.759H106.715V60.888H104.698C103.978 64.488 103.618 64.848 98.937 64.848H93.393V53.615C93.393 51.743 93.537 51.671 95.409 51.671H98.937C102.898 51.671 104.266 52.391 104.986 53.327C105.778 54.335 106.282 55.559 106.93 57.863L108.945 57.719ZM83.794 31.113C80.913 31.113 76.809 33.201 73.497 36.874C70.257 40.475 68.528 45.731 67.448 51.203C67.448 51.203 66.371 57.468 65.141 64.591H60.653L58.493 66.607L58.709 67.399H64.656C64.074 70.764 63.486 74.161 62.983 77.053C60.607 91.022 58.879 94.046 57.943 95.126C57.223 95.99 56.071 96.566 54.847 96.566C53.55 96.566 51.462 95.846 50.31 94.766C49.878 94.334 49.518 94.262 48.942 94.766C47.862 95.63 46.998 96.854 46.998 97.79C46.927 99.446 49.375 100.887 51.463 100.887C53.407 100.887 56.432 99.735 59.6 96.35C63.56 92.246 66.225 86.845 68.745 74.46C69.137 72.481 69.595 70.058 70.063 67.53L77.15 66.822L78.663 64.59H70.604C71.843 57.799 72.995 51.202 72.995 51.202C75.155 37.881 77.315 34.569 79.979 34.569C81.491 34.569 83.003 35.505 84.515 37.089C85.019 37.665 85.74 37.593 86.315 37.161C87.107 36.585 88.116 35.289 88.116 34.209C88.187 32.913 86.313 31.113 83.794 31.113ZM132.652 66C132.652 102.451 103.103 132 66.652 132C30.201 132 0.651978 102.451 0.651978 66C0.651978 29.549 30.201 0 66.652 0C103.103 0 132.652 29.549 132.652 66ZM24.647 49.295V51.311C28.967 51.671 29.399 51.887 29.399 57.144V75.29C29.399 80.042 28.967 80.33 24.359 80.762V82.706H40.848V80.762C35.591 80.33 35.16 80.042 35.16 75.218V68.88L39.408 70.032C40.2 70.032 41.064 70.032 42.001 69.888C48.121 69.096 53.162 65.64 53.162 59.159C53.162 52.174 48.049 49.294 40.272 49.294L24.647 49.295ZM35.159 54.551C35.159 52.031 35.231 51.455 38.687 51.455C42.935 51.455 46.608 53.687 46.608 59.232C46.608 66.217 41.855 67.369 39.336 67.369C37.535 67.369 36.024 66.937 35.159 66.649V54.551ZM108.945 57.719C108.586 54.263 108.441 50.734 108.369 49.294H82.592V51.238C87.2 51.598 87.56 51.958 87.56 56.998V75C87.56 79.896 87.201 80.4 82.592 80.76V82.704H99.225V80.76C93.897 80.4 93.393 79.968 93.393 75V67.511H98.937C103.69 67.511 103.978 67.871 104.698 71.759H106.715V60.888H104.698C103.978 64.488 103.618 64.848 98.937 64.848H93.393V53.615C93.393 51.743 93.537 51.671 95.409 51.671H98.937C102.898 51.671 104.266 52.391 104.986 53.327C105.778 54.335 106.282 55.559 106.93 57.863L108.945 57.719ZM83.794 31.113C80.913 31.113 76.809 33.201 73.497 36.874C70.257 40.475 68.528 45.731 67.448 51.203C67.448 51.203 66.371 57.468 65.141 64.591H60.653L58.493 66.607L58.709 67.399H64.656C64.074 70.764 63.486 74.161 62.983 77.053C60.607 91.022 58.879 94.046 57.943 95.126C57.223 95.99 56.071 96.566 54.847 96.566C53.55 96.566 51.462 95.846 50.31 94.766C49.878 94.334 49.518 94.262 48.942 94.766C47.862 95.63 46.998 96.854 46.998 97.79C46.927 99.446 49.375 100.887 51.463 100.887C53.407 100.887 56.432 99.735 59.6 96.35C63.56 92.246 66.225 86.845 68.745 74.46C69.137 72.481 69.595 70.058 70.063 67.53L77.15 66.822L78.663 64.59H70.604C71.843 57.799 72.995 51.202 72.995 51.202C75.155 37.881 77.315 34.569 79.979 34.569C81.491 34.569 83.003 35.505 84.515 37.089C85.019 37.665 85.74 37.593 86.315 37.161C87.107 36.585 88.116 35.289 88.116 34.209C88.187 32.913 86.313 31.113 83.794 31.113Z" fill="#009EC7"/>
<path d="M197.239 58.5689V57.4259C199.652 57.1719 199.907 56.8759 199.907 54.1659V47.1379C199.907 43.6659 198.594 42.0569 195.927 42.0569C194.445 42.0569 192.878 42.7769 191.778 44.0889V54.1659C191.778 56.8339 191.989 57.1299 194.445 57.4259V58.5689H185.172V57.4259C187.797 57.1299 188.094 56.8759 188.094 54.1239V32.9109C185.807 32.6989 183.606 32.6149 179.795 32.6149H177.043V53.1919C177.043 56.7909 177.424 57.0869 181.192 57.3409V58.5689H169.083V57.3409C172.724 57.0869 173.063 56.7909 173.063 53.1919V32.6149H170.607C166.839 32.6149 166.077 32.9959 165.442 34.0119C164.934 34.7739 164.511 35.7479 164.045 37.6959H162.775C162.944 35.1129 163.156 32.2759 163.241 29.9899H164.087C164.722 30.9209 165.23 31.0479 166.416 31.0479H184.029C187.459 31.0479 188.094 30.7939 188.094 29.9899V29.3969C189.068 29.2279 190.592 28.8039 191.778 28.3809V42.5219C193.344 40.9129 195.462 39.5579 197.663 39.5159C201.262 39.4309 203.633 41.7179 203.633 46.6709V54.1229C203.633 56.9599 203.929 57.1719 206.385 57.4249V58.5679L197.239 58.5689ZM223.034 54.8849C220.367 58.3149 217.403 59.0769 216.006 59.0769C210.713 59.0769 207.665 54.8429 207.665 50.0589C207.665 47.0949 208.766 44.4699 210.502 42.6069C212.28 40.6599 214.566 39.5159 216.768 39.5159C220.367 39.5159 223.246 42.6909 223.204 46.0359C223.204 46.8829 223.035 47.2639 222.188 47.4329C221.511 47.5179 216.218 47.9409 211.307 48.1099C211.391 53.6569 214.567 56.0279 217.531 56.0279C219.224 56.0279 220.833 55.3499 222.357 53.9529L223.034 54.8849ZM211.559 46.3329C213.803 46.3329 216.005 46.2909 218.334 46.2059C219.053 46.2059 219.307 45.9939 219.307 45.3589C219.349 43.1569 217.995 41.0819 215.793 41.0819C213.93 41.0819 212.11 42.9029 211.559 46.3329ZM246.36 31.0479C249.409 31.0479 251.822 31.5559 253.515 32.7839C255.251 34.0539 256.309 36.0439 256.309 38.7959C256.309 44.3419 252.202 46.9679 248.01 47.5179C247.375 47.6029 246.613 47.6029 246.147 47.5599L243.057 46.7559V53.2759C243.057 56.8329 243.395 57.0869 247.164 57.3409V58.5689H235.394V57.3409C238.739 57.0869 239.12 56.7479 239.12 53.2339V36.4249C239.12 32.6989 238.739 32.5299 235.648 32.2759V31.0479H246.36ZM243.057 45.3159C243.565 45.5279 244.708 45.7819 245.978 45.7819C248.518 45.7819 251.863 44.3849 251.863 38.9649C251.863 34.3499 249.026 32.4449 245.681 32.4449C244.58 32.4449 243.776 32.6569 243.479 32.9529C243.183 33.2069 243.056 33.7149 243.056 34.8159V45.3159H243.057ZM265.148 44.0039C266.46 41.7599 268.238 39.5159 270.186 39.5159C271.71 39.5159 272.726 40.6589 272.726 41.7179C272.726 42.6919 272.133 43.5809 271.244 44.0039C270.736 44.2159 270.355 44.1309 270.101 43.8769C269.466 43.2839 268.958 43.0299 268.238 43.0299C267.222 43.0299 265.951 44.1309 265.063 46.3749V54.1649C265.063 56.9169 265.275 57.1709 268.535 57.4249V58.5679H258.458V57.4249C261.041 57.1709 261.337 56.9169 261.337 54.1649V45.3159C261.337 42.6059 261.126 42.4789 258.797 42.0979V41.1239C260.957 40.7849 262.904 40.2769 265.063 39.4299V44.0029H265.148V44.0039ZM288.67 54.8849C286.003 58.3149 283.039 59.0769 281.642 59.0769C276.349 59.0769 273.301 54.8429 273.301 50.0589C273.301 47.0949 274.402 44.4699 276.138 42.6069C277.916 40.6599 280.202 39.5159 282.404 39.5159C286.003 39.5159 288.882 42.6909 288.84 46.0359C288.84 46.8829 288.671 47.2639 287.824 47.4329C287.147 47.5179 281.854 47.9409 276.943 48.1099C277.027 53.6569 280.203 56.0279 283.167 56.0279C284.86 56.0279 286.469 55.3499 287.993 53.9529L288.67 54.8849ZM277.196 46.3329C279.44 46.3329 281.642 46.2909 283.97 46.2059C284.69 46.2059 284.944 45.9939 284.944 45.3589C284.986 43.1569 283.632 41.0819 281.43 41.0819C279.567 41.0819 277.747 42.9029 277.196 46.3329ZM302.136 58.5689V57.4259C304.507 57.1719 304.804 56.8759 304.804 53.9119V46.8409C304.804 43.8769 303.703 42.1409 301.12 42.1409C299.554 42.1409 297.986 43.1149 296.759 44.1729V54.1649C296.759 57.0019 297.013 57.1709 299.384 57.4249V58.5679H290.026V57.4249C292.821 57.1289 293.032 56.9169 293.032 54.1229V45.3589C293.032 42.6909 292.778 42.5649 290.534 42.1409V41.1249C292.651 40.7439 294.768 40.1929 296.758 39.3889V42.7339C297.605 42.0989 298.494 41.4639 299.553 40.7859C300.781 39.9819 301.796 39.5159 303.025 39.5159C306.412 39.5159 308.486 41.8869 308.486 45.9939V54.1649C308.486 57.0019 308.74 57.1289 311.154 57.4249V58.5679L302.136 58.5689ZM320.306 58.5259C319.587 58.9069 318.951 59.0769 318.57 59.0769C315.776 59.0769 314.209 57.4259 314.209 53.9959V41.7599H311.33L311.161 41.2939L312.304 40.0239H314.209V36.9329L317.343 34.0539L317.893 34.1809V40.0239H322.593C323.016 40.4469 322.889 41.4209 322.339 41.7599H317.893V52.5569C317.893 55.9439 319.333 56.5369 320.391 56.5369C321.364 56.5369 322.296 56.1979 322.889 55.9019L323.27 57.0449L320.306 58.5259ZM324.979 58.5689V57.4259C327.604 57.1719 327.9 56.9179 327.9 54.0389V45.3589C327.9 42.6909 327.731 42.5219 325.318 42.1409V41.0819C327.52 40.7429 329.679 40.1929 331.626 39.4729V54.0379C331.626 56.9169 331.88 57.1709 334.59 57.4249V58.5679L324.979 58.5689ZM327.223 33.7149C327.223 32.3599 328.281 31.3439 329.551 31.3439C330.779 31.3439 331.795 32.3599 331.795 33.7149C331.795 34.9429 330.779 36.0009 329.508 36.0009C328.281 36.0019 327.223 34.9429 327.223 33.7149ZM351.229 54.7159C349.324 57.2139 346.53 59.0769 344.031 59.0769C338.57 59.0769 335.394 54.7579 335.394 50.1849C335.394 46.9669 336.876 44.0879 339.671 41.9709C341.957 40.1929 344.54 39.5149 346.191 39.5149C347.884 39.5149 349.281 40.0649 349.917 40.6159C350.51 41.0819 350.637 41.4629 350.637 41.9289C350.637 42.9029 349.663 43.8759 349.155 43.8759C348.901 43.8759 348.689 43.7489 348.351 43.4099C346.954 42.1399 345.514 41.5889 344.075 41.5889C341.492 41.5889 339.164 43.7909 339.164 48.2359C339.164 54.0789 343.186 56.0259 345.472 56.0259C347.25 56.0259 348.606 55.5179 350.468 53.7819L351.229 54.7159ZM368.103 54.8849C365.436 58.3149 362.472 59.0769 361.075 59.0769C355.782 59.0769 352.734 54.8429 352.734 50.0589C352.734 47.0949 353.835 44.4699 355.571 42.6069C357.349 40.6599 359.635 39.5159 361.837 39.5159C365.436 39.5159 368.315 42.6909 368.273 46.0359C368.273 46.8829 368.104 47.2639 367.257 47.4329C366.58 47.5179 361.287 47.9409 356.376 48.1099C356.46 53.6569 359.636 56.0279 362.6 56.0279C364.293 56.0279 365.902 55.3499 367.426 53.9529L368.103 54.8849ZM356.629 46.3329C358.873 46.3329 361.075 46.2909 363.403 46.2059C364.123 46.2059 364.377 45.9939 364.377 45.3589C364.42 43.1569 363.065 41.0819 360.863 41.0819C359 41.0819 357.18 42.9029 356.629 46.3329ZM180.897 79.8199C180.516 78.1689 180.219 77.2799 179.627 76.3909C178.907 75.2479 177.933 74.9089 174.885 74.9089H171.837C170.566 74.9089 170.397 75.0359 170.397 76.3059V86.2129H174.631C178.442 86.2129 178.696 85.8319 179.204 83.1219H180.474V91.2939H179.204C178.696 88.4149 178.442 87.9489 174.631 87.9489H170.397V95.4429C170.397 99.1689 170.778 99.3809 174.588 99.6769V100.905H162.775V99.6769C166.078 99.4229 166.459 99.1689 166.459 95.4429V78.8029C166.459 75.1199 166.12 74.9079 162.86 74.6539V73.3839H181.743C181.785 74.7809 181.997 77.5759 182.167 79.6499L180.897 79.8199ZM196.81 101.413C196.091 101.413 195.201 101.032 194.735 100.566C194.185 100.016 193.889 99.4229 193.719 98.7449C192.025 99.8879 189.993 101.413 188.807 101.413C185.717 101.413 183.599 98.8299 183.599 96.2049C183.599 94.0879 184.7 92.8179 186.986 92.0559C189.526 91.1669 192.659 90.0239 193.591 89.2619V88.4149C193.591 85.4509 192.236 83.7569 190.204 83.7569C189.442 83.7569 188.806 84.0539 188.383 84.5609C187.875 85.1539 187.494 86.0849 187.155 87.3979C186.943 88.1599 186.477 88.4559 185.8 88.4559C184.996 88.4559 183.81 87.6089 183.81 86.5929C183.81 85.9149 184.36 85.4499 185.207 84.8149C186.435 83.9259 189.272 82.3169 191.685 81.8509C192.998 81.8509 194.31 82.2319 195.242 82.9939C196.808 84.2639 197.232 85.9999 197.232 88.2859V95.9919C197.232 97.8969 197.951 98.4899 198.672 98.4899C199.18 98.4899 199.773 98.2779 200.196 98.0669L200.619 99.2099L196.81 101.413ZM193.592 90.7439C192.703 91.2099 190.967 92.0139 190.036 92.4369C188.47 93.1989 187.58 93.9609 187.58 95.5279C187.58 97.7299 189.231 98.7459 190.502 98.7459C191.518 98.7459 192.83 98.1109 193.592 97.3909V90.7439ZM225.781 100.905V99.7619C228.152 99.5079 228.575 99.2959 228.575 96.3749V89.2619C228.575 86.1709 227.432 84.5199 225.019 84.5199C223.579 84.5199 222.097 85.2819 220.531 86.5519C220.615 87.0599 220.658 87.5679 220.658 88.3299V96.6289C220.658 99.2539 221.039 99.5079 223.283 99.7619V100.905H214.095V99.7619C216.593 99.5079 216.932 99.2959 216.932 96.5869V89.2199C216.932 86.0869 215.789 84.4779 213.376 84.4779C211.81 84.4779 210.242 85.5369 209.015 86.5529V96.5879C209.015 99.2559 209.354 99.5099 211.343 99.7629V100.906H202.198V99.7629C204.95 99.5089 205.288 99.2969 205.288 96.5029V87.7389C205.288 85.0719 205.161 84.8599 202.79 84.4789V83.4629C204.653 83.1239 206.939 82.5739 208.971 81.7269V85.1569C209.86 84.5219 210.749 83.8019 211.977 83.0399C213.12 82.3199 214.137 81.8549 215.491 81.8549C217.566 81.8549 219.344 83.1679 220.191 85.3269C221.419 84.3949 222.604 83.6329 223.62 82.9559C224.552 82.3629 225.653 81.8549 226.838 81.8549C230.225 81.8549 232.3 84.2259 232.3 88.3749V96.5469C232.3 99.3409 232.554 99.4679 234.967 99.7649V100.908H225.781V100.905ZM237.015 100.905V99.7619C239.64 99.5079 239.936 99.2539 239.936 96.3749V87.6949C239.936 85.0269 239.767 84.8579 237.354 84.4769V83.4179C239.556 83.0789 241.715 82.5289 243.662 81.8089V96.3739C243.662 99.2529 243.916 99.5069 246.626 99.7609V100.904H237.015V100.905ZM239.259 76.0519C239.259 74.6969 240.317 73.6809 241.587 73.6809C242.815 73.6809 243.831 74.6969 243.831 76.0519C243.831 77.2799 242.815 78.3379 241.544 78.3379C240.318 78.3379 239.259 77.2789 239.259 76.0519ZM248.124 100.905V99.7619C250.792 99.4659 251.13 99.2539 251.13 96.4599V76.5169C251.13 73.7229 250.876 73.5959 248.251 73.3419V72.3259C250.495 72.0719 253.247 71.3519 254.814 70.8439V96.4599C254.814 99.2539 255.153 99.5089 257.863 99.7619V100.905H248.124ZM277.676 83.4609C275.474 83.8419 275.093 84.1809 273.95 86.5519C272.892 88.7959 271.579 92.3099 268.7 99.1269C265.906 105.901 264.974 108.357 264.339 110.644C264.128 111.491 263.577 111.702 262.942 111.702C261.757 111.702 260.444 110.644 260.444 109.543C260.444 108.865 260.825 108.484 261.545 107.976C262.942 107.129 263.789 106.155 264.763 104.335C265.482 103.023 265.779 102.218 265.991 101.667C266.203 101.032 266.16 100.439 265.907 99.7199C264.086 94.6809 262.138 89.3889 260.953 86.5519C260.064 84.3499 259.64 83.7999 257.396 83.4609V82.3599H266.33V83.4609C264.382 83.7999 264.128 84.2229 264.679 85.7469L268.448 96.1629C269.591 93.3259 271.327 88.4989 272.174 85.8739C272.682 84.3069 272.386 83.8419 270.015 83.4609V82.3599H277.679V83.4609H277.676ZM306.21 79.8199C305.829 78.1689 305.532 77.2799 304.94 76.3909C304.22 75.2479 303.246 74.9089 300.198 74.9089H297.15C295.88 74.9089 295.71 75.0359 295.71 76.3059V86.2129H299.944C303.755 86.2129 304.008 85.8319 304.517 83.1219H305.787V91.2939H304.517C304.009 88.4149 303.755 87.9489 299.944 87.9489H295.71V95.4429C295.71 99.1689 296.091 99.3809 299.901 99.6769V100.905H288.088V99.6769C291.391 99.4229 291.772 99.1689 291.772 95.4429V78.8029C291.772 75.1199 291.433 74.9079 288.173 74.6539V73.3839H307.056C307.099 74.7809 307.31 77.5759 307.48 79.6499L306.21 79.8199ZM327.682 91.2939C327.682 98.1529 322.728 101.413 318.409 101.413C312.439 101.413 309.01 96.7129 309.01 92.0559C309.01 85.0699 314.429 81.8519 318.452 81.8519C323.787 81.8519 327.682 86.1279 327.682 91.2939ZM313.329 90.6589C313.329 95.9939 315.489 99.9739 318.876 99.9739C321.289 99.9739 323.364 98.1959 323.364 92.3099C323.364 87.1869 321.459 83.2919 317.945 83.2919C315.488 83.2919 313.329 85.8319 313.329 90.6589ZM349.836 99.8889C347.804 100.185 345.56 100.778 343.358 101.413L343.062 101.159V98.2379C342.131 98.9569 341.284 99.6349 340.14 100.313C338.912 101.033 337.938 101.414 336.795 101.414C333.831 101.414 331.502 99.5929 331.502 95.1479V86.8069C331.502 84.4779 331.333 84.3089 328.92 83.8859V82.8269C331.037 82.6999 333.154 82.4459 335.355 82.0649C335.228 83.4619 335.186 85.4949 335.186 88.2889V94.0469C335.186 97.6459 336.964 98.6619 338.785 98.6619C340.267 98.6619 341.706 98.0689 343.061 96.7569V86.8069C343.061 84.4359 342.849 84.2669 339.886 83.8859V82.8269C342.13 82.6999 344.459 82.5299 346.787 82.0649V96.1219C346.787 98.2809 347.126 98.5779 348.735 98.7049L349.836 98.7889V99.8889ZM363.734 100.905V99.7619C366.105 99.5079 366.402 99.2119 366.402 96.2479V89.1769C366.402 86.2129 365.301 84.4769 362.718 84.4769C361.152 84.4769 359.584 85.4509 358.357 86.5089V96.5009C358.357 99.3379 358.611 99.5069 360.982 99.7609V100.904H351.624V99.7609C354.419 99.4649 354.63 99.2529 354.63 96.4589V87.6949C354.63 85.0269 354.376 84.9009 352.132 84.4769V83.4609C354.249 83.0799 356.366 82.5289 358.356 81.7249V85.0699C359.203 84.4349 360.092 83.7999 361.151 83.1219C362.379 82.3179 363.394 81.8519 364.623 81.8519C368.01 81.8519 370.084 84.2229 370.084 88.3299V96.5009C370.084 99.3379 370.338 99.4649 372.752 99.7609V100.904H363.734V100.905ZM394.432 99.8039C393.458 99.9729 390.156 100.524 387.531 101.413V98.7029L384.948 100.269C383.382 101.2 382.365 101.412 381.857 101.412C378.428 101.412 373.897 98.3209 373.897 92.3509C373.897 86.5079 378.978 81.8509 384.905 81.8509C385.456 81.8509 386.556 81.9359 387.53 82.2739V76.4309C387.53 73.7629 387.276 73.6369 384.355 73.3819V72.3239C386.641 72.0269 389.563 71.3919 391.256 70.8419V95.9499C391.256 98.1939 391.51 98.4059 393.119 98.5749L394.431 98.7019V99.8039H394.432ZM387.531 85.6629C386.557 84.1809 384.906 83.4609 383.424 83.4609C381.604 83.4609 378.089 85.0269 378.089 91.2089C378.089 96.2899 381.179 98.6609 383.762 98.6609C385.16 98.6609 386.514 98.0679 387.531 97.3489V85.6629ZM409.346 101.413C408.627 101.413 407.737 101.032 407.271 100.566C406.721 100.016 406.425 99.4229 406.255 98.7449C404.561 99.8879 402.529 101.413 401.344 101.413C398.253 101.413 396.136 98.8299 396.136 96.2049C396.136 94.0879 397.237 92.8179 399.523 92.0559C402.063 91.1669 405.196 90.0239 406.128 89.2619V88.4149C406.128 85.4509 404.773 83.7569 402.741 83.7569C401.979 83.7569 401.344 84.0539 400.92 84.5609C400.412 85.1539 400.031 86.0849 399.692 87.3979C399.48 88.1599 399.014 88.4559 398.337 88.4559C397.532 88.4559 396.347 87.6089 396.347 86.5929C396.347 85.9149 396.897 85.4499 397.744 84.8149C398.972 83.9259 401.809 82.3169 404.222 81.8509C405.535 81.8509 406.847 82.2319 407.779 82.9939C409.345 84.2639 409.769 85.9999 409.769 88.2859V95.9919C409.769 97.8969 410.488 98.4899 411.209 98.4899C411.717 98.4899 412.31 98.2779 412.733 98.0669L413.156 99.2099L409.346 101.413ZM406.128 90.7439C405.239 91.2099 403.503 92.0139 402.572 92.4369C401.006 93.1989 400.116 93.9609 400.116 95.5279C400.116 97.7299 401.767 98.7459 403.038 98.7459C404.054 98.7459 405.366 98.1109 406.128 97.3909V90.7439ZM421.894 100.863C421.175 101.244 420.539 101.414 420.158 101.414C417.364 101.414 415.797 99.7629 415.797 96.3329V84.0959H412.918L412.749 83.6299L413.892 82.3599H415.797V79.2699L418.931 76.3909L419.481 76.5179V82.3609H424.181C424.604 82.7839 424.477 83.7579 423.927 84.0969H419.481V94.8939C419.481 98.2809 420.921 98.8739 421.979 98.8739C422.952 98.8739 423.884 98.5349 424.477 98.2389L424.858 99.3819L421.894 100.863ZM426.567 100.905V99.7619C429.192 99.5079 429.488 99.2539 429.488 96.3749V87.6949C429.488 85.0269 429.319 84.8579 426.906 84.4769V83.4179C429.108 83.0789 431.267 82.5289 433.214 81.8089V96.3739C433.214 99.2529 433.468 99.5069 436.178 99.7609V100.904H426.567V100.905ZM428.811 76.0519C428.811 74.6969 429.869 73.6809 431.139 73.6809C432.367 73.6809 433.383 74.6969 433.383 76.0519C433.383 77.2799 432.367 78.3379 431.096 78.3379C429.869 78.3379 428.811 77.2789 428.811 76.0519ZM455.653 91.2939C455.653 98.1529 450.699 101.413 446.38 101.413C440.41 101.413 436.981 96.7129 436.981 92.0559C436.981 85.0699 442.4 81.8519 446.423 81.8519C451.758 81.8519 455.653 86.1279 455.653 91.2939ZM441.299 90.6589C441.299 95.9939 443.459 99.9739 446.846 99.9739C449.259 99.9739 451.334 98.1959 451.334 92.3099C451.334 87.1869 449.429 83.2919 445.915 83.2919C443.459 83.2919 441.299 85.8319 441.299 90.6589ZM469.157 100.905V99.7619C471.528 99.5079 471.825 99.2119 471.825 96.2479V89.1769C471.825 86.2129 470.724 84.4769 468.141 84.4769C466.575 84.4769 465.007 85.4509 463.78 86.5089V96.5009C463.78 99.3379 464.034 99.5069 466.405 99.7609V100.904H457.047V99.7609C459.842 99.4649 460.053 99.2529 460.053 96.4589V87.6949C460.053 85.0269 459.799 84.9009 457.555 84.4769V83.4609C459.672 83.0799 461.789 82.5289 463.779 81.7249V85.0699C464.626 84.4349 465.515 83.7999 466.574 83.1219C467.802 82.3179 468.817 81.8519 470.046 81.8519C473.433 81.8519 475.507 84.2229 475.507 88.3299V96.5009C475.507 99.3379 475.761 99.4649 478.175 99.7609V100.904H469.157V100.905Z" fill="#30404F"/>
</g>
<defs>
<clipPath id="clip0_4121_15104">
<rect width="479" height="132" fill="white"/>
</clipPath>
</defs>
</svg>
