<svg width="606" height="129" viewBox="0 0 606 129" fill="none" xmlns="http://www.w3.org/2000/svg">
<path d="M576.849 95.4333H605.787V89.8683H576.849C563.61 89.8683 551.883 78.7382 551.883 64.9215C551.883 51.1048 562.664 39.9747 576.093 39.9747H605.976V34.4097H576.093C559.638 34.4097 546.398 48.0344 546.398 64.9215C546.398 81.8085 560.584 95.4333 576.849 95.4333Z" fill="#73E3F2"/>
<path d="M576.117 106.571H606V101.005H576.117C556.825 101.005 541.127 84.886 541.127 64.9286C541.127 44.9711 556.825 28.8517 576.117 28.8517H606V23.2866H576.117C553.799 23.2866 535.642 41.9008 535.642 64.9286C535.642 87.9564 553.799 106.571 576.117 106.571Z" fill="#73E3F2"/>
<path d="M576.115 117.708H605.998V112.143H576.493C551.338 112.143 530.912 91.0339 530.912 65.1276C530.912 39.2213 551.338 17.9206 576.493 17.9206H605.998V12.1636H576.115C547.934 12.3555 525.238 35.959 525.238 64.9357C525.238 93.9123 548.123 117.516 576.115 117.708Z" fill="#73E3F2"/>
<path d="M605.994 128.818V123.253H576.111C544.525 123.253 518.803 97.1546 518.803 65.1076C518.803 33.0605 544.525 6.96234 576.111 6.96234H605.994V1.20539H576.111C541.499 1.20539 513.318 29.7983 513.318 64.9157C513.318 100.033 541.499 128.626 576.111 128.626H605.994V128.818Z" fill="#73E3F2"/>
<path d="M38.2054 56.4909H0V62.056H38.2054V56.4909Z" fill="#4759CC"/>
<path d="M38.2054 67.614H0V73.179H38.2054V67.614Z" fill="#4759CC"/>
<path d="M38.2054 78.746H0V84.3111H38.2054V78.746Z" fill="#4759CC"/>
<path d="M38.2054 89.8806H0V95.4456H38.2054V89.8806Z" fill="#4759CC"/>
<path d="M38.2054 101.004H0V106.569H38.2054V101.004Z" fill="#4759CC"/>
<path d="M38.2054 111.941H0V117.506H38.2054V111.941Z" fill="#4759CC"/>
<path d="M38.2054 123.075H0V128.64H38.2054V123.075Z" fill="#4759CC"/>
<path d="M249.092 39.79C259.684 39.79 268.762 51.3039 272.166 67.4234H249.092V39.79ZM249.092 73.1803H273.112C273.301 74.9074 273.49 76.8264 273.49 78.7454H248.903V73.1803H249.092ZM249.092 84.3104H273.68C273.68 85.6537 273.68 87.3808 273.68 89.8755H249.092V84.3104ZM249.092 95.4405H273.68C273.68 97.1676 273.68 98.8947 273.68 101.006H249.092V95.4405ZM279.164 78.5535C278.03 53.7986 264.979 34.033 249.092 34.033V28.468C268.762 28.468 284.649 49.7687 284.649 75.8669V77.0183C284.649 82.0077 284.649 93.7135 284.271 128.447H289.756C290.134 93.7135 290.134 82.0077 290.134 76.8264V75.675C290.134 46.5064 271.788 22.5191 249.092 22.5191V17.5298C274.814 17.5298 295.619 41.3252 295.619 70.4937V71.6451C295.619 77.2102 295.619 90.2593 295.241 128.639H300.726C301.104 90.2593 301.104 77.2102 301.104 71.6451V70.4937C301.104 38.2548 277.841 11.9647 249.092 11.9647V6.39967C280.867 6.39967 306.589 32.4979 306.589 64.7368V66.0801C306.589 72.2208 306.589 86.4213 306.022 128.639H311.507C312.074 86.4213 312.074 72.0289 312.074 66.0801V64.7368C312.074 29.4275 283.704 0.83461 249.092 0.83461V128.063V106.379H273.68C273.68 112.328 273.68 119.62 273.49 128.639H278.975" fill="#40C2B0"/>
<path d="M117.622 0.83461H112.137V128.447H117.622V0.83461Z" fill="#FCABF2"/>
<path d="M128.628 0.83461H123.143V128.447H128.628V0.83461Z" fill="#FCABF2"/>
<path d="M139.593 0.83461H134.108V128.447H139.593V0.83461Z" fill="#FCABF2"/>
<path d="M150.557 0.83461H145.072V128.447H150.557V0.83461Z" fill="#FCABF2"/>
<path d="M372.215 1.03029H366.73V128.643H372.215V1.03029Z" fill="#4759CC"/>
<path d="M361.25 1.03029H355.765V128.643H361.25V1.03029Z" fill="#4759CC"/>
<path d="M350.473 1.03029H344.988V128.643H350.473V1.03029Z" fill="#4759CC"/>
<path d="M339.487 1.03029H334.002V128.643H339.487V1.03029Z" fill="#4759CC"/>
<path d="M38.2097 106.574C66.9582 106.574 90.2219 82.9709 90.2219 53.8023C90.2219 24.6338 66.9582 1.03029 38.2097 1.03029" fill="#FF5E6B"/>
<path d="M249.085 0.834652H210.88V128.639H249.085V0.834652Z" fill="#73E3F2"/>
<path d="M447.111 123.075H408.906V128.64H447.111V123.075Z" fill="#FCABF2"/>
<path d="M447.111 111.941H408.906V117.506H447.111V111.941Z" fill="#FCABF2"/>
<path d="M447.111 100.612H408.906V106.177H447.111V100.612Z" fill="#FCABF2"/>
<path d="M447.111 89.3038H408.906V94.8688H447.111V89.3038Z" fill="#FCABF2"/>
<path d="M447.111 78.7472H408.906V84.3123H447.111V78.7472Z" fill="#FCABF2"/>
<path d="M447.111 67.8096H408.906V73.3747H447.111V67.8096Z" fill="#FCABF2"/>
<path d="M447.111 56.6763H408.906V62.2413H447.111V56.6763Z" fill="#FCABF2"/>
<path d="M334.002 1.03028L408.9 128.835H446.916V128.643H447.105L372.208 1.41408V1.03028" fill="#FF5E6B"/>
<path d="M188.737 89.6849H112.137V95.2499H188.737V89.6849Z" fill="#FF5E6B"/>
<path d="M188.737 100.612H112.137V106.177H188.737V100.612Z" fill="#FF5E6B"/>
<path d="M188.737 111.756H112.137V117.321H188.737V111.756Z" fill="#FF5E6B"/>
<path d="M188.737 122.879H112.137V128.444H188.737V122.879Z" fill="#FF5E6B"/>
<path d="M38.2054 1.22593H0V6.79098H38.2054V1.22593Z" fill="#4759CC"/>
<path d="M38.2054 12.1624H0V17.7274H38.2054V12.1624Z" fill="#4759CC"/>
<path d="M38.2054 23.2866H0V28.8516H38.2054V23.2866Z" fill="#4759CC"/>
<path d="M38.2054 34.4199H0V39.985H38.2054V34.4199Z" fill="#4759CC"/>
<path d="M38.2054 45.5532H0V51.1183H38.2054V45.5532Z" fill="#4759CC"/>
<path d="M447.111 45.5532H408.906V51.1183H447.111V45.5532Z" fill="#FCABF2"/>
<path d="M447.111 34.4199H408.906V39.985H447.111V34.4199Z" fill="#FCABF2"/>
<path d="M447.111 23.472H408.906V29.037H447.111V23.472Z" fill="#FCABF2"/>
<path d="M447.111 12.3489H408.906V17.914H447.111V12.3489Z" fill="#FCABF2"/>
<path d="M447.111 1.22593H408.906V6.79098H447.111V1.22593Z" fill="#FCABF2"/>
</svg>
