<svg width="360" height="160" viewBox="0 0 360 160" fill="none" xmlns="http://www.w3.org/2000/svg">
<g clip-path="url(#clip0_5928_16341)">
<path d="M0 0H360V160H0V0Z" fill="#DADEF5"/>
<g clip-path="url(#clip1_5928_16341)">
<path d="M1234.04 -339.856H-458.749V1124.36H1234.04V-339.856Z" fill="#40C2B0" stroke="#40C2B0" stroke-miterlimit="10"/>
<path d="M277.206 -340.42V1124.19" stroke="#66CEC0" stroke-width="3" stroke-miterlimit="10"/>
<path d="M234.559 -340.42V1124.19" stroke="#66CEC0" stroke-width="3" stroke-miterlimit="10"/>
<path d="M255.874 -340.42V1124.19" stroke="#66CEC0" stroke-width="15.01" stroke-miterlimit="10"/>
<path d="M145.437 -340.42V1124.19" stroke="#66CEC0" stroke-width="3" stroke-miterlimit="10"/>
<path d="M102.786 -340.42V1124.19" stroke="#66CEC0" stroke-width="3" stroke-miterlimit="10"/>
<path d="M124.103 -340.42V1124.19" stroke="#66CEC0" stroke-width="15.01" stroke-miterlimit="10"/>
<path d="M13.6639 -340.42V1124.19" stroke="#66CEC0" stroke-width="3" stroke-miterlimit="10"/>
<path fill-rule="evenodd" clip-rule="evenodd" d="M184.534 1151.05L696.041 1152.32L727.111 -111.312L-17 -113.367L9.15972 1150.62L184.534 1151.05Z" fill="#DADEF5"/>
<path fill-rule="evenodd" clip-rule="evenodd" d="M24.9241 151.963L688.64 155.616V195.22L24.736 193.339L24.9241 151.963Z" fill="#2B357A"/>
<g opacity="0.32">
<path d="M74.1514 21.4237C70.3269 22.5839 68.3833 25.9548 68.3833 29.1532V33.4334C68.3833 34.3898 69.1514 35.158 70.1075 35.158H99.9665C103.963 35.158 279.042 34.7504 279.042 34.7504C279.042 34.7504 293.431 34.3428 295.03 34.3428C296.628 34.3428 297.036 29.5451 295.437 26.7387C293.838 23.9322 293.838 21.9411 287.443 20.7338C281.048 19.5266 227.49 20.7338 227.49 20.7338C227.49 20.7338 76.2674 20.7652 74.167 21.408L74.1514 21.4237Z" fill="#2B357A"/>
<path d="M68.9013 34.5783L79.199 37.7767C79.199 37.7767 82.569 77.9451 83.6348 79.5443C84.7006 81.1435 86.6599 82.0371 87.0047 83.4482C87.3495 84.8593 93.7445 147.103 94.2774 147.981C94.8103 148.859 95.3589 152.355 101.926 152.355C108.494 152.355 267.71 153.233 267.71 153.233C267.71 153.233 270.171 153.641 271.065 150.615C271.958 147.589 274.623 119.164 274.623 119.164L277.992 83.0876C277.992 83.0876 281.018 82.9151 281.723 79.1837C282.428 75.4522 286.519 36.0051 286.519 36.0051L294.685 34.2334L68.8856 34.594L68.9013 34.5783Z" fill="#2B357A"/>
</g>
<path fill-rule="evenodd" clip-rule="evenodd" d="M202.661 148.812L200.357 67.4404H248.366L246.391 148.796C246.329 151.101 244.463 152.92 242.159 152.92H206.893C204.604 152.92 202.724 151.101 202.661 148.812Z" fill="url(#paint0_linear_5928_16341)"/>
<path fill-rule="evenodd" clip-rule="evenodd" d="M198.146 71.2349H250.654L250.701 60.84C250.701 59.0056 249.29 57.5162 247.535 57.5319L201.046 57.9395C199.29 57.9395 197.895 59.476 197.926 61.3104L198.146 71.2349Z" fill="white"/>
<path d="M205.482 71.2656L205.2 58.5974L205.701 58.5347L205.984 71.2029L205.482 71.2656Z" fill="#D5D5D6"/>
<path d="M210.169 71.2812L209.886 58.221L210.372 58.127L210.67 71.1872L210.169 71.2812Z" fill="#D5D5D6"/>
<path d="M214.512 71.2813L214.183 58.2054L214.685 58.1113L215.014 71.1872L214.512 71.2813Z" fill="#D5D5D6"/>
<path d="M218.964 58.1436H218.462V71.2351H218.964V58.1436Z" fill="#D5D5D6"/>
<path d="M223.039 58.0015H222.537V71.2342H223.039V58.0015Z" fill="#D5D5D6"/>
<path d="M227.926 71.2816L227.425 71.1875L227.55 57.8921L228.051 57.9705L227.926 71.2816Z" fill="#D5D5D6"/>
<path d="M201.437 71.2815L201.186 58.4565L201.688 58.3311L201.939 71.1718L201.437 71.2815Z" fill="#D5D5D6"/>
<path d="M232.725 70.9208L232.427 57.8606L232.929 57.7822L233.227 70.8268L232.725 70.9208Z" fill="#D5D5D6"/>
<path d="M237.068 70.9209L236.739 57.845L237.24 57.7666L237.569 70.8268L237.068 70.9209Z" fill="#D5D5D6"/>
<path d="M241.501 57.7822H240.999V70.8738H241.501V57.7822Z" fill="#D5D5D6"/>
<path d="M245.575 57.6416H245.074V70.8743H245.575V57.6416Z" fill="#D5D5D6"/>
<path fill-rule="evenodd" clip-rule="evenodd" d="M203.461 109.224L204.182 143.826C204.229 146.178 205.922 148.153 208.226 148.577C215.091 149.815 229.542 151.634 241.047 147.808C243.006 147.166 244.339 145.331 244.386 143.277L245.248 112.689L203.461 109.239V109.224Z" fill="#FFA835"/>
<path fill-rule="evenodd" clip-rule="evenodd" d="M201.22 94.5488H247.709L246.925 126.502L202.051 127.536L201.22 94.5488Z" fill="white"/>
<g opacity="0.5" style="mix-blend-mode:multiply">
<path fill-rule="evenodd" clip-rule="evenodd" d="M210.545 96.0845L210.89 98.2638L238.131 98.5147L238.601 96.0845H210.545Z" fill="#E5E5E5"/>
</g>
<g opacity="0.5" style="mix-blend-mode:multiply">
<path fill-rule="evenodd" clip-rule="evenodd" d="M199.211 71.1243L199.744 72.6922H249.117L249.619 70.8892" fill="#E5E5E5"/>
</g>
<path d="M248.931 70.9207L248.429 70.8424L248.555 57.9546L249.056 58.033L248.931 70.9207Z" fill="#D5D5D6"/>
<path d="M205.561 102.481H206.25L207.583 104.379L208.915 102.481H209.604V106.182H208.68V104.41L207.755 105.711H207.41L206.485 104.41V106.182H205.576V102.481H205.561Z" fill="black"/>
<path d="M211.39 102.481V106.182H210.45V102.481H211.39Z" fill="black"/>
<path d="M211.942 105.602L212.412 104.912C212.694 105.194 213.055 105.382 213.462 105.382C213.666 105.382 213.886 105.304 213.886 105.116C213.886 104.99 213.76 104.896 213.588 104.833C213.368 104.755 213.055 104.677 212.788 104.535C212.459 104.363 212.177 104.081 212.177 103.579C212.177 102.936 212.741 102.435 213.556 102.435C214.011 102.435 214.481 102.576 214.873 102.905L214.434 103.61C214.215 103.422 213.839 103.313 213.572 103.313C213.306 103.313 213.18 103.422 213.18 103.548C213.18 103.705 213.337 103.767 213.478 103.814C213.666 103.893 213.98 103.987 214.23 104.096C214.622 104.269 214.936 104.535 214.936 105.069C214.936 105.743 214.371 106.244 213.478 106.244C212.867 106.244 212.349 106.009 211.973 105.602H211.942Z" fill="black"/>
<path d="M215.358 104.332C215.358 103.266 216.189 102.419 217.286 102.419C218.383 102.419 219.214 103.266 219.214 104.332C219.214 105.398 218.383 106.229 217.286 106.229C216.189 106.229 215.358 105.382 215.358 104.332ZM218.258 104.332C218.258 103.752 217.819 103.344 217.286 103.344C216.753 103.344 216.314 103.752 216.314 104.332C216.314 104.912 216.738 105.319 217.286 105.319C217.835 105.319 218.258 104.896 218.258 104.332Z" fill="black"/>
<path d="M222.74 103.767C222.74 104.441 222.333 105.021 221.283 105.021H220.812V106.182H219.872V102.481H221.345C222.349 102.481 222.74 103.109 222.74 103.767ZM221.784 103.751C221.784 103.516 221.612 103.328 221.361 103.328H220.828V104.175H221.345C221.659 104.175 221.8 103.971 221.8 103.751H221.784Z" fill="black"/>
<path d="M224.636 104.959H224.275V106.182H223.335V102.481H224.871C225.796 102.481 226.219 103.046 226.219 103.704C226.219 104.143 226.031 104.582 225.545 104.802L226.344 106.166H225.278L224.636 104.943V104.959ZM224.26 104.143H224.824C225.137 104.143 225.263 103.94 225.263 103.736C225.263 103.532 225.122 103.344 224.855 103.344H224.26V104.143Z" fill="black"/>
<path d="M226.736 104.332C226.736 103.266 227.567 102.419 228.664 102.419C229.761 102.419 230.592 103.266 230.592 104.332C230.592 105.398 229.761 106.229 228.664 106.229C227.567 106.229 226.736 105.382 226.736 104.332ZM229.636 104.332C229.636 103.752 229.197 103.344 228.664 103.344C228.131 103.344 227.692 103.752 227.692 104.332C227.692 104.912 228.116 105.319 228.664 105.319C229.213 105.319 229.636 104.896 229.636 104.332Z" fill="black"/>
<path d="M230.921 105.602L231.391 104.912C231.673 105.194 232.034 105.382 232.441 105.382C232.645 105.382 232.864 105.304 232.864 105.116C232.864 104.99 232.739 104.896 232.567 104.833C232.347 104.755 232.034 104.677 231.767 104.535C231.438 104.363 231.156 104.081 231.156 103.579C231.156 102.936 231.72 102.435 232.535 102.435C232.99 102.435 233.46 102.576 233.852 102.905L233.413 103.61C233.194 103.422 232.817 103.313 232.551 103.313C232.285 103.313 232.159 103.422 232.159 103.548C232.159 103.705 232.316 103.767 232.457 103.814C232.645 103.893 232.959 103.987 233.209 104.096C233.601 104.269 233.915 104.535 233.915 105.069C233.915 105.743 233.35 106.244 232.457 106.244C231.846 106.244 231.328 106.009 230.952 105.602H230.921Z" fill="black"/>
<path d="M234.181 103.391V102.498H237.175V103.391H236.156V106.182H235.216V103.391H234.197H234.181Z" fill="black"/>
<path d="M237.441 104.332C237.441 103.266 238.272 102.419 239.369 102.419C240.466 102.419 241.297 103.266 241.297 104.332C241.297 105.398 240.466 106.229 239.369 106.229C238.272 106.229 237.441 105.382 237.441 104.332ZM240.325 104.332C240.325 103.752 239.886 103.344 239.354 103.344C238.821 103.344 238.382 103.752 238.382 104.332C238.382 104.912 238.805 105.319 239.354 105.319C239.902 105.319 240.325 104.896 240.325 104.332Z" fill="black"/>
<path d="M241.957 102.481H242.898V105.288H244.684V106.182H241.957V102.481Z" fill="black"/>
<path d="M236.754 116.247C236.754 114.475 237.271 112.641 235.782 111.371C235.782 111.371 235.798 111.261 235.72 111.198C234.716 110.477 233.384 110.32 232.177 110.289C220.625 110.023 189.936 110.148 178.353 110.085V110.117C173.478 110.07 167.945 109.678 163.18 110.038C161.848 110.132 160.516 110.587 160.296 112.076C159.936 114.601 160.108 117.689 160.108 120.276C160.108 128.288 160.218 133.556 160.296 141.599C160.312 144.202 160.139 146.961 160.233 149.532C160.265 150.332 160.594 151.257 161.174 151.806C161.315 151.931 161.487 151.947 161.581 152.01C163.023 153.029 164.23 152.684 165.86 152.715C170.453 152.794 175.061 152.778 179.701 152.794V152.762C188.337 152.809 216.096 152.888 224.779 152.919C227.365 152.919 230.328 153.107 232.898 152.935C233.854 152.872 234.575 152.652 235.312 152.072C237.209 150.583 236.629 148.09 236.644 145.989C236.77 135.171 236.801 127.096 236.754 116.278V116.247Z" fill="#C6C5C6"/>
<path d="M168.164 125.388C168.446 124.431 168.65 123.444 168.791 122.472C168.963 121.327 169.104 120.135 169.151 118.991C169.214 117.298 169.151 115.557 168.524 113.942C172.427 113.739 174.12 117.831 174.089 120.135C174.057 122.44 172.051 126.266 168.164 125.388Z" fill="#DDDDDD"/>
<path d="M168.161 125.388C162.189 124.04 162.534 114.256 168.522 113.943C169.149 115.573 169.211 117.314 169.149 118.991C169.102 120.136 168.96 121.327 168.788 122.472C168.647 123.444 168.443 124.432 168.161 125.388Z" fill="#E5E4E5"/>
<path d="M167.05 145.049C167.332 144.092 167.535 143.105 167.677 142.133C167.849 140.988 167.99 139.797 168.037 138.652C168.1 136.959 168.037 135.218 167.41 133.604C171.313 133.4 173.006 137.492 172.974 139.797C172.943 142.101 170.937 145.927 167.05 145.049Z" fill="#DDDDDD"/>
<path d="M167.051 145.049C161.079 143.7 161.424 133.917 167.412 133.604C168.039 135.234 168.101 136.974 168.039 138.652C167.992 139.797 167.851 140.988 167.678 142.133C167.537 143.105 167.333 144.092 167.051 145.049Z" fill="#E5E4E5"/>
<path d="M225.907 144.077C226.189 143.121 226.393 142.133 226.534 141.161C226.706 140.016 226.848 138.825 226.895 137.68C226.957 135.987 226.895 134.247 226.268 132.632C230.17 132.428 231.863 136.52 231.832 138.825C231.801 141.13 229.794 144.955 225.907 144.077Z" fill="#DDDDDD"/>
<path d="M225.904 144.076C219.932 142.728 220.277 132.944 226.265 132.631C226.892 134.261 226.954 136.002 226.892 137.679C226.845 138.824 226.704 140.015 226.531 141.16C226.39 142.132 226.186 143.12 225.904 144.076Z" fill="#E5E4E5"/>
<path d="M225.059 125.388C225.341 124.431 225.545 123.444 225.686 122.472C225.858 121.327 225.999 120.135 226.046 118.991C226.109 117.298 226.046 115.557 225.419 113.942C229.322 113.739 231.015 117.831 230.984 120.135C230.952 122.44 228.946 126.266 225.059 125.388Z" fill="#DDDDDD"/>
<path d="M225.06 125.388C219.088 124.04 219.433 114.256 225.421 113.943C226.048 115.573 226.11 117.314 226.048 118.991C226.001 120.136 225.86 121.327 225.687 122.472C225.546 123.444 225.342 124.432 225.06 125.388Z" fill="#E5E4E5"/>
<path d="M194.761 137.163L200.356 121.092C211.14 124.604 205.717 141.051 194.761 137.163Z" fill="#DDDDDD"/>
<path d="M194.761 137.162C184.306 133.446 189.588 117.58 200.356 121.092L194.761 137.162Z" fill="#E5E4E5"/>
<path opacity="0.1" d="M236.83 121.813C236.83 121.813 231.908 136.253 222.222 141.694C204.118 151.854 160.639 151.979 160.639 151.979C162.112 152.998 163.053 152.888 164.714 152.92C169.291 152.998 178.821 152.763 178.821 152.763C187.708 152.81 230.294 153.108 232.912 152.935C233.883 152.873 234.604 152.653 235.372 152.073C237.3 150.584 236.705 148.091 236.736 145.99C236.861 135.172 236.846 123.178 236.846 121.829L236.83 121.813Z" fill="#868686"/>
<path fill-rule="evenodd" clip-rule="evenodd" d="M114.009 152.386L109.087 86.8657L196.015 86.019L193.93 152.966L114.009 152.386Z" fill="#72E1F1"/>
<path fill-rule="evenodd" clip-rule="evenodd" d="M110.201 102.622L195.624 98.5459L194.417 139.906L113.163 140.784L110.201 102.622Z" fill="white"/>
<path fill-rule="evenodd" clip-rule="evenodd" d="M128.412 103.344L177.127 101.509L177.143 103.861L128.428 105.429L128.412 103.344Z" fill="#E1E1E1"/>
<path fill-rule="evenodd" clip-rule="evenodd" d="M121.721 135.516L134.542 135.03L134.558 136.535L121.736 136.865L121.721 135.516Z" fill="#E1E1E1"/>
<path fill-rule="evenodd" clip-rule="evenodd" d="M121.36 132.914L134.181 132.428L134.197 133.933L121.375 134.246L121.36 132.914Z" fill="#E1E1E1"/>
<path d="M174.554 147.714L135.952 148.132L135.969 149.715L174.572 149.297L174.554 147.714Z" fill="#E1E1E1"/>
<path fill-rule="evenodd" clip-rule="evenodd" d="M142.756 129.543L141.423 115.746L166.831 115.197L165.593 129.292L142.756 129.543Z" fill="#C6F2F9"/>
<path d="M134.213 108.675H134.903L136.235 110.572L137.567 108.675H138.257V112.375H137.332V110.604L136.407 111.905H136.062L135.138 110.604V112.375H134.229V108.675H134.213Z" fill="black"/>
<path d="M140.043 108.675V112.375H139.102V108.675H140.043Z" fill="black"/>
<path d="M140.907 108.674H143.525V109.552H141.832V110.164H143.321V111.026H141.832V112.359H140.892V108.659L140.907 108.674Z" fill="black"/>
<path d="M144.152 108.675H146.817V109.538H145.092V110.086H146.691V110.949H145.092V111.513H146.817V112.375H144.152V108.675Z" fill="black"/>
<path d="M150.437 109.961C150.437 110.635 150.029 111.215 148.979 111.215H148.509V112.375H147.568V108.675H149.042C150.045 108.675 150.437 109.302 150.437 109.961ZM149.48 109.961C149.48 109.726 149.308 109.538 149.057 109.538H148.524V110.384H149.042C149.355 110.384 149.496 110.18 149.496 109.961H149.48Z" fill="black"/>
<path d="M152.315 111.153H151.955V112.375H151.014V108.675H152.55C153.475 108.675 153.898 109.24 153.898 109.898C153.898 110.337 153.71 110.776 153.224 110.996L154.024 112.36H152.958L152.315 111.137V111.153ZM151.955 110.337H152.519C152.832 110.337 152.958 110.133 152.958 109.93C152.958 109.726 152.817 109.538 152.55 109.538H151.955V110.337Z" fill="black"/>
<path d="M155.593 108.675V112.375H154.652V108.675H155.593Z" fill="black"/>
<path d="M156.142 111.795L156.612 111.105C156.894 111.387 157.255 111.575 157.662 111.575C157.866 111.575 158.086 111.497 158.086 111.309C158.086 111.184 157.96 111.089 157.788 111.027C157.568 110.948 157.255 110.87 156.988 110.729C156.659 110.556 156.377 110.274 156.377 109.772C156.377 109.13 156.941 108.628 157.756 108.628C158.211 108.628 158.681 108.769 159.073 109.098L158.634 109.804C158.415 109.616 158.039 109.506 157.772 109.506C157.506 109.506 157.38 109.616 157.38 109.741C157.38 109.898 157.537 109.961 157.678 110.008C157.866 110.086 158.18 110.18 158.43 110.29C158.822 110.462 159.136 110.729 159.136 111.262C159.136 111.936 158.572 112.438 157.678 112.438C157.067 112.438 156.55 112.203 156.173 111.795H156.142Z" fill="black"/>
<path d="M159.402 109.584V108.69H162.396V109.584H161.377V112.375H160.437V109.584H159.418H159.402Z" fill="black"/>
<path d="M162.644 110.525C162.644 109.458 163.474 108.612 164.571 108.612C165.669 108.612 166.499 109.458 166.499 110.525C166.499 111.591 165.669 112.422 164.571 112.422C163.474 112.422 162.644 111.575 162.644 110.525ZM165.543 110.525C165.543 109.944 165.104 109.537 164.571 109.537C164.039 109.537 163.6 109.944 163.6 110.525C163.6 111.105 164.023 111.512 164.571 111.512C165.12 111.512 165.543 111.089 165.543 110.525Z" fill="black"/>
<path d="M170.482 108.675V112.375H169.777L168.1 110.4V112.375H167.191V108.675H167.865L169.573 110.682V108.675H170.498H170.482Z" fill="black"/>
<path d="M171.329 108.675H173.994V109.538H172.269V110.086H173.868V110.949H172.269V111.513H173.994V112.375H171.329V108.675Z" fill="black"/>
<path d="M74.1514 21.4237C70.3269 22.5839 68.3833 25.9548 68.3833 29.1532V33.4334C68.3833 34.3898 69.1514 35.158 70.1075 35.158H99.9665C103.963 35.158 279.042 34.7504 279.042 34.7504C279.042 34.7504 293.431 34.3428 295.03 34.3428C296.628 34.3428 297.036 29.5451 295.437 26.7387C293.838 23.9322 293.838 21.9411 287.443 20.7338C281.048 19.5266 227.49 20.7338 227.49 20.7338C227.49 20.7338 76.2674 20.7652 74.167 21.408L74.1514 21.4237Z" fill="white"/>
<path opacity="0.14" d="M79.1652 37.2901C79.1652 37.2901 85.4348 68.6158 91.9552 75.6711C99.1339 83.432 144.98 82.3345 144.98 82.3345C144.228 82.8518 111.407 82.695 110.56 82.7107C108.225 82.7421 103.382 82.6324 103.382 82.6324C98.8518 82.648 88.3972 82.8989 87.0649 82.8048C86.5634 82.7734 84.5257 80.6882 84.1339 80.3903C83.1464 79.6221 83.0837 76.8313 82.7702 74.5265C82.0335 69.0704 79.1495 37.9643 79.1495 37.2744L79.1652 37.2901Z" fill="#DADEF5"/>
<path opacity="0.14" d="M286.55 36.0835C286.55 36.0835 279.842 69.1024 273.321 76.1735C266.143 83.9343 220.296 82.8368 220.296 82.8368C221.048 83.3542 253.87 83.1974 254.716 83.2131C257.052 83.2444 261.895 83.1347 261.895 83.1347C266.425 83.1504 276.848 83.1347 278.18 83.1347C279.293 83.1347 280.453 81.8334 280.829 81.5355C281.817 80.7672 282.193 76.8633 282.506 74.5586C283.243 69.1025 286.55 36.789 286.55 36.0992V36.0835Z" fill="#DADEF5"/>
<path d="M209.604 65.4805H152.848V90.5347H209.604V65.4805Z" fill="#F6F6F6"/>
<path d="M165.828 75.8598C165.828 75.8598 165.734 75.9382 165.671 76.048C165.608 76.1577 165.53 76.2831 165.436 76.4399C165.357 76.5967 165.263 76.7692 165.169 76.9573C165.075 77.1455 164.997 77.3336 164.918 77.5061C164.84 77.6942 164.777 77.851 164.699 78.0078C164.621 78.1645 164.589 78.2743 164.558 78.3527C164.527 78.4311 164.495 78.5095 164.464 78.6192C164.433 78.729 164.401 78.823 164.386 78.9328C164.354 79.0425 164.339 79.121 164.307 79.215C164.276 79.2934 164.26 79.3405 164.245 79.3718C164.135 79.56 163.978 79.654 163.806 79.654C163.618 79.654 163.476 79.5443 163.351 79.3404C163.194 79.0582 163.085 78.8544 163.006 78.729C162.928 78.6036 162.881 78.4938 162.85 78.4311C162.818 78.3684 162.787 78.3057 162.771 78.2743C162.755 78.243 162.724 78.1645 162.677 78.0548C162.63 77.945 162.552 77.804 162.458 77.6002C162.364 77.3963 162.207 77.1141 162.019 76.7378C161.987 76.6751 161.956 76.6124 161.94 76.5497C161.925 76.487 161.878 76.4243 161.799 76.3772C161.768 76.4086 161.752 76.4713 161.752 76.5654C161.752 76.6594 161.752 76.8162 161.768 77.0357C161.768 77.2552 161.768 77.5374 161.768 77.9137C161.768 78.29 161.721 78.7447 161.658 79.2934C161.643 79.4659 161.627 79.5913 161.611 79.7011C161.596 79.8108 161.596 79.8892 161.58 79.9519C161.58 80.0303 161.58 80.093 161.564 80.1558C161.564 80.2185 161.564 80.3125 161.549 80.4223C161.549 80.532 161.533 80.6731 161.517 80.8299C161.502 80.9867 161.486 81.2219 161.47 81.5041C161.47 81.6609 161.408 81.7863 161.313 81.8647C161.219 81.9431 161.094 81.9745 160.922 81.9588C160.828 81.9588 160.749 81.8804 160.687 81.7863C160.624 81.6765 160.592 81.5825 160.592 81.4884C160.592 81.1905 160.592 80.9083 160.624 80.6731C160.655 80.438 160.671 80.1714 160.702 79.8735C160.734 79.5756 160.765 79.2307 160.796 78.8231C160.828 78.4154 160.843 77.898 160.843 77.2552C160.843 76.7692 160.875 76.3615 160.937 76.048C161 75.7344 161.031 75.4836 161.047 75.2954V75.2013C161.047 75.2013 161.047 75.0916 161.063 75.0446C161.063 74.9818 161.11 74.9348 161.141 74.8721C161.188 74.825 161.251 74.778 161.329 74.7467C161.439 74.6996 161.533 74.7153 161.643 74.7623C161.752 74.8094 161.846 74.9034 161.94 75.0132C162.034 75.1229 162.113 75.2327 162.191 75.3581C162.27 75.4835 162.332 75.609 162.395 75.703C162.505 75.9068 162.599 76.0636 162.677 76.2047C162.755 76.3302 162.818 76.4399 162.881 76.534C162.944 76.6281 162.991 76.7065 163.038 76.7848C163.085 76.8632 163.132 76.9573 163.194 77.0514C163.241 77.1611 163.304 77.2866 163.367 77.4277C163.429 77.5688 163.523 77.7569 163.633 77.9921C163.633 78.0078 163.665 78.0391 163.665 78.0705C163.665 78.1018 163.696 78.1175 163.727 78.1175C163.759 78.1175 163.79 78.1175 163.806 78.0705L163.853 77.9921C163.994 77.7256 164.103 77.4904 164.182 77.3023C164.276 77.1141 164.354 76.9416 164.417 76.7848C164.48 76.6437 164.542 76.5026 164.605 76.3929C164.668 76.2675 164.73 76.1577 164.809 76.0323C164.887 75.9069 164.966 75.7814 165.075 75.6403C165.169 75.4992 165.295 75.3267 165.451 75.1229C165.608 74.9191 165.781 74.825 165.969 74.825C166.157 74.825 166.298 74.9191 166.392 75.0916C166.439 75.17 166.47 75.2327 166.486 75.3111C166.502 75.3895 166.533 75.4679 166.549 75.5933C166.564 75.7031 166.596 75.8598 166.611 76.0323C166.627 76.2204 166.658 76.4556 166.674 76.7535C166.705 77.1455 166.752 77.5688 166.799 78.0078C166.846 78.4468 166.862 78.9171 166.846 79.4032C166.846 79.5443 166.846 79.6854 166.846 79.8422C166.846 79.999 166.846 80.1401 166.878 80.2812C166.878 80.3596 166.878 80.4536 166.878 80.532C166.878 80.6104 166.846 80.7045 166.878 80.7829C166.878 80.924 166.909 81.0808 166.94 81.2532C166.972 81.4257 166.94 81.6139 166.878 81.8177C166.846 81.9118 166.784 81.9901 166.721 82.0215C166.643 82.0685 166.58 82.0842 166.502 82.0685C166.423 82.0685 166.361 82.0372 166.298 81.9901C166.235 81.9431 166.204 81.896 166.172 81.8333C166.125 81.6765 166.078 81.5041 166.016 81.3473C165.969 81.1905 165.922 81.0181 165.922 80.8299C165.906 80.532 165.906 80.2341 165.922 79.9519C165.937 79.6697 165.953 79.3718 165.937 79.0739C165.937 78.6506 165.937 78.3057 165.937 78.0235C165.937 77.7412 165.937 77.5218 165.922 77.3493C165.922 77.1768 165.922 77.0357 165.906 76.9259C165.89 76.8162 165.906 76.7378 165.906 76.6594V76.048C165.906 76.048 165.89 75.9539 165.859 75.9225L165.828 75.8598Z" fill="black"/>
<path d="M171.847 75.1696C171.956 75.1696 172.066 75.1696 172.16 75.1696C172.27 75.1696 172.364 75.2167 172.458 75.2951C172.583 75.4048 172.646 75.5146 172.677 75.6243C172.709 75.7341 172.677 75.8438 172.63 75.9379C172.583 76.032 172.489 76.1103 172.379 76.1574C172.27 76.2044 172.144 76.2201 172.003 76.2044C171.611 76.1417 171.314 76.0946 171.11 76.0476C170.922 76.0162 170.781 75.9849 170.702 75.9849C170.624 75.9849 170.593 75.9849 170.593 76.0006V76.1103C170.593 76.3769 170.593 76.6277 170.593 76.8943C170.593 77.1608 170.608 77.4116 170.593 77.6782C170.593 77.7566 170.593 77.8193 170.593 77.8507C170.593 77.882 170.64 77.9134 170.702 77.9134C170.765 77.9134 170.859 77.9447 171 77.9447C171.141 77.9447 171.329 77.9761 171.596 78.0074C171.721 78.0074 171.815 78.0545 171.894 78.1015C171.972 78.1485 172.019 78.2113 172.05 78.274C172.082 78.3367 172.082 78.4151 172.05 78.4778C172.035 78.5405 171.972 78.6032 171.894 78.6346C171.847 78.666 171.768 78.6816 171.674 78.6973C171.58 78.6973 171.47 78.713 171.361 78.713C171.251 78.713 171.157 78.713 171.047 78.713C170.937 78.713 170.859 78.713 170.812 78.6973C170.687 78.6816 170.624 78.6816 170.593 78.6973C170.561 78.7286 170.546 78.7914 170.546 78.9168C170.546 79.1363 170.514 79.3401 170.483 79.5439C170.452 79.7478 170.436 79.9672 170.436 80.1711C170.436 80.2495 170.436 80.3435 170.405 80.4219C170.373 80.5003 170.389 80.5944 170.405 80.6885C170.42 80.7669 170.452 80.8296 170.467 80.8296C170.483 80.8296 170.546 80.8296 170.624 80.8296C170.843 80.8139 171.032 80.7982 171.173 80.7825C171.314 80.7825 171.423 80.7669 171.517 80.7669C171.611 80.7669 171.674 80.7669 171.737 80.7825C171.8 80.7825 171.847 80.8296 171.925 80.8609C172.066 80.9236 172.144 81.049 172.144 81.1902C172.144 81.3469 172.066 81.4567 171.909 81.5508C171.862 81.5665 171.815 81.5978 171.768 81.5978C171.721 81.5978 171.627 81.6135 171.517 81.6135C171.408 81.6135 171.251 81.6135 171.047 81.5821C170.843 81.5664 170.577 81.5351 170.232 81.5194C170.201 81.5194 170.154 81.5194 170.091 81.5194C170.028 81.5194 169.95 81.5194 169.872 81.5194C169.793 81.5194 169.715 81.5194 169.637 81.5194C169.558 81.5194 169.48 81.5194 169.433 81.5194C169.339 81.5194 169.26 81.4567 169.229 81.394C169.198 81.3313 169.198 81.2529 169.26 81.1745C169.292 81.1275 169.307 81.0648 169.307 80.9864C169.307 80.908 169.307 80.7826 169.307 80.6414C169.307 80.5003 169.307 80.3278 169.307 80.124C169.307 79.9202 169.339 79.685 169.386 79.4028C169.433 79.1363 169.48 78.8227 169.527 78.4464C169.574 78.0701 169.621 77.7096 169.652 77.3489C169.684 76.9883 169.715 76.6748 169.746 76.4239C169.778 76.1574 169.793 76.0163 169.793 75.9849C169.809 75.8595 169.793 75.7811 169.762 75.7497C169.715 75.7184 169.668 75.6556 169.621 75.5616C169.574 75.4832 169.558 75.4048 169.574 75.3421C169.589 75.2794 169.637 75.2167 169.715 75.1853C169.746 75.1853 169.793 75.154 169.825 75.1383C169.856 75.1226 169.903 75.1069 169.95 75.1069H170.984C171.126 75.1069 171.267 75.1069 171.408 75.1069C171.549 75.1069 171.69 75.1069 171.862 75.1069L171.847 75.1696Z" fill="black"/>
<path d="M174.604 78.4158C174.62 77.9612 174.62 77.5065 174.604 77.0518C174.589 76.5971 174.604 76.1581 174.651 75.7034C174.651 75.5467 174.73 75.4056 174.871 75.2801C174.965 75.2018 175.075 75.139 175.184 75.0763C175.294 75.0136 175.419 74.9823 175.545 74.9509C175.811 74.9039 176.062 74.9038 176.313 74.9195C176.564 74.9352 176.814 74.998 177.065 75.1077C177.175 75.1547 177.285 75.2174 177.41 75.2958C177.535 75.3742 177.645 75.4526 177.755 75.5467C177.865 75.6408 177.974 75.7348 178.068 75.8289C178.162 75.923 178.225 76.0327 178.288 76.1424C178.319 76.2208 178.366 76.3149 178.429 76.3933C178.491 76.4717 178.523 76.5658 178.554 76.6599C178.586 76.7853 178.617 76.9107 178.648 77.0361C178.68 77.1616 178.695 77.3027 178.695 77.4281C178.695 77.7573 178.664 78.0866 178.554 78.4158C178.444 78.7451 178.288 79.0587 178.1 79.3566C177.912 79.6388 177.692 79.9053 177.441 80.1248C177.191 80.3443 176.955 80.5168 176.705 80.6265C176.564 80.6892 176.407 80.7363 176.281 80.7676C176.14 80.799 176.015 80.8303 175.905 80.846C175.796 80.8617 175.686 80.893 175.592 80.9087C175.498 80.9244 175.419 80.9558 175.357 80.9871C175.325 81.0028 175.278 81.0185 175.216 81.0342C175.153 81.0342 175.09 81.0342 175.043 81.0342C174.98 81.0342 174.933 81.0342 174.886 81.0028C174.839 81.0028 174.808 80.9715 174.792 80.9401C174.761 80.8617 174.714 80.7676 174.651 80.7049C174.589 80.6265 174.573 80.5325 174.589 80.4384C174.589 80.3286 174.604 80.0935 174.589 79.7485C174.589 79.3879 174.589 78.9489 174.62 78.4158H174.604ZM175.921 75.6408C175.921 75.6408 175.811 75.6094 175.749 75.6251C175.686 75.6251 175.639 75.6251 175.576 75.6408C175.435 75.6408 175.341 75.6878 175.294 75.7505C175.247 75.8132 175.231 75.9073 175.247 76.0484C175.278 76.4247 175.325 76.7696 175.357 77.0832C175.388 77.3967 175.419 77.6947 175.451 77.9925C175.482 78.2748 175.498 78.5726 175.513 78.8705C175.513 79.1684 175.529 79.482 175.529 79.8426C175.529 79.9523 175.545 80.0151 175.592 80.0464C175.639 80.0778 175.702 80.0778 175.811 80.0464C176.109 79.968 176.375 79.8426 176.595 79.6388C176.814 79.4506 177.018 79.2312 177.191 78.9803C177.269 78.8549 177.332 78.7294 177.41 78.604C177.473 78.4786 177.535 78.3531 177.598 78.2277C177.692 78.0239 177.755 77.8201 177.755 77.6006C177.755 77.3811 177.739 77.1772 177.676 76.9734C177.614 76.7696 177.52 76.5815 177.394 76.409C177.269 76.2365 177.112 76.0798 176.94 75.97C176.783 75.8603 176.626 75.7819 176.454 75.7191C176.281 75.6564 176.109 75.6251 175.905 75.6408H175.921Z" fill="black"/>
<path d="M180.78 75.4523C180.78 75.3426 180.827 75.2642 180.874 75.2015C180.921 75.1544 180.984 75.123 181.047 75.123C181.109 75.123 181.156 75.1544 181.219 75.2015C181.266 75.2485 181.313 75.3269 181.313 75.4209C181.313 75.515 181.344 75.6875 181.36 75.9697C181.36 76.2362 181.391 76.5498 181.407 76.9104C181.407 77.271 181.438 77.6473 181.438 78.0549C181.438 78.4626 181.454 78.8545 181.454 79.2308C181.454 79.3562 181.454 79.4974 181.438 79.6071C181.438 79.7326 181.423 79.8423 181.423 79.9677C181.423 80.0931 181.423 80.2029 181.423 80.3126C181.423 80.4224 181.438 80.5478 181.485 80.6733C181.517 80.8144 181.501 80.9398 181.423 81.0339C181.344 81.1279 181.25 81.175 181.109 81.1593C180.89 81.1436 180.749 81.0652 180.655 80.9241C180.561 80.783 180.514 80.6105 180.498 80.4224C180.498 80.2186 180.498 80.0147 180.514 79.7796C180.545 79.5444 180.561 79.3406 180.592 79.1367C180.592 79.0897 180.592 78.98 180.608 78.8388C180.608 78.6821 180.608 78.5096 180.623 78.2901C180.623 78.0706 180.639 77.8354 180.655 77.5846C180.655 77.318 180.67 77.0672 180.686 76.8164C180.686 76.5498 180.717 76.3146 180.733 76.0795C180.749 75.8443 180.764 75.6404 180.78 75.468V75.4523Z" fill="black"/>
<path d="M184.448 79.2305C184.417 79.403 184.448 79.5598 184.511 79.6695C184.589 79.795 184.699 79.9047 184.809 79.9988C184.856 80.0459 184.95 80.0615 185.075 80.0772C185.201 80.0929 185.342 80.0929 185.498 80.0929C185.655 80.0929 185.796 80.0929 185.922 80.0929C186.063 80.0929 186.157 80.0772 186.219 80.0615C186.407 79.9988 186.58 79.9518 186.752 79.9047C186.925 79.8577 187.081 79.7793 187.254 79.7009C187.395 79.6382 187.505 79.6068 187.614 79.6382C187.724 79.6696 187.787 79.7166 187.818 79.8107C187.849 79.8891 187.818 79.9988 187.771 80.1242C187.724 80.2497 187.583 80.3908 187.379 80.5319C187.113 80.72 186.831 80.8768 186.517 80.9866C186.219 81.0963 185.89 81.159 185.545 81.1747C185.357 81.1747 185.201 81.1747 185.059 81.1747C184.918 81.1747 184.793 81.1433 184.668 81.0963C184.542 81.0649 184.433 81.0023 184.323 80.9395C184.213 80.8768 184.103 80.7984 183.978 80.7043C183.837 80.5789 183.712 80.4378 183.602 80.281C183.492 80.1242 183.445 79.9361 183.414 79.748C183.367 79.3246 183.414 78.917 183.508 78.5564C183.618 78.1801 183.79 77.8352 184.009 77.4902C184.229 77.161 184.495 76.8474 184.809 76.5652C185.122 76.283 185.451 76.0321 185.812 75.7969C185.953 75.7029 186.11 75.6245 186.282 75.5618C186.439 75.4991 186.611 75.4834 186.799 75.4834C186.878 75.4834 186.956 75.4991 187.034 75.5147C187.113 75.5147 187.176 75.5618 187.238 75.6245C187.301 75.6872 187.348 75.7499 187.348 75.8283C187.348 75.9067 187.348 75.9694 187.301 76.0322C187.254 76.0949 187.207 76.1262 187.175 76.1105C187.144 76.1105 187.081 76.0792 187.019 76.0635C186.956 76.0478 186.862 76.0635 186.752 76.0635C186.643 76.0949 186.486 76.1733 186.282 76.3301C186.094 76.4712 185.922 76.6122 185.733 76.7847C185.545 76.9572 185.373 77.1296 185.216 77.3178C185.06 77.5059 184.918 77.7097 184.793 77.9292C184.668 78.1487 184.589 78.3526 184.542 78.5721C184.511 78.6818 184.48 78.7759 184.464 78.8856C184.433 78.9954 184.433 79.1051 184.448 79.2305Z" fill="black"/>
<path d="M189.858 75.4523C189.858 75.3426 189.905 75.2642 189.952 75.2015C189.999 75.1544 190.062 75.123 190.124 75.123C190.187 75.123 190.234 75.1544 190.297 75.2015C190.344 75.2485 190.391 75.3269 190.391 75.4209C190.391 75.515 190.422 75.6875 190.438 75.9697C190.438 76.2362 190.469 76.5498 190.485 76.9104C190.485 77.271 190.516 77.6473 190.516 78.0549C190.516 78.4626 190.532 78.8545 190.532 79.2308C190.532 79.3562 190.532 79.4974 190.516 79.6071C190.516 79.7326 190.501 79.8423 190.501 79.9677C190.501 80.0931 190.501 80.2029 190.501 80.3126C190.501 80.4224 190.516 80.5478 190.563 80.6733C190.595 80.8144 190.579 80.9398 190.501 81.0339C190.422 81.1279 190.328 81.175 190.187 81.1593C189.968 81.1436 189.827 81.0652 189.733 80.9241C189.639 80.783 189.592 80.6105 189.576 80.4224C189.576 80.2186 189.576 80.0147 189.592 79.7796C189.623 79.5444 189.639 79.3406 189.67 79.1367C189.67 79.0897 189.67 78.98 189.686 78.8388C189.686 78.6821 189.686 78.5096 189.701 78.2901C189.701 78.0706 189.717 77.8354 189.733 77.5846C189.733 77.318 189.748 77.0672 189.764 76.8164C189.764 76.5498 189.795 76.3146 189.811 76.0795C189.827 75.8443 189.842 75.6404 189.858 75.468V75.4523Z" fill="black"/>
<path d="M193.916 77.5215C193.79 78.2897 193.68 78.9012 193.602 79.3716C193.524 79.8419 193.461 80.2025 193.43 80.469C193.398 80.7356 193.367 80.908 193.351 81.0178C193.336 81.1275 193.336 81.1903 193.336 81.2216C193.336 81.253 193.336 81.2843 193.336 81.2843C193.336 81.2843 193.32 81.3471 193.304 81.4254C193.273 81.5352 193.21 81.6136 193.148 81.6606C193.085 81.7077 193.006 81.7233 192.928 81.7077C192.85 81.7077 192.787 81.6763 192.74 81.6292C192.677 81.5822 192.646 81.5195 192.646 81.4411C192.646 81.3627 192.615 81.2843 192.615 81.2059C192.615 81.1275 192.615 81.0491 192.615 80.9551C192.63 80.814 192.646 80.6886 192.646 80.5475C192.646 80.4064 192.646 80.2809 192.693 80.1398C192.818 79.5283 192.912 78.9953 193.006 78.5719C193.101 78.1486 193.179 77.7723 193.242 77.4744C193.304 77.1765 193.351 76.9257 193.383 76.7375C193.414 76.5494 193.445 76.3926 193.461 76.2672C193.461 76.1418 193.477 76.032 193.477 75.938C193.477 75.8439 193.461 75.7498 193.43 75.6401C193.398 75.5303 193.414 75.4363 193.461 75.3422C193.508 75.2481 193.571 75.201 193.649 75.1697C193.727 75.1383 193.806 75.1383 193.884 75.1697C193.963 75.2167 194.025 75.2951 194.057 75.4362C194.166 75.8125 194.292 76.1888 194.433 76.5651C194.574 76.9414 194.715 77.3177 194.872 77.694C195.028 78.0702 195.185 78.4465 195.342 78.8071C195.499 79.1834 195.655 79.544 195.796 79.9046C195.843 79.9046 195.875 79.9046 195.89 79.8576C195.906 79.8106 195.922 79.7321 195.922 79.5753C195.922 79.4186 195.938 79.1834 195.953 78.8698C195.953 78.5563 195.985 78.1173 196.032 77.5372C196.063 77.0982 196.094 76.7219 196.11 76.4396C196.126 76.1574 196.157 75.9223 196.188 75.7498C196.22 75.5773 196.267 75.4519 196.329 75.3578C196.392 75.2638 196.47 75.1854 196.564 75.1227C196.69 75.0599 196.8 75.0443 196.894 75.0913C196.988 75.1384 197.035 75.2324 197.05 75.3735C197.05 75.5303 197.05 75.7028 197.05 75.8752C197.05 76.0477 197.035 76.2045 197.003 76.377C196.956 76.8787 196.909 77.3176 196.894 77.7096C196.862 78.1016 196.847 78.4779 196.831 78.8385C196.815 79.1991 196.784 79.591 196.753 79.9673C196.721 80.3593 196.674 80.7983 196.611 81.3C196.611 81.3941 196.564 81.4724 196.517 81.5352C196.47 81.5979 196.392 81.6449 196.314 81.6763C196.235 81.7076 196.141 81.7233 196.047 81.7077C195.953 81.7077 195.859 81.6449 195.781 81.5822C195.624 81.4568 195.483 81.3 195.373 81.0962C195.263 80.8923 195.138 80.6415 195.013 80.3436C194.887 80.0457 194.746 79.6694 194.605 79.2461C194.448 78.8071 194.276 78.2897 194.057 77.6783C194.057 77.6469 194.025 77.6156 194.025 77.5999C194.025 77.5685 193.978 77.5372 193.931 77.5058L193.916 77.5215Z" fill="black"/>
<path d="M201.784 75.1696C201.893 75.1696 202.003 75.1696 202.097 75.1696C202.207 75.1696 202.301 75.2167 202.395 75.2951C202.52 75.4048 202.583 75.5146 202.614 75.6243C202.646 75.7341 202.614 75.8438 202.567 75.9379C202.52 76.032 202.426 76.1103 202.317 76.1574C202.207 76.2044 202.082 76.2201 201.94 76.2044C201.549 76.1417 201.251 76.0946 201.047 76.0476C200.859 76.0162 200.718 75.9849 200.64 75.9849C200.561 75.9849 200.53 75.9849 200.53 76.0006V76.1103C200.53 76.3769 200.53 76.6277 200.53 76.8943C200.53 77.1608 200.546 77.4116 200.53 77.6782C200.53 77.7566 200.53 77.8193 200.53 77.8507C200.53 77.882 200.577 77.9134 200.64 77.9134C200.702 77.9134 200.796 77.9447 200.937 77.9447C201.078 77.9447 201.267 77.9761 201.533 78.0074C201.658 78.0074 201.752 78.0545 201.831 78.1015C201.909 78.1485 201.956 78.2113 201.987 78.274C202.019 78.3367 202.019 78.4151 201.987 78.4778C201.972 78.5405 201.909 78.6032 201.831 78.6346C201.784 78.666 201.705 78.6816 201.611 78.6973C201.517 78.6973 201.408 78.713 201.298 78.713C201.188 78.713 201.094 78.713 200.984 78.713C200.875 78.713 200.796 78.713 200.749 78.6973C200.624 78.6816 200.561 78.6816 200.53 78.6973C200.498 78.7286 200.483 78.7914 200.483 78.9168C200.483 79.1363 200.451 79.3401 200.42 79.5439C200.389 79.7478 200.373 79.9672 200.373 80.1711C200.373 80.2495 200.373 80.3435 200.342 80.4219C200.31 80.5003 200.326 80.5944 200.342 80.6885C200.357 80.7669 200.389 80.8296 200.404 80.8296C200.42 80.8296 200.483 80.8296 200.561 80.8296C200.781 80.8139 200.969 80.7982 201.11 80.7825C201.251 80.7825 201.361 80.7669 201.455 80.7669C201.549 80.7669 201.611 80.7669 201.674 80.7825C201.737 80.7825 201.784 80.8296 201.862 80.8609C202.003 80.9236 202.082 81.049 202.082 81.1902C202.082 81.3469 202.003 81.4567 201.846 81.5508C201.799 81.5665 201.752 81.5978 201.705 81.5978C201.658 81.5978 201.564 81.6135 201.455 81.6135C201.345 81.6135 201.188 81.6135 200.984 81.5821C200.781 81.5664 200.514 81.5351 200.169 81.5194C200.138 81.5194 200.091 81.5194 200.028 81.5194C199.966 81.5194 199.887 81.5194 199.809 81.5194C199.73 81.5194 199.652 81.5194 199.574 81.5194C199.495 81.5194 199.417 81.5194 199.37 81.5194C199.276 81.5194 199.198 81.4567 199.166 81.394C199.135 81.3313 199.135 81.2529 199.198 81.1745C199.229 81.1275 199.245 81.0648 199.245 80.9864C199.245 80.908 199.245 80.7826 199.245 80.6414C199.245 80.5003 199.245 80.3278 199.245 80.124C199.245 79.9202 199.276 79.685 199.323 79.4028C199.37 79.1363 199.417 78.8227 199.464 78.4464C199.511 78.0701 199.558 77.7096 199.589 77.3489C199.621 76.9883 199.652 76.6748 199.683 76.4239C199.715 76.1574 199.73 76.0163 199.73 75.9849C199.746 75.8595 199.73 75.7811 199.699 75.7497C199.652 75.7184 199.605 75.6556 199.558 75.5616C199.511 75.4832 199.495 75.4048 199.511 75.3421C199.527 75.2794 199.574 75.2167 199.652 75.1853C199.683 75.1853 199.73 75.154 199.762 75.1383C199.793 75.1226 199.84 75.1069 199.887 75.1069H200.922C201.063 75.1069 201.204 75.1069 201.345 75.1069C201.486 75.1069 201.627 75.1069 201.799 75.1069L201.784 75.1696Z" fill="black"/>
</g>
</g>
<defs>
<linearGradient id="paint0_linear_5928_16341" x1="224.354" y1="152.92" x2="224.354" y2="67.4247" gradientUnits="userSpaceOnUse">
<stop offset="0.02" stop-color="#FF8547"/>
<stop offset="1" stop-color="#FFB834"/>
</linearGradient>
<clipPath id="clip0_5928_16341">
<path d="M0 0H360V160H0V0Z" fill="white"/>
</clipPath>
<clipPath id="clip1_5928_16341">
<rect width="362" height="187" fill="white" transform="translate(-17 -13)"/>
</clipPath>
</defs>
</svg>
