<svg width="360" height="160" viewBox="0 0 360 160" fill="none" xmlns="http://www.w3.org/2000/svg">
<g clip-path="url(#clip0_5928_16118)">
<path d="M0 0H360V160H0V0Z" fill="#DADEF5"/>
<rect width="390" height="197" transform="translate(-18 -19)" fill="#2B357A"/>
<g clip-path="url(#clip1_5928_16118)">
<path d="M1175.92 -318.377H-423.343V1067.54H1175.92V-318.377Z" fill="#40C2B0" stroke="#40C2B0" stroke-miterlimit="10"/>
<path d="M356.152 -318.911V1067.38" stroke="#66CEC0" stroke-width="3" stroke-miterlimit="10"/>
<path d="M271.951 -318.911V1067.38" stroke="#66CEC0" stroke-width="3" stroke-miterlimit="10"/>
<path d="M231.661 -318.911V1067.38" stroke="#66CEC0" stroke-width="3" stroke-miterlimit="10"/>
<path d="M251.798 -318.911V1067.38" stroke="#66CEC0" stroke-width="15.01" stroke-miterlimit="10"/>
<path d="M147.463 -318.911V1067.38" stroke="#66CEC0" stroke-width="3" stroke-miterlimit="10"/>
<path d="M107.168 -318.911V1067.38" stroke="#66CEC0" stroke-width="3" stroke-miterlimit="10"/>
<path d="M127.307 -318.911V1067.38" stroke="#66CEC0" stroke-width="15.01" stroke-miterlimit="10"/>
<path d="M22.9697 -318.911V1067.38" stroke="#66CEC0" stroke-width="3" stroke-miterlimit="10"/>
<path d="M2.81433 -318.911V1067.38" stroke="#66CEC0" stroke-width="15.01" stroke-miterlimit="10"/>
<path fill-rule="evenodd" clip-rule="evenodd" d="M-23.3497 1117.65V-147.241L731.312 -129.938L715.734 1120.61L-23.3497 1117.65Z" fill="#20285C"/>
<path fill-rule="evenodd" clip-rule="evenodd" d="M-23.3497 1117.65V-147.241L731.312 -129.938L715.734 1120.61L-23.3497 1117.65Z" fill="black" fill-opacity="0.2"/>
<path fill-rule="evenodd" clip-rule="evenodd" d="M221.587 1092.8L669.776 1094L697 -102.055L45 -104L67.9215 1092.4L221.587 1092.8Z" fill="#2B357A"/>
<path fill-rule="evenodd" clip-rule="evenodd" d="M38.6079 147.142L665.654 150.599V188.085L38.4302 186.305L38.6079 147.142Z" fill="white"/>
<path d="M315.131 51.7349V149.709C315.427 150.006 405.356 150.11 405.356 150.11L405.623 51.7349H315.131Z" fill="white"/>
<path d="M334.916 131.753L334.546 51.7349H315.118L315.029 149.368C315.103 149.294 405.521 150.11 405.521 150.288L405.344 145.302C396.755 145.48 334.635 145.331 334.902 131.753H334.916Z" fill="#F6F6F6"/>
<path d="M406.027 51.156C406.027 53.5304 385.769 55.4448 360.773 55.4448C335.777 55.4448 315.52 53.5155 315.52 51.156C315.52 48.7964 335.777 46.8672 360.773 46.8672C385.769 46.8672 406.027 48.7964 406.027 51.156Z" fill="#E7E6E6"/>
<path d="M375.193 50.9327C375.193 51.6895 368.737 52.298 360.77 52.298C352.803 52.298 346.347 51.6895 346.347 50.9327C346.347 50.1758 352.803 49.5674 360.77 49.5674C368.737 49.5674 375.193 50.1758 375.193 50.9327Z" fill="#C6C5C6"/>
<path fill-rule="evenodd" clip-rule="evenodd" d="M201.525 144.159L199.348 67.1387H244.705L242.839 144.144C242.78 146.325 241.018 148.047 238.841 148.047H205.523C203.361 148.047 201.584 146.325 201.525 144.159Z" fill="url(#paint0_linear_5928_16118)"/>
<path fill-rule="evenodd" clip-rule="evenodd" d="M197.259 70.7301H246.866L246.911 60.8911C246.911 59.1549 245.578 57.745 243.919 57.7599L199.999 58.1457C198.34 58.1457 197.022 59.6 197.052 61.3363L197.259 70.7301Z" fill="white"/>
<path d="M204.19 70.7596L203.924 58.7688L204.397 58.7095L204.664 70.7002L204.19 70.7596Z" fill="#D5D5D6"/>
<path d="M208.618 70.7741L208.351 58.4123L208.81 58.3232L209.092 70.6851L208.618 70.7741Z" fill="#D5D5D6"/>
<path d="M212.721 70.7743L212.41 58.3976L212.884 58.3086L213.195 70.6852L212.721 70.7743Z" fill="#D5D5D6"/>
<path d="M216.927 58.3389H216.453V70.7303H216.927V58.3389Z" fill="#D5D5D6"/>
<path d="M220.777 58.2046H220.303V70.7296H220.777V58.2046Z" fill="#D5D5D6"/>
<path d="M225.394 70.7745L224.92 70.6855L225.039 58.1011L225.513 58.1753L225.394 70.7745Z" fill="#D5D5D6"/>
<path d="M200.369 70.7745L200.132 58.6353L200.606 58.5166L200.843 70.6706L200.369 70.7745Z" fill="#D5D5D6"/>
<path d="M229.928 70.4331L229.647 58.0713L230.121 57.9971L230.402 70.344L229.928 70.4331Z" fill="#D5D5D6"/>
<path d="M234.031 70.4333L233.72 58.0566L234.194 57.9824L234.505 70.3442L234.031 70.4333Z" fill="#D5D5D6"/>
<path d="M238.219 57.9971H237.745V70.3886H238.219V57.9971Z" fill="#D5D5D6"/>
<path d="M242.069 57.8638H241.595V70.3888H242.069V57.8638Z" fill="#D5D5D6"/>
<path fill-rule="evenodd" clip-rule="evenodd" d="M202.281 106.688L202.962 139.44C203.006 141.666 204.606 143.535 206.782 143.936C213.268 145.108 226.921 146.83 237.79 143.209C239.641 142.601 240.9 140.864 240.945 138.92L241.759 109.967L202.281 106.702V106.688Z" fill="#FFA835"/>
<path fill-rule="evenodd" clip-rule="evenodd" d="M200.164 92.7974H244.084L243.344 123.041L200.948 124.021L200.164 92.7974Z" fill="white"/>
<g opacity="0.5" style="mix-blend-mode:multiply">
<path fill-rule="evenodd" clip-rule="evenodd" d="M208.973 94.251L209.299 96.3138L235.036 96.5512L235.48 94.251H208.973Z" fill="#E5E5E5"/>
</g>
<g opacity="0.5" style="mix-blend-mode:multiply">
<path fill-rule="evenodd" clip-rule="evenodd" d="M198.266 70.6259L198.769 72.1099H245.414L245.888 70.4033" fill="#E5E5E5"/>
</g>
<path d="M245.239 70.4329L244.765 70.3587L244.883 58.1602L245.357 58.2344L245.239 70.4329Z" fill="#D5D5D6"/>
<path d="M204.264 100.306H204.916L206.175 102.102L207.433 100.306H208.085V103.808H207.211V102.131L206.338 103.363H206.012L205.138 102.131V103.808H204.279V100.306H204.264Z" fill="black"/>
<path d="M209.772 100.306V103.808H208.884V100.306H209.772Z" fill="black"/>
<path d="M210.293 103.259L210.737 102.606C211.004 102.874 211.345 103.052 211.73 103.052C211.922 103.052 212.129 102.977 212.129 102.799C212.129 102.681 212.011 102.592 211.848 102.532C211.641 102.458 211.345 102.384 211.093 102.25C210.782 102.087 210.515 101.82 210.515 101.345C210.515 100.737 211.048 100.262 211.818 100.262C212.248 100.262 212.692 100.395 213.062 100.707L212.648 101.375C212.44 101.197 212.085 101.093 211.833 101.093C211.582 101.093 211.463 101.197 211.463 101.315C211.463 101.464 211.611 101.523 211.744 101.568C211.922 101.642 212.218 101.731 212.455 101.835C212.825 101.998 213.122 102.25 213.122 102.755C213.122 103.393 212.588 103.868 211.744 103.868C211.167 103.868 210.678 103.645 210.323 103.259H210.293Z" fill="black"/>
<path d="M213.521 102.057C213.521 101.048 214.306 100.247 215.342 100.247C216.379 100.247 217.164 101.048 217.164 102.057C217.164 103.066 216.379 103.853 215.342 103.853C214.306 103.853 213.521 103.051 213.521 102.057ZM216.26 102.057C216.26 101.508 215.846 101.122 215.342 101.122C214.839 101.122 214.424 101.508 214.424 102.057C214.424 102.606 214.824 102.992 215.342 102.992C215.86 102.992 216.26 102.591 216.26 102.057Z" fill="black"/>
<path d="M220.495 101.523C220.495 102.161 220.11 102.71 219.118 102.71H218.674V103.808H217.785V100.306H219.177C220.125 100.306 220.495 100.9 220.495 101.523ZM219.592 101.508C219.592 101.286 219.429 101.108 219.192 101.108H218.688V101.909H219.177C219.473 101.909 219.607 101.716 219.607 101.508H219.592Z" fill="black"/>
<path d="M222.286 102.651H221.945V103.808H221.057V100.306H222.508C223.381 100.306 223.781 100.84 223.781 101.464C223.781 101.879 223.604 102.295 223.145 102.502L223.9 103.794H222.893L222.286 102.636V102.651ZM221.93 101.879H222.463C222.76 101.879 222.878 101.686 222.878 101.493C222.878 101.3 222.745 101.122 222.493 101.122H221.93V101.879Z" fill="black"/>
<path d="M224.27 102.057C224.27 101.048 225.055 100.247 226.092 100.247C227.128 100.247 227.913 101.048 227.913 102.057C227.913 103.066 227.128 103.853 226.092 103.853C225.055 103.853 224.27 103.051 224.27 102.057ZM227.01 102.057C227.01 101.508 226.595 101.122 226.092 101.122C225.588 101.122 225.174 101.508 225.174 102.057C225.174 102.606 225.573 102.992 226.092 102.992C226.61 102.992 227.01 102.591 227.01 102.057Z" fill="black"/>
<path d="M228.224 103.259L228.668 102.606C228.934 102.874 229.275 103.052 229.66 103.052C229.853 103.052 230.06 102.977 230.06 102.799C230.06 102.681 229.941 102.592 229.778 102.532C229.571 102.458 229.275 102.384 229.023 102.25C228.712 102.087 228.446 101.82 228.446 101.345C228.446 100.737 228.979 100.262 229.749 100.262C230.178 100.262 230.623 100.395 230.993 100.707L230.578 101.375C230.371 101.197 230.015 101.093 229.764 101.093C229.512 101.093 229.393 101.197 229.393 101.315C229.393 101.464 229.542 101.523 229.675 101.568C229.852 101.642 230.149 101.731 230.386 101.835C230.756 101.998 231.052 102.25 231.052 102.755C231.052 103.393 230.519 103.868 229.675 103.868C229.097 103.868 228.609 103.645 228.253 103.259H228.224Z" fill="black"/>
<path d="M231.304 101.167V100.321H234.132V101.167H233.17V103.809H232.281V101.167H231.319H231.304Z" fill="black"/>
<path d="M234.384 102.057C234.384 101.048 235.169 100.247 236.205 100.247C237.242 100.247 238.027 101.048 238.027 102.057C238.027 103.066 237.242 103.853 236.205 103.853C235.169 103.853 234.384 103.051 234.384 102.057ZM237.108 102.057C237.108 101.508 236.694 101.122 236.19 101.122C235.687 101.122 235.272 101.508 235.272 102.057C235.272 102.606 235.672 102.992 236.19 102.992C236.709 102.992 237.108 102.591 237.108 102.057Z" fill="black"/>
<path d="M238.65 100.306H239.539V102.963H241.227V103.808H238.65V100.306Z" fill="black"/>
<path d="M233.734 113.336C233.734 111.659 234.223 109.922 232.816 108.72C232.816 108.72 232.831 108.616 232.757 108.557C231.809 107.874 230.551 107.726 229.41 107.696C218.497 107.444 189.503 107.563 178.56 107.503V107.533C173.954 107.489 168.727 107.118 164.226 107.459C162.967 107.548 161.708 107.978 161.501 109.388C161.16 111.777 161.323 114.701 161.323 117.15C161.323 124.733 161.427 129.719 161.501 137.332C161.516 139.795 161.353 142.407 161.442 144.841C161.471 145.598 161.782 146.473 162.33 146.993C162.463 147.112 162.626 147.126 162.715 147.186C164.077 148.15 165.218 147.824 166.758 147.854C171.096 147.928 175.45 147.913 179.833 147.928V147.898C187.992 147.943 214.217 148.017 222.421 148.047C224.864 148.047 227.663 148.225 230.092 148.061C230.995 148.002 231.676 147.794 232.372 147.245C234.164 145.835 233.616 143.476 233.631 141.487C233.749 131.248 233.779 123.605 233.734 113.365V113.336Z" fill="#C6C5C6"/>
<path d="M168.934 121.987C169.2 121.082 169.393 120.147 169.526 119.227C169.689 118.144 169.822 117.016 169.867 115.932C169.926 114.33 169.867 112.682 169.274 111.154C172.962 110.961 174.561 114.834 174.531 117.016C174.502 119.197 172.606 122.818 168.934 121.987Z" fill="#DDDDDD"/>
<path d="M168.931 121.988C163.289 120.711 163.615 111.451 169.272 111.154C169.864 112.698 169.923 114.345 169.864 115.933C169.82 117.016 169.686 118.144 169.523 119.227C169.39 120.147 169.198 121.082 168.931 121.988Z" fill="#E5E4E5"/>
<path d="M167.881 140.597C168.148 139.692 168.34 138.757 168.473 137.837C168.636 136.753 168.77 135.626 168.814 134.542C168.873 132.94 168.814 131.292 168.222 129.764C171.909 129.571 173.508 133.444 173.479 135.626C173.449 137.807 171.553 141.428 167.881 140.597Z" fill="#DDDDDD"/>
<path d="M167.883 140.597C162.241 139.321 162.566 130.06 168.223 129.764C168.815 131.307 168.875 132.954 168.816 134.542C168.771 135.626 168.638 136.753 168.475 137.837C168.342 138.757 168.149 139.692 167.883 140.597Z" fill="#E5E4E5"/>
<path d="M223.487 139.677C223.753 138.772 223.946 137.837 224.079 136.917C224.242 135.834 224.375 134.706 224.42 133.622C224.479 132.02 224.42 130.372 223.827 128.844C227.515 128.651 229.114 132.524 229.084 134.706C229.055 136.887 227.159 140.508 223.487 139.677Z" fill="#DDDDDD"/>
<path d="M223.484 139.677C217.842 138.4 218.168 129.14 223.825 128.843C224.417 130.387 224.476 132.034 224.417 133.622C224.373 134.705 224.239 135.833 224.076 136.916C223.943 137.836 223.751 138.771 223.484 139.677Z" fill="#E5E4E5"/>
<path d="M222.686 121.987C222.952 121.082 223.145 120.147 223.278 119.227C223.441 118.144 223.574 117.016 223.618 115.932C223.678 114.33 223.618 112.682 223.026 111.154C226.713 110.961 228.313 114.834 228.283 117.016C228.253 119.197 226.358 122.818 222.686 121.987Z" fill="#DDDDDD"/>
<path d="M222.687 121.988C217.045 120.711 217.371 111.451 223.027 111.154C223.62 112.698 223.679 114.345 223.62 115.933C223.575 117.016 223.442 118.144 223.279 119.227C223.146 120.147 222.953 121.082 222.687 121.988Z" fill="#E5E4E5"/>
<path d="M194.061 133.132L199.348 117.921C209.536 121.246 204.412 136.813 194.061 133.132Z" fill="#DDDDDD"/>
<path d="M194.061 133.132C184.184 129.615 189.174 114.597 199.348 117.921L194.061 133.132Z" fill="#E5E4E5"/>
<path opacity="0.1" d="M233.806 118.604C233.806 118.604 229.157 132.272 220.005 137.421C202.902 147.038 161.824 147.156 161.824 147.156C163.216 148.121 164.105 148.017 165.675 148.047C169.998 148.121 179.002 147.898 179.002 147.898C187.398 147.943 227.631 148.225 230.104 148.062C231.022 148.002 231.704 147.794 232.429 147.245C234.251 145.836 233.688 143.476 233.717 141.487C233.836 131.248 233.821 119.895 233.821 118.619L233.806 118.604Z" fill="#868686"/>
<path fill-rule="evenodd" clip-rule="evenodd" d="M117.77 147.542L113.121 85.5255L195.246 84.7241L193.277 148.091L117.77 147.542Z" fill="#72E1F1"/>
<path fill-rule="evenodd" clip-rule="evenodd" d="M114.173 100.439L194.877 96.5811L193.737 135.729L116.972 136.56L114.173 100.439Z" fill="white"/>
<path fill-rule="evenodd" clip-rule="evenodd" d="M131.378 101.122L177.402 99.3857L177.416 101.612L131.393 103.096L131.378 101.122Z" fill="#E1E1E1"/>
<path fill-rule="evenodd" clip-rule="evenodd" d="M125.056 131.574L137.169 131.114L137.184 132.539L125.071 132.851L125.056 131.574Z" fill="#E1E1E1"/>
<path fill-rule="evenodd" clip-rule="evenodd" d="M124.716 129.111L136.829 128.651L136.843 130.076L124.73 130.372L124.716 129.111Z" fill="#E1E1E1"/>
<path d="M174.971 143.12L138.501 143.515L138.517 145.014L174.987 144.618L174.971 143.12Z" fill="#E1E1E1"/>
<path fill-rule="evenodd" clip-rule="evenodd" d="M144.929 125.92L143.671 112.861L167.674 112.341L166.505 125.683L144.929 125.92Z" fill="#C6F2F9"/>
<path d="M136.859 106.168H137.51L138.769 107.964L140.028 106.168H140.679V109.671H139.805V107.994L138.932 109.226H138.606L137.732 107.994V109.671H136.873V106.168H136.859Z" fill="black"/>
<path d="M142.366 106.168V109.671H141.478V106.168H142.366Z" fill="black"/>
<path d="M143.183 106.168H145.656V106.999H144.057V107.577H145.464V108.394H144.057V109.655H143.168V106.153L143.183 106.168Z" fill="black"/>
<path d="M146.249 106.168H148.766V106.985H147.137V107.504H148.647V108.32H147.137V108.855H148.766V109.671H146.249V106.168Z" fill="black"/>
<path d="M152.186 107.385C152.186 108.023 151.801 108.573 150.809 108.573H150.365V109.671H149.476V106.168H150.868C151.816 106.168 152.186 106.762 152.186 107.385ZM151.283 107.385C151.283 107.163 151.12 106.985 150.883 106.985H150.379V107.786H150.868C151.164 107.786 151.297 107.593 151.297 107.385H151.283Z" fill="black"/>
<path d="M153.961 108.513H153.62V109.671H152.732V106.168H154.183C155.057 106.168 155.456 106.703 155.456 107.326C155.456 107.742 155.279 108.157 154.82 108.365L155.575 109.656H154.568L153.961 108.498V108.513ZM153.62 107.742H154.153C154.449 107.742 154.568 107.549 154.568 107.356C154.568 107.163 154.435 106.985 154.183 106.985H153.62V107.742Z" fill="black"/>
<path d="M157.057 106.168V109.671H156.169V106.168H157.057Z" fill="black"/>
<path d="M157.576 109.121L158.02 108.468C158.287 108.735 158.628 108.913 159.013 108.913C159.205 108.913 159.412 108.839 159.412 108.661C159.412 108.543 159.294 108.453 159.131 108.394C158.924 108.32 158.628 108.246 158.376 108.112C158.065 107.949 157.798 107.682 157.798 107.207C157.798 106.598 158.331 106.124 159.101 106.124C159.531 106.124 159.975 106.257 160.345 106.569L159.931 107.237C159.723 107.058 159.368 106.955 159.116 106.955C158.864 106.955 158.746 107.058 158.746 107.177C158.746 107.326 158.894 107.385 159.027 107.429C159.205 107.504 159.501 107.593 159.738 107.697C160.108 107.86 160.405 108.112 160.405 108.617C160.405 109.255 159.871 109.73 159.027 109.73C158.45 109.73 157.961 109.507 157.606 109.121H157.576Z" fill="black"/>
<path d="M160.656 107.029V106.183H163.485V107.029H162.522V109.671H161.634V107.029H160.671H160.656Z" fill="black"/>
<path d="M163.719 107.919C163.719 106.91 164.503 106.108 165.54 106.108C166.576 106.108 167.361 106.91 167.361 107.919C167.361 108.928 166.576 109.715 165.54 109.715C164.503 109.715 163.719 108.913 163.719 107.919ZM166.458 107.919C166.458 107.37 166.043 106.984 165.54 106.984C165.036 106.984 164.622 107.37 164.622 107.919C164.622 108.468 165.022 108.854 165.54 108.854C166.058 108.854 166.458 108.453 166.458 107.919Z" fill="black"/>
<path d="M171.124 106.168V109.671H170.458L168.873 107.801V109.671H168.015V106.168H168.651L170.265 108.068V106.168H171.139H171.124Z" fill="black"/>
<path d="M171.924 106.168H174.441V106.985H172.813V107.504H174.323V108.32H172.813V108.855H174.441V109.671H171.924V106.168Z" fill="black"/>
<path d="M80.1154 23.5827C76.5022 24.6808 74.666 27.8715 74.666 30.8989V34.9502C74.666 35.8554 75.3916 36.5826 76.2949 36.5826H104.504C108.28 36.5826 273.686 36.1968 273.686 36.1968C273.686 36.1968 287.28 35.8109 288.79 35.8109C290.301 35.8109 290.686 31.2699 289.175 28.6135C287.665 25.9571 287.665 24.0724 281.623 22.9297C275.582 21.787 224.982 22.9297 224.982 22.9297C224.982 22.9297 82.1145 22.9594 80.1302 23.5678L80.1154 23.5827Z" fill="white"/>
<path opacity="0.2" d="M75.1553 36.034L84.8842 39.0614C84.8842 39.0614 88.0679 77.0817 89.0749 78.5954C90.0818 80.109 91.9328 80.9549 92.2586 82.2905C92.5844 83.6261 98.626 142.541 99.1295 143.372C99.633 144.203 100.151 147.513 106.356 147.513C112.56 147.513 262.98 148.344 262.98 148.344C262.98 148.344 265.305 148.73 266.149 145.865C266.993 143.001 269.511 116.096 269.511 116.096L272.695 81.9492C272.695 81.9492 275.553 81.786 276.219 78.254C276.885 74.7221 280.75 37.3844 280.75 37.3844L288.465 35.7075L75.1405 36.0488L75.1553 36.034Z" fill="#F6F6F6"/>
<path opacity="0.1" d="M84.8522 38.6008C84.8522 38.6008 90.7754 68.2513 96.9356 74.9293C103.718 82.2752 147.031 81.2364 147.031 81.2364C146.32 81.7261 115.312 81.5777 114.513 81.5925C112.306 81.6222 107.731 81.5183 107.731 81.5183C103.451 81.5332 93.5742 81.7706 92.3155 81.6815C91.8416 81.6519 89.9165 79.6782 89.5463 79.3962C88.6134 78.669 88.5542 76.0275 88.2581 73.846C87.5621 68.6816 84.8374 39.2389 84.8374 38.5859L84.8522 38.6008Z" fill="#C6C5C6"/>
<path opacity="0.1" d="M280.779 37.4585C280.779 37.4585 274.442 68.7117 268.281 75.4046C261.499 82.7505 218.186 81.7116 218.186 81.7116C218.897 82.2014 249.905 82.053 250.704 82.0678C252.911 82.0975 257.486 81.9936 257.486 81.9936C261.766 82.0085 271.613 81.9936 272.872 81.9936C273.923 81.9936 275.019 80.7619 275.374 80.4799C276.307 79.7527 276.663 76.0576 276.959 73.8761C277.655 68.7117 280.779 38.1263 280.779 37.4733V37.4585Z" fill="#C6C5C6"/>
<path d="M208.084 65.2837H154.464V88.9982H208.084V65.2837Z" fill="#F6F6F6"/>
<path d="M166.727 75.1079C166.727 75.1079 166.638 75.182 166.579 75.2859C166.519 75.3898 166.445 75.5085 166.356 75.6569C166.282 75.8053 166.194 75.9686 166.105 76.1467C166.016 76.3248 165.942 76.5028 165.868 76.6661C165.794 76.8442 165.735 76.9925 165.66 77.1409C165.586 77.2893 165.557 77.3932 165.527 77.4674C165.498 77.5416 165.468 77.6158 165.438 77.7197C165.409 77.8236 165.379 77.9126 165.364 78.0165C165.335 78.1204 165.32 78.1946 165.29 78.2837C165.261 78.3579 165.246 78.4024 165.231 78.4321C165.127 78.6101 164.979 78.6992 164.816 78.6992C164.639 78.6992 164.505 78.5953 164.387 78.4024C164.239 78.1352 164.135 77.9423 164.061 77.8236C163.987 77.7049 163.943 77.601 163.913 77.5416C163.883 77.4823 163.854 77.4229 163.839 77.3932C163.824 77.3636 163.795 77.2893 163.75 77.1855C163.706 77.0816 163.632 76.948 163.543 76.7551C163.454 76.5622 163.306 76.2951 163.128 75.9389C163.099 75.8795 163.069 75.8202 163.054 75.7608C163.039 75.7015 162.995 75.6421 162.921 75.5976C162.891 75.6273 162.877 75.6866 162.877 75.7757C162.877 75.8647 162.877 76.0131 162.891 76.2209C162.891 76.4286 162.891 76.6957 162.891 77.0519C162.891 77.4081 162.847 77.8384 162.788 78.3578C162.773 78.5211 162.758 78.6398 162.743 78.7437C162.728 78.8476 162.728 78.9218 162.714 78.9811C162.714 79.0553 162.714 79.1147 162.699 79.1741C162.699 79.2334 162.699 79.3224 162.684 79.4263C162.684 79.5302 162.669 79.6638 162.654 79.8122C162.64 79.9606 162.625 80.1832 162.61 80.4503C162.61 80.5987 162.551 80.7174 162.462 80.7916C162.373 80.8658 162.255 80.8955 162.092 80.8807C162.003 80.8807 161.929 80.8064 161.87 80.7174C161.81 80.6135 161.781 80.5245 161.781 80.4354C161.781 80.1535 161.781 79.8864 161.81 79.6638C161.84 79.4412 161.855 79.1889 161.884 78.9069C161.914 78.6249 161.944 78.2985 161.973 77.9127C162.003 77.5268 162.018 77.0371 162.018 76.4286C162.018 75.9686 162.047 75.5827 162.106 75.2859C162.166 74.9891 162.195 74.7517 162.21 74.5736V74.4846C162.21 74.4846 162.21 74.3807 162.225 74.3362C162.225 74.2768 162.269 74.2323 162.299 74.1729C162.343 74.1284 162.403 74.0839 162.477 74.0542C162.58 74.0097 162.669 74.0246 162.773 74.0691C162.877 74.1136 162.965 74.2026 163.054 74.3065C163.143 74.4104 163.217 74.5142 163.291 74.633C163.365 74.7517 163.424 74.8704 163.484 74.9594C163.587 75.1524 163.676 75.3008 163.75 75.4343C163.824 75.5531 163.883 75.6569 163.943 75.746C164.002 75.835 164.046 75.9092 164.091 75.9834C164.135 76.0576 164.18 76.1467 164.239 76.2357C164.283 76.3396 164.343 76.4583 164.402 76.5919C164.461 76.7254 164.55 76.9035 164.653 77.1261C164.653 77.141 164.683 77.1706 164.683 77.2003C164.683 77.23 164.713 77.2448 164.742 77.2448C164.772 77.2448 164.802 77.2448 164.816 77.2003L164.861 77.1261C164.994 76.8738 165.098 76.6512 165.172 76.4732C165.261 76.2951 165.335 76.1318 165.394 75.9834C165.453 75.8499 165.512 75.7163 165.572 75.6124C165.631 75.4937 165.69 75.3898 165.764 75.2711C165.838 75.1524 165.912 75.0337 166.016 74.9001C166.105 74.7666 166.223 74.6033 166.371 74.4104C166.519 74.2174 166.682 74.1284 166.86 74.1284C167.038 74.1284 167.171 74.2175 167.26 74.3807C167.304 74.4549 167.334 74.5142 167.349 74.5884C167.363 74.6626 167.393 74.7369 167.408 74.8556C167.423 74.9595 167.452 75.1079 167.467 75.2711C167.482 75.4492 167.511 75.6718 167.526 75.9537C167.556 76.3248 167.6 76.7254 167.645 77.1409C167.689 77.5565 167.704 78.0017 167.689 78.4617C167.689 78.5953 167.689 78.7288 167.689 78.8772C167.689 79.0256 167.689 79.1592 167.719 79.2928C167.719 79.367 167.719 79.456 167.719 79.5302C167.719 79.6044 167.689 79.6935 167.719 79.7677C167.719 79.9012 167.748 80.0496 167.778 80.2128C167.808 80.3761 167.778 80.5542 167.719 80.7471C167.689 80.8362 167.63 80.9103 167.571 80.94C167.497 80.9845 167.437 80.9994 167.363 80.9845C167.289 80.9845 167.23 80.9549 167.171 80.9103C167.112 80.8658 167.082 80.8213 167.052 80.7619C167.008 80.6135 166.964 80.4503 166.904 80.3019C166.86 80.1535 166.815 79.9903 166.815 79.8122C166.801 79.5302 166.801 79.2483 166.815 78.9811C166.83 78.714 166.845 78.4321 166.83 78.1501C166.83 77.7494 166.83 77.4229 166.83 77.1558C166.83 76.8887 166.83 76.6809 166.815 76.5177C166.815 76.3544 166.815 76.2208 166.801 76.117C166.786 76.0131 166.801 75.9389 166.801 75.8647V75.2859C166.801 75.2859 166.786 75.1969 166.756 75.1672L166.727 75.1079Z" fill="black"/>
<path d="M172.413 74.4548C172.517 74.4548 172.62 74.4548 172.709 74.4548C172.813 74.4548 172.902 74.4994 172.991 74.5736C173.109 74.6775 173.168 74.7813 173.198 74.8852C173.227 74.9891 173.198 75.093 173.153 75.182C173.109 75.2711 173.02 75.3452 172.917 75.3898C172.813 75.4343 172.694 75.4491 172.561 75.4343C172.191 75.3749 171.91 75.3304 171.717 75.2859C171.539 75.2562 171.406 75.2265 171.332 75.2265C171.258 75.2265 171.228 75.2265 171.228 75.2414V75.3452C171.228 75.5975 171.228 75.835 171.228 76.0873C171.228 76.3395 171.243 76.577 171.228 76.8293C171.228 76.9035 171.228 76.9628 171.228 76.9925C171.228 77.0222 171.273 77.0519 171.332 77.0519C171.391 77.0519 171.48 77.0816 171.613 77.0816C171.747 77.0816 171.924 77.1112 172.176 77.1409C172.295 77.1409 172.383 77.1854 172.457 77.2299C172.532 77.2744 172.576 77.3338 172.606 77.3932C172.635 77.4525 172.635 77.5268 172.606 77.5861C172.591 77.6455 172.532 77.7048 172.457 77.7345C172.413 77.7642 172.339 77.779 172.25 77.7939C172.161 77.7939 172.058 77.8087 171.954 77.8087C171.85 77.8087 171.761 77.8087 171.658 77.8087C171.554 77.8087 171.48 77.8087 171.436 77.7939C171.317 77.779 171.258 77.779 171.228 77.7939C171.199 77.8235 171.184 77.8829 171.184 78.0016C171.184 78.2094 171.154 78.4023 171.125 78.5952C171.095 78.7882 171.08 78.9959 171.08 79.1888C171.08 79.263 171.08 79.3521 171.051 79.4263C171.021 79.5005 171.036 79.5895 171.051 79.6786C171.066 79.7528 171.095 79.8121 171.11 79.8121C171.125 79.8121 171.184 79.8121 171.258 79.8121C171.465 79.7973 171.643 79.7825 171.776 79.7676C171.91 79.7676 172.013 79.7528 172.102 79.7528C172.191 79.7528 172.25 79.7528 172.309 79.7676C172.369 79.7676 172.413 79.8121 172.487 79.8418C172.62 79.9012 172.694 80.0199 172.694 80.1534C172.694 80.3018 172.62 80.4057 172.472 80.4948C172.428 80.5096 172.383 80.5393 172.339 80.5393C172.295 80.5393 172.206 80.5541 172.102 80.5541C171.998 80.5541 171.85 80.5541 171.658 80.5244C171.465 80.5096 171.214 80.4799 170.888 80.4651C170.858 80.4651 170.814 80.4651 170.755 80.4651C170.695 80.4651 170.621 80.4651 170.547 80.4651C170.473 80.4651 170.399 80.4651 170.325 80.4651C170.251 80.4651 170.177 80.4651 170.133 80.4651C170.044 80.4651 169.97 80.4057 169.94 80.3464C169.91 80.287 169.911 80.2128 169.97 80.1386C169.999 80.0941 170.014 80.0347 170.014 79.9605C170.014 79.8863 170.014 79.7676 170.014 79.6341C170.014 79.5005 170.014 79.3372 170.014 79.1443C170.014 78.9514 170.044 78.7288 170.088 78.4617C170.133 78.2094 170.177 77.9126 170.221 77.5564C170.266 77.2002 170.31 76.859 170.34 76.5176C170.37 76.1763 170.399 75.8795 170.429 75.6421C170.458 75.3898 170.473 75.2562 170.473 75.2265C170.488 75.1078 170.473 75.0336 170.444 75.0039C170.399 74.9742 170.355 74.9149 170.31 74.8258C170.266 74.7516 170.251 74.6775 170.266 74.6181C170.281 74.5587 170.325 74.4994 170.399 74.4697C170.429 74.4697 170.473 74.44 170.503 74.4252C170.532 74.4103 170.577 74.3955 170.621 74.3955H171.599C171.732 74.3955 171.865 74.3955 171.998 74.3955C172.132 74.3955 172.265 74.3955 172.428 74.3955L172.413 74.4548Z" fill="black"/>
<path d="M175.018 77.5272C175.033 77.0968 175.033 76.6665 175.018 76.2361C175.004 75.8058 175.018 75.3902 175.063 74.9599C175.063 74.8115 175.137 74.6779 175.27 74.5592C175.359 74.485 175.463 74.4256 175.566 74.3663C175.67 74.3069 175.788 74.2772 175.907 74.2476C176.159 74.203 176.396 74.203 176.633 74.2179C176.869 74.2327 177.106 74.2921 177.343 74.396C177.447 74.4405 177.551 74.4998 177.669 74.574C177.788 74.6482 177.891 74.7225 177.995 74.8115C178.099 74.9005 178.202 74.9896 178.291 75.0786C178.38 75.1676 178.439 75.2715 178.498 75.3754C178.528 75.4496 178.572 75.5386 178.632 75.6128C178.691 75.687 178.72 75.7761 178.75 75.8651C178.78 75.9838 178.809 76.1026 178.839 76.2213C178.869 76.34 178.883 76.4736 178.883 76.5923C178.883 76.9039 178.854 77.2156 178.75 77.5272C178.646 77.8388 178.498 78.1357 178.321 78.4176C178.143 78.6847 177.936 78.937 177.699 79.1448C177.462 79.3525 177.24 79.5158 177.003 79.6197C176.869 79.679 176.721 79.7235 176.603 79.7532C176.47 79.7829 176.351 79.8126 176.248 79.8274C176.144 79.8422 176.04 79.8719 175.951 79.8868C175.862 79.9016 175.788 79.9313 175.729 79.961C175.7 79.9758 175.655 79.9907 175.596 80.0055C175.537 80.0055 175.477 80.0055 175.433 80.0055C175.374 80.0055 175.329 80.0055 175.285 79.9758C175.241 79.9758 175.211 79.9462 175.196 79.9165C175.167 79.8423 175.122 79.7532 175.063 79.6938C175.004 79.6196 174.989 79.5306 175.004 79.4416C175.004 79.3377 175.018 79.1151 175.004 78.7886C175.004 78.4473 175.004 78.0318 175.033 77.5272H175.018ZM176.262 74.9005C176.262 74.9005 176.159 74.8708 176.099 74.8857C176.04 74.8857 175.996 74.8857 175.937 74.9005C175.803 74.9005 175.714 74.945 175.67 75.0044C175.626 75.0637 175.611 75.1528 175.626 75.2863C175.655 75.6425 175.7 75.969 175.729 76.2658C175.759 76.5626 175.788 76.8446 175.818 77.1265C175.848 77.3937 175.862 77.6756 175.877 77.9576C175.877 78.2395 175.892 78.5363 175.892 78.8777C175.892 78.9815 175.907 79.0409 175.951 79.0706C175.996 79.1003 176.055 79.1003 176.159 79.0706C176.44 78.9964 176.692 78.8777 176.899 78.6847C177.106 78.5067 177.299 78.2989 177.462 78.0615C177.536 77.9428 177.595 77.824 177.669 77.7053C177.728 77.5866 177.788 77.4679 177.847 77.3491C177.936 77.1562 177.995 76.9633 177.995 76.7555C177.995 76.5478 177.98 76.3548 177.921 76.1619C177.862 75.969 177.773 75.7909 177.654 75.6277C177.536 75.4644 177.388 75.316 177.225 75.2122C177.077 75.1083 176.929 75.0341 176.766 74.9747C176.603 74.9153 176.44 74.8857 176.248 74.9005H176.262Z" fill="black"/>
<path d="M180.853 74.7223C180.853 74.6184 180.897 74.5442 180.942 74.4849C180.986 74.4404 181.045 74.4106 181.105 74.4106C181.164 74.4106 181.208 74.4404 181.268 74.4849C181.312 74.5294 181.356 74.6036 181.356 74.6926C181.356 74.7817 181.386 74.9449 181.401 75.212C181.401 75.4643 181.431 75.7611 181.445 76.1024C181.445 76.4438 181.475 76.7999 181.475 77.1857C181.475 77.5716 181.49 77.9426 181.49 78.2987C181.49 78.4175 181.49 78.5511 181.475 78.6549C181.475 78.7737 181.46 78.8775 181.46 78.9962C181.46 79.1149 181.46 79.2188 181.46 79.3227C181.46 79.4266 181.475 79.5453 181.519 79.664C181.549 79.7976 181.534 79.9163 181.46 80.0054C181.386 80.0944 181.297 80.1389 181.164 80.1241C180.957 80.1092 180.823 80.0351 180.735 79.9015C180.646 79.7679 180.601 79.6047 180.586 79.4266C180.586 79.2337 180.586 79.0408 180.601 78.8182C180.631 78.5956 180.646 78.4026 180.675 78.2097C180.675 78.1652 180.675 78.0613 180.69 77.9277C180.69 77.7793 180.69 77.6161 180.705 77.4084C180.705 77.2006 180.72 76.978 180.735 76.7405C180.735 76.4883 180.749 76.2508 180.764 76.0134C180.764 75.7611 180.794 75.5385 180.809 75.3159C180.823 75.0933 180.838 74.9004 180.853 74.7371V74.7223Z" fill="black"/>
<path d="M184.318 78.2982C184.289 78.4615 184.318 78.6099 184.378 78.7137C184.452 78.8325 184.555 78.9364 184.659 79.0254C184.703 79.0699 184.792 79.0848 184.911 79.0996C185.029 79.1144 185.163 79.1145 185.311 79.1145C185.459 79.1145 185.592 79.1145 185.71 79.1145C185.844 79.1145 185.933 79.0996 185.992 79.0847C186.169 79.0254 186.332 78.9809 186.495 78.9364C186.658 78.8919 186.806 78.8177 186.969 78.7435C187.102 78.6841 187.206 78.6544 187.31 78.6841C187.413 78.7138 187.473 78.7583 187.502 78.8473C187.532 78.9215 187.502 79.0254 187.458 79.1441C187.413 79.2628 187.28 79.3964 187.088 79.53C186.836 79.7081 186.569 79.8565 186.273 79.9603C185.992 80.0642 185.681 80.1236 185.355 80.1384C185.177 80.1384 185.029 80.1384 184.896 80.1384C184.763 80.1384 184.644 80.1087 184.526 80.0642C184.407 80.0345 184.304 79.9752 184.2 79.9158C184.096 79.8565 183.993 79.7822 183.874 79.6932C183.741 79.5745 183.623 79.4409 183.519 79.2925C183.415 79.1441 183.371 78.9661 183.341 78.788C183.297 78.3873 183.341 78.0014 183.43 77.6601C183.534 77.3039 183.697 76.9775 183.904 76.651C184.111 76.3394 184.363 76.0426 184.659 75.7754C184.955 75.5083 185.266 75.2708 185.607 75.0482C185.74 74.9592 185.888 74.885 186.051 74.8256C186.199 74.7663 186.362 74.7515 186.54 74.7515C186.614 74.7515 186.688 74.7663 186.762 74.7811C186.836 74.7811 186.895 74.8257 186.954 74.885C187.014 74.9444 187.058 75.0037 187.058 75.0779C187.058 75.1521 187.058 75.2115 187.014 75.2709C186.969 75.3302 186.925 75.3599 186.895 75.3451C186.865 75.3451 186.806 75.3154 186.747 75.3005C186.688 75.2857 186.599 75.3005 186.495 75.3005C186.392 75.3302 186.244 75.4044 186.051 75.5528C185.873 75.6864 185.71 75.8199 185.533 75.9832C185.355 76.1464 185.192 76.3096 185.044 76.4877C184.896 76.6658 184.763 76.8588 184.644 77.0665C184.526 77.2743 184.452 77.4672 184.407 77.675C184.378 77.7788 184.348 77.8679 184.333 77.9717C184.304 78.0756 184.304 78.1795 184.318 78.2982Z" fill="black"/>
<path d="M189.429 74.7223C189.429 74.6184 189.474 74.5442 189.518 74.4849C189.563 74.4404 189.622 74.4106 189.681 74.4106C189.74 74.4106 189.785 74.4404 189.844 74.4849C189.888 74.5294 189.933 74.6036 189.933 74.6926C189.933 74.7817 189.962 74.9449 189.977 75.212C189.977 75.4643 190.007 75.7611 190.022 76.1024C190.022 76.4438 190.051 76.7999 190.051 77.1857C190.051 77.5716 190.066 77.9426 190.066 78.2987C190.066 78.4175 190.066 78.5511 190.051 78.6549C190.051 78.7737 190.037 78.8775 190.037 78.9962C190.037 79.1149 190.037 79.2188 190.037 79.3227C190.037 79.4266 190.051 79.5453 190.096 79.664C190.125 79.7976 190.111 79.9163 190.037 80.0054C189.962 80.0944 189.874 80.1389 189.74 80.1241C189.533 80.1092 189.4 80.0351 189.311 79.9015C189.222 79.7679 189.178 79.6047 189.163 79.4266C189.163 79.2337 189.163 79.0408 189.178 78.8182C189.207 78.5956 189.222 78.4026 189.252 78.2097C189.252 78.1652 189.252 78.0613 189.267 77.9277C189.267 77.7793 189.266 77.6161 189.281 77.4084C189.281 77.2006 189.296 76.978 189.311 76.7405C189.311 76.4883 189.326 76.2508 189.341 76.0134C189.341 75.7611 189.37 75.5385 189.385 75.3159C189.4 75.0933 189.415 74.9004 189.429 74.7371V74.7223Z" fill="black"/>
<path d="M193.263 76.6806C193.144 77.4077 193.041 77.9865 192.967 78.4317C192.893 78.8769 192.833 79.2182 192.804 79.4705C192.774 79.7228 192.744 79.8861 192.73 79.9899C192.715 80.0938 192.715 80.1532 192.715 80.1829C192.715 80.2125 192.715 80.2422 192.715 80.2422C192.715 80.2422 192.7 80.3016 192.685 80.3758C192.656 80.4797 192.596 80.5539 192.537 80.5984C192.478 80.6429 192.404 80.6577 192.33 80.6429C192.256 80.6429 192.197 80.6132 192.152 80.5687C192.093 80.5242 192.063 80.4648 192.063 80.3906C192.063 80.3164 192.034 80.2422 192.034 80.168C192.034 80.0938 192.034 80.0196 192.034 79.9306C192.048 79.797 192.063 79.6783 192.063 79.5447C192.063 79.4112 192.063 79.2925 192.108 79.1589C192.226 78.5801 192.315 78.0756 192.404 77.6749C192.493 77.2742 192.567 76.918 192.626 76.6361C192.685 76.3541 192.73 76.1167 192.759 75.9386C192.789 75.7605 192.818 75.6121 192.833 75.4934C192.833 75.3747 192.848 75.2708 192.848 75.1818C192.848 75.0927 192.833 75.0037 192.804 74.8998C192.774 74.7959 192.789 74.7069 192.833 74.6178C192.878 74.5288 192.937 74.4842 193.011 74.4546C193.085 74.4249 193.159 74.4249 193.233 74.4546C193.307 74.4991 193.366 74.5733 193.396 74.7069C193.5 75.063 193.618 75.4192 193.751 75.7754C193.885 76.1315 194.018 76.4877 194.166 76.8438C194.314 77.2 194.462 77.5562 194.61 77.8975C194.758 78.2536 194.906 78.595 195.04 78.9363C195.084 78.9363 195.114 78.9363 195.129 78.8918C195.143 78.8473 195.158 78.773 195.158 78.6246C195.158 78.4762 195.173 78.2537 195.188 77.9568C195.188 77.66 195.217 77.2445 195.262 76.6954C195.291 76.2799 195.321 75.9237 195.336 75.6566C195.351 75.3895 195.38 75.1669 195.41 75.0036C195.44 74.8404 195.484 74.7217 195.543 74.6326C195.602 74.5436 195.676 74.4694 195.765 74.41C195.884 74.3507 195.987 74.3359 196.076 74.3804C196.165 74.4249 196.21 74.5139 196.224 74.6475C196.224 74.7959 196.224 74.9591 196.224 75.1224C196.224 75.2856 196.21 75.434 196.18 75.5973C196.135 76.0722 196.091 76.4877 196.076 76.8587C196.047 77.2297 196.032 77.5858 196.017 77.9271C196.002 78.2685 195.973 78.6395 195.943 78.9956C195.913 79.3666 195.869 79.7822 195.81 80.257C195.81 80.3461 195.765 80.4203 195.721 80.4796C195.676 80.539 195.602 80.5835 195.528 80.6132C195.454 80.6429 195.366 80.6577 195.277 80.6429C195.188 80.6429 195.099 80.5835 195.025 80.5242C194.877 80.4054 194.744 80.257 194.64 80.0641C194.536 79.8712 194.418 79.6338 194.299 79.3518C194.181 79.0699 194.048 78.7137 193.914 78.313C193.766 77.8975 193.603 77.4078 193.396 76.829C193.396 76.7993 193.366 76.7696 193.366 76.7548C193.366 76.7251 193.322 76.6954 193.278 76.6658L193.263 76.6806Z" fill="black"/>
<path d="M200.696 74.4548C200.8 74.4548 200.904 74.4548 200.992 74.4548C201.096 74.4548 201.185 74.4994 201.274 74.5736C201.392 74.6775 201.451 74.7813 201.481 74.8852C201.511 74.9891 201.481 75.093 201.437 75.182C201.392 75.2711 201.303 75.3452 201.2 75.3898C201.096 75.4343 200.978 75.4491 200.844 75.4343C200.474 75.3749 200.193 75.3304 200 75.2859C199.823 75.2562 199.689 75.2265 199.615 75.2265C199.541 75.2265 199.512 75.2265 199.512 75.2414V75.3452C199.512 75.5975 199.512 75.835 199.512 76.0873C199.512 76.3395 199.526 76.577 199.512 76.8293C199.512 76.9035 199.512 76.9628 199.512 76.9925C199.512 77.0222 199.556 77.0519 199.615 77.0519C199.675 77.0519 199.763 77.0816 199.897 77.0816C200.03 77.0816 200.208 77.1112 200.459 77.1409C200.578 77.1409 200.667 77.1854 200.741 77.2299C200.815 77.2744 200.859 77.3338 200.889 77.3932C200.918 77.4525 200.918 77.5268 200.889 77.5861C200.874 77.6455 200.815 77.7048 200.741 77.7345C200.696 77.7642 200.622 77.779 200.533 77.7939C200.445 77.7939 200.341 77.8087 200.237 77.8087C200.134 77.8087 200.045 77.8087 199.941 77.8087C199.837 77.8087 199.763 77.8087 199.719 77.7939C199.6 77.779 199.541 77.779 199.512 77.7939C199.482 77.8235 199.467 77.8829 199.467 78.0016C199.467 78.2094 199.438 78.4023 199.408 78.5952C199.378 78.7882 199.364 78.9959 199.364 79.1888C199.364 79.263 199.364 79.3521 199.334 79.4263C199.304 79.5005 199.319 79.5895 199.334 79.6786C199.349 79.7528 199.378 79.8121 199.393 79.8121C199.408 79.8121 199.467 79.8121 199.541 79.8121C199.749 79.7973 199.926 79.7825 200.059 79.7676C200.193 79.7676 200.296 79.7528 200.385 79.7528C200.474 79.7528 200.533 79.7528 200.593 79.7676C200.652 79.7676 200.696 79.8121 200.77 79.8418C200.904 79.9012 200.978 80.0199 200.978 80.1534C200.978 80.3018 200.904 80.4057 200.755 80.4948C200.711 80.5096 200.667 80.5393 200.622 80.5393C200.578 80.5393 200.489 80.5541 200.385 80.5541C200.282 80.5541 200.134 80.5541 199.941 80.5244C199.749 80.5096 199.497 80.4799 199.171 80.4651C199.141 80.4651 199.097 80.4651 199.038 80.4651C198.979 80.4651 198.904 80.4651 198.83 80.4651C198.756 80.4651 198.682 80.4651 198.608 80.4651C198.534 80.4651 198.46 80.4651 198.416 80.4651C198.327 80.4651 198.253 80.4057 198.223 80.3464C198.194 80.287 198.194 80.2128 198.253 80.1386C198.283 80.0941 198.297 80.0347 198.297 79.9605C198.297 79.8863 198.297 79.7676 198.297 79.6341C198.297 79.5005 198.297 79.3372 198.297 79.1443C198.297 78.9514 198.327 78.7288 198.371 78.4617C198.416 78.2094 198.46 77.9126 198.505 77.5564C198.549 77.2002 198.594 76.859 198.623 76.5176C198.653 76.1763 198.682 75.8795 198.712 75.6421C198.742 75.3898 198.756 75.2562 198.756 75.2265C198.771 75.1078 198.756 75.0336 198.727 75.0039C198.682 74.9742 198.638 74.9149 198.594 74.8258C198.549 74.7516 198.534 74.6775 198.549 74.6181C198.564 74.5587 198.608 74.4994 198.682 74.4697C198.712 74.4697 198.756 74.44 198.786 74.4252C198.816 74.4103 198.86 74.3955 198.904 74.3955H199.882C200.015 74.3955 200.148 74.3955 200.282 74.3955C200.415 74.3955 200.548 74.3955 200.711 74.3955L200.696 74.4548Z" fill="black"/>
</g>
</g>
<defs>
<linearGradient id="paint0_linear_5928_16118" x1="222.019" y1="148.047" x2="222.019" y2="67.1238" gradientUnits="userSpaceOnUse">
<stop offset="0.02" stop-color="#FF8547"/>
<stop offset="1" stop-color="#FFB834"/>
</linearGradient>
<clipPath id="clip0_5928_16118">
<path d="M0 0H360V160H0V0Z" fill="white"/>
</clipPath>
<clipPath id="clip1_5928_16118">
<rect width="403" height="177" fill="white" transform="translate(-17 -9)"/>
</clipPath>
</defs>
</svg>
