<svg width="360" height="160" viewBox="0 0 360 160" fill="none" xmlns="http://www.w3.org/2000/svg">
<g clip-path="url(#clip0_5928_16341)">
<path d="M0 0H360V160H0V0Z" fill="#DADEF5"/>
<g clip-path="url(#clip1_5928_16341)">
<path d="M1293.16 -368.335H-493.155V1174.18H1293.16V-368.335Z" fill="#40C2B0" stroke="#40C2B0" stroke-miterlimit="10"/>
<path d="M283.46 -368.93V1174" stroke="#66CEC0" stroke-width="3" stroke-miterlimit="10"/>
<path d="M238.457 -368.93V1174" stroke="#66CEC0" stroke-width="3" stroke-miterlimit="10"/>
<path d="M260.95 -368.93V1174" stroke="#66CEC0" stroke-width="15.01" stroke-miterlimit="10"/>
<path d="M144.411 -368.93V1174" stroke="#66CEC0" stroke-width="3" stroke-miterlimit="10"/>
<path d="M99.4037 -368.93V1174" stroke="#66CEC0" stroke-width="3" stroke-miterlimit="10"/>
<path d="M121.899 -368.93V1174" stroke="#66CEC0" stroke-width="15.01" stroke-miterlimit="10"/>
<path d="M5.358 -368.93V1174" stroke="#66CEC0" stroke-width="3" stroke-miterlimit="10"/>
<path fill-rule="evenodd" clip-rule="evenodd" d="M185.669 1202.29L725.436 1203.63L758.222 -127.569L-27 -129.734L0.605004 1201.85L185.669 1202.29Z" fill="#DADEF5"/>
<g opacity="0.32">
<path d="M69.1873 12.2641C65.1516 13.4864 63.1006 17.0375 63.1006 20.407V24.9161C63.1006 25.9236 63.9111 26.733 64.92 26.733H96.4287C100.646 26.733 285.398 26.3035 285.398 26.3035C285.398 26.3035 300.582 25.8741 302.269 25.8741C303.956 25.8741 304.386 20.8199 302.699 17.8634C301.012 14.9069 301.012 12.8092 294.263 11.5374C287.515 10.2656 230.998 11.5374 230.998 11.5374C230.998 11.5374 71.4203 11.5704 69.2039 12.2476L69.1873 12.2641Z" fill="#2B357A"/>
<path d="M63.6472 26.1227L74.5139 29.4921C74.5139 29.4921 78.07 71.8085 79.1947 73.4932C80.3195 75.1779 82.3869 76.1194 82.7508 77.6059C83.1147 79.0924 89.863 144.665 90.4254 145.59C90.9877 146.515 91.5666 150.198 98.4969 150.198C105.427 150.198 273.44 151.123 273.44 151.123C273.44 151.123 276.037 151.552 276.98 148.364C277.923 145.177 280.734 115.231 280.734 115.231L284.29 77.226C284.29 77.226 287.483 77.0443 288.227 73.1133C288.971 69.1823 293.288 27.6257 293.288 27.6257L301.905 25.7593L63.6306 26.1392L63.6472 26.1227Z" fill="#2B357A"/>
</g>
<path fill-rule="evenodd" clip-rule="evenodd" d="M204.797 146.465L202.365 60.7417H253.027L250.943 146.448C250.877 148.876 248.909 150.792 246.478 150.792H209.263C206.848 150.792 204.863 148.876 204.797 146.465Z" fill="url(#paint0_linear_5928_16341)"/>
<path fill-rule="evenodd" clip-rule="evenodd" d="M200.032 64.7392H255.441L255.491 53.7884C255.491 51.8559 254.002 50.2868 252.15 50.3034L203.092 50.7328C201.24 50.7328 199.768 52.3514 199.801 54.2839L200.032 64.7392Z" fill="white"/>
<path d="M207.774 64.7721L207.476 51.4264L208.005 51.3604L208.303 64.706L207.774 64.7721Z" fill="#D5D5D6"/>
<path d="M212.719 64.7879L212.422 51.0293L212.934 50.9302L213.249 64.6888L212.719 64.7879Z" fill="#D5D5D6"/>
<path d="M217.303 64.7883L216.955 51.0132L217.485 50.9141L217.832 64.6892L217.303 64.7883Z" fill="#D5D5D6"/>
<path d="M222.001 50.9478H221.471V64.7394H222.001V50.9478Z" fill="#D5D5D6"/>
<path d="M226.3 50.7983H225.771V64.7387H226.3V50.7983Z" fill="#D5D5D6"/>
<path d="M231.458 64.7886L230.929 64.6895L231.061 50.6831L231.59 50.7657L231.458 64.7886Z" fill="#D5D5D6"/>
<path d="M203.505 64.7885L203.241 51.2776L203.77 51.1455L204.035 64.6729L203.505 64.7885Z" fill="#D5D5D6"/>
<path d="M236.522 64.4086L236.208 50.65L236.737 50.5674L237.052 64.3095L236.522 64.4086Z" fill="#D5D5D6"/>
<path d="M241.105 64.409L240.757 50.6339L241.287 50.5513L241.634 64.3099L241.105 64.409Z" fill="#D5D5D6"/>
<path d="M245.783 50.5674H245.253V64.359H245.783V50.5674Z" fill="#D5D5D6"/>
<path d="M250.082 50.4189H249.553V64.3592H250.082V50.4189Z" fill="#D5D5D6"/>
<path fill-rule="evenodd" clip-rule="evenodd" d="M205.641 104.76L206.402 141.213C206.452 143.69 208.238 145.771 210.669 146.217C217.914 147.522 233.164 149.438 245.304 145.408C247.371 144.731 248.777 142.798 248.827 140.635L249.737 108.41L205.641 104.776V104.76Z" fill="#FFA835"/>
<path fill-rule="evenodd" clip-rule="evenodd" d="M203.276 89.2998H252.334L251.507 122.961L204.153 124.051L203.276 89.2998Z" fill="white"/>
<g opacity="0.5" style="mix-blend-mode:multiply">
<path fill-rule="evenodd" clip-rule="evenodd" d="M213.116 90.918L213.48 93.2138L242.227 93.4781L242.723 90.918H213.116Z" fill="#E5E5E5"/>
</g>
<g opacity="0.5" style="mix-blend-mode:multiply">
<path fill-rule="evenodd" clip-rule="evenodd" d="M201.156 64.6232L201.719 66.2749H253.82L254.349 64.3755" fill="#E5E5E5"/>
</g>
<path d="M253.623 64.4085L253.094 64.326L253.226 50.749L253.755 50.8316L253.623 64.4085Z" fill="#D5D5D6"/>
<path d="M207.857 97.6572H208.584L209.99 99.6558L211.396 97.6572H212.124V101.555H211.148V99.6888L210.172 101.06H209.808L208.833 99.6888V101.555H207.873V97.6572H207.857Z" fill="black"/>
<path d="M214.009 97.6572V101.555H213.016V97.6572H214.009Z" fill="black"/>
<path d="M214.591 100.944L215.087 100.218C215.385 100.515 215.765 100.713 216.195 100.713C216.41 100.713 216.642 100.63 216.642 100.432C216.642 100.3 216.509 100.201 216.327 100.135C216.096 100.052 215.765 99.9698 215.484 99.8212C215.137 99.6395 214.839 99.3422 214.839 98.8136C214.839 98.1364 215.434 97.6079 216.294 97.6079C216.774 97.6079 217.27 97.7565 217.684 98.1034L217.221 98.8467C216.989 98.6485 216.592 98.5329 216.311 98.5329C216.03 98.5329 215.897 98.6485 215.897 98.7806C215.897 98.9458 216.063 99.0119 216.212 99.0614C216.41 99.144 216.741 99.2431 217.005 99.3587C217.419 99.5404 217.75 99.8212 217.75 100.383C217.75 101.093 217.154 101.622 216.212 101.622C215.567 101.622 215.021 101.374 214.624 100.944H214.591Z" fill="black"/>
<path d="M218.196 99.6059C218.196 98.4827 219.072 97.5908 220.23 97.5908C221.388 97.5908 222.265 98.4827 222.265 99.6059C222.265 100.729 221.388 101.604 220.23 101.604C219.072 101.604 218.196 100.713 218.196 99.6059ZM221.256 99.6059C221.256 98.9948 220.792 98.5653 220.23 98.5653C219.668 98.5653 219.205 98.9948 219.205 99.6059C219.205 100.217 219.651 100.646 220.23 100.646C220.809 100.646 221.256 100.2 221.256 99.6059Z" fill="black"/>
<path d="M225.986 99.0116C225.986 99.7219 225.556 100.333 224.447 100.333H223.951V101.555H222.959V97.6572H224.514C225.572 97.6572 225.986 98.3179 225.986 99.0116ZM224.977 98.9951C224.977 98.7473 224.795 98.5492 224.53 98.5492H223.968V99.441H224.514C224.844 99.441 224.993 99.2263 224.993 98.9951H224.977Z" fill="black"/>
<path d="M227.986 100.267H227.605V101.555H226.613V97.6572H228.234C229.21 97.6572 229.656 98.2518 229.656 98.9455C229.656 99.408 229.458 99.8705 228.945 100.102L229.789 101.539H228.664L227.986 100.25V100.267ZM227.589 99.408H228.184C228.515 99.408 228.647 99.1933 228.647 98.9786C228.647 98.7638 228.499 98.5656 228.217 98.5656H227.589V99.408Z" fill="black"/>
<path d="M230.202 99.6059C230.202 98.4827 231.079 97.5908 232.237 97.5908C233.395 97.5908 234.271 98.4827 234.271 99.6059C234.271 100.729 233.395 101.604 232.237 101.604C231.079 101.604 230.202 100.713 230.202 99.6059ZM233.262 99.6059C233.262 98.9948 232.799 98.5653 232.237 98.5653C231.675 98.5653 231.211 98.9948 231.211 99.6059C231.211 100.217 231.658 100.646 232.237 100.646C232.816 100.646 233.262 100.2 233.262 99.6059Z" fill="black"/>
<path d="M234.618 100.944L235.114 100.218C235.412 100.515 235.793 100.713 236.223 100.713C236.438 100.713 236.669 100.63 236.669 100.432C236.669 100.3 236.537 100.201 236.355 100.135C236.123 100.052 235.792 99.9698 235.511 99.8212C235.164 99.6395 234.866 99.3422 234.866 98.8136C234.866 98.1364 235.462 97.6079 236.322 97.6079C236.801 97.6079 237.298 97.7565 237.711 98.1034L237.248 98.8467C237.016 98.6485 236.619 98.5329 236.338 98.5329C236.057 98.5329 235.925 98.6485 235.925 98.7806C235.925 98.9458 236.09 99.0119 236.239 99.0614C236.438 99.144 236.768 99.2431 237.033 99.3587C237.447 99.5404 237.777 99.8212 237.777 100.383C237.777 101.093 237.182 101.622 236.239 101.622C235.594 101.622 235.048 101.374 234.651 100.944H234.618Z" fill="black"/>
<path d="M238.059 98.6153V97.6738H241.218V98.6153H240.143V101.555H239.15V98.6153H238.075H238.059Z" fill="black"/>
<path d="M241.499 99.6059C241.499 98.4827 242.375 97.5908 243.533 97.5908C244.691 97.5908 245.568 98.4827 245.568 99.6059C245.568 100.729 244.691 101.604 243.533 101.604C242.375 101.604 241.499 100.713 241.499 99.6059ZM244.542 99.6059C244.542 98.9948 244.079 98.5653 243.517 98.5653C242.954 98.5653 242.491 98.9948 242.491 99.6059C242.491 100.217 242.938 100.646 243.517 100.646C244.096 100.646 244.542 100.2 244.542 99.6059Z" fill="black"/>
<path d="M246.264 97.6572H247.257V100.614H249.142V101.555H246.264V97.6572Z" fill="black"/>
<path d="M240.774 112.159C240.774 110.292 241.319 108.36 239.748 107.022C239.748 107.022 239.765 106.906 239.682 106.84C238.623 106.081 237.217 105.915 235.944 105.882C223.754 105.602 191.369 105.734 179.146 105.668V105.701C174.002 105.651 168.163 105.238 163.135 105.618C161.729 105.717 160.323 106.196 160.092 107.765C159.711 110.425 159.893 113.678 159.893 116.404C159.893 124.844 160.009 130.394 160.092 138.867C160.108 141.609 159.926 144.516 160.025 147.224C160.058 148.067 160.406 149.041 161.018 149.619C161.167 149.751 161.349 149.768 161.448 149.834C162.969 150.908 164.243 150.544 165.963 150.577C170.809 150.66 175.672 150.643 180.568 150.66V150.627C189.682 150.676 218.974 150.759 228.137 150.792C230.866 150.792 233.992 150.99 236.705 150.808C237.714 150.742 238.474 150.511 239.252 149.9C241.253 148.331 240.641 145.705 240.658 143.491C240.79 132.095 240.823 123.589 240.774 112.192V112.159Z" fill="#C6C5C6"/>
<path d="M168.394 121.788C168.692 120.78 168.907 119.74 169.056 118.716C169.237 117.51 169.386 116.255 169.436 115.049C169.502 113.265 169.436 111.432 168.774 109.73C172.893 109.516 174.679 113.827 174.646 116.255C174.613 118.683 172.496 122.713 168.394 121.788Z" fill="#DDDDDD"/>
<path d="M168.391 121.788C162.089 120.368 162.453 110.061 168.771 109.731C169.433 111.449 169.499 113.282 169.433 115.049C169.383 116.255 169.234 117.51 169.053 118.716C168.904 119.74 168.689 120.781 168.391 121.788Z" fill="#E5E4E5"/>
<path d="M167.218 142.501C167.516 141.493 167.731 140.453 167.88 139.428C168.062 138.223 168.21 136.967 168.26 135.762C168.326 133.978 168.26 132.145 167.598 130.443C171.717 130.229 173.503 134.539 173.47 136.967C173.437 139.395 171.32 143.426 167.218 142.501Z" fill="#DDDDDD"/>
<path d="M167.22 142.501C160.918 141.08 161.282 130.774 167.6 130.443C168.262 132.161 168.328 133.995 168.262 135.762C168.212 136.968 168.063 138.223 167.881 139.429C167.732 140.453 167.517 141.493 167.22 142.501Z" fill="#E5E4E5"/>
<path d="M229.327 141.477C229.625 140.469 229.84 139.429 229.989 138.405C230.171 137.199 230.32 135.944 230.369 134.738C230.436 132.954 230.369 131.121 229.708 129.419C233.826 129.205 235.613 133.516 235.58 135.944C235.546 138.372 233.429 142.402 229.327 141.477Z" fill="#DDDDDD"/>
<path d="M229.324 141.476C223.023 140.056 223.387 129.749 229.705 129.419C230.366 131.137 230.433 132.97 230.366 134.737C230.317 135.943 230.168 137.198 229.986 138.404C229.837 139.428 229.622 140.469 229.324 141.476Z" fill="#E5E4E5"/>
<path d="M228.432 121.788C228.73 120.78 228.945 119.74 229.094 118.716C229.276 117.51 229.425 116.255 229.474 115.049C229.541 113.265 229.474 111.432 228.813 109.73C232.931 109.516 234.718 113.827 234.685 116.255C234.651 118.683 232.534 122.713 228.432 121.788Z" fill="#DDDDDD"/>
<path d="M228.434 121.788C222.132 120.368 222.496 110.061 228.814 109.731C229.476 111.449 229.542 113.282 229.476 115.049C229.426 116.255 229.277 117.51 229.095 118.716C228.947 119.74 228.732 120.781 228.434 121.788Z" fill="#E5E4E5"/>
<path d="M196.46 134.193L202.365 117.263C213.745 120.962 208.022 138.289 196.46 134.193Z" fill="#DDDDDD"/>
<path d="M196.46 134.193C185.428 130.278 191.002 113.563 202.365 117.263L196.46 134.193Z" fill="#E5E4E5"/>
<path opacity="0.1" d="M240.854 118.022C240.854 118.022 235.66 133.235 225.439 138.966C206.335 149.669 160.453 149.801 160.453 149.801C162.008 150.875 163 150.759 164.753 150.792C169.583 150.875 179.639 150.627 179.639 150.627C189.018 150.676 233.957 150.99 236.719 150.809C237.744 150.743 238.505 150.511 239.316 149.9C241.35 148.331 240.722 145.705 240.755 143.492C240.887 132.095 240.87 119.459 240.87 118.039L240.854 118.022Z" fill="#868686"/>
<path fill-rule="evenodd" clip-rule="evenodd" d="M111.247 150.231L106.053 81.2064L197.784 80.3145L195.584 150.842L111.247 150.231Z" fill="#72E1F1"/>
<path fill-rule="evenodd" clip-rule="evenodd" d="M107.229 97.8056L197.372 93.5112L196.098 137.083L110.355 138.008L107.229 97.8056Z" fill="white"/>
<path fill-rule="evenodd" clip-rule="evenodd" d="M126.446 98.5653L177.852 96.6328L177.869 99.1104L126.462 100.762L126.446 98.5653Z" fill="#E1E1E1"/>
<path fill-rule="evenodd" clip-rule="evenodd" d="M119.385 132.458L132.914 131.946L132.931 133.532L119.401 133.879L119.385 132.458Z" fill="#E1E1E1"/>
<path fill-rule="evenodd" clip-rule="evenodd" d="M119.004 129.717L132.534 129.205L132.55 130.79L119.02 131.121L119.004 129.717Z" fill="#E1E1E1"/>
<path d="M175.138 145.308L134.402 145.749L134.42 147.417L175.156 146.976L175.138 145.308Z" fill="#E1E1E1"/>
<path fill-rule="evenodd" clip-rule="evenodd" d="M141.582 126.165L140.176 111.63L166.987 111.052L165.681 125.901L141.582 126.165Z" fill="#C6F2F9"/>
<path d="M132.567 104.182H133.295L134.701 106.18L136.107 104.182H136.835V108.08H135.859V106.213L134.883 107.584H134.519L133.543 106.213V108.08H132.584V104.182H132.567Z" fill="black"/>
<path d="M138.719 104.182V108.08H137.727V104.182H138.719Z" fill="black"/>
<path d="M139.632 104.181H142.394V105.106H140.607V105.75H142.179V106.659H140.607V108.063H139.615V104.165L139.632 104.181Z" fill="black"/>
<path d="M143.055 104.182H145.867V105.09H144.048V105.668H145.735V106.577H144.048V107.171H145.867V108.08H143.055V104.182Z" fill="black"/>
<path d="M149.687 105.536C149.687 106.246 149.257 106.857 148.149 106.857H147.653V108.08H146.66V104.182H148.215C149.274 104.182 149.687 104.842 149.687 105.536ZM148.678 105.536C148.678 105.288 148.496 105.09 148.232 105.09H147.669V105.982H148.215C148.546 105.982 148.695 105.767 148.695 105.536H148.678Z" fill="black"/>
<path d="M151.67 106.791H151.289V108.08H150.297V104.182H151.918C152.894 104.182 153.34 104.776 153.34 105.47C153.34 105.932 153.142 106.395 152.629 106.626L153.473 108.063H152.348L151.67 106.775V106.791ZM151.289 105.932H151.885C152.215 105.932 152.348 105.718 152.348 105.503C152.348 105.288 152.199 105.09 151.918 105.09H151.289V105.932Z" fill="black"/>
<path d="M155.128 104.182V108.08H154.136V104.182H155.128Z" fill="black"/>
<path d="M155.708 107.468L156.204 106.742C156.502 107.039 156.882 107.237 157.312 107.237C157.527 107.237 157.759 107.154 157.759 106.956C157.759 106.824 157.627 106.725 157.445 106.659C157.213 106.576 156.882 106.494 156.601 106.345C156.254 106.163 155.956 105.866 155.956 105.338C155.956 104.66 156.551 104.132 157.412 104.132C157.891 104.132 158.387 104.281 158.801 104.627L158.338 105.371C158.106 105.172 157.709 105.057 157.428 105.057C157.147 105.057 157.015 105.172 157.015 105.305C157.015 105.47 157.18 105.536 157.329 105.585C157.527 105.668 157.858 105.767 158.123 105.883C158.536 106.064 158.867 106.345 158.867 106.907C158.867 107.617 158.272 108.145 157.329 108.145C156.684 108.145 156.138 107.898 155.741 107.468H155.708Z" fill="black"/>
<path d="M159.148 105.14V104.198H162.307V105.14H161.232V108.08H160.24V105.14H159.165H159.148Z" fill="black"/>
<path d="M162.569 106.13C162.569 105.007 163.445 104.115 164.603 104.115C165.761 104.115 166.637 105.007 166.637 106.13C166.637 107.253 165.761 108.129 164.603 108.129C163.445 108.129 162.569 107.237 162.569 106.13ZM165.628 106.13C165.628 105.519 165.165 105.09 164.603 105.09C164.041 105.09 163.578 105.519 163.578 106.13C163.578 106.741 164.024 107.171 164.603 107.171C165.182 107.171 165.628 106.725 165.628 106.13Z" fill="black"/>
<path d="M170.841 104.182V108.08H170.096L168.327 105.999V108.08H167.367V104.182H168.078L169.881 106.296V104.182H170.857H170.841Z" fill="black"/>
<path d="M171.734 104.182H174.546V105.09H172.726V105.668H174.413V106.577H172.726V107.171H174.546V108.08H171.734V104.182Z" fill="black"/>
<path d="M69.1873 12.2641C65.1516 13.4864 63.1006 17.0375 63.1006 20.407V24.9161C63.1006 25.9236 63.9111 26.733 64.92 26.733H96.4287C100.646 26.733 285.398 26.3035 285.398 26.3035C285.398 26.3035 300.582 25.8741 302.269 25.8741C303.956 25.8741 304.386 20.8199 302.699 17.8634C301.012 14.9069 301.012 12.8092 294.263 11.5374C287.515 10.2656 230.998 11.5374 230.998 11.5374C230.998 11.5374 71.4203 11.5704 69.2039 12.2476L69.1873 12.2641Z" fill="white"/>
<path opacity="0.14" d="M74.4782 28.9794C74.4782 28.9794 81.0942 61.9802 87.9748 69.4129C95.5501 77.5887 143.93 76.4326 143.93 76.4326C143.136 76.9776 108.501 76.8124 107.608 76.829C105.143 76.862 100.032 76.7464 100.032 76.7464C95.2524 76.7629 84.2203 77.0272 82.8144 76.9281C82.2851 76.895 80.1349 74.6983 79.7214 74.3845C78.6793 73.5751 78.6132 70.6351 78.2824 68.2071C77.505 62.4592 74.4617 29.6896 74.4617 28.9629L74.4782 28.9794Z" fill="#DADEF5"/>
<path opacity="0.14" d="M293.321 27.708C293.321 27.708 286.242 62.4927 279.361 69.9418C271.786 78.1177 223.406 76.9615 223.406 76.9615C224.2 77.5066 258.835 77.3414 259.728 77.3579C262.193 77.3909 267.303 77.2753 267.303 77.2753C272.083 77.2919 283.083 77.2753 284.488 77.2753C285.663 77.2753 286.887 75.9044 287.284 75.5906C288.326 74.7812 288.723 70.6686 289.053 68.2406C289.831 62.4927 293.321 28.4513 293.321 27.7245V27.708Z" fill="#DADEF5"/>
<path d="M212.123 58.6772H152.232V85.0713H212.123V58.6772Z" fill="#F6F6F6"/>
<path d="M165.929 69.6118C165.929 69.6118 165.829 69.6944 165.763 69.81C165.697 69.9256 165.614 70.0577 165.515 70.2229C165.432 70.3881 165.333 70.5698 165.234 70.768C165.135 70.9662 165.052 71.1644 164.969 71.3461C164.887 71.5443 164.82 71.7094 164.738 71.8746C164.655 72.0398 164.622 72.1554 164.589 72.238C164.556 72.3206 164.523 72.4032 164.49 72.5188C164.456 72.6344 164.423 72.7335 164.407 72.8491C164.374 72.9647 164.357 73.0473 164.324 73.1464C164.291 73.229 164.275 73.2786 164.258 73.3116C164.142 73.5098 163.977 73.6089 163.795 73.6089C163.596 73.6089 163.448 73.4933 163.315 73.2785C163.15 72.9812 163.034 72.7665 162.951 72.6344C162.869 72.5023 162.819 72.3866 162.786 72.3206C162.753 72.2545 162.72 72.1884 162.703 72.1554C162.687 72.1224 162.654 72.0398 162.604 71.9241C162.554 71.8085 162.472 71.6599 162.372 71.4452C162.273 71.2305 162.108 70.9331 161.909 70.5367C161.876 70.4707 161.843 70.4046 161.827 70.3385C161.81 70.2725 161.76 70.2064 161.678 70.1569C161.645 70.1899 161.628 70.256 161.628 70.3551C161.628 70.4542 161.628 70.6193 161.645 70.8506C161.645 71.0818 161.645 71.3791 161.645 71.7755C161.645 72.1719 161.595 72.6509 161.529 73.229C161.512 73.4107 161.496 73.5428 161.479 73.6584C161.463 73.7741 161.463 73.8567 161.446 73.9227C161.446 74.0053 161.446 74.0714 161.43 74.1375C161.43 74.2035 161.43 74.3026 161.413 74.4182C161.413 74.5338 161.397 74.6825 161.38 74.8477C161.364 75.0128 161.347 75.2606 161.33 75.5579C161.33 75.7231 161.264 75.8552 161.165 75.9378C161.066 76.0204 160.934 76.0534 160.752 76.0369C160.652 76.0369 160.57 75.9543 160.503 75.8552C160.437 75.7396 160.404 75.6405 160.404 75.5414C160.404 75.2275 160.404 74.9302 160.437 74.6825C160.47 74.4347 160.487 74.1539 160.52 73.8401C160.553 73.5263 160.586 73.1629 160.619 72.7335C160.652 72.3041 160.669 71.759 160.669 71.0818C160.669 70.5698 160.702 70.1403 160.768 69.81C160.834 69.4796 160.867 69.2154 160.884 69.0172V68.9181C160.884 68.9181 160.884 68.8025 160.9 68.7529C160.9 68.6869 160.95 68.6373 160.983 68.5712C161.033 68.5217 161.099 68.4721 161.182 68.4391C161.297 68.3895 161.397 68.4061 161.512 68.4556C161.628 68.5052 161.727 68.6042 161.827 68.7199C161.926 68.8355 162.009 68.9511 162.091 69.0832C162.174 69.2154 162.24 69.3475 162.306 69.4466C162.422 69.6613 162.521 69.8265 162.604 69.9752C162.687 70.1073 162.753 70.2229 162.819 70.322C162.885 70.4211 162.935 70.5037 162.984 70.5863C163.034 70.6689 163.084 70.768 163.15 70.8671C163.199 70.9827 163.266 71.1148 163.332 71.2635C163.398 71.4121 163.497 71.6104 163.613 71.8581C163.613 71.8746 163.646 71.9076 163.646 71.9407C163.646 71.9737 163.679 71.9902 163.712 71.9902C163.745 71.9902 163.778 71.9902 163.795 71.9407L163.845 71.8581C163.993 71.5773 164.109 71.3296 164.192 71.1314C164.291 70.9332 164.374 70.7514 164.44 70.5863C164.506 70.4376 164.572 70.289 164.638 70.1733C164.705 70.0412 164.771 69.9256 164.853 69.7935C164.936 69.6614 165.019 69.5292 165.135 69.3806C165.234 69.2319 165.366 69.0502 165.532 68.8355C165.697 68.6208 165.879 68.5217 166.077 68.5217C166.276 68.5217 166.425 68.6208 166.524 68.8025C166.574 68.8851 166.607 68.9511 166.623 69.0337C166.64 69.1163 166.673 69.1989 166.689 69.331C166.706 69.4466 166.739 69.6118 166.756 69.7935C166.772 69.9917 166.805 70.2394 166.822 70.5533C166.855 70.9662 166.904 71.4121 166.954 71.8746C167.004 72.3371 167.02 72.8326 167.004 73.3446C167.004 73.4933 167.004 73.6419 167.004 73.8071C167.004 73.9723 167.004 74.1209 167.037 74.2696C167.037 74.3522 167.037 74.4513 167.037 74.5338C167.037 74.6164 167.004 74.7155 167.037 74.7981C167.037 74.9468 167.07 75.1119 167.103 75.2936C167.136 75.4753 167.103 75.6735 167.037 75.8882C167.004 75.9873 166.937 76.0699 166.871 76.1029C166.789 76.1525 166.722 76.169 166.64 76.1525C166.557 76.1525 166.491 76.1195 166.425 76.0699C166.359 76.0204 166.326 75.9708 166.292 75.9047C166.243 75.7396 166.193 75.5579 166.127 75.3927C166.077 75.2275 166.028 75.0459 166.028 74.8477C166.011 74.5338 166.011 74.22 166.028 73.9227C166.044 73.6254 166.061 73.3116 166.044 72.9978C166.044 72.5518 166.044 72.1884 166.044 71.8911C166.044 71.5938 166.044 71.3626 166.028 71.1809C166.028 70.9992 166.028 70.8505 166.011 70.7349C165.995 70.6193 166.011 70.5367 166.011 70.4542V69.81C166.011 69.81 165.995 69.7109 165.962 69.6779L165.929 69.6118Z" fill="black"/>
<path d="M172.28 68.8849C172.396 68.8849 172.512 68.8849 172.611 68.8849C172.727 68.8849 172.826 68.9345 172.925 69.017C173.057 69.1327 173.124 69.2483 173.157 69.3639C173.19 69.4795 173.157 69.5951 173.107 69.6942C173.057 69.7933 172.958 69.8759 172.842 69.9255C172.727 69.975 172.594 69.9915 172.445 69.975C172.032 69.9089 171.718 69.8594 171.503 69.8098C171.304 69.7768 171.155 69.7438 171.073 69.7438C170.99 69.7438 170.957 69.7438 170.957 69.7603V69.8759C170.957 70.1567 170.957 70.421 170.957 70.7018C170.957 70.9825 170.973 71.2468 170.957 71.5276C170.957 71.6102 170.957 71.6763 170.957 71.7093C170.957 71.7423 171.006 71.7753 171.073 71.7753C171.139 71.7753 171.238 71.8084 171.387 71.8084C171.536 71.8084 171.734 71.8414 172.015 71.8744C172.148 71.8744 172.247 71.924 172.33 71.9735C172.412 72.0231 172.462 72.0892 172.495 72.1553C172.528 72.2213 172.528 72.3039 172.495 72.37C172.479 72.436 172.412 72.5021 172.33 72.5352C172.28 72.5682 172.197 72.5847 172.098 72.6012C171.999 72.6012 171.883 72.6177 171.767 72.6177C171.652 72.6177 171.552 72.6177 171.437 72.6177C171.321 72.6177 171.238 72.6177 171.188 72.6012C171.056 72.5847 170.99 72.5847 170.957 72.6012C170.924 72.6342 170.907 72.7003 170.907 72.8325C170.907 73.0637 170.874 73.2784 170.841 73.4931C170.808 73.7078 170.791 73.9391 170.791 74.1538C170.791 74.2364 170.791 74.3355 170.758 74.4181C170.725 74.5006 170.742 74.5998 170.758 74.6989C170.775 74.7815 170.808 74.8475 170.825 74.8475C170.841 74.8475 170.907 74.8475 170.99 74.8475C171.222 74.831 171.42 74.8145 171.569 74.798C171.718 74.798 171.833 74.7814 171.933 74.7814C172.032 74.7814 172.098 74.7815 172.164 74.798C172.23 74.798 172.28 74.8475 172.363 74.8805C172.512 74.9466 172.594 75.0787 172.594 75.2274C172.594 75.3925 172.512 75.5082 172.346 75.6073C172.297 75.6238 172.247 75.6568 172.197 75.6568C172.148 75.6568 172.048 75.6734 171.933 75.6734C171.817 75.6734 171.652 75.6733 171.437 75.6403C171.221 75.6238 170.94 75.5908 170.576 75.5743C170.543 75.5743 170.494 75.5743 170.428 75.5743C170.361 75.5743 170.279 75.5743 170.196 75.5743C170.113 75.5743 170.031 75.5743 169.948 75.5743C169.865 75.5743 169.783 75.5743 169.733 75.5743C169.634 75.5743 169.551 75.5082 169.518 75.4421C169.485 75.376 169.485 75.2935 169.551 75.2109C169.584 75.1613 169.601 75.0953 169.601 75.0127C169.601 74.9301 169.601 74.798 169.601 74.6493C169.601 74.5007 169.601 74.319 169.601 74.1042C169.601 73.8895 169.634 73.6418 169.683 73.3445C169.733 73.0637 169.783 72.7333 169.832 72.3369C169.882 71.9405 169.931 71.5606 169.964 71.1808C169.998 70.8009 170.031 70.4705 170.064 70.2063C170.097 69.9255 170.113 69.7768 170.113 69.7438C170.13 69.6117 170.113 69.529 170.08 69.496C170.031 69.463 169.981 69.3969 169.931 69.2978C169.882 69.2152 169.865 69.1327 169.882 69.0666C169.898 69.0005 169.948 68.9344 170.031 68.9014C170.064 68.9014 170.113 68.8684 170.146 68.8519C170.179 68.8353 170.229 68.8188 170.279 68.8188H171.37C171.519 68.8188 171.668 68.8188 171.817 68.8188C171.966 68.8188 172.115 68.8188 172.297 68.8188L172.28 68.8849Z" fill="black"/>
<path d="M175.19 72.3045C175.207 71.8255 175.207 71.3465 175.19 70.8675C175.174 70.3885 175.19 69.926 175.24 69.447C175.24 69.2819 175.323 69.1332 175.471 69.0011C175.571 68.9185 175.686 68.8524 175.802 68.7864C175.918 68.7203 176.05 68.6873 176.183 68.6543C176.464 68.6047 176.728 68.6047 176.993 68.6212C177.258 68.6377 177.522 68.7038 177.787 68.8194C177.903 68.869 178.019 68.9351 178.151 69.0176C178.283 69.1002 178.399 69.1828 178.515 69.2819C178.631 69.381 178.746 69.4801 178.846 69.5792C178.945 69.6783 179.011 69.7939 179.077 69.9095C179.11 69.9921 179.16 70.0912 179.226 70.1738C179.292 70.2564 179.325 70.3555 179.358 70.4546C179.391 70.5867 179.424 70.7189 179.458 70.851C179.491 70.9831 179.507 71.1318 179.507 71.2639C179.507 71.6108 179.474 71.9576 179.358 72.3045C179.242 72.6513 179.077 72.9817 178.879 73.2955C178.68 73.5928 178.449 73.8736 178.184 74.1048C177.919 74.3361 177.671 74.5178 177.407 74.6334C177.258 74.6995 177.092 74.749 176.96 74.782C176.811 74.8151 176.679 74.8481 176.563 74.8646C176.447 74.8811 176.331 74.9142 176.232 74.9307C176.133 74.9472 176.05 74.9803 175.984 75.0133C175.951 75.0298 175.901 75.0463 175.835 75.0628C175.769 75.0628 175.703 75.0628 175.653 75.0628C175.587 75.0628 175.538 75.0628 175.488 75.0298C175.438 75.0298 175.405 74.9968 175.389 74.9637C175.356 74.8812 175.306 74.782 175.24 74.7159C175.174 74.6334 175.157 74.5343 175.174 74.4352C175.174 74.3196 175.19 74.0718 175.174 73.7084C175.174 73.3286 175.174 72.8661 175.207 72.3045H175.19ZM176.58 69.381C176.58 69.381 176.464 69.348 176.398 69.3645C176.331 69.3645 176.282 69.3645 176.216 69.381C176.067 69.381 175.968 69.4305 175.918 69.4966C175.868 69.5627 175.852 69.6618 175.868 69.8104C175.901 70.2068 175.951 70.5702 175.984 70.9005C176.017 71.2309 176.05 71.5447 176.083 71.8586C176.116 72.1559 176.133 72.4697 176.15 72.7835C176.15 73.0973 176.166 73.4276 176.166 73.8075C176.166 73.9232 176.183 73.9892 176.232 74.0223C176.282 74.0553 176.348 74.0553 176.464 74.0223C176.778 73.9397 177.059 73.8075 177.291 73.5928C177.522 73.3946 177.737 73.1634 177.919 72.8991C178.002 72.767 178.068 72.6348 178.151 72.5027C178.217 72.3706 178.283 72.2384 178.349 72.1063C178.449 71.8916 178.515 71.6769 178.515 71.4456C178.515 71.2144 178.498 70.9996 178.432 70.7849C178.366 70.5702 178.267 70.372 178.134 70.1903C178.002 70.0086 177.837 69.8435 177.655 69.7279C177.489 69.6122 177.324 69.5296 177.142 69.4636C176.96 69.3975 176.778 69.3645 176.563 69.381H176.58Z" fill="black"/>
<path d="M181.707 69.1823C181.707 69.0667 181.757 68.9841 181.806 68.9181C181.856 68.8685 181.922 68.8354 181.988 68.8354C182.054 68.8354 182.104 68.8685 182.17 68.9181C182.22 68.9676 182.269 69.0502 182.269 69.1493C182.269 69.2484 182.303 69.4301 182.319 69.7274C182.319 70.0082 182.352 70.3385 182.369 70.7184C182.369 71.0983 182.402 71.4947 182.402 71.9241C182.402 72.3535 182.418 72.7665 182.418 73.1629C182.418 73.295 182.418 73.4437 182.402 73.5593C182.402 73.6915 182.385 73.807 182.385 73.9392C182.385 74.0713 182.385 74.1869 182.385 74.3025C182.385 74.4182 182.402 74.5503 182.451 74.6825C182.484 74.8311 182.468 74.9633 182.385 75.0624C182.303 75.1615 182.203 75.211 182.054 75.1945C181.823 75.178 181.674 75.0954 181.575 74.9467C181.476 74.7981 181.426 74.6164 181.409 74.4182C181.409 74.2035 181.409 73.9887 181.426 73.741C181.459 73.4932 181.476 73.2785 181.509 73.0638C181.509 73.0142 181.509 72.8986 181.525 72.75C181.525 72.5848 181.525 72.4031 181.542 72.1719C181.542 71.9407 181.558 71.6929 181.575 71.4286C181.575 71.1478 181.591 70.8836 181.608 70.6193C181.608 70.3385 181.641 70.0908 181.657 69.843C181.674 69.5953 181.691 69.3805 181.707 69.1988V69.1823Z" fill="black"/>
<path d="M185.578 73.1624C185.545 73.3441 185.578 73.5092 185.644 73.6248C185.727 73.757 185.843 73.8726 185.958 73.9717C186.008 74.0213 186.107 74.0378 186.24 74.0543C186.372 74.0708 186.521 74.0708 186.686 74.0708C186.852 74.0708 187 74.0708 187.133 74.0708C187.282 74.0708 187.381 74.0543 187.447 74.0378C187.645 73.9717 187.827 73.9222 188.009 73.8726C188.191 73.8231 188.357 73.7405 188.539 73.6579C188.687 73.5918 188.803 73.5588 188.919 73.5918C189.035 73.6249 189.101 73.6744 189.134 73.7735C189.167 73.8561 189.134 73.9717 189.084 74.1038C189.035 74.236 188.886 74.3846 188.671 74.5333C188.39 74.7315 188.092 74.8967 187.761 75.0123C187.447 75.1279 187.1 75.194 186.736 75.2105C186.537 75.2105 186.372 75.2105 186.223 75.2105C186.074 75.2105 185.942 75.1774 185.81 75.1279C185.677 75.0948 185.561 75.0288 185.446 74.9628C185.33 74.8967 185.214 74.8141 185.082 74.715C184.933 74.5828 184.801 74.4342 184.685 74.269C184.569 74.1039 184.519 73.9057 184.486 73.7075C184.437 73.2615 184.486 72.832 184.586 72.4521C184.701 72.0557 184.883 71.6924 185.115 71.329C185.346 70.9822 185.628 70.6518 185.958 70.3545C186.289 70.0572 186.637 69.7929 187.017 69.5452C187.166 69.4461 187.331 69.3635 187.513 69.2974C187.679 69.2313 187.86 69.2148 188.059 69.2148C188.142 69.2148 188.224 69.2313 188.307 69.2479C188.39 69.2479 188.456 69.2974 188.522 69.3635C188.588 69.4296 188.638 69.4956 188.638 69.5782C188.638 69.6608 188.638 69.7269 188.588 69.7929C188.539 69.859 188.489 69.892 188.456 69.8755C188.423 69.8755 188.357 69.8425 188.29 69.826C188.224 69.8094 188.125 69.826 188.009 69.826C187.894 69.859 187.728 69.9416 187.513 70.1068C187.315 70.2554 187.133 70.404 186.934 70.5857C186.736 70.7674 186.554 70.9491 186.388 71.1473C186.223 71.3455 186.074 71.5602 185.942 71.7915C185.809 72.0227 185.727 72.2374 185.677 72.4687C185.644 72.5843 185.611 72.6834 185.594 72.799C185.561 72.9146 185.561 73.0302 185.578 73.1624Z" fill="black"/>
<path d="M191.287 69.1823C191.287 69.0667 191.336 68.9841 191.386 68.9181C191.435 68.8685 191.502 68.8354 191.568 68.8354C191.634 68.8354 191.684 68.8685 191.75 68.9181C191.799 68.9676 191.849 69.0502 191.849 69.1493C191.849 69.2484 191.882 69.4301 191.899 69.7274C191.899 70.0082 191.932 70.3385 191.948 70.7184C191.948 71.0983 191.981 71.4947 191.981 71.9241C191.981 72.3535 191.998 72.7665 191.998 73.1629C191.998 73.295 191.998 73.4437 191.981 73.5593C191.981 73.6915 191.965 73.807 191.965 73.9392C191.965 74.0713 191.965 74.1869 191.965 74.3025C191.965 74.4182 191.981 74.5503 192.031 74.6825C192.064 74.8311 192.047 74.9633 191.965 75.0624C191.882 75.1615 191.783 75.211 191.634 75.1945C191.402 75.178 191.254 75.0954 191.154 74.9467C191.055 74.7981 191.005 74.6164 190.989 74.4182C190.989 74.2035 190.989 73.9887 191.005 73.741C191.039 73.4932 191.055 73.2785 191.088 73.0638C191.088 73.0142 191.088 72.8986 191.105 72.75C191.105 72.5848 191.105 72.4031 191.121 72.1719C191.121 71.9407 191.138 71.6929 191.154 71.4286C191.154 71.1478 191.171 70.8836 191.187 70.6193C191.187 70.3385 191.22 70.0908 191.237 69.843C191.254 69.5953 191.27 69.3805 191.287 69.1988V69.1823Z" fill="black"/>
<path d="M195.568 71.3619C195.436 72.1712 195.32 72.8154 195.238 73.3109C195.155 73.8064 195.089 74.1863 195.056 74.4671C195.023 74.7478 194.989 74.9295 194.973 75.0452C194.956 75.1608 194.956 75.2269 194.956 75.2599C194.956 75.2929 194.956 75.3259 194.956 75.3259C194.956 75.3259 194.94 75.392 194.923 75.4746C194.89 75.5902 194.824 75.6728 194.758 75.7224C194.692 75.7719 194.609 75.7884 194.526 75.7719C194.444 75.7719 194.377 75.7388 194.328 75.6893C194.262 75.6397 194.229 75.5737 194.229 75.4911C194.229 75.4085 194.196 75.3259 194.196 75.2434C194.196 75.1608 194.196 75.0782 194.196 74.9791C194.212 74.8304 194.229 74.6983 194.229 74.5497C194.229 74.401 194.229 74.2689 194.278 74.1202C194.411 73.4761 194.51 72.9145 194.609 72.4685C194.708 72.0226 194.791 71.6261 194.857 71.3123C194.923 70.9985 194.973 70.7342 195.006 70.536C195.039 70.3378 195.072 70.1727 195.089 70.0405C195.089 69.9084 195.105 69.7928 195.105 69.6937C195.105 69.5946 195.089 69.4955 195.056 69.3799C195.023 69.2643 195.039 69.1651 195.089 69.066C195.138 68.9669 195.204 68.9174 195.287 68.8843C195.37 68.8513 195.453 68.8513 195.535 68.8843C195.618 68.9339 195.684 69.0165 195.717 69.1651C195.833 69.5615 195.965 69.958 196.114 70.3544C196.263 70.7508 196.412 71.1472 196.577 71.5436C196.743 71.94 196.908 72.3364 197.073 72.7163C197.239 73.1127 197.404 73.4926 197.553 73.8725C197.603 73.8725 197.636 73.8725 197.652 73.8229C197.669 73.7734 197.685 73.6908 197.685 73.5256C197.685 73.3604 197.702 73.1127 197.719 72.7824C197.719 72.452 197.752 71.9895 197.801 71.3784C197.834 70.9159 197.867 70.5195 197.884 70.2222C197.9 69.9249 197.934 69.6771 197.967 69.4954C198 69.3138 198.049 69.1816 198.115 69.0825C198.182 68.9834 198.264 68.9008 198.364 68.8348C198.496 68.7687 198.612 68.7522 198.711 68.8018C198.81 68.8513 198.86 68.9504 198.876 69.0991C198.876 69.2642 198.876 69.4459 198.876 69.6276C198.876 69.8093 198.86 69.9745 198.827 70.1562C198.777 70.6847 198.727 71.1471 198.711 71.5601C198.678 71.973 198.661 72.3694 198.645 72.7493C198.628 73.1292 198.595 73.5421 198.562 73.9385C198.529 74.3514 198.479 74.8139 198.413 75.3425C198.413 75.4416 198.364 75.5241 198.314 75.5902C198.264 75.6563 198.182 75.7058 198.099 75.7388C198.016 75.7719 197.917 75.7884 197.818 75.7719C197.719 75.7719 197.619 75.7058 197.537 75.6398C197.371 75.5076 197.222 75.3424 197.107 75.1277C196.991 74.913 196.858 74.6488 196.726 74.3349C196.594 74.0211 196.445 73.6247 196.296 73.1787C196.131 72.7163 195.949 72.1712 195.717 71.5271C195.717 71.494 195.684 71.461 195.684 71.4445C195.684 71.4115 195.634 71.3784 195.585 71.3454L195.568 71.3619Z" fill="black"/>
<path d="M203.871 68.8849C203.987 68.8849 204.103 68.8849 204.202 68.8849C204.318 68.8849 204.417 68.9345 204.516 69.017C204.649 69.1327 204.715 69.2483 204.748 69.3639C204.781 69.4795 204.748 69.5951 204.698 69.6942C204.649 69.7933 204.549 69.8759 204.434 69.9255C204.318 69.975 204.185 69.9915 204.037 69.975C203.623 69.9089 203.309 69.8594 203.094 69.8098C202.895 69.7768 202.747 69.7438 202.664 69.7438C202.581 69.7438 202.548 69.7438 202.548 69.7603V69.8759C202.548 70.1567 202.548 70.421 202.548 70.7018C202.548 70.9825 202.565 71.2468 202.548 71.5276C202.548 71.6102 202.548 71.6763 202.548 71.7093C202.548 71.7423 202.598 71.7753 202.664 71.7753C202.73 71.7753 202.829 71.8084 202.978 71.8084C203.127 71.8084 203.325 71.8414 203.607 71.8744C203.739 71.8744 203.838 71.924 203.921 71.9735C204.004 72.0231 204.053 72.0892 204.086 72.1553C204.119 72.2213 204.119 72.3039 204.086 72.37C204.07 72.436 204.004 72.5021 203.921 72.5352C203.871 72.5682 203.789 72.5847 203.689 72.6012C203.59 72.6012 203.474 72.6177 203.358 72.6177C203.243 72.6177 203.143 72.6177 203.028 72.6177C202.912 72.6177 202.829 72.6177 202.78 72.6012C202.647 72.5847 202.581 72.5847 202.548 72.6012C202.515 72.6342 202.498 72.7003 202.498 72.8325C202.498 73.0637 202.465 73.2784 202.432 73.4931C202.399 73.7078 202.383 73.9391 202.383 74.1538C202.383 74.2364 202.383 74.3355 202.35 74.4181C202.316 74.5006 202.333 74.5998 202.35 74.6989C202.366 74.7815 202.399 74.8475 202.416 74.8475C202.432 74.8475 202.498 74.8475 202.581 74.8475C202.813 74.831 203.011 74.8145 203.16 74.798C203.309 74.798 203.425 74.7814 203.524 74.7814C203.623 74.7814 203.689 74.7815 203.755 74.798C203.822 74.798 203.871 74.8475 203.954 74.8805C204.103 74.9466 204.185 75.0787 204.185 75.2274C204.185 75.3925 204.103 75.5082 203.937 75.6073C203.888 75.6238 203.838 75.6568 203.789 75.6568C203.739 75.6568 203.64 75.6734 203.524 75.6734C203.408 75.6734 203.243 75.6733 203.028 75.6403C202.813 75.6238 202.532 75.5908 202.168 75.5743C202.135 75.5743 202.085 75.5743 202.019 75.5743C201.953 75.5743 201.87 75.5743 201.787 75.5743C201.705 75.5743 201.622 75.5743 201.539 75.5743C201.456 75.5743 201.374 75.5743 201.324 75.5743C201.225 75.5743 201.142 75.5082 201.109 75.4421C201.076 75.376 201.076 75.2935 201.142 75.2109C201.175 75.1613 201.192 75.0953 201.192 75.0127C201.192 74.9301 201.192 74.798 201.192 74.6493C201.192 74.5007 201.192 74.319 201.192 74.1042C201.192 73.8895 201.225 73.6418 201.274 73.3445C201.324 73.0637 201.374 72.7333 201.423 72.3369C201.473 71.9405 201.523 71.5606 201.556 71.1808C201.589 70.8009 201.622 70.4705 201.655 70.2063C201.688 69.9255 201.704 69.7768 201.704 69.7438C201.721 69.6117 201.705 69.529 201.671 69.496C201.622 69.463 201.572 69.3969 201.523 69.2978C201.473 69.2152 201.456 69.1327 201.473 69.0666C201.489 69.0005 201.539 68.9344 201.622 68.9014C201.655 68.9014 201.705 68.8684 201.738 68.8519C201.771 68.8353 201.82 68.8188 201.87 68.8188H202.962C203.11 68.8188 203.259 68.8188 203.408 68.8188C203.557 68.8188 203.706 68.8188 203.888 68.8188L203.871 68.8849Z" fill="black"/>
</g>
</g>
<defs>
<linearGradient id="paint0_linear_5928_16341" x1="227.688" y1="150.792" x2="227.688" y2="60.7252" gradientUnits="userSpaceOnUse">
<stop offset="0.02" stop-color="#FF8547"/>
<stop offset="1" stop-color="#FFB834"/>
</linearGradient>
<clipPath id="clip0_5928_16341">
<path d="M0 0H360V160H0V0Z" fill="white"/>
</clipPath>
<clipPath id="clip1_5928_16341">
<rect width="382" height="197" fill="white" transform="translate(-27 -24)"/>
</clipPath>
</defs>
</svg>
