<svg width="360" height="160" viewBox="0 0 360 160" fill="none" xmlns="http://www.w3.org/2000/svg">
<g clip-path="url(#clip0_5928_16341)">
<path d="M0 0H360V160H0V0Z" fill="#DADEF5"/>
<g clip-path="url(#clip1_5928_16341)">
<path d="M1233.04 -341.856H-459.749V1122.36H1233.04V-341.856Z" fill="#40C2B0" stroke="#40C2B0" stroke-miterlimit="10"/>
<path d="M276.206 -342.42V1122.19" stroke="#66CEC0" stroke-width="3" stroke-miterlimit="10"/>
<path d="M233.559 -342.42V1122.19" stroke="#66CEC0" stroke-width="3" stroke-miterlimit="10"/>
<path d="M254.874 -342.42V1122.19" stroke="#66CEC0" stroke-width="15.01" stroke-miterlimit="10"/>
<path d="M144.437 -342.42V1122.19" stroke="#66CEC0" stroke-width="3" stroke-miterlimit="10"/>
<path d="M101.786 -342.42V1122.19" stroke="#66CEC0" stroke-width="3" stroke-miterlimit="10"/>
<path d="M123.103 -342.42V1122.19" stroke="#66CEC0" stroke-width="15.01" stroke-miterlimit="10"/>
<path d="M12.6639 -342.42V1122.19" stroke="#66CEC0" stroke-width="3" stroke-miterlimit="10"/>
<path fill-rule="evenodd" clip-rule="evenodd" d="M183.534 1149.05L695.041 1150.32L726.111 -113.312L-18 -115.367L8.15972 1148.62L183.534 1149.05Z" fill="#DADEF5"/>
<g opacity="0.32">
<path d="M73.1514 19.4237C69.3269 20.5839 67.3833 23.9548 67.3833 27.1532V31.4334C67.3833 32.3898 68.1514 33.158 69.1075 33.158H98.9665C102.963 33.158 278.042 32.7504 278.042 32.7504C278.042 32.7504 292.431 32.3428 294.03 32.3428C295.628 32.3428 296.036 27.5451 294.437 24.7387C292.838 21.9322 292.838 19.9411 286.443 18.7338C280.048 17.5266 226.49 18.7338 226.49 18.7338C226.49 18.7338 75.2674 18.7652 73.167 19.408L73.1514 19.4237Z" fill="#2B357A"/>
<path d="M67.9013 32.5783L78.199 35.7767C78.199 35.7767 81.569 75.9451 82.6348 77.5443C83.7006 79.1435 85.6599 80.0371 86.0047 81.4482C86.3495 82.8593 92.7445 145.103 93.2774 145.981C93.8103 146.859 94.3589 150.355 100.926 150.355C107.494 150.355 266.71 151.233 266.71 151.233C266.71 151.233 269.171 151.641 270.065 148.615C270.958 145.589 273.623 117.164 273.623 117.164L276.992 81.0876C276.992 81.0876 280.018 80.9151 280.723 77.1837C281.428 73.4522 285.519 34.0051 285.519 34.0051L293.685 32.2334L67.8856 32.594L67.9013 32.5783Z" fill="#2B357A"/>
</g>
<path fill-rule="evenodd" clip-rule="evenodd" d="M201.661 146.812L199.357 65.4404H247.366L245.391 146.796C245.329 149.101 243.463 150.92 241.159 150.92H205.893C203.604 150.92 201.724 149.101 201.661 146.812Z" fill="url(#paint0_linear_5928_16341)"/>
<path fill-rule="evenodd" clip-rule="evenodd" d="M197.146 69.2349H249.654L249.701 58.84C249.701 57.0056 248.29 55.5162 246.535 55.5319L200.046 55.9395C198.29 55.9395 196.895 57.476 196.926 59.3104L197.146 69.2349Z" fill="white"/>
<path d="M204.482 69.2656L204.2 56.5974L204.701 56.5347L204.984 69.2029L204.482 69.2656Z" fill="#D5D5D6"/>
<path d="M209.169 69.2812L208.886 56.221L209.372 56.127L209.67 69.1872L209.169 69.2812Z" fill="#D5D5D6"/>
<path d="M213.512 69.2813L213.183 56.2054L213.685 56.1113L214.014 69.1872L213.512 69.2813Z" fill="#D5D5D6"/>
<path d="M217.964 56.1436H217.462V69.2351H217.964V56.1436Z" fill="#D5D5D6"/>
<path d="M222.039 56.0015H221.537V69.2342H222.039V56.0015Z" fill="#D5D5D6"/>
<path d="M226.926 69.2816L226.425 69.1875L226.55 55.8921L227.051 55.9705L226.926 69.2816Z" fill="#D5D5D6"/>
<path d="M200.437 69.2815L200.186 56.4565L200.688 56.3311L200.939 69.1718L200.437 69.2815Z" fill="#D5D5D6"/>
<path d="M231.725 68.9208L231.427 55.8606L231.929 55.7822L232.227 68.8268L231.725 68.9208Z" fill="#D5D5D6"/>
<path d="M236.068 68.9209L235.739 55.845L236.24 55.7666L236.569 68.8268L236.068 68.9209Z" fill="#D5D5D6"/>
<path d="M240.501 55.7822H239.999V68.8738H240.501V55.7822Z" fill="#D5D5D6"/>
<path d="M244.575 55.6416H244.074V68.8743H244.575V55.6416Z" fill="#D5D5D6"/>
<path fill-rule="evenodd" clip-rule="evenodd" d="M202.461 107.224L203.182 141.826C203.229 144.178 204.922 146.153 207.226 146.577C214.091 147.815 228.542 149.634 240.047 145.808C242.006 145.166 243.339 143.331 243.386 141.277L244.248 110.689L202.461 107.239V107.224Z" fill="#FFA835"/>
<path fill-rule="evenodd" clip-rule="evenodd" d="M200.22 92.5488H246.709L245.925 124.502L201.051 125.536L200.22 92.5488Z" fill="white"/>
<g opacity="0.5" style="mix-blend-mode:multiply">
<path fill-rule="evenodd" clip-rule="evenodd" d="M209.545 94.0845L209.89 96.2638L237.131 96.5147L237.601 94.0845H209.545Z" fill="#E5E5E5"/>
</g>
<g opacity="0.5" style="mix-blend-mode:multiply">
<path fill-rule="evenodd" clip-rule="evenodd" d="M198.211 69.1243L198.744 70.6922H248.117L248.619 68.8892" fill="#E5E5E5"/>
</g>
<path d="M247.931 68.9207L247.429 68.8424L247.555 55.9546L248.056 56.033L247.931 68.9207Z" fill="#D5D5D6"/>
<path d="M204.561 100.481H205.25L206.583 102.379L207.915 100.481H208.604V104.182H207.68V102.41L206.755 103.711H206.41L205.485 102.41V104.182H204.576V100.481H204.561Z" fill="black"/>
<path d="M210.39 100.481V104.182H209.45V100.481H210.39Z" fill="black"/>
<path d="M210.942 103.602L211.412 102.912C211.694 103.194 212.055 103.382 212.462 103.382C212.666 103.382 212.886 103.304 212.886 103.116C212.886 102.99 212.76 102.896 212.588 102.833C212.368 102.755 212.055 102.677 211.788 102.535C211.459 102.363 211.177 102.081 211.177 101.579C211.177 100.936 211.741 100.435 212.556 100.435C213.011 100.435 213.481 100.576 213.873 100.905L213.434 101.61C213.215 101.422 212.839 101.313 212.572 101.313C212.306 101.313 212.18 101.422 212.18 101.548C212.18 101.705 212.337 101.767 212.478 101.814C212.666 101.893 212.98 101.987 213.23 102.096C213.622 102.269 213.936 102.535 213.936 103.069C213.936 103.743 213.371 104.244 212.478 104.244C211.867 104.244 211.349 104.009 210.973 103.602H210.942Z" fill="black"/>
<path d="M214.358 102.332C214.358 101.266 215.189 100.419 216.286 100.419C217.383 100.419 218.214 101.266 218.214 102.332C218.214 103.398 217.383 104.229 216.286 104.229C215.189 104.229 214.358 103.382 214.358 102.332ZM217.258 102.332C217.258 101.752 216.819 101.344 216.286 101.344C215.753 101.344 215.314 101.752 215.314 102.332C215.314 102.912 215.738 103.319 216.286 103.319C216.835 103.319 217.258 102.896 217.258 102.332Z" fill="black"/>
<path d="M221.74 101.767C221.74 102.441 221.333 103.021 220.283 103.021H219.812V104.182H218.872V100.481H220.345C221.349 100.481 221.74 101.109 221.74 101.767ZM220.784 101.751C220.784 101.516 220.612 101.328 220.361 101.328H219.828V102.175H220.345C220.659 102.175 220.8 101.971 220.8 101.751H220.784Z" fill="black"/>
<path d="M223.636 102.959H223.275V104.182H222.335V100.481H223.871C224.796 100.481 225.219 101.046 225.219 101.704C225.219 102.143 225.031 102.582 224.545 102.802L225.344 104.166H224.278L223.636 102.943V102.959ZM223.26 102.143H223.824C224.137 102.143 224.263 101.94 224.263 101.736C224.263 101.532 224.122 101.344 223.855 101.344H223.26V102.143Z" fill="black"/>
<path d="M225.736 102.332C225.736 101.266 226.567 100.419 227.664 100.419C228.761 100.419 229.592 101.266 229.592 102.332C229.592 103.398 228.761 104.229 227.664 104.229C226.567 104.229 225.736 103.382 225.736 102.332ZM228.636 102.332C228.636 101.752 228.197 101.344 227.664 101.344C227.131 101.344 226.692 101.752 226.692 102.332C226.692 102.912 227.116 103.319 227.664 103.319C228.213 103.319 228.636 102.896 228.636 102.332Z" fill="black"/>
<path d="M229.921 103.602L230.391 102.912C230.673 103.194 231.034 103.382 231.441 103.382C231.645 103.382 231.864 103.304 231.864 103.116C231.864 102.99 231.739 102.896 231.567 102.833C231.347 102.755 231.034 102.677 230.767 102.535C230.438 102.363 230.156 102.081 230.156 101.579C230.156 100.936 230.72 100.435 231.535 100.435C231.99 100.435 232.46 100.576 232.852 100.905L232.413 101.61C232.194 101.422 231.817 101.313 231.551 101.313C231.285 101.313 231.159 101.422 231.159 101.548C231.159 101.705 231.316 101.767 231.457 101.814C231.645 101.893 231.959 101.987 232.209 102.096C232.601 102.269 232.915 102.535 232.915 103.069C232.915 103.743 232.35 104.244 231.457 104.244C230.846 104.244 230.328 104.009 229.952 103.602H229.921Z" fill="black"/>
<path d="M233.181 101.391V100.498H236.175V101.391H235.156V104.182H234.216V101.391H233.197H233.181Z" fill="black"/>
<path d="M236.441 102.332C236.441 101.266 237.272 100.419 238.369 100.419C239.466 100.419 240.297 101.266 240.297 102.332C240.297 103.398 239.466 104.229 238.369 104.229C237.272 104.229 236.441 103.382 236.441 102.332ZM239.325 102.332C239.325 101.752 238.886 101.344 238.354 101.344C237.821 101.344 237.382 101.752 237.382 102.332C237.382 102.912 237.805 103.319 238.354 103.319C238.902 103.319 239.325 102.896 239.325 102.332Z" fill="black"/>
<path d="M240.957 100.481H241.898V103.288H243.684V104.182H240.957V100.481Z" fill="black"/>
<path d="M235.754 114.247C235.754 112.475 236.271 110.641 234.782 109.371C234.782 109.371 234.798 109.261 234.72 109.198C233.716 108.477 232.384 108.32 231.177 108.289C219.625 108.023 188.936 108.148 177.353 108.085V108.117C172.478 108.07 166.945 107.678 162.18 108.038C160.848 108.132 159.516 108.587 159.296 110.076C158.936 112.601 159.108 115.689 159.108 118.276C159.108 126.288 159.218 131.556 159.296 139.599C159.312 142.202 159.139 144.961 159.233 147.532C159.265 148.332 159.594 149.257 160.174 149.806C160.315 149.931 160.487 149.947 160.581 150.01C162.023 151.029 163.23 150.684 164.86 150.715C169.453 150.794 174.061 150.778 178.701 150.794V150.762C187.337 150.809 215.096 150.888 223.779 150.919C226.365 150.919 229.328 151.107 231.898 150.935C232.854 150.872 233.575 150.652 234.312 150.072C236.209 148.583 235.629 146.09 235.644 143.989C235.77 133.171 235.801 125.096 235.754 114.278V114.247Z" fill="#C6C5C6"/>
<path d="M167.164 123.388C167.446 122.431 167.65 121.444 167.791 120.472C167.963 119.327 168.104 118.135 168.151 116.991C168.214 115.298 168.151 113.557 167.524 111.942C171.427 111.739 173.12 115.831 173.089 118.135C173.057 120.44 171.051 124.266 167.164 123.388Z" fill="#DDDDDD"/>
<path d="M167.161 123.388C161.189 122.04 161.534 112.256 167.522 111.943C168.149 113.573 168.211 115.314 168.149 116.991C168.102 118.136 167.96 119.327 167.788 120.472C167.647 121.444 167.443 122.432 167.161 123.388Z" fill="#E5E4E5"/>
<path d="M166.05 143.049C166.332 142.092 166.535 141.105 166.677 140.133C166.849 138.988 166.99 137.797 167.037 136.652C167.1 134.959 167.037 133.218 166.41 131.604C170.313 131.4 172.006 135.492 171.974 137.797C171.943 140.101 169.937 143.927 166.05 143.049Z" fill="#DDDDDD"/>
<path d="M166.051 143.049C160.079 141.7 160.424 131.917 166.412 131.604C167.039 133.234 167.101 134.974 167.039 136.652C166.992 137.797 166.851 138.988 166.678 140.133C166.537 141.105 166.333 142.092 166.051 143.049Z" fill="#E5E4E5"/>
<path d="M224.907 142.077C225.189 141.121 225.393 140.133 225.534 139.161C225.706 138.016 225.848 136.825 225.895 135.68C225.957 133.987 225.895 132.247 225.268 130.632C229.17 130.428 230.863 134.52 230.832 136.825C230.801 139.13 228.794 142.955 224.907 142.077Z" fill="#DDDDDD"/>
<path d="M224.904 142.076C218.932 140.728 219.277 130.944 225.265 130.631C225.892 132.261 225.954 134.002 225.892 135.679C225.845 136.824 225.704 138.015 225.531 139.16C225.39 140.132 225.186 141.12 224.904 142.076Z" fill="#E5E4E5"/>
<path d="M224.059 123.388C224.341 122.431 224.545 121.444 224.686 120.472C224.858 119.327 224.999 118.135 225.046 116.991C225.109 115.298 225.046 113.557 224.419 111.942C228.322 111.739 230.015 115.831 229.984 118.135C229.952 120.44 227.946 124.266 224.059 123.388Z" fill="#DDDDDD"/>
<path d="M224.06 123.388C218.088 122.04 218.433 112.256 224.421 111.943C225.048 113.573 225.11 115.314 225.048 116.991C225.001 118.136 224.86 119.327 224.687 120.472C224.546 121.444 224.342 122.432 224.06 123.388Z" fill="#E5E4E5"/>
<path d="M193.761 135.163L199.356 119.092C210.14 122.604 204.717 139.051 193.761 135.163Z" fill="#DDDDDD"/>
<path d="M193.761 135.162C183.306 131.446 188.588 115.58 199.356 119.092L193.761 135.162Z" fill="#E5E4E5"/>
<path opacity="0.1" d="M235.83 119.813C235.83 119.813 230.908 134.253 221.222 139.694C203.118 149.854 159.639 149.979 159.639 149.979C161.112 150.998 162.053 150.888 163.714 150.92C168.291 150.998 177.821 150.763 177.821 150.763C186.708 150.81 229.294 151.108 231.912 150.935C232.883 150.873 233.604 150.653 234.372 150.073C236.3 148.584 235.705 146.091 235.736 143.99C235.861 133.172 235.846 121.178 235.846 119.829L235.83 119.813Z" fill="#868686"/>
<path fill-rule="evenodd" clip-rule="evenodd" d="M113.009 150.386L108.087 84.8657L195.015 84.019L192.93 150.966L113.009 150.386Z" fill="#72E1F1"/>
<path fill-rule="evenodd" clip-rule="evenodd" d="M109.201 100.622L194.624 96.5459L193.417 137.906L112.163 138.784L109.201 100.622Z" fill="white"/>
<path fill-rule="evenodd" clip-rule="evenodd" d="M127.412 101.344L176.127 99.5093L176.143 101.861L127.428 103.429L127.412 101.344Z" fill="#E1E1E1"/>
<path fill-rule="evenodd" clip-rule="evenodd" d="M120.721 133.516L133.542 133.03L133.558 134.535L120.736 134.865L120.721 133.516Z" fill="#E1E1E1"/>
<path fill-rule="evenodd" clip-rule="evenodd" d="M120.36 130.914L133.181 130.428L133.197 131.933L120.375 132.246L120.36 130.914Z" fill="#E1E1E1"/>
<path d="M173.554 145.714L134.952 146.132L134.969 147.715L173.572 147.297L173.554 145.714Z" fill="#E1E1E1"/>
<path fill-rule="evenodd" clip-rule="evenodd" d="M141.756 127.543L140.423 113.746L165.831 113.197L164.593 127.292L141.756 127.543Z" fill="#C6F2F9"/>
<path d="M133.213 106.675H133.903L135.235 108.572L136.567 106.675H137.257V110.375H136.332V108.604L135.407 109.905H135.062L134.138 108.604V110.375H133.229V106.675H133.213Z" fill="black"/>
<path d="M139.043 106.675V110.375H138.102V106.675H139.043Z" fill="black"/>
<path d="M139.907 106.674H142.525V107.552H140.832V108.164H142.321V109.026H140.832V110.359H139.892V106.659L139.907 106.674Z" fill="black"/>
<path d="M143.152 106.675H145.817V107.538H144.092V108.086H145.691V108.949H144.092V109.513H145.817V110.375H143.152V106.675Z" fill="black"/>
<path d="M149.437 107.961C149.437 108.635 149.029 109.215 147.979 109.215H147.509V110.375H146.568V106.675H148.042C149.045 106.675 149.437 107.302 149.437 107.961ZM148.48 107.961C148.48 107.726 148.308 107.538 148.057 107.538H147.524V108.384H148.042C148.355 108.384 148.496 108.18 148.496 107.961H148.48Z" fill="black"/>
<path d="M151.315 109.153H150.955V110.375H150.014V106.675H151.55C152.475 106.675 152.898 107.24 152.898 107.898C152.898 108.337 152.71 108.776 152.224 108.996L153.024 110.36H151.958L151.315 109.137V109.153ZM150.955 108.337H151.519C151.832 108.337 151.958 108.133 151.958 107.93C151.958 107.726 151.817 107.538 151.55 107.538H150.955V108.337Z" fill="black"/>
<path d="M154.593 106.675V110.375H153.652V106.675H154.593Z" fill="black"/>
<path d="M155.142 109.795L155.612 109.105C155.894 109.387 156.255 109.575 156.662 109.575C156.866 109.575 157.086 109.497 157.086 109.309C157.086 109.184 156.96 109.089 156.788 109.027C156.568 108.948 156.255 108.87 155.988 108.729C155.659 108.556 155.377 108.274 155.377 107.772C155.377 107.13 155.941 106.628 156.756 106.628C157.211 106.628 157.681 106.769 158.073 107.098L157.634 107.804C157.415 107.616 157.039 107.506 156.772 107.506C156.506 107.506 156.38 107.616 156.38 107.741C156.38 107.898 156.537 107.961 156.678 108.008C156.866 108.086 157.18 108.18 157.43 108.29C157.822 108.462 158.136 108.729 158.136 109.262C158.136 109.936 157.572 110.438 156.678 110.438C156.067 110.438 155.55 110.203 155.173 109.795H155.142Z" fill="black"/>
<path d="M158.402 107.584V106.69H161.396V107.584H160.377V110.375H159.437V107.584H158.418H158.402Z" fill="black"/>
<path d="M161.644 108.525C161.644 107.458 162.474 106.612 163.571 106.612C164.669 106.612 165.499 107.458 165.499 108.525C165.499 109.591 164.669 110.422 163.571 110.422C162.474 110.422 161.644 109.575 161.644 108.525ZM164.543 108.525C164.543 107.944 164.104 107.537 163.571 107.537C163.039 107.537 162.6 107.944 162.6 108.525C162.6 109.105 163.023 109.512 163.571 109.512C164.12 109.512 164.543 109.089 164.543 108.525Z" fill="black"/>
<path d="M169.482 106.675V110.375H168.777L167.1 108.4V110.375H166.191V106.675H166.865L168.573 108.682V106.675H169.498H169.482Z" fill="black"/>
<path d="M170.329 106.675H172.994V107.538H171.269V108.086H172.868V108.949H171.269V109.513H172.994V110.375H170.329V106.675Z" fill="black"/>
<path d="M73.1514 19.4237C69.3269 20.5839 67.3833 23.9548 67.3833 27.1532V31.4334C67.3833 32.3898 68.1514 33.158 69.1075 33.158H98.9665C102.963 33.158 278.042 32.7504 278.042 32.7504C278.042 32.7504 292.431 32.3428 294.03 32.3428C295.628 32.3428 296.036 27.5451 294.437 24.7387C292.838 21.9322 292.838 19.9411 286.443 18.7338C280.048 17.5266 226.49 18.7338 226.49 18.7338C226.49 18.7338 75.2674 18.7652 73.167 19.408L73.1514 19.4237Z" fill="white"/>
<path opacity="0.14" d="M78.1652 35.2901C78.1652 35.2901 84.4348 66.6158 90.9552 73.6711C98.1339 81.432 143.98 80.3345 143.98 80.3345C143.228 80.8518 110.407 80.695 109.56 80.7107C107.225 80.7421 102.382 80.6324 102.382 80.6324C97.8518 80.648 87.3972 80.8989 86.0649 80.8048C85.5634 80.7734 83.5257 78.6882 83.1339 78.3903C82.1464 77.6221 82.0837 74.8313 81.7702 72.5265C81.0335 67.0704 78.1495 35.9643 78.1495 35.2744L78.1652 35.2901Z" fill="#DADEF5"/>
<path opacity="0.14" d="M285.55 34.0835C285.55 34.0835 278.842 67.1024 272.321 74.1735C265.143 81.9343 219.296 80.8368 219.296 80.8368C220.048 81.3542 252.87 81.1974 253.716 81.2131C256.052 81.2444 260.895 81.1347 260.895 81.1347C265.425 81.1504 275.848 81.1347 277.18 81.1347C278.293 81.1347 279.453 79.8334 279.829 79.5355C280.817 78.7672 281.193 74.8633 281.506 72.5586C282.243 67.1025 285.55 34.789 285.55 34.0992V34.0835Z" fill="#DADEF5"/>
<path d="M208.604 63.4805H151.848V88.5347H208.604V63.4805Z" fill="#F6F6F6"/>
<path d="M164.828 73.8598C164.828 73.8598 164.734 73.9382 164.671 74.048C164.608 74.1577 164.53 74.2831 164.436 74.4399C164.357 74.5967 164.263 74.7692 164.169 74.9573C164.075 75.1455 163.997 75.3336 163.918 75.5061C163.84 75.6942 163.777 75.851 163.699 76.0078C163.621 76.1645 163.589 76.2743 163.558 76.3527C163.527 76.4311 163.495 76.5095 163.464 76.6192C163.433 76.729 163.401 76.823 163.386 76.9328C163.354 77.0425 163.339 77.121 163.307 77.215C163.276 77.2934 163.26 77.3405 163.245 77.3718C163.135 77.56 162.978 77.654 162.806 77.654C162.618 77.654 162.476 77.5443 162.351 77.3404C162.194 77.0582 162.085 76.8544 162.006 76.729C161.928 76.6036 161.881 76.4938 161.85 76.4311C161.818 76.3684 161.787 76.3057 161.771 76.2743C161.755 76.243 161.724 76.1645 161.677 76.0548C161.63 75.945 161.552 75.804 161.458 75.6002C161.364 75.3963 161.207 75.1141 161.019 74.7378C160.987 74.6751 160.956 74.6124 160.94 74.5497C160.925 74.487 160.878 74.4243 160.799 74.3772C160.768 74.4086 160.752 74.4713 160.752 74.5654C160.752 74.6594 160.752 74.8162 160.768 75.0357C160.768 75.2552 160.768 75.5374 160.768 75.9137C160.768 76.29 160.721 76.7447 160.658 77.2934C160.643 77.4659 160.627 77.5913 160.611 77.7011C160.596 77.8108 160.596 77.8892 160.58 77.9519C160.58 78.0303 160.58 78.093 160.564 78.1558C160.564 78.2185 160.564 78.3125 160.549 78.4223C160.549 78.532 160.533 78.6731 160.517 78.8299C160.502 78.9867 160.486 79.2219 160.47 79.5041C160.47 79.6609 160.408 79.7863 160.313 79.8647C160.219 79.9431 160.094 79.9745 159.922 79.9588C159.828 79.9588 159.749 79.8804 159.687 79.7863C159.624 79.6765 159.592 79.5825 159.592 79.4884C159.592 79.1905 159.592 78.9083 159.624 78.6731C159.655 78.438 159.671 78.1714 159.702 77.8735C159.734 77.5756 159.765 77.2307 159.796 76.8231C159.828 76.4154 159.843 75.898 159.843 75.2552C159.843 74.7692 159.875 74.3615 159.937 74.048C160 73.7344 160.031 73.4836 160.047 73.2954V73.2013C160.047 73.2013 160.047 73.0916 160.063 73.0446C160.063 72.9818 160.11 72.9348 160.141 72.8721C160.188 72.825 160.251 72.778 160.329 72.7467C160.439 72.6996 160.533 72.7153 160.643 72.7623C160.752 72.8094 160.846 72.9034 160.94 73.0132C161.034 73.1229 161.113 73.2327 161.191 73.3581C161.27 73.4835 161.332 73.609 161.395 73.703C161.505 73.9068 161.599 74.0636 161.677 74.2047C161.755 74.3302 161.818 74.4399 161.881 74.534C161.944 74.6281 161.991 74.7065 162.038 74.7848C162.085 74.8632 162.132 74.9573 162.194 75.0514C162.241 75.1611 162.304 75.2866 162.367 75.4277C162.429 75.5688 162.523 75.7569 162.633 75.9921C162.633 76.0078 162.665 76.0391 162.665 76.0705C162.665 76.1018 162.696 76.1175 162.727 76.1175C162.759 76.1175 162.79 76.1175 162.806 76.0705L162.853 75.9921C162.994 75.7256 163.103 75.4904 163.182 75.3023C163.276 75.1141 163.354 74.9416 163.417 74.7848C163.48 74.6437 163.542 74.5026 163.605 74.3929C163.668 74.2675 163.73 74.1577 163.809 74.0323C163.887 73.9069 163.966 73.7814 164.075 73.6403C164.169 73.4992 164.295 73.3267 164.451 73.1229C164.608 72.9191 164.781 72.825 164.969 72.825C165.157 72.825 165.298 72.9191 165.392 73.0916C165.439 73.17 165.47 73.2327 165.486 73.3111C165.502 73.3895 165.533 73.4679 165.549 73.5933C165.564 73.7031 165.596 73.8598 165.611 74.0323C165.627 74.2204 165.658 74.4556 165.674 74.7535C165.705 75.1455 165.752 75.5688 165.799 76.0078C165.846 76.4468 165.862 76.9171 165.846 77.4032C165.846 77.5443 165.846 77.6854 165.846 77.8422C165.846 77.999 165.846 78.1401 165.878 78.2812C165.878 78.3596 165.878 78.4536 165.878 78.532C165.878 78.6104 165.846 78.7045 165.878 78.7829C165.878 78.924 165.909 79.0808 165.94 79.2532C165.972 79.4257 165.94 79.6139 165.878 79.8177C165.846 79.9118 165.784 79.9901 165.721 80.0215C165.643 80.0685 165.58 80.0842 165.502 80.0685C165.423 80.0685 165.361 80.0372 165.298 79.9901C165.235 79.9431 165.204 79.896 165.172 79.8333C165.125 79.6765 165.078 79.5041 165.016 79.3473C164.969 79.1905 164.922 79.0181 164.922 78.8299C164.906 78.532 164.906 78.2341 164.922 77.9519C164.937 77.6697 164.953 77.3718 164.937 77.0739C164.937 76.6506 164.937 76.3057 164.937 76.0235C164.937 75.7412 164.937 75.5218 164.922 75.3493C164.922 75.1768 164.922 75.0357 164.906 74.9259C164.89 74.8162 164.906 74.7378 164.906 74.6594V74.048C164.906 74.048 164.89 73.9539 164.859 73.9225L164.828 73.8598Z" fill="black"/>
<path d="M170.847 73.1696C170.956 73.1696 171.066 73.1696 171.16 73.1696C171.27 73.1696 171.364 73.2167 171.458 73.2951C171.583 73.4048 171.646 73.5146 171.677 73.6243C171.709 73.7341 171.677 73.8438 171.63 73.9379C171.583 74.032 171.489 74.1103 171.379 74.1574C171.27 74.2044 171.144 74.2201 171.003 74.2044C170.611 74.1417 170.314 74.0946 170.11 74.0476C169.922 74.0162 169.781 73.9849 169.702 73.9849C169.624 73.9849 169.593 73.9849 169.593 74.0006V74.1103C169.593 74.3769 169.593 74.6277 169.593 74.8943C169.593 75.1608 169.608 75.4116 169.593 75.6782C169.593 75.7566 169.593 75.8193 169.593 75.8507C169.593 75.882 169.64 75.9134 169.702 75.9134C169.765 75.9134 169.859 75.9447 170 75.9447C170.141 75.9447 170.329 75.9761 170.596 76.0074C170.721 76.0074 170.815 76.0545 170.894 76.1015C170.972 76.1485 171.019 76.2113 171.05 76.274C171.082 76.3367 171.082 76.4151 171.05 76.4778C171.035 76.5405 170.972 76.6032 170.894 76.6346C170.847 76.666 170.768 76.6816 170.674 76.6973C170.58 76.6973 170.47 76.713 170.361 76.713C170.251 76.713 170.157 76.713 170.047 76.713C169.937 76.713 169.859 76.713 169.812 76.6973C169.687 76.6816 169.624 76.6816 169.593 76.6973C169.561 76.7286 169.546 76.7914 169.546 76.9168C169.546 77.1363 169.514 77.3401 169.483 77.5439C169.452 77.7478 169.436 77.9672 169.436 78.1711C169.436 78.2495 169.436 78.3435 169.405 78.4219C169.373 78.5003 169.389 78.5944 169.405 78.6885C169.42 78.7669 169.452 78.8296 169.467 78.8296C169.483 78.8296 169.546 78.8296 169.624 78.8296C169.843 78.8139 170.032 78.7982 170.173 78.7825C170.314 78.7825 170.423 78.7669 170.517 78.7669C170.611 78.7669 170.674 78.7669 170.737 78.7825C170.8 78.7825 170.847 78.8296 170.925 78.8609C171.066 78.9236 171.144 79.049 171.144 79.1902C171.144 79.3469 171.066 79.4567 170.909 79.5508C170.862 79.5665 170.815 79.5978 170.768 79.5978C170.721 79.5978 170.627 79.6135 170.517 79.6135C170.408 79.6135 170.251 79.6135 170.047 79.5821C169.843 79.5664 169.577 79.5351 169.232 79.5194C169.201 79.5194 169.154 79.5194 169.091 79.5194C169.028 79.5194 168.95 79.5194 168.872 79.5194C168.793 79.5194 168.715 79.5194 168.637 79.5194C168.558 79.5194 168.48 79.5194 168.433 79.5194C168.339 79.5194 168.26 79.4567 168.229 79.394C168.198 79.3313 168.198 79.2529 168.26 79.1745C168.292 79.1275 168.307 79.0648 168.307 78.9864C168.307 78.908 168.307 78.7826 168.307 78.6414C168.307 78.5003 168.307 78.3278 168.307 78.124C168.307 77.9202 168.339 77.685 168.386 77.4028C168.433 77.1363 168.48 76.8227 168.527 76.4464C168.574 76.0701 168.621 75.7096 168.652 75.3489C168.684 74.9883 168.715 74.6748 168.746 74.4239C168.778 74.1574 168.793 74.0163 168.793 73.9849C168.809 73.8595 168.793 73.7811 168.762 73.7497C168.715 73.7184 168.668 73.6556 168.621 73.5616C168.574 73.4832 168.558 73.4048 168.574 73.3421C168.589 73.2794 168.637 73.2167 168.715 73.1853C168.746 73.1853 168.793 73.154 168.825 73.1383C168.856 73.1226 168.903 73.1069 168.95 73.1069H169.984C170.126 73.1069 170.267 73.1069 170.408 73.1069C170.549 73.1069 170.69 73.1069 170.862 73.1069L170.847 73.1696Z" fill="black"/>
<path d="M173.604 76.4158C173.62 75.9612 173.62 75.5065 173.604 75.0518C173.589 74.5971 173.604 74.1581 173.651 73.7034C173.651 73.5467 173.73 73.4056 173.871 73.2801C173.965 73.2018 174.075 73.139 174.184 73.0763C174.294 73.0136 174.419 72.9823 174.545 72.9509C174.811 72.9039 175.062 72.9038 175.313 72.9195C175.564 72.9352 175.814 72.998 176.065 73.1077C176.175 73.1547 176.285 73.2174 176.41 73.2958C176.535 73.3742 176.645 73.4526 176.755 73.5467C176.865 73.6408 176.974 73.7348 177.068 73.8289C177.162 73.923 177.225 74.0327 177.288 74.1424C177.319 74.2208 177.366 74.3149 177.429 74.3933C177.491 74.4717 177.523 74.5658 177.554 74.6599C177.586 74.7853 177.617 74.9107 177.648 75.0361C177.68 75.1616 177.695 75.3027 177.695 75.4281C177.695 75.7573 177.664 76.0866 177.554 76.4158C177.444 76.7451 177.288 77.0587 177.1 77.3566C176.912 77.6388 176.692 77.9053 176.441 78.1248C176.191 78.3443 175.955 78.5168 175.705 78.6265C175.564 78.6892 175.407 78.7363 175.281 78.7676C175.14 78.799 175.015 78.8303 174.905 78.846C174.796 78.8617 174.686 78.893 174.592 78.9087C174.498 78.9244 174.419 78.9558 174.357 78.9871C174.325 79.0028 174.278 79.0185 174.216 79.0342C174.153 79.0342 174.09 79.0342 174.043 79.0342C173.98 79.0342 173.933 79.0342 173.886 79.0028C173.839 79.0028 173.808 78.9715 173.792 78.9401C173.761 78.8617 173.714 78.7676 173.651 78.7049C173.589 78.6265 173.573 78.5325 173.589 78.4384C173.589 78.3286 173.604 78.0935 173.589 77.7485C173.589 77.3879 173.589 76.9489 173.62 76.4158H173.604ZM174.921 73.6408C174.921 73.6408 174.811 73.6094 174.749 73.6251C174.686 73.6251 174.639 73.6251 174.576 73.6408C174.435 73.6408 174.341 73.6878 174.294 73.7505C174.247 73.8132 174.231 73.9073 174.247 74.0484C174.278 74.4247 174.325 74.7696 174.357 75.0832C174.388 75.3967 174.419 75.6947 174.451 75.9925C174.482 76.2748 174.498 76.5726 174.513 76.8705C174.513 77.1684 174.529 77.482 174.529 77.8426C174.529 77.9523 174.545 78.0151 174.592 78.0464C174.639 78.0778 174.702 78.0778 174.811 78.0464C175.109 77.968 175.375 77.8426 175.595 77.6388C175.814 77.4506 176.018 77.2312 176.191 76.9803C176.269 76.8549 176.332 76.7294 176.41 76.604C176.473 76.4786 176.535 76.3531 176.598 76.2277C176.692 76.0239 176.755 75.8201 176.755 75.6006C176.755 75.3811 176.739 75.1772 176.676 74.9734C176.614 74.7696 176.52 74.5815 176.394 74.409C176.269 74.2365 176.112 74.0798 175.94 73.97C175.783 73.8603 175.626 73.7819 175.454 73.7191C175.281 73.6564 175.109 73.6251 174.905 73.6408H174.921Z" fill="black"/>
<path d="M179.78 73.4523C179.78 73.3426 179.827 73.2642 179.874 73.2015C179.921 73.1544 179.984 73.123 180.047 73.123C180.109 73.123 180.156 73.1544 180.219 73.2015C180.266 73.2485 180.313 73.3269 180.313 73.4209C180.313 73.515 180.344 73.6875 180.36 73.9697C180.36 74.2362 180.391 74.5498 180.407 74.9104C180.407 75.271 180.438 75.6473 180.438 76.0549C180.438 76.4626 180.454 76.8545 180.454 77.2308C180.454 77.3562 180.454 77.4974 180.438 77.6071C180.438 77.7326 180.423 77.8423 180.423 77.9677C180.423 78.0931 180.423 78.2029 180.423 78.3126C180.423 78.4224 180.438 78.5478 180.485 78.6733C180.517 78.8144 180.501 78.9398 180.423 79.0339C180.344 79.1279 180.25 79.175 180.109 79.1593C179.89 79.1436 179.749 79.0652 179.655 78.9241C179.561 78.783 179.514 78.6105 179.498 78.4224C179.498 78.2186 179.498 78.0147 179.514 77.7796C179.545 77.5444 179.561 77.3406 179.592 77.1367C179.592 77.0897 179.592 76.98 179.608 76.8388C179.608 76.6821 179.608 76.5096 179.623 76.2901C179.623 76.0706 179.639 75.8354 179.655 75.5846C179.655 75.318 179.67 75.0672 179.686 74.8164C179.686 74.5498 179.717 74.3146 179.733 74.0795C179.749 73.8443 179.764 73.6404 179.78 73.468V73.4523Z" fill="black"/>
<path d="M183.448 77.2305C183.417 77.403 183.448 77.5598 183.511 77.6695C183.589 77.795 183.699 77.9047 183.809 77.9988C183.856 78.0459 183.95 78.0615 184.075 78.0772C184.201 78.0929 184.342 78.0929 184.498 78.0929C184.655 78.0929 184.796 78.0929 184.922 78.0929C185.063 78.0929 185.157 78.0772 185.219 78.0615C185.407 77.9988 185.58 77.9518 185.752 77.9047C185.925 77.8577 186.081 77.7793 186.254 77.7009C186.395 77.6382 186.505 77.6068 186.614 77.6382C186.724 77.6696 186.787 77.7166 186.818 77.8107C186.849 77.8891 186.818 77.9988 186.771 78.1242C186.724 78.2497 186.583 78.3908 186.379 78.5319C186.113 78.72 185.831 78.8768 185.517 78.9866C185.219 79.0963 184.89 79.159 184.545 79.1747C184.357 79.1747 184.201 79.1747 184.059 79.1747C183.918 79.1747 183.793 79.1433 183.668 79.0963C183.542 79.0649 183.433 79.0023 183.323 78.9395C183.213 78.8768 183.103 78.7984 182.978 78.7043C182.837 78.5789 182.712 78.4378 182.602 78.281C182.492 78.1242 182.445 77.9361 182.414 77.748C182.367 77.3246 182.414 76.917 182.508 76.5564C182.618 76.1801 182.79 75.8352 183.009 75.4902C183.229 75.161 183.495 74.8474 183.809 74.5652C184.122 74.283 184.451 74.0321 184.812 73.7969C184.953 73.7029 185.11 73.6245 185.282 73.5618C185.439 73.4991 185.611 73.4834 185.799 73.4834C185.878 73.4834 185.956 73.4991 186.034 73.5147C186.113 73.5147 186.176 73.5618 186.238 73.6245C186.301 73.6872 186.348 73.7499 186.348 73.8283C186.348 73.9067 186.348 73.9694 186.301 74.0322C186.254 74.0949 186.207 74.1262 186.175 74.1105C186.144 74.1105 186.081 74.0792 186.019 74.0635C185.956 74.0478 185.862 74.0635 185.752 74.0635C185.643 74.0949 185.486 74.1733 185.282 74.3301C185.094 74.4712 184.922 74.6122 184.733 74.7847C184.545 74.9572 184.373 75.1296 184.216 75.3178C184.06 75.5059 183.918 75.7097 183.793 75.9292C183.668 76.1487 183.589 76.3526 183.542 76.5721C183.511 76.6818 183.48 76.7759 183.464 76.8856C183.433 76.9954 183.433 77.1051 183.448 77.2305Z" fill="black"/>
<path d="M188.858 73.4523C188.858 73.3426 188.905 73.2642 188.952 73.2015C188.999 73.1544 189.062 73.123 189.124 73.123C189.187 73.123 189.234 73.1544 189.297 73.2015C189.344 73.2485 189.391 73.3269 189.391 73.4209C189.391 73.515 189.422 73.6875 189.438 73.9697C189.438 74.2362 189.469 74.5498 189.485 74.9104C189.485 75.271 189.516 75.6473 189.516 76.0549C189.516 76.4626 189.532 76.8545 189.532 77.2308C189.532 77.3562 189.532 77.4974 189.516 77.6071C189.516 77.7326 189.501 77.8423 189.501 77.9677C189.501 78.0931 189.501 78.2029 189.501 78.3126C189.501 78.4224 189.516 78.5478 189.563 78.6733C189.595 78.8144 189.579 78.9398 189.501 79.0339C189.422 79.1279 189.328 79.175 189.187 79.1593C188.968 79.1436 188.827 79.0652 188.733 78.9241C188.639 78.783 188.592 78.6105 188.576 78.4224C188.576 78.2186 188.576 78.0147 188.592 77.7796C188.623 77.5444 188.639 77.3406 188.67 77.1367C188.67 77.0897 188.67 76.98 188.686 76.8388C188.686 76.6821 188.686 76.5096 188.701 76.2901C188.701 76.0706 188.717 75.8354 188.733 75.5846C188.733 75.318 188.748 75.0672 188.764 74.8164C188.764 74.5498 188.795 74.3146 188.811 74.0795C188.827 73.8443 188.842 73.6404 188.858 73.468V73.4523Z" fill="black"/>
<path d="M192.916 75.5215C192.79 76.2897 192.68 76.9012 192.602 77.3716C192.524 77.8419 192.461 78.2025 192.43 78.469C192.398 78.7356 192.367 78.908 192.351 79.0178C192.336 79.1275 192.336 79.1903 192.336 79.2216C192.336 79.253 192.336 79.2843 192.336 79.2843C192.336 79.2843 192.32 79.3471 192.304 79.4254C192.273 79.5352 192.21 79.6136 192.148 79.6606C192.085 79.7077 192.006 79.7233 191.928 79.7077C191.85 79.7077 191.787 79.6763 191.74 79.6292C191.677 79.5822 191.646 79.5195 191.646 79.4411C191.646 79.3627 191.615 79.2843 191.615 79.2059C191.615 79.1275 191.615 79.0491 191.615 78.9551C191.63 78.814 191.646 78.6886 191.646 78.5475C191.646 78.4064 191.646 78.2809 191.693 78.1398C191.818 77.5283 191.912 76.9953 192.006 76.5719C192.101 76.1486 192.179 75.7723 192.242 75.4744C192.304 75.1765 192.351 74.9257 192.383 74.7375C192.414 74.5494 192.445 74.3926 192.461 74.2672C192.461 74.1418 192.477 74.032 192.477 73.938C192.477 73.8439 192.461 73.7498 192.43 73.6401C192.398 73.5303 192.414 73.4363 192.461 73.3422C192.508 73.2481 192.571 73.201 192.649 73.1697C192.727 73.1383 192.806 73.1383 192.884 73.1697C192.963 73.2167 193.025 73.2951 193.057 73.4362C193.166 73.8125 193.292 74.1888 193.433 74.5651C193.574 74.9414 193.715 75.3177 193.872 75.694C194.028 76.0702 194.185 76.4465 194.342 76.8071C194.499 77.1834 194.655 77.544 194.796 77.9046C194.843 77.9046 194.875 77.9046 194.89 77.8576C194.906 77.8106 194.922 77.7321 194.922 77.5753C194.922 77.4186 194.938 77.1834 194.953 76.8698C194.953 76.5563 194.985 76.1173 195.032 75.5372C195.063 75.0982 195.094 74.7219 195.11 74.4396C195.126 74.1574 195.157 73.9223 195.188 73.7498C195.22 73.5773 195.267 73.4519 195.329 73.3578C195.392 73.2638 195.47 73.1854 195.564 73.1227C195.69 73.0599 195.8 73.0443 195.894 73.0913C195.988 73.1384 196.035 73.2324 196.05 73.3735C196.05 73.5303 196.05 73.7028 196.05 73.8752C196.05 74.0477 196.035 74.2045 196.003 74.377C195.956 74.8787 195.909 75.3176 195.894 75.7096C195.862 76.1016 195.847 76.4779 195.831 76.8385C195.815 77.1991 195.784 77.591 195.753 77.9673C195.721 78.3593 195.674 78.7983 195.611 79.3C195.611 79.3941 195.564 79.4724 195.517 79.5352C195.47 79.5979 195.392 79.6449 195.314 79.6763C195.235 79.7076 195.141 79.7233 195.047 79.7077C194.953 79.7077 194.859 79.6449 194.781 79.5822C194.624 79.4568 194.483 79.3 194.373 79.0962C194.263 78.8923 194.138 78.6415 194.013 78.3436C193.887 78.0457 193.746 77.6694 193.605 77.2461C193.448 76.8071 193.276 76.2897 193.057 75.6783C193.057 75.6469 193.025 75.6156 193.025 75.5999C193.025 75.5685 192.978 75.5372 192.931 75.5058L192.916 75.5215Z" fill="black"/>
<path d="M200.784 73.1696C200.893 73.1696 201.003 73.1696 201.097 73.1696C201.207 73.1696 201.301 73.2167 201.395 73.2951C201.52 73.4048 201.583 73.5146 201.614 73.6243C201.646 73.7341 201.614 73.8438 201.567 73.9379C201.52 74.032 201.426 74.1103 201.317 74.1574C201.207 74.2044 201.082 74.2201 200.94 74.2044C200.549 74.1417 200.251 74.0946 200.047 74.0476C199.859 74.0162 199.718 73.9849 199.64 73.9849C199.561 73.9849 199.53 73.9849 199.53 74.0006V74.1103C199.53 74.3769 199.53 74.6277 199.53 74.8943C199.53 75.1608 199.546 75.4116 199.53 75.6782C199.53 75.7566 199.53 75.8193 199.53 75.8507C199.53 75.882 199.577 75.9134 199.64 75.9134C199.702 75.9134 199.796 75.9447 199.937 75.9447C200.078 75.9447 200.267 75.9761 200.533 76.0074C200.658 76.0074 200.752 76.0545 200.831 76.1015C200.909 76.1485 200.956 76.2113 200.987 76.274C201.019 76.3367 201.019 76.4151 200.987 76.4778C200.972 76.5405 200.909 76.6032 200.831 76.6346C200.784 76.666 200.705 76.6816 200.611 76.6973C200.517 76.6973 200.408 76.713 200.298 76.713C200.188 76.713 200.094 76.713 199.984 76.713C199.875 76.713 199.796 76.713 199.749 76.6973C199.624 76.6816 199.561 76.6816 199.53 76.6973C199.498 76.7286 199.483 76.7914 199.483 76.9168C199.483 77.1363 199.451 77.3401 199.42 77.5439C199.389 77.7478 199.373 77.9672 199.373 78.1711C199.373 78.2495 199.373 78.3435 199.342 78.4219C199.31 78.5003 199.326 78.5944 199.342 78.6885C199.357 78.7669 199.389 78.8296 199.404 78.8296C199.42 78.8296 199.483 78.8296 199.561 78.8296C199.781 78.8139 199.969 78.7982 200.11 78.7825C200.251 78.7825 200.361 78.7669 200.455 78.7669C200.549 78.7669 200.611 78.7669 200.674 78.7825C200.737 78.7825 200.784 78.8296 200.862 78.8609C201.003 78.9236 201.082 79.049 201.082 79.1902C201.082 79.3469 201.003 79.4567 200.846 79.5508C200.799 79.5665 200.752 79.5978 200.705 79.5978C200.658 79.5978 200.564 79.6135 200.455 79.6135C200.345 79.6135 200.188 79.6135 199.984 79.5821C199.781 79.5664 199.514 79.5351 199.169 79.5194C199.138 79.5194 199.091 79.5194 199.028 79.5194C198.966 79.5194 198.887 79.5194 198.809 79.5194C198.73 79.5194 198.652 79.5194 198.574 79.5194C198.495 79.5194 198.417 79.5194 198.37 79.5194C198.276 79.5194 198.198 79.4567 198.166 79.394C198.135 79.3313 198.135 79.2529 198.198 79.1745C198.229 79.1275 198.245 79.0648 198.245 78.9864C198.245 78.908 198.245 78.7826 198.245 78.6414C198.245 78.5003 198.245 78.3278 198.245 78.124C198.245 77.9202 198.276 77.685 198.323 77.4028C198.37 77.1363 198.417 76.8227 198.464 76.4464C198.511 76.0701 198.558 75.7096 198.589 75.3489C198.621 74.9883 198.652 74.6748 198.683 74.4239C198.715 74.1574 198.73 74.0163 198.73 73.9849C198.746 73.8595 198.73 73.7811 198.699 73.7497C198.652 73.7184 198.605 73.6556 198.558 73.5616C198.511 73.4832 198.495 73.4048 198.511 73.3421C198.527 73.2794 198.574 73.2167 198.652 73.1853C198.683 73.1853 198.73 73.154 198.762 73.1383C198.793 73.1226 198.84 73.1069 198.887 73.1069H199.922C200.063 73.1069 200.204 73.1069 200.345 73.1069C200.486 73.1069 200.627 73.1069 200.799 73.1069L200.784 73.1696Z" fill="black"/>
</g>
</g>
<defs>
<linearGradient id="paint0_linear_5928_16341" x1="223.354" y1="150.92" x2="223.354" y2="65.4247" gradientUnits="userSpaceOnUse">
<stop offset="0.02" stop-color="#FF8547"/>
<stop offset="1" stop-color="#FFB834"/>
</linearGradient>
<clipPath id="clip0_5928_16341">
<path d="M0 0H360V160H0V0Z" fill="white"/>
</clipPath>
<clipPath id="clip1_5928_16341">
<rect width="362" height="187" fill="white" transform="translate(-18 -15)"/>
</clipPath>
</defs>
</svg>
