<svg width="360" height="160" viewBox="0 0 360 160" fill="none" xmlns="http://www.w3.org/2000/svg">
<g clip-path="url(#clip0_5928_16118)">
<path d="M0 0H360V160H0V0Z" fill="#DADEF5"/>
<rect width="390" height="197" transform="translate(-16 -19)" fill="#2B357A"/>
<g clip-path="url(#clip1_5928_16118)">
<path d="M1172.92 -315.377H-426.343V1070.54H1172.92V-315.377Z" fill="#40C2B0" stroke="#40C2B0" stroke-miterlimit="10"/>
<path d="M268.951 -315.911V1070.38" stroke="#66CEC0" stroke-width="3" stroke-miterlimit="10"/>
<path d="M228.661 -315.911V1070.38" stroke="#66CEC0" stroke-width="3" stroke-miterlimit="10"/>
<path d="M248.798 -315.911V1070.38" stroke="#66CEC0" stroke-width="15.01" stroke-miterlimit="10"/>
<path d="M144.463 -315.911V1070.38" stroke="#66CEC0" stroke-width="3" stroke-miterlimit="10"/>
<path d="M104.168 -315.911V1070.38" stroke="#66CEC0" stroke-width="3" stroke-miterlimit="10"/>
<path d="M124.307 -315.911V1070.38" stroke="#66CEC0" stroke-width="15.01" stroke-miterlimit="10"/>
<path d="M19.9697 -315.911V1070.38" stroke="#66CEC0" stroke-width="3" stroke-miterlimit="10"/>
<path d="M-0.185669 -315.911V1070.38" stroke="#66CEC0" stroke-width="15.01" stroke-miterlimit="10"/>
<path fill-rule="evenodd" clip-rule="evenodd" d="M-26.3497 1120.65V-144.241L728.312 -126.938L712.734 1123.61L-26.3497 1120.65Z" fill="#20285C"/>
<path fill-rule="evenodd" clip-rule="evenodd" d="M181.4 1095.8L664.647 1097L694 -99.0546L-9 -101L15.7144 1095.4L181.4 1095.8Z" fill="#2B357A"/>
<path fill-rule="evenodd" clip-rule="evenodd" d="M35.6079 150.142L662.654 153.599V191.085L35.4302 189.305L35.6079 150.142Z" fill="white"/>
<path fill-rule="evenodd" clip-rule="evenodd" d="M198.525 147.159L196.348 70.1387H241.705L239.839 147.144C239.78 149.325 238.018 151.047 235.841 151.047H202.523C200.361 151.047 198.584 149.325 198.525 147.159Z" fill="url(#paint0_linear_5928_16118)"/>
<path fill-rule="evenodd" clip-rule="evenodd" d="M194.259 73.7301H243.866L243.911 63.8911C243.911 62.1549 242.578 60.745 240.919 60.7599L196.999 61.1457C195.34 61.1457 194.022 62.6 194.052 64.3363L194.259 73.7301Z" fill="white"/>
<path d="M201.19 73.7596L200.924 61.7688L201.397 61.7095L201.664 73.7002L201.19 73.7596Z" fill="#D5D5D6"/>
<path d="M205.618 73.7741L205.351 61.4123L205.81 61.3232L206.092 73.6851L205.618 73.7741Z" fill="#D5D5D6"/>
<path d="M209.721 73.7743L209.41 61.3976L209.884 61.3086L210.195 73.6852L209.721 73.7743Z" fill="#D5D5D6"/>
<path d="M213.927 61.3389H213.453V73.7303H213.927V61.3389Z" fill="#D5D5D6"/>
<path d="M217.777 61.2046H217.303V73.7296H217.777V61.2046Z" fill="#D5D5D6"/>
<path d="M222.394 73.7745L221.92 73.6855L222.039 61.1011L222.513 61.1753L222.394 73.7745Z" fill="#D5D5D6"/>
<path d="M197.369 73.7745L197.132 61.6353L197.606 61.5166L197.843 73.6706L197.369 73.7745Z" fill="#D5D5D6"/>
<path d="M226.928 73.4331L226.647 61.0713L227.121 60.9971L227.402 73.344L226.928 73.4331Z" fill="#D5D5D6"/>
<path d="M231.031 73.4333L230.72 61.0566L231.194 60.9824L231.505 73.3442L231.031 73.4333Z" fill="#D5D5D6"/>
<path d="M235.219 60.9971H234.745V73.3886H235.219V60.9971Z" fill="#D5D5D6"/>
<path d="M239.069 60.8638H238.595V73.3888H239.069V60.8638Z" fill="#D5D5D6"/>
<path fill-rule="evenodd" clip-rule="evenodd" d="M199.281 109.688L199.962 142.44C200.006 144.666 201.606 146.535 203.782 146.936C210.268 148.108 223.921 149.83 234.79 146.209C236.641 145.601 237.9 143.864 237.945 141.92L238.759 112.967L199.281 109.702V109.688Z" fill="#FFA835"/>
<path fill-rule="evenodd" clip-rule="evenodd" d="M197.164 95.7974H241.084L240.344 126.041L197.948 127.021L197.164 95.7974Z" fill="white"/>
<g opacity="0.5" style="mix-blend-mode:multiply">
<path fill-rule="evenodd" clip-rule="evenodd" d="M205.973 97.251L206.299 99.3138L232.036 99.5512L232.48 97.251H205.973Z" fill="#E5E5E5"/>
</g>
<g opacity="0.5" style="mix-blend-mode:multiply">
<path fill-rule="evenodd" clip-rule="evenodd" d="M195.266 73.6259L195.769 75.1099H242.414L242.888 73.4033" fill="#E5E5E5"/>
</g>
<path d="M242.239 73.4329L241.765 73.3587L241.883 61.1602L242.357 61.2344L242.239 73.4329Z" fill="#D5D5D6"/>
<path d="M201.264 103.306H201.916L203.175 105.102L204.433 103.306H205.085V106.808H204.211V105.131L203.338 106.363H203.012L202.138 105.131V106.808H201.279V103.306H201.264Z" fill="black"/>
<path d="M206.772 103.306V106.808H205.884V103.306H206.772Z" fill="black"/>
<path d="M207.293 106.259L207.737 105.606C208.004 105.874 208.345 106.052 208.73 106.052C208.922 106.052 209.129 105.977 209.129 105.799C209.129 105.681 209.011 105.592 208.848 105.532C208.641 105.458 208.345 105.384 208.093 105.25C207.782 105.087 207.515 104.82 207.515 104.345C207.515 103.737 208.048 103.262 208.818 103.262C209.248 103.262 209.692 103.395 210.062 103.707L209.648 104.375C209.44 104.197 209.085 104.093 208.833 104.093C208.582 104.093 208.463 104.197 208.463 104.315C208.463 104.464 208.611 104.523 208.744 104.568C208.922 104.642 209.218 104.731 209.455 104.835C209.825 104.998 210.122 105.25 210.122 105.755C210.122 106.393 209.588 106.868 208.744 106.868C208.167 106.868 207.678 106.645 207.323 106.259H207.293Z" fill="black"/>
<path d="M210.521 105.057C210.521 104.048 211.306 103.247 212.342 103.247C213.379 103.247 214.164 104.048 214.164 105.057C214.164 106.066 213.379 106.853 212.342 106.853C211.306 106.853 210.521 106.051 210.521 105.057ZM213.26 105.057C213.26 104.508 212.846 104.122 212.342 104.122C211.839 104.122 211.424 104.508 211.424 105.057C211.424 105.606 211.824 105.992 212.342 105.992C212.86 105.992 213.26 105.591 213.26 105.057Z" fill="black"/>
<path d="M217.495 104.523C217.495 105.161 217.11 105.71 216.118 105.71H215.674V106.808H214.785V103.306H216.177C217.125 103.306 217.495 103.9 217.495 104.523ZM216.592 104.508C216.592 104.286 216.429 104.108 216.192 104.108H215.688V104.909H216.177C216.473 104.909 216.607 104.716 216.607 104.508H216.592Z" fill="black"/>
<path d="M219.286 105.651H218.945V106.808H218.057V103.306H219.508C220.381 103.306 220.781 103.84 220.781 104.464C220.781 104.879 220.604 105.295 220.145 105.502L220.9 106.794H219.893L219.286 105.636V105.651ZM218.93 104.879H219.463C219.76 104.879 219.878 104.686 219.878 104.493C219.878 104.3 219.745 104.122 219.493 104.122H218.93V104.879Z" fill="black"/>
<path d="M221.27 105.057C221.27 104.048 222.055 103.247 223.092 103.247C224.128 103.247 224.913 104.048 224.913 105.057C224.913 106.066 224.128 106.853 223.092 106.853C222.055 106.853 221.27 106.051 221.27 105.057ZM224.01 105.057C224.01 104.508 223.595 104.122 223.092 104.122C222.588 104.122 222.174 104.508 222.174 105.057C222.174 105.606 222.573 105.992 223.092 105.992C223.61 105.992 224.01 105.591 224.01 105.057Z" fill="black"/>
<path d="M225.224 106.259L225.668 105.606C225.934 105.874 226.275 106.052 226.66 106.052C226.853 106.052 227.06 105.977 227.06 105.799C227.06 105.681 226.941 105.592 226.778 105.532C226.571 105.458 226.275 105.384 226.023 105.25C225.712 105.087 225.446 104.82 225.446 104.345C225.446 103.737 225.979 103.262 226.749 103.262C227.178 103.262 227.623 103.395 227.993 103.707L227.578 104.375C227.371 104.197 227.015 104.093 226.764 104.093C226.512 104.093 226.393 104.197 226.393 104.315C226.393 104.464 226.542 104.523 226.675 104.568C226.852 104.642 227.149 104.731 227.386 104.835C227.756 104.998 228.052 105.25 228.052 105.755C228.052 106.393 227.519 106.868 226.675 106.868C226.097 106.868 225.609 106.645 225.253 106.259H225.224Z" fill="black"/>
<path d="M228.304 104.167V103.321H231.132V104.167H230.17V106.809H229.281V104.167H228.319H228.304Z" fill="black"/>
<path d="M231.384 105.057C231.384 104.048 232.169 103.247 233.205 103.247C234.242 103.247 235.027 104.048 235.027 105.057C235.027 106.066 234.242 106.853 233.205 106.853C232.169 106.853 231.384 106.051 231.384 105.057ZM234.108 105.057C234.108 104.508 233.694 104.122 233.19 104.122C232.687 104.122 232.272 104.508 232.272 105.057C232.272 105.606 232.672 105.992 233.19 105.992C233.709 105.992 234.108 105.591 234.108 105.057Z" fill="black"/>
<path d="M235.65 103.306H236.539V105.963H238.227V106.808H235.65V103.306Z" fill="black"/>
<path d="M230.734 116.336C230.734 114.659 231.223 112.922 229.816 111.72C229.816 111.72 229.831 111.616 229.757 111.557C228.809 110.874 227.551 110.726 226.41 110.696C215.497 110.444 186.503 110.563 175.56 110.503V110.533C170.954 110.489 165.727 110.118 161.226 110.459C159.967 110.548 158.708 110.978 158.501 112.388C158.16 114.777 158.323 117.701 158.323 120.15C158.323 127.733 158.427 132.719 158.501 140.332C158.516 142.795 158.353 145.407 158.442 147.841C158.471 148.598 158.782 149.473 159.33 149.993C159.463 150.112 159.626 150.126 159.715 150.186C161.077 151.15 162.218 150.824 163.758 150.854C168.096 150.928 172.45 150.913 176.833 150.928V150.898C184.992 150.943 211.217 151.017 219.421 151.047C221.864 151.047 224.663 151.225 227.092 151.061C227.995 151.002 228.676 150.794 229.372 150.245C231.164 148.835 230.616 146.476 230.631 144.487C230.749 134.248 230.779 126.605 230.734 116.365V116.336Z" fill="#C6C5C6"/>
<path d="M165.934 124.987C166.2 124.082 166.393 123.147 166.526 122.227C166.689 121.144 166.822 120.016 166.867 118.932C166.926 117.33 166.867 115.682 166.274 114.154C169.962 113.961 171.561 117.834 171.531 120.016C171.502 122.197 169.606 125.818 165.934 124.987Z" fill="#DDDDDD"/>
<path d="M165.931 124.988C160.289 123.711 160.615 114.451 166.272 114.154C166.864 115.698 166.923 117.345 166.864 118.933C166.82 120.016 166.686 121.144 166.523 122.227C166.39 123.147 166.198 124.082 165.931 124.988Z" fill="#E5E4E5"/>
<path d="M164.881 143.597C165.148 142.692 165.34 141.757 165.473 140.837C165.636 139.753 165.77 138.626 165.814 137.542C165.873 135.94 165.814 134.292 165.222 132.764C168.909 132.571 170.508 136.444 170.479 138.626C170.449 140.807 168.553 144.428 164.881 143.597Z" fill="#DDDDDD"/>
<path d="M164.883 143.597C159.241 142.321 159.566 133.06 165.223 132.764C165.815 134.307 165.875 135.954 165.816 137.542C165.771 138.626 165.638 139.753 165.475 140.837C165.342 141.757 165.149 142.692 164.883 143.597Z" fill="#E5E4E5"/>
<path d="M220.487 142.677C220.753 141.772 220.946 140.837 221.079 139.917C221.242 138.834 221.375 137.706 221.42 136.622C221.479 135.02 221.42 133.372 220.827 131.844C224.515 131.651 226.114 135.524 226.084 137.706C226.055 139.887 224.159 143.508 220.487 142.677Z" fill="#DDDDDD"/>
<path d="M220.484 142.677C214.842 141.4 215.168 132.14 220.825 131.843C221.417 133.387 221.476 135.034 221.417 136.622C221.373 137.705 221.239 138.833 221.076 139.916C220.943 140.836 220.751 141.771 220.484 142.677Z" fill="#E5E4E5"/>
<path d="M219.686 124.987C219.952 124.082 220.145 123.147 220.278 122.227C220.441 121.144 220.574 120.016 220.618 118.932C220.678 117.33 220.618 115.682 220.026 114.154C223.713 113.961 225.313 117.834 225.283 120.016C225.253 122.197 223.358 125.818 219.686 124.987Z" fill="#DDDDDD"/>
<path d="M219.687 124.988C214.045 123.711 214.371 114.451 220.027 114.154C220.62 115.698 220.679 117.345 220.62 118.933C220.575 120.016 220.442 121.144 220.279 122.227C220.146 123.147 219.953 124.082 219.687 124.988Z" fill="#E5E4E5"/>
<path d="M191.061 136.132L196.348 120.921C206.536 124.246 201.412 139.813 191.061 136.132Z" fill="#DDDDDD"/>
<path d="M191.061 136.132C181.184 132.615 186.174 117.597 196.348 120.921L191.061 136.132Z" fill="#E5E4E5"/>
<path opacity="0.1" d="M230.806 121.604C230.806 121.604 226.157 135.272 217.005 140.421C199.902 150.038 158.824 150.156 158.824 150.156C160.216 151.121 161.105 151.017 162.675 151.047C166.998 151.121 176.002 150.898 176.002 150.898C184.398 150.943 224.631 151.225 227.104 151.062C228.022 151.002 228.704 150.794 229.429 150.245C231.251 148.836 230.688 146.476 230.717 144.487C230.836 134.248 230.821 122.895 230.821 121.619L230.806 121.604Z" fill="#868686"/>
<path fill-rule="evenodd" clip-rule="evenodd" d="M114.77 150.542L110.121 88.5255L192.246 87.7241L190.277 151.091L114.77 150.542Z" fill="#72E1F1"/>
<path fill-rule="evenodd" clip-rule="evenodd" d="M111.173 103.439L191.877 99.5811L190.737 138.729L113.972 139.56L111.173 103.439Z" fill="white"/>
<path fill-rule="evenodd" clip-rule="evenodd" d="M128.378 104.122L174.402 102.386L174.416 104.612L128.393 106.096L128.378 104.122Z" fill="#E1E1E1"/>
<path fill-rule="evenodd" clip-rule="evenodd" d="M122.056 134.574L134.169 134.114L134.184 135.539L122.071 135.851L122.056 134.574Z" fill="#E1E1E1"/>
<path fill-rule="evenodd" clip-rule="evenodd" d="M121.716 132.111L133.829 131.651L133.843 133.076L121.73 133.372L121.716 132.111Z" fill="#E1E1E1"/>
<path d="M171.971 146.12L135.501 146.515L135.517 148.014L171.987 147.618L171.971 146.12Z" fill="#E1E1E1"/>
<path fill-rule="evenodd" clip-rule="evenodd" d="M141.929 128.92L140.671 115.861L164.674 115.341L163.505 128.683L141.929 128.92Z" fill="#C6F2F9"/>
<path d="M133.859 109.168H134.51L135.769 110.964L137.028 109.168H137.679V112.671H136.805V110.994L135.932 112.226H135.606L134.732 110.994V112.671H133.873V109.168H133.859Z" fill="black"/>
<path d="M139.366 109.168V112.671H138.478V109.168H139.366Z" fill="black"/>
<path d="M140.183 109.168H142.656V109.999H141.057V110.577H142.464V111.394H141.057V112.655H140.168V109.153L140.183 109.168Z" fill="black"/>
<path d="M143.249 109.168H145.766V109.985H144.137V110.504H145.647V111.32H144.137V111.855H145.766V112.671H143.249V109.168Z" fill="black"/>
<path d="M149.186 110.385C149.186 111.023 148.801 111.573 147.809 111.573H147.365V112.671H146.476V109.168H147.868C148.816 109.168 149.186 109.762 149.186 110.385ZM148.283 110.385C148.283 110.163 148.12 109.985 147.883 109.985H147.379V110.786H147.868C148.164 110.786 148.297 110.593 148.297 110.385H148.283Z" fill="black"/>
<path d="M150.961 111.513H150.62V112.671H149.732V109.168H151.183C152.057 109.168 152.456 109.703 152.456 110.326C152.456 110.742 152.279 111.157 151.82 111.365L152.575 112.656H151.568L150.961 111.498V111.513ZM150.62 110.742H151.153C151.449 110.742 151.568 110.549 151.568 110.356C151.568 110.163 151.435 109.985 151.183 109.985H150.62V110.742Z" fill="black"/>
<path d="M154.057 109.168V112.671H153.169V109.168H154.057Z" fill="black"/>
<path d="M154.576 112.121L155.02 111.468C155.287 111.735 155.628 111.913 156.013 111.913C156.205 111.913 156.412 111.839 156.412 111.661C156.412 111.543 156.294 111.453 156.131 111.394C155.924 111.32 155.628 111.246 155.376 111.112C155.065 110.949 154.798 110.682 154.798 110.207C154.798 109.598 155.331 109.124 156.101 109.124C156.531 109.124 156.975 109.257 157.345 109.569L156.931 110.237C156.723 110.058 156.368 109.955 156.116 109.955C155.864 109.955 155.746 110.058 155.746 110.177C155.746 110.326 155.894 110.385 156.027 110.429C156.205 110.504 156.501 110.593 156.738 110.697C157.108 110.86 157.405 111.112 157.405 111.617C157.405 112.255 156.871 112.73 156.027 112.73C155.45 112.73 154.961 112.507 154.606 112.121H154.576Z" fill="black"/>
<path d="M157.656 110.029V109.183H160.485V110.029H159.522V112.671H158.634V110.029H157.671H157.656Z" fill="black"/>
<path d="M160.719 110.919C160.719 109.91 161.503 109.108 162.54 109.108C163.576 109.108 164.361 109.91 164.361 110.919C164.361 111.928 163.576 112.715 162.54 112.715C161.503 112.715 160.719 111.913 160.719 110.919ZM163.458 110.919C163.458 110.37 163.043 109.984 162.54 109.984C162.036 109.984 161.622 110.37 161.622 110.919C161.622 111.468 162.022 111.854 162.54 111.854C163.058 111.854 163.458 111.453 163.458 110.919Z" fill="black"/>
<path d="M168.124 109.168V112.671H167.458L165.873 110.801V112.671H165.015V109.168H165.651L167.265 111.068V109.168H168.139H168.124Z" fill="black"/>
<path d="M168.924 109.168H171.441V109.985H169.813V110.504H171.323V111.32H169.813V111.855H171.441V112.671H168.924V109.168Z" fill="black"/>
<path d="M77.1154 26.5827C73.5022 27.6808 71.666 30.8715 71.666 33.8989V37.9502C71.666 38.8554 72.3916 39.5826 73.2949 39.5826H101.504C105.28 39.5826 270.686 39.1968 270.686 39.1968C270.686 39.1968 284.28 38.8109 285.79 38.8109C287.301 38.8109 287.686 34.2699 286.175 31.6135C284.665 28.9571 284.665 27.0724 278.623 25.9297C272.582 24.787 221.982 25.9297 221.982 25.9297C221.982 25.9297 79.1145 25.9594 77.1302 26.5678L77.1154 26.5827Z" fill="white"/>
<path opacity="0.2" d="M72.1553 39.034L81.8842 42.0614C81.8842 42.0614 85.0679 80.0817 86.0749 81.5954C87.0818 83.109 88.9328 83.9549 89.2586 85.2905C89.5844 86.6261 95.626 145.541 96.1295 146.372C96.633 147.203 97.1513 150.513 103.356 150.513C109.56 150.513 259.98 151.344 259.98 151.344C259.98 151.344 262.305 151.73 263.149 148.865C263.993 146.001 266.511 119.096 266.511 119.096L269.695 84.9492C269.695 84.9492 272.553 84.786 273.219 81.254C273.885 77.7221 277.75 40.3844 277.75 40.3844L285.465 38.7075L72.1405 39.0488L72.1553 39.034Z" fill="#F6F6F6"/>
<path opacity="0.1" d="M81.8522 41.6008C81.8522 41.6008 87.7754 71.2513 93.9356 77.9293C100.718 85.2752 144.031 84.2364 144.031 84.2364C143.32 84.7261 112.312 84.5777 111.513 84.5925C109.306 84.6222 104.731 84.5183 104.731 84.5183C100.451 84.5332 90.5742 84.7706 89.3155 84.6815C88.8416 84.6519 86.9165 82.6782 86.5463 82.3962C85.6134 81.669 85.5542 79.0275 85.2581 76.846C84.5621 71.6816 81.8374 42.2389 81.8374 41.5859L81.8522 41.6008Z" fill="#C6C5C6"/>
<path opacity="0.1" d="M277.779 40.4585C277.779 40.4585 271.442 71.7117 265.281 78.4046C258.499 85.7505 215.186 84.7116 215.186 84.7116C215.897 85.2014 246.905 85.053 247.704 85.0678C249.911 85.0975 254.486 84.9936 254.486 84.9936C258.766 85.0085 268.613 84.9936 269.872 84.9936C270.923 84.9936 272.019 83.7619 272.374 83.4799C273.307 82.7527 273.663 79.0576 273.959 76.8761C274.655 71.7117 277.779 41.1263 277.779 40.4733V40.4585Z" fill="#C6C5C6"/>
<path d="M205.084 68.2837H151.464V91.9982H205.084V68.2837Z" fill="#F6F6F6"/>
<path d="M163.727 78.1079C163.727 78.1079 163.638 78.182 163.579 78.2859C163.519 78.3898 163.445 78.5085 163.356 78.6569C163.282 78.8053 163.194 78.9686 163.105 79.1467C163.016 79.3248 162.942 79.5028 162.868 79.6661C162.794 79.8442 162.735 79.9925 162.66 80.1409C162.586 80.2893 162.557 80.3932 162.527 80.4674C162.498 80.5416 162.468 80.6158 162.438 80.7197C162.409 80.8236 162.379 80.9126 162.364 81.0165C162.335 81.1204 162.32 81.1946 162.29 81.2837C162.261 81.3579 162.246 81.4024 162.231 81.4321C162.127 81.6101 161.979 81.6992 161.816 81.6992C161.639 81.6992 161.505 81.5953 161.387 81.4024C161.239 81.1352 161.135 80.9423 161.061 80.8236C160.987 80.7049 160.943 80.601 160.913 80.5416C160.883 80.4823 160.854 80.4229 160.839 80.3932C160.824 80.3636 160.795 80.2893 160.75 80.1855C160.706 80.0816 160.632 79.948 160.543 79.7551C160.454 79.5622 160.306 79.2951 160.128 78.9389C160.099 78.8795 160.069 78.8202 160.054 78.7608C160.039 78.7015 159.995 78.6421 159.921 78.5976C159.891 78.6273 159.877 78.6866 159.877 78.7757C159.877 78.8647 159.877 79.0131 159.891 79.2209C159.891 79.4286 159.891 79.6957 159.891 80.0519C159.891 80.4081 159.847 80.8384 159.788 81.3578C159.773 81.5211 159.758 81.6398 159.743 81.7437C159.728 81.8476 159.728 81.9218 159.714 81.9811C159.714 82.0553 159.714 82.1147 159.699 82.1741C159.699 82.2334 159.699 82.3224 159.684 82.4263C159.684 82.5302 159.669 82.6638 159.654 82.8122C159.64 82.9606 159.625 83.1832 159.61 83.4503C159.61 83.5987 159.551 83.7174 159.462 83.7916C159.373 83.8658 159.255 83.8955 159.092 83.8807C159.003 83.8807 158.929 83.8064 158.87 83.7174C158.81 83.6135 158.781 83.5245 158.781 83.4354C158.781 83.1535 158.781 82.8864 158.81 82.6638C158.84 82.4412 158.855 82.1889 158.884 81.9069C158.914 81.6249 158.944 81.2985 158.973 80.9127C159.003 80.5268 159.018 80.0371 159.018 79.4286C159.018 78.9686 159.047 78.5827 159.106 78.2859C159.166 77.9891 159.195 77.7517 159.21 77.5736V77.4846C159.21 77.4846 159.21 77.3807 159.225 77.3362C159.225 77.2768 159.269 77.2323 159.299 77.1729C159.343 77.1284 159.403 77.0839 159.477 77.0542C159.58 77.0097 159.669 77.0246 159.773 77.0691C159.877 77.1136 159.965 77.2026 160.054 77.3065C160.143 77.4104 160.217 77.5142 160.291 77.633C160.365 77.7517 160.424 77.8704 160.484 77.9594C160.587 78.1524 160.676 78.3008 160.75 78.4343C160.824 78.5531 160.883 78.6569 160.943 78.746C161.002 78.835 161.046 78.9092 161.091 78.9834C161.135 79.0576 161.18 79.1467 161.239 79.2357C161.283 79.3396 161.343 79.4583 161.402 79.5919C161.461 79.7254 161.55 79.9035 161.653 80.1261C161.653 80.141 161.683 80.1706 161.683 80.2003C161.683 80.23 161.713 80.2448 161.742 80.2448C161.772 80.2448 161.802 80.2448 161.816 80.2003L161.861 80.1261C161.994 79.8738 162.098 79.6512 162.172 79.4732C162.261 79.2951 162.335 79.1318 162.394 78.9834C162.453 78.8499 162.512 78.7163 162.572 78.6124C162.631 78.4937 162.69 78.3898 162.764 78.2711C162.838 78.1524 162.912 78.0337 163.016 77.9001C163.105 77.7666 163.223 77.6033 163.371 77.4104C163.519 77.2174 163.682 77.1284 163.86 77.1284C164.038 77.1284 164.171 77.2175 164.26 77.3807C164.304 77.4549 164.334 77.5142 164.349 77.5884C164.363 77.6626 164.393 77.7369 164.408 77.8556C164.423 77.9595 164.452 78.1079 164.467 78.2711C164.482 78.4492 164.511 78.6718 164.526 78.9537C164.556 79.3248 164.6 79.7254 164.645 80.1409C164.689 80.5565 164.704 81.0017 164.689 81.4617C164.689 81.5953 164.689 81.7288 164.689 81.8772C164.689 82.0256 164.689 82.1592 164.719 82.2928C164.719 82.367 164.719 82.456 164.719 82.5302C164.719 82.6044 164.689 82.6935 164.719 82.7677C164.719 82.9012 164.748 83.0496 164.778 83.2128C164.808 83.3761 164.778 83.5542 164.719 83.7471C164.689 83.8362 164.63 83.9103 164.571 83.94C164.497 83.9845 164.437 83.9994 164.363 83.9845C164.289 83.9845 164.23 83.9549 164.171 83.9103C164.112 83.8658 164.082 83.8213 164.052 83.7619C164.008 83.6135 163.964 83.4503 163.904 83.3019C163.86 83.1535 163.815 82.9903 163.815 82.8122C163.801 82.5302 163.801 82.2483 163.815 81.9811C163.83 81.714 163.845 81.4321 163.83 81.1501C163.83 80.7494 163.83 80.4229 163.83 80.1558C163.83 79.8887 163.83 79.6809 163.815 79.5177C163.815 79.3544 163.815 79.2208 163.801 79.117C163.786 79.0131 163.801 78.9389 163.801 78.8647V78.2859C163.801 78.2859 163.786 78.1969 163.756 78.1672L163.727 78.1079Z" fill="black"/>
<path d="M169.413 77.4548C169.517 77.4548 169.62 77.4548 169.709 77.4548C169.813 77.4548 169.902 77.4994 169.991 77.5736C170.109 77.6775 170.168 77.7813 170.198 77.8852C170.227 77.9891 170.198 78.093 170.153 78.182C170.109 78.2711 170.02 78.3452 169.917 78.3898C169.813 78.4343 169.694 78.4491 169.561 78.4343C169.191 78.3749 168.91 78.3304 168.717 78.2859C168.539 78.2562 168.406 78.2265 168.332 78.2265C168.258 78.2265 168.228 78.2265 168.228 78.2414V78.3452C168.228 78.5975 168.228 78.835 168.228 79.0873C168.228 79.3395 168.243 79.577 168.228 79.8293C168.228 79.9035 168.228 79.9628 168.228 79.9925C168.228 80.0222 168.273 80.0519 168.332 80.0519C168.391 80.0519 168.48 80.0816 168.613 80.0816C168.747 80.0816 168.924 80.1112 169.176 80.1409C169.295 80.1409 169.383 80.1854 169.457 80.2299C169.532 80.2744 169.576 80.3338 169.606 80.3932C169.635 80.4525 169.635 80.5268 169.606 80.5861C169.591 80.6455 169.532 80.7048 169.457 80.7345C169.413 80.7642 169.339 80.779 169.25 80.7939C169.161 80.7939 169.058 80.8087 168.954 80.8087C168.85 80.8087 168.761 80.8087 168.658 80.8087C168.554 80.8087 168.48 80.8087 168.436 80.7939C168.317 80.779 168.258 80.779 168.228 80.7939C168.199 80.8235 168.184 80.8829 168.184 81.0016C168.184 81.2094 168.154 81.4023 168.125 81.5952C168.095 81.7882 168.08 81.9959 168.08 82.1888C168.08 82.263 168.08 82.3521 168.051 82.4263C168.021 82.5005 168.036 82.5895 168.051 82.6786C168.066 82.7528 168.095 82.8121 168.11 82.8121C168.125 82.8121 168.184 82.8121 168.258 82.8121C168.465 82.7973 168.643 82.7825 168.776 82.7676C168.91 82.7676 169.013 82.7528 169.102 82.7528C169.191 82.7528 169.25 82.7528 169.309 82.7676C169.369 82.7676 169.413 82.8121 169.487 82.8418C169.62 82.9012 169.694 83.0199 169.694 83.1534C169.694 83.3018 169.62 83.4057 169.472 83.4948C169.428 83.5096 169.383 83.5393 169.339 83.5393C169.295 83.5393 169.206 83.5541 169.102 83.5541C168.998 83.5541 168.85 83.5541 168.658 83.5244C168.465 83.5096 168.214 83.4799 167.888 83.4651C167.858 83.4651 167.814 83.4651 167.755 83.4651C167.695 83.4651 167.621 83.4651 167.547 83.4651C167.473 83.4651 167.399 83.4651 167.325 83.4651C167.251 83.4651 167.177 83.4651 167.133 83.4651C167.044 83.4651 166.97 83.4057 166.94 83.3464C166.91 83.287 166.911 83.2128 166.97 83.1386C166.999 83.0941 167.014 83.0347 167.014 82.9605C167.014 82.8863 167.014 82.7676 167.014 82.6341C167.014 82.5005 167.014 82.3372 167.014 82.1443C167.014 81.9514 167.044 81.7288 167.088 81.4617C167.133 81.2094 167.177 80.9126 167.221 80.5564C167.266 80.2002 167.31 79.859 167.34 79.5176C167.37 79.1763 167.399 78.8795 167.429 78.6421C167.458 78.3898 167.473 78.2562 167.473 78.2265C167.488 78.1078 167.473 78.0336 167.444 78.0039C167.399 77.9742 167.355 77.9149 167.31 77.8258C167.266 77.7516 167.251 77.6775 167.266 77.6181C167.281 77.5587 167.325 77.4994 167.399 77.4697C167.429 77.4697 167.473 77.44 167.503 77.4252C167.532 77.4103 167.577 77.3955 167.621 77.3955H168.599C168.732 77.3955 168.865 77.3955 168.998 77.3955C169.132 77.3955 169.265 77.3955 169.428 77.3955L169.413 77.4548Z" fill="black"/>
<path d="M172.018 80.5272C172.033 80.0968 172.033 79.6665 172.018 79.2361C172.004 78.8058 172.018 78.3902 172.063 77.9599C172.063 77.8115 172.137 77.6779 172.27 77.5592C172.359 77.485 172.463 77.4256 172.566 77.3663C172.67 77.3069 172.788 77.2772 172.907 77.2476C173.159 77.203 173.396 77.203 173.633 77.2179C173.869 77.2327 174.106 77.2921 174.343 77.396C174.447 77.4405 174.551 77.4998 174.669 77.574C174.788 77.6482 174.891 77.7225 174.995 77.8115C175.099 77.9005 175.202 77.9896 175.291 78.0786C175.38 78.1676 175.439 78.2715 175.498 78.3754C175.528 78.4496 175.572 78.5386 175.632 78.6128C175.691 78.687 175.72 78.7761 175.75 78.8651C175.78 78.9838 175.809 79.1026 175.839 79.2213C175.869 79.34 175.883 79.4736 175.883 79.5923C175.883 79.9039 175.854 80.2156 175.75 80.5272C175.646 80.8388 175.498 81.1357 175.321 81.4176C175.143 81.6847 174.936 81.937 174.699 82.1448C174.462 82.3525 174.24 82.5158 174.003 82.6197C173.869 82.679 173.721 82.7235 173.603 82.7532C173.47 82.7829 173.351 82.8126 173.248 82.8274C173.144 82.8422 173.04 82.8719 172.951 82.8868C172.862 82.9016 172.788 82.9313 172.729 82.961C172.7 82.9758 172.655 82.9907 172.596 83.0055C172.537 83.0055 172.477 83.0055 172.433 83.0055C172.374 83.0055 172.329 83.0055 172.285 82.9758C172.241 82.9758 172.211 82.9462 172.196 82.9165C172.167 82.8423 172.122 82.7532 172.063 82.6938C172.004 82.6196 171.989 82.5306 172.004 82.4416C172.004 82.3377 172.018 82.1151 172.004 81.7886C172.004 81.4473 172.004 81.0318 172.033 80.5272H172.018ZM173.262 77.9005C173.262 77.9005 173.159 77.8708 173.099 77.8857C173.04 77.8857 172.996 77.8857 172.937 77.9005C172.803 77.9005 172.714 77.945 172.67 78.0044C172.626 78.0637 172.611 78.1528 172.626 78.2863C172.655 78.6425 172.7 78.969 172.729 79.2658C172.759 79.5626 172.788 79.8446 172.818 80.1265C172.848 80.3937 172.862 80.6756 172.877 80.9576C172.877 81.2395 172.892 81.5363 172.892 81.8777C172.892 81.9815 172.907 82.0409 172.951 82.0706C172.996 82.1003 173.055 82.1003 173.159 82.0706C173.44 81.9964 173.692 81.8777 173.899 81.6847C174.106 81.5067 174.299 81.2989 174.462 81.0615C174.536 80.9428 174.595 80.824 174.669 80.7053C174.728 80.5866 174.788 80.4679 174.847 80.3491C174.936 80.1562 174.995 79.9633 174.995 79.7555C174.995 79.5478 174.98 79.3548 174.921 79.1619C174.862 78.969 174.773 78.7909 174.654 78.6277C174.536 78.4644 174.388 78.316 174.225 78.2122C174.077 78.1083 173.929 78.0341 173.766 77.9747C173.603 77.9153 173.44 77.8857 173.248 77.9005H173.262Z" fill="black"/>
<path d="M177.853 77.7223C177.853 77.6184 177.897 77.5442 177.942 77.4849C177.986 77.4404 178.045 77.4106 178.105 77.4106C178.164 77.4106 178.208 77.4404 178.268 77.4849C178.312 77.5294 178.356 77.6036 178.356 77.6926C178.356 77.7817 178.386 77.9449 178.401 78.212C178.401 78.4643 178.431 78.7611 178.445 79.1024C178.445 79.4438 178.475 79.7999 178.475 80.1857C178.475 80.5716 178.49 80.9426 178.49 81.2987C178.49 81.4175 178.49 81.5511 178.475 81.6549C178.475 81.7737 178.46 81.8775 178.46 81.9962C178.46 82.1149 178.46 82.2188 178.46 82.3227C178.46 82.4266 178.475 82.5453 178.519 82.664C178.549 82.7976 178.534 82.9163 178.46 83.0054C178.386 83.0944 178.297 83.1389 178.164 83.1241C177.957 83.1092 177.823 83.0351 177.735 82.9015C177.646 82.7679 177.601 82.6047 177.586 82.4266C177.586 82.2337 177.586 82.0408 177.601 81.8182C177.631 81.5956 177.646 81.4026 177.675 81.2097C177.675 81.1652 177.675 81.0613 177.69 80.9277C177.69 80.7793 177.69 80.6161 177.705 80.4084C177.705 80.2006 177.72 79.978 177.735 79.7405C177.735 79.4883 177.749 79.2508 177.764 79.0134C177.764 78.7611 177.794 78.5385 177.809 78.3159C177.823 78.0933 177.838 77.9004 177.853 77.7371V77.7223Z" fill="black"/>
<path d="M181.318 81.2982C181.289 81.4615 181.318 81.6099 181.378 81.7137C181.452 81.8325 181.555 81.9364 181.659 82.0254C181.703 82.0699 181.792 82.0848 181.911 82.0996C182.029 82.1144 182.163 82.1145 182.311 82.1145C182.459 82.1145 182.592 82.1145 182.71 82.1145C182.844 82.1145 182.933 82.0996 182.992 82.0847C183.169 82.0254 183.332 81.9809 183.495 81.9364C183.658 81.8919 183.806 81.8177 183.969 81.7435C184.102 81.6841 184.206 81.6544 184.31 81.6841C184.413 81.7138 184.473 81.7583 184.502 81.8473C184.532 81.9215 184.502 82.0254 184.458 82.1441C184.413 82.2628 184.28 82.3964 184.088 82.53C183.836 82.7081 183.569 82.8565 183.273 82.9603C182.992 83.0642 182.681 83.1236 182.355 83.1384C182.177 83.1384 182.029 83.1384 181.896 83.1384C181.763 83.1384 181.644 83.1087 181.526 83.0642C181.407 83.0345 181.304 82.9752 181.2 82.9158C181.096 82.8565 180.993 82.7822 180.874 82.6932C180.741 82.5745 180.623 82.4409 180.519 82.2925C180.415 82.1441 180.371 81.9661 180.341 81.788C180.297 81.3873 180.341 81.0014 180.43 80.6601C180.534 80.3039 180.697 79.9775 180.904 79.651C181.111 79.3394 181.363 79.0426 181.659 78.7754C181.955 78.5083 182.266 78.2708 182.607 78.0482C182.74 77.9592 182.888 77.885 183.051 77.8256C183.199 77.7663 183.362 77.7515 183.54 77.7515C183.614 77.7515 183.688 77.7663 183.762 77.7811C183.836 77.7811 183.895 77.8257 183.954 77.885C184.014 77.9444 184.058 78.0037 184.058 78.0779C184.058 78.1521 184.058 78.2115 184.014 78.2709C183.969 78.3302 183.925 78.3599 183.895 78.3451C183.865 78.3451 183.806 78.3154 183.747 78.3005C183.688 78.2857 183.599 78.3005 183.495 78.3005C183.392 78.3302 183.244 78.4044 183.051 78.5528C182.873 78.6864 182.71 78.8199 182.533 78.9832C182.355 79.1464 182.192 79.3096 182.044 79.4877C181.896 79.6658 181.763 79.8588 181.644 80.0665C181.526 80.2743 181.452 80.4672 181.407 80.675C181.378 80.7788 181.348 80.8679 181.333 80.9717C181.304 81.0756 181.304 81.1795 181.318 81.2982Z" fill="black"/>
<path d="M186.429 77.7223C186.429 77.6184 186.474 77.5442 186.518 77.4849C186.563 77.4404 186.622 77.4106 186.681 77.4106C186.74 77.4106 186.785 77.4404 186.844 77.4849C186.888 77.5294 186.933 77.6036 186.933 77.6926C186.933 77.7817 186.962 77.9449 186.977 78.212C186.977 78.4643 187.007 78.7611 187.022 79.1024C187.022 79.4438 187.051 79.7999 187.051 80.1857C187.051 80.5716 187.066 80.9426 187.066 81.2987C187.066 81.4175 187.066 81.5511 187.051 81.6549C187.051 81.7737 187.037 81.8775 187.037 81.9962C187.037 82.1149 187.037 82.2188 187.037 82.3227C187.037 82.4266 187.051 82.5453 187.096 82.664C187.125 82.7976 187.111 82.9163 187.037 83.0054C186.962 83.0944 186.874 83.1389 186.74 83.1241C186.533 83.1092 186.4 83.0351 186.311 82.9015C186.222 82.7679 186.178 82.6047 186.163 82.4266C186.163 82.2337 186.163 82.0408 186.178 81.8182C186.207 81.5956 186.222 81.4026 186.252 81.2097C186.252 81.1652 186.252 81.0613 186.267 80.9277C186.267 80.7793 186.266 80.6161 186.281 80.4084C186.281 80.2006 186.296 79.978 186.311 79.7405C186.311 79.4883 186.326 79.2508 186.341 79.0134C186.341 78.7611 186.37 78.5385 186.385 78.3159C186.4 78.0933 186.415 77.9004 186.429 77.7371V77.7223Z" fill="black"/>
<path d="M190.263 79.6806C190.144 80.4077 190.041 80.9865 189.967 81.4317C189.893 81.8769 189.833 82.2182 189.804 82.4705C189.774 82.7228 189.744 82.8861 189.73 82.9899C189.715 83.0938 189.715 83.1532 189.715 83.1829C189.715 83.2125 189.715 83.2422 189.715 83.2422C189.715 83.2422 189.7 83.3016 189.685 83.3758C189.656 83.4797 189.596 83.5539 189.537 83.5984C189.478 83.6429 189.404 83.6577 189.33 83.6429C189.256 83.6429 189.197 83.6132 189.152 83.5687C189.093 83.5242 189.063 83.4648 189.063 83.3906C189.063 83.3164 189.034 83.2422 189.034 83.168C189.034 83.0938 189.034 83.0196 189.034 82.9306C189.048 82.797 189.063 82.6783 189.063 82.5447C189.063 82.4112 189.063 82.2925 189.108 82.1589C189.226 81.5801 189.315 81.0756 189.404 80.6749C189.493 80.2742 189.567 79.918 189.626 79.6361C189.685 79.3541 189.73 79.1167 189.759 78.9386C189.789 78.7605 189.818 78.6121 189.833 78.4934C189.833 78.3747 189.848 78.2708 189.848 78.1818C189.848 78.0927 189.833 78.0037 189.804 77.8998C189.774 77.7959 189.789 77.7069 189.833 77.6178C189.878 77.5288 189.937 77.4842 190.011 77.4546C190.085 77.4249 190.159 77.4249 190.233 77.4546C190.307 77.4991 190.366 77.5733 190.396 77.7069C190.5 78.063 190.618 78.4192 190.751 78.7754C190.885 79.1315 191.018 79.4877 191.166 79.8438C191.314 80.2 191.462 80.5562 191.61 80.8975C191.758 81.2536 191.906 81.595 192.04 81.9363C192.084 81.9363 192.114 81.9363 192.129 81.8918C192.143 81.8473 192.158 81.773 192.158 81.6246C192.158 81.4762 192.173 81.2537 192.188 80.9568C192.188 80.66 192.217 80.2445 192.262 79.6954C192.291 79.2799 192.321 78.9237 192.336 78.6566C192.351 78.3895 192.38 78.1669 192.41 78.0036C192.44 77.8404 192.484 77.7217 192.543 77.6326C192.602 77.5436 192.676 77.4694 192.765 77.41C192.884 77.3507 192.987 77.3359 193.076 77.3804C193.165 77.4249 193.21 77.5139 193.224 77.6475C193.224 77.7959 193.224 77.9591 193.224 78.1224C193.224 78.2856 193.21 78.434 193.18 78.5973C193.135 79.0722 193.091 79.4877 193.076 79.8587C193.047 80.2297 193.032 80.5858 193.017 80.9271C193.002 81.2685 192.973 81.6395 192.943 81.9956C192.913 82.3666 192.869 82.7822 192.81 83.257C192.81 83.3461 192.765 83.4203 192.721 83.4796C192.676 83.539 192.602 83.5835 192.528 83.6132C192.454 83.6429 192.366 83.6577 192.277 83.6429C192.188 83.6429 192.099 83.5835 192.025 83.5242C191.877 83.4054 191.744 83.257 191.64 83.0641C191.536 82.8712 191.418 82.6338 191.299 82.3518C191.181 82.0699 191.048 81.7137 190.914 81.313C190.766 80.8975 190.603 80.4078 190.396 79.829C190.396 79.7993 190.366 79.7696 190.366 79.7548C190.366 79.7251 190.322 79.6954 190.278 79.6658L190.263 79.6806Z" fill="black"/>
<path d="M197.696 77.4548C197.8 77.4548 197.904 77.4548 197.992 77.4548C198.096 77.4548 198.185 77.4994 198.274 77.5736C198.392 77.6775 198.451 77.7813 198.481 77.8852C198.511 77.9891 198.481 78.093 198.437 78.182C198.392 78.2711 198.303 78.3452 198.2 78.3898C198.096 78.4343 197.978 78.4491 197.844 78.4343C197.474 78.3749 197.193 78.3304 197 78.2859C196.823 78.2562 196.689 78.2265 196.615 78.2265C196.541 78.2265 196.512 78.2265 196.512 78.2414V78.3452C196.512 78.5975 196.512 78.835 196.512 79.0873C196.512 79.3395 196.526 79.577 196.512 79.8293C196.512 79.9035 196.512 79.9628 196.512 79.9925C196.512 80.0222 196.556 80.0519 196.615 80.0519C196.675 80.0519 196.763 80.0816 196.897 80.0816C197.03 80.0816 197.208 80.1112 197.459 80.1409C197.578 80.1409 197.667 80.1854 197.741 80.2299C197.815 80.2744 197.859 80.3338 197.889 80.3932C197.918 80.4525 197.918 80.5268 197.889 80.5861C197.874 80.6455 197.815 80.7048 197.741 80.7345C197.696 80.7642 197.622 80.779 197.533 80.7939C197.445 80.7939 197.341 80.8087 197.237 80.8087C197.134 80.8087 197.045 80.8087 196.941 80.8087C196.837 80.8087 196.763 80.8087 196.719 80.7939C196.6 80.779 196.541 80.779 196.512 80.7939C196.482 80.8235 196.467 80.8829 196.467 81.0016C196.467 81.2094 196.438 81.4023 196.408 81.5952C196.378 81.7882 196.364 81.9959 196.364 82.1888C196.364 82.263 196.364 82.3521 196.334 82.4263C196.304 82.5005 196.319 82.5895 196.334 82.6786C196.349 82.7528 196.378 82.8121 196.393 82.8121C196.408 82.8121 196.467 82.8121 196.541 82.8121C196.749 82.7973 196.926 82.7825 197.059 82.7676C197.193 82.7676 197.296 82.7528 197.385 82.7528C197.474 82.7528 197.533 82.7528 197.593 82.7676C197.652 82.7676 197.696 82.8121 197.77 82.8418C197.904 82.9012 197.978 83.0199 197.978 83.1534C197.978 83.3018 197.904 83.4057 197.755 83.4948C197.711 83.5096 197.667 83.5393 197.622 83.5393C197.578 83.5393 197.489 83.5541 197.385 83.5541C197.282 83.5541 197.134 83.5541 196.941 83.5244C196.749 83.5096 196.497 83.4799 196.171 83.4651C196.141 83.4651 196.097 83.4651 196.038 83.4651C195.979 83.4651 195.904 83.4651 195.83 83.4651C195.756 83.4651 195.682 83.4651 195.608 83.4651C195.534 83.4651 195.46 83.4651 195.416 83.4651C195.327 83.4651 195.253 83.4057 195.223 83.3464C195.194 83.287 195.194 83.2128 195.253 83.1386C195.283 83.0941 195.297 83.0347 195.297 82.9605C195.297 82.8863 195.297 82.7676 195.297 82.6341C195.297 82.5005 195.297 82.3372 195.297 82.1443C195.297 81.9514 195.327 81.7288 195.371 81.4617C195.416 81.2094 195.46 80.9126 195.505 80.5564C195.549 80.2002 195.594 79.859 195.623 79.5176C195.653 79.1763 195.682 78.8795 195.712 78.6421C195.742 78.3898 195.756 78.2562 195.756 78.2265C195.771 78.1078 195.756 78.0336 195.727 78.0039C195.682 77.9742 195.638 77.9149 195.594 77.8258C195.549 77.7516 195.534 77.6775 195.549 77.6181C195.564 77.5587 195.608 77.4994 195.682 77.4697C195.712 77.4697 195.756 77.44 195.786 77.4252C195.816 77.4103 195.86 77.3955 195.904 77.3955H196.882C197.015 77.3955 197.148 77.3955 197.282 77.3955C197.415 77.3955 197.548 77.3955 197.711 77.3955L197.696 77.4548Z" fill="black"/>
</g>
</g>
<defs>
<linearGradient id="paint0_linear_5928_16118" x1="219.019" y1="151.047" x2="219.019" y2="70.1238" gradientUnits="userSpaceOnUse">
<stop offset="0.02" stop-color="#FF8547"/>
<stop offset="1" stop-color="#FFB834"/>
</linearGradient>
<clipPath id="clip0_5928_16118">
<path d="M0 0H360V160H0V0Z" fill="white"/>
</clipPath>
<clipPath id="clip1_5928_16118">
<rect width="342" height="177" fill="white" transform="translate(-9 -6)"/>
</clipPath>
</defs>
</svg>
