<svg width="360" height="160" viewBox="0 0 360 160" fill="none" xmlns="http://www.w3.org/2000/svg">
<g clip-path="url(#clip0_5928_16118)">
<path d="M0 0H360V160H0V0Z" fill="#DADEF5"/>
<rect width="390" height="197" transform="translate(-18 -19)" fill="#2B357A"/>
<g clip-path="url(#clip1_5928_16118)">
<path d="M1170.92 -315.377H-428.343V1070.54H1170.92V-315.377Z" fill="#40C2B0" stroke="#40C2B0" stroke-miterlimit="10"/>
<path d="M351.152 -315.911V1070.38" stroke="#66CEC0" stroke-width="3" stroke-miterlimit="10"/>
<path d="M266.951 -315.911V1070.38" stroke="#66CEC0" stroke-width="3" stroke-miterlimit="10"/>
<path d="M226.661 -315.911V1070.38" stroke="#66CEC0" stroke-width="3" stroke-miterlimit="10"/>
<path d="M246.798 -315.911V1070.38" stroke="#66CEC0" stroke-width="15.01" stroke-miterlimit="10"/>
<path d="M142.463 -315.911V1070.38" stroke="#66CEC0" stroke-width="3" stroke-miterlimit="10"/>
<path d="M102.168 -315.911V1070.38" stroke="#66CEC0" stroke-width="3" stroke-miterlimit="10"/>
<path d="M122.307 -315.911V1070.38" stroke="#66CEC0" stroke-width="15.01" stroke-miterlimit="10"/>
<path d="M17.9697 -315.911V1070.38" stroke="#66CEC0" stroke-width="3" stroke-miterlimit="10"/>
<path d="M-2.18567 -315.911V1070.38" stroke="#66CEC0" stroke-width="15.01" stroke-miterlimit="10"/>
<path fill-rule="evenodd" clip-rule="evenodd" d="M-28.3497 1120.65V-144.241L726.312 -126.938L710.734 1123.61L-28.3497 1120.65Z" fill="#20285C"/>
<path fill-rule="evenodd" clip-rule="evenodd" d="M-28.3497 1120.65V-144.241L726.312 -126.938L710.734 1123.61L-28.3497 1120.65Z" fill="#2B357A"/>
<path fill-rule="evenodd" clip-rule="evenodd" d="M216.587 1095.8L664.776 1097L692 -99.0546L40 -101L62.9215 1095.4L216.587 1095.8Z" fill="#2B357A"/>
<path fill-rule="evenodd" clip-rule="evenodd" d="M33.6079 150.142L660.654 153.599V191.085L33.4302 189.305L33.6079 150.142Z" fill="white"/>
<path d="M310.131 54.7349V152.709C310.427 153.006 400.356 153.11 400.356 153.11L400.623 54.7349H310.131Z" fill="white"/>
<path d="M329.916 134.753L329.546 54.7349H310.118L310.029 152.368C310.103 152.294 400.521 153.11 400.521 153.288L400.344 148.302C391.755 148.48 329.635 148.331 329.902 134.753H329.916Z" fill="#F6F6F6"/>
<path d="M401.027 54.156C401.027 56.5304 380.769 58.4448 355.773 58.4448C330.777 58.4448 310.52 56.5155 310.52 54.156C310.52 51.7964 330.777 49.8672 355.773 49.8672C380.769 49.8672 401.027 51.7964 401.027 54.156Z" fill="#E7E6E6"/>
<path d="M370.193 53.9327C370.193 54.6895 363.737 55.298 355.77 55.298C347.803 55.298 341.347 54.6895 341.347 53.9327C341.347 53.1758 347.803 52.5674 355.77 52.5674C363.737 52.5674 370.193 53.1758 370.193 53.9327Z" fill="#C6C5C6"/>
<path d="M359.429 -34.3652V54.7346C359.429 59.2163 379.686 62.8522 404.682 62.8522C429.678 62.8522 449.921 59.2163 449.921 54.7346V-34.3652H359.429Z" fill="white"/>
<path d="M424.037 54.5417C399.041 54.5417 378.784 50.9059 378.784 46.4242V-34.3652H359.415V54.7346C359.415 59.2163 379.672 62.8522 404.668 62.8522C429.664 62.8522 449.907 59.2163 449.907 54.7346V53.0726C442.577 53.9926 433.648 54.5269 424.023 54.5269L424.037 54.5417Z" fill="#F6F6F6"/>
<path fill-rule="evenodd" clip-rule="evenodd" d="M196.525 147.159L194.348 70.1387H239.705L237.839 147.144C237.78 149.325 236.018 151.047 233.841 151.047H200.523C198.361 151.047 196.584 149.325 196.525 147.159Z" fill="url(#paint0_linear_5928_16118)"/>
<path fill-rule="evenodd" clip-rule="evenodd" d="M192.259 73.7301H241.866L241.911 63.8911C241.911 62.1549 240.578 60.745 238.919 60.7599L194.999 61.1457C193.34 61.1457 192.022 62.6 192.052 64.3363L192.259 73.7301Z" fill="white"/>
<path d="M199.19 73.7596L198.924 61.7688L199.397 61.7095L199.664 73.7002L199.19 73.7596Z" fill="#D5D5D6"/>
<path d="M203.618 73.7741L203.351 61.4123L203.81 61.3232L204.092 73.6851L203.618 73.7741Z" fill="#D5D5D6"/>
<path d="M207.721 73.7743L207.41 61.3976L207.884 61.3086L208.195 73.6852L207.721 73.7743Z" fill="#D5D5D6"/>
<path d="M211.927 61.3389H211.453V73.7303H211.927V61.3389Z" fill="#D5D5D6"/>
<path d="M215.777 61.2046H215.303V73.7296H215.777V61.2046Z" fill="#D5D5D6"/>
<path d="M220.394 73.7745L219.92 73.6855L220.039 61.1011L220.513 61.1753L220.394 73.7745Z" fill="#D5D5D6"/>
<path d="M195.369 73.7745L195.132 61.6353L195.606 61.5166L195.843 73.6706L195.369 73.7745Z" fill="#D5D5D6"/>
<path d="M224.928 73.4331L224.647 61.0713L225.121 60.9971L225.402 73.344L224.928 73.4331Z" fill="#D5D5D6"/>
<path d="M229.031 73.4333L228.72 61.0566L229.194 60.9824L229.505 73.3442L229.031 73.4333Z" fill="#D5D5D6"/>
<path d="M233.219 60.9971H232.745V73.3886H233.219V60.9971Z" fill="#D5D5D6"/>
<path d="M237.069 60.8638H236.595V73.3888H237.069V60.8638Z" fill="#D5D5D6"/>
<path fill-rule="evenodd" clip-rule="evenodd" d="M197.281 109.688L197.962 142.44C198.006 144.666 199.606 146.535 201.782 146.936C208.268 148.108 221.921 149.83 232.79 146.209C234.641 145.601 235.9 143.864 235.945 141.92L236.759 112.967L197.281 109.702V109.688Z" fill="#FFA835"/>
<path fill-rule="evenodd" clip-rule="evenodd" d="M195.164 95.7974H239.084L238.344 126.041L195.948 127.021L195.164 95.7974Z" fill="white"/>
<g opacity="0.5" style="mix-blend-mode:multiply">
<path fill-rule="evenodd" clip-rule="evenodd" d="M203.973 97.251L204.299 99.3138L230.036 99.5512L230.48 97.251H203.973Z" fill="#E5E5E5"/>
</g>
<g opacity="0.5" style="mix-blend-mode:multiply">
<path fill-rule="evenodd" clip-rule="evenodd" d="M193.266 73.6259L193.769 75.1099H240.414L240.888 73.4033" fill="#E5E5E5"/>
</g>
<path d="M240.239 73.4329L239.765 73.3587L239.883 61.1602L240.357 61.2344L240.239 73.4329Z" fill="#D5D5D6"/>
<path d="M199.264 103.306H199.916L201.175 105.102L202.433 103.306H203.085V106.808H202.211V105.131L201.338 106.363H201.012L200.138 105.131V106.808H199.279V103.306H199.264Z" fill="black"/>
<path d="M204.772 103.306V106.808H203.884V103.306H204.772Z" fill="black"/>
<path d="M205.293 106.259L205.737 105.606C206.004 105.874 206.345 106.052 206.73 106.052C206.922 106.052 207.129 105.977 207.129 105.799C207.129 105.681 207.011 105.592 206.848 105.532C206.641 105.458 206.345 105.384 206.093 105.25C205.782 105.087 205.515 104.82 205.515 104.345C205.515 103.737 206.048 103.262 206.818 103.262C207.248 103.262 207.692 103.395 208.062 103.707L207.648 104.375C207.44 104.197 207.085 104.093 206.833 104.093C206.582 104.093 206.463 104.197 206.463 104.315C206.463 104.464 206.611 104.523 206.744 104.568C206.922 104.642 207.218 104.731 207.455 104.835C207.825 104.998 208.122 105.25 208.122 105.755C208.122 106.393 207.588 106.868 206.744 106.868C206.167 106.868 205.678 106.645 205.323 106.259H205.293Z" fill="black"/>
<path d="M208.521 105.057C208.521 104.048 209.306 103.247 210.342 103.247C211.379 103.247 212.164 104.048 212.164 105.057C212.164 106.066 211.379 106.853 210.342 106.853C209.306 106.853 208.521 106.051 208.521 105.057ZM211.26 105.057C211.26 104.508 210.846 104.122 210.342 104.122C209.839 104.122 209.424 104.508 209.424 105.057C209.424 105.606 209.824 105.992 210.342 105.992C210.86 105.992 211.26 105.591 211.26 105.057Z" fill="black"/>
<path d="M215.495 104.523C215.495 105.161 215.11 105.71 214.118 105.71H213.674V106.808H212.785V103.306H214.177C215.125 103.306 215.495 103.9 215.495 104.523ZM214.592 104.508C214.592 104.286 214.429 104.108 214.192 104.108H213.688V104.909H214.177C214.473 104.909 214.607 104.716 214.607 104.508H214.592Z" fill="black"/>
<path d="M217.286 105.651H216.945V106.808H216.057V103.306H217.508C218.381 103.306 218.781 103.84 218.781 104.464C218.781 104.879 218.604 105.295 218.145 105.502L218.9 106.794H217.893L217.286 105.636V105.651ZM216.93 104.879H217.463C217.76 104.879 217.878 104.686 217.878 104.493C217.878 104.3 217.745 104.122 217.493 104.122H216.93V104.879Z" fill="black"/>
<path d="M219.27 105.057C219.27 104.048 220.055 103.247 221.092 103.247C222.128 103.247 222.913 104.048 222.913 105.057C222.913 106.066 222.128 106.853 221.092 106.853C220.055 106.853 219.27 106.051 219.27 105.057ZM222.01 105.057C222.01 104.508 221.595 104.122 221.092 104.122C220.588 104.122 220.174 104.508 220.174 105.057C220.174 105.606 220.573 105.992 221.092 105.992C221.61 105.992 222.01 105.591 222.01 105.057Z" fill="black"/>
<path d="M223.224 106.259L223.668 105.606C223.934 105.874 224.275 106.052 224.66 106.052C224.853 106.052 225.06 105.977 225.06 105.799C225.06 105.681 224.941 105.592 224.778 105.532C224.571 105.458 224.275 105.384 224.023 105.25C223.712 105.087 223.446 104.82 223.446 104.345C223.446 103.737 223.979 103.262 224.749 103.262C225.178 103.262 225.623 103.395 225.993 103.707L225.578 104.375C225.371 104.197 225.015 104.093 224.764 104.093C224.512 104.093 224.393 104.197 224.393 104.315C224.393 104.464 224.542 104.523 224.675 104.568C224.852 104.642 225.149 104.731 225.386 104.835C225.756 104.998 226.052 105.25 226.052 105.755C226.052 106.393 225.519 106.868 224.675 106.868C224.097 106.868 223.609 106.645 223.253 106.259H223.224Z" fill="black"/>
<path d="M226.304 104.167V103.321H229.132V104.167H228.17V106.809H227.281V104.167H226.319H226.304Z" fill="black"/>
<path d="M229.384 105.057C229.384 104.048 230.169 103.247 231.205 103.247C232.242 103.247 233.027 104.048 233.027 105.057C233.027 106.066 232.242 106.853 231.205 106.853C230.169 106.853 229.384 106.051 229.384 105.057ZM232.108 105.057C232.108 104.508 231.694 104.122 231.19 104.122C230.687 104.122 230.272 104.508 230.272 105.057C230.272 105.606 230.672 105.992 231.19 105.992C231.709 105.992 232.108 105.591 232.108 105.057Z" fill="black"/>
<path d="M233.65 103.306H234.539V105.963H236.227V106.808H233.65V103.306Z" fill="black"/>
<path d="M228.734 116.336C228.734 114.659 229.223 112.922 227.816 111.72C227.816 111.72 227.831 111.616 227.757 111.557C226.809 110.874 225.551 110.726 224.41 110.696C213.497 110.444 184.503 110.563 173.56 110.503V110.533C168.954 110.489 163.727 110.118 159.226 110.459C157.967 110.548 156.708 110.978 156.501 112.388C156.16 114.777 156.323 117.701 156.323 120.15C156.323 127.733 156.427 132.719 156.501 140.332C156.516 142.795 156.353 145.407 156.442 147.841C156.471 148.598 156.782 149.473 157.33 149.993C157.463 150.112 157.626 150.126 157.715 150.186C159.077 151.15 160.218 150.824 161.758 150.854C166.096 150.928 170.45 150.913 174.833 150.928V150.898C182.992 150.943 209.217 151.017 217.421 151.047C219.864 151.047 222.663 151.225 225.092 151.061C225.995 151.002 226.676 150.794 227.372 150.245C229.164 148.835 228.616 146.476 228.631 144.487C228.749 134.248 228.779 126.605 228.734 116.365V116.336Z" fill="#C6C5C6"/>
<path d="M163.934 124.987C164.2 124.082 164.393 123.147 164.526 122.227C164.689 121.144 164.822 120.016 164.867 118.932C164.926 117.33 164.867 115.682 164.274 114.154C167.962 113.961 169.561 117.834 169.531 120.016C169.502 122.197 167.606 125.818 163.934 124.987Z" fill="#DDDDDD"/>
<path d="M163.931 124.988C158.289 123.711 158.615 114.451 164.272 114.154C164.864 115.698 164.923 117.345 164.864 118.933C164.82 120.016 164.686 121.144 164.523 122.227C164.39 123.147 164.198 124.082 163.931 124.988Z" fill="#E5E4E5"/>
<path d="M162.881 143.597C163.148 142.692 163.34 141.757 163.473 140.837C163.636 139.753 163.77 138.626 163.814 137.542C163.873 135.94 163.814 134.292 163.222 132.764C166.909 132.571 168.508 136.444 168.479 138.626C168.449 140.807 166.553 144.428 162.881 143.597Z" fill="#DDDDDD"/>
<path d="M162.883 143.597C157.241 142.321 157.566 133.06 163.223 132.764C163.815 134.307 163.875 135.954 163.816 137.542C163.771 138.626 163.638 139.753 163.475 140.837C163.342 141.757 163.149 142.692 162.883 143.597Z" fill="#E5E4E5"/>
<path d="M218.487 142.677C218.753 141.772 218.946 140.837 219.079 139.917C219.242 138.834 219.375 137.706 219.42 136.622C219.479 135.02 219.42 133.372 218.827 131.844C222.515 131.651 224.114 135.524 224.084 137.706C224.055 139.887 222.159 143.508 218.487 142.677Z" fill="#DDDDDD"/>
<path d="M218.484 142.677C212.842 141.4 213.168 132.14 218.825 131.843C219.417 133.387 219.476 135.034 219.417 136.622C219.373 137.705 219.239 138.833 219.076 139.916C218.943 140.836 218.751 141.771 218.484 142.677Z" fill="#E5E4E5"/>
<path d="M217.686 124.987C217.952 124.082 218.145 123.147 218.278 122.227C218.441 121.144 218.574 120.016 218.618 118.932C218.678 117.33 218.618 115.682 218.026 114.154C221.713 113.961 223.313 117.834 223.283 120.016C223.253 122.197 221.358 125.818 217.686 124.987Z" fill="#DDDDDD"/>
<path d="M217.687 124.988C212.045 123.711 212.371 114.451 218.027 114.154C218.62 115.698 218.679 117.345 218.62 118.933C218.575 120.016 218.442 121.144 218.279 122.227C218.146 123.147 217.953 124.082 217.687 124.988Z" fill="#E5E4E5"/>
<path d="M189.061 136.132L194.348 120.921C204.536 124.246 199.412 139.813 189.061 136.132Z" fill="#DDDDDD"/>
<path d="M189.061 136.132C179.184 132.615 184.174 117.597 194.348 120.921L189.061 136.132Z" fill="#E5E4E5"/>
<path opacity="0.1" d="M228.806 121.604C228.806 121.604 224.157 135.272 215.005 140.421C197.902 150.038 156.824 150.156 156.824 150.156C158.216 151.121 159.105 151.017 160.675 151.047C164.998 151.121 174.002 150.898 174.002 150.898C182.398 150.943 222.631 151.225 225.104 151.062C226.022 151.002 226.704 150.794 227.429 150.245C229.251 148.836 228.688 146.476 228.717 144.487C228.836 134.248 228.821 122.895 228.821 121.619L228.806 121.604Z" fill="#868686"/>
<path fill-rule="evenodd" clip-rule="evenodd" d="M112.77 150.542L108.121 88.5255L190.246 87.7241L188.277 151.091L112.77 150.542Z" fill="#72E1F1"/>
<path fill-rule="evenodd" clip-rule="evenodd" d="M109.173 103.439L189.877 99.5811L188.737 138.729L111.972 139.56L109.173 103.439Z" fill="white"/>
<path fill-rule="evenodd" clip-rule="evenodd" d="M126.378 104.122L172.402 102.386L172.416 104.612L126.393 106.096L126.378 104.122Z" fill="#E1E1E1"/>
<path fill-rule="evenodd" clip-rule="evenodd" d="M120.056 134.574L132.169 134.114L132.184 135.539L120.071 135.851L120.056 134.574Z" fill="#E1E1E1"/>
<path fill-rule="evenodd" clip-rule="evenodd" d="M119.716 132.111L131.829 131.651L131.843 133.076L119.73 133.372L119.716 132.111Z" fill="#E1E1E1"/>
<path d="M169.971 146.12L133.501 146.515L133.517 148.014L169.987 147.618L169.971 146.12Z" fill="#E1E1E1"/>
<path fill-rule="evenodd" clip-rule="evenodd" d="M139.929 128.92L138.671 115.861L162.674 115.341L161.505 128.683L139.929 128.92Z" fill="#C6F2F9"/>
<path d="M131.859 109.168H132.51L133.769 110.964L135.028 109.168H135.679V112.671H134.805V110.994L133.932 112.226H133.606L132.732 110.994V112.671H131.873V109.168H131.859Z" fill="black"/>
<path d="M137.366 109.168V112.671H136.478V109.168H137.366Z" fill="black"/>
<path d="M138.183 109.168H140.656V109.999H139.057V110.577H140.464V111.394H139.057V112.655H138.168V109.153L138.183 109.168Z" fill="black"/>
<path d="M141.249 109.168H143.766V109.985H142.137V110.504H143.647V111.32H142.137V111.855H143.766V112.671H141.249V109.168Z" fill="black"/>
<path d="M147.186 110.385C147.186 111.023 146.801 111.573 145.809 111.573H145.365V112.671H144.476V109.168H145.868C146.816 109.168 147.186 109.762 147.186 110.385ZM146.283 110.385C146.283 110.163 146.12 109.985 145.883 109.985H145.379V110.786H145.868C146.164 110.786 146.297 110.593 146.297 110.385H146.283Z" fill="black"/>
<path d="M148.961 111.513H148.62V112.671H147.732V109.168H149.183C150.057 109.168 150.456 109.703 150.456 110.326C150.456 110.742 150.279 111.157 149.82 111.365L150.575 112.656H149.568L148.961 111.498V111.513ZM148.62 110.742H149.153C149.449 110.742 149.568 110.549 149.568 110.356C149.568 110.163 149.435 109.985 149.183 109.985H148.62V110.742Z" fill="black"/>
<path d="M152.057 109.168V112.671H151.169V109.168H152.057Z" fill="black"/>
<path d="M152.576 112.121L153.02 111.468C153.287 111.735 153.628 111.913 154.013 111.913C154.205 111.913 154.412 111.839 154.412 111.661C154.412 111.543 154.294 111.453 154.131 111.394C153.924 111.32 153.628 111.246 153.376 111.112C153.065 110.949 152.798 110.682 152.798 110.207C152.798 109.598 153.331 109.124 154.101 109.124C154.531 109.124 154.975 109.257 155.345 109.569L154.931 110.237C154.723 110.058 154.368 109.955 154.116 109.955C153.864 109.955 153.746 110.058 153.746 110.177C153.746 110.326 153.894 110.385 154.027 110.429C154.205 110.504 154.501 110.593 154.738 110.697C155.108 110.86 155.405 111.112 155.405 111.617C155.405 112.255 154.871 112.73 154.027 112.73C153.45 112.73 152.961 112.507 152.606 112.121H152.576Z" fill="black"/>
<path d="M155.656 110.029V109.183H158.485V110.029H157.522V112.671H156.634V110.029H155.671H155.656Z" fill="black"/>
<path d="M158.719 110.919C158.719 109.91 159.503 109.108 160.54 109.108C161.576 109.108 162.361 109.91 162.361 110.919C162.361 111.928 161.576 112.715 160.54 112.715C159.503 112.715 158.719 111.913 158.719 110.919ZM161.458 110.919C161.458 110.37 161.043 109.984 160.54 109.984C160.036 109.984 159.622 110.37 159.622 110.919C159.622 111.468 160.022 111.854 160.54 111.854C161.058 111.854 161.458 111.453 161.458 110.919Z" fill="black"/>
<path d="M166.124 109.168V112.671H165.458L163.873 110.801V112.671H163.015V109.168H163.651L165.265 111.068V109.168H166.139H166.124Z" fill="black"/>
<path d="M166.924 109.168H169.441V109.985H167.813V110.504H169.323V111.32H167.813V111.855H169.441V112.671H166.924V109.168Z" fill="black"/>
<path d="M75.1154 26.5827C71.5022 27.6808 69.666 30.8715 69.666 33.8989V37.9502C69.666 38.8554 70.3916 39.5826 71.2949 39.5826H99.5042C103.28 39.5826 268.686 39.1968 268.686 39.1968C268.686 39.1968 282.28 38.8109 283.79 38.8109C285.301 38.8109 285.686 34.2699 284.175 31.6135C282.665 28.9571 282.665 27.0724 276.623 25.9297C270.582 24.787 219.982 25.9297 219.982 25.9297C219.982 25.9297 77.1145 25.9594 75.1302 26.5678L75.1154 26.5827Z" fill="white"/>
<path opacity="0.2" d="M70.1553 39.034L79.8842 42.0614C79.8842 42.0614 83.0679 80.0817 84.0749 81.5954C85.0818 83.109 86.9328 83.9549 87.2586 85.2905C87.5844 86.6261 93.626 145.541 94.1295 146.372C94.633 147.203 95.1513 150.513 101.356 150.513C107.56 150.513 257.98 151.344 257.98 151.344C257.98 151.344 260.305 151.73 261.149 148.865C261.993 146.001 264.511 119.096 264.511 119.096L267.695 84.9492C267.695 84.9492 270.553 84.786 271.219 81.254C271.885 77.7221 275.75 40.3844 275.75 40.3844L283.465 38.7075L70.1405 39.0488L70.1553 39.034Z" fill="#F6F6F6"/>
<path opacity="0.1" d="M79.8522 41.6008C79.8522 41.6008 85.7754 71.2513 91.9356 77.9293C98.7177 85.2752 142.031 84.2364 142.031 84.2364C141.32 84.7261 110.312 84.5777 109.513 84.5925C107.306 84.6222 102.731 84.5183 102.731 84.5183C98.4511 84.5332 88.5742 84.7706 87.3155 84.6815C86.8416 84.6519 84.9165 82.6782 84.5463 82.3962C83.6134 81.669 83.5542 79.0275 83.2581 76.846C82.5621 71.6816 79.8374 42.2389 79.8374 41.5859L79.8522 41.6008Z" fill="#C6C5C6"/>
<path opacity="0.1" d="M275.779 40.4585C275.779 40.4585 269.442 71.7117 263.281 78.4046C256.499 85.7505 213.186 84.7116 213.186 84.7116C213.897 85.2014 244.905 85.053 245.704 85.0678C247.911 85.0975 252.486 84.9936 252.486 84.9936C256.766 85.0085 266.613 84.9936 267.872 84.9936C268.923 84.9936 270.019 83.7619 270.374 83.4799C271.307 82.7527 271.663 79.0576 271.959 76.8761C272.655 71.7117 275.779 41.1263 275.779 40.4733V40.4585Z" fill="#C6C5C6"/>
<path d="M203.084 68.2837H149.464V91.9982H203.084V68.2837Z" fill="#F6F6F6"/>
<path d="M161.727 78.1079C161.727 78.1079 161.638 78.182 161.579 78.2859C161.519 78.3898 161.445 78.5085 161.356 78.6569C161.282 78.8053 161.194 78.9686 161.105 79.1467C161.016 79.3248 160.942 79.5028 160.868 79.6661C160.794 79.8442 160.735 79.9925 160.66 80.1409C160.586 80.2893 160.557 80.3932 160.527 80.4674C160.498 80.5416 160.468 80.6158 160.438 80.7197C160.409 80.8236 160.379 80.9126 160.364 81.0165C160.335 81.1204 160.32 81.1946 160.29 81.2837C160.261 81.3579 160.246 81.4024 160.231 81.4321C160.127 81.6101 159.979 81.6992 159.816 81.6992C159.639 81.6992 159.505 81.5953 159.387 81.4024C159.239 81.1352 159.135 80.9423 159.061 80.8236C158.987 80.7049 158.943 80.601 158.913 80.5416C158.883 80.4823 158.854 80.4229 158.839 80.3932C158.824 80.3636 158.795 80.2893 158.75 80.1855C158.706 80.0816 158.632 79.948 158.543 79.7551C158.454 79.5622 158.306 79.2951 158.128 78.9389C158.099 78.8795 158.069 78.8202 158.054 78.7608C158.039 78.7015 157.995 78.6421 157.921 78.5976C157.891 78.6273 157.877 78.6866 157.877 78.7757C157.877 78.8647 157.877 79.0131 157.891 79.2209C157.891 79.4286 157.891 79.6957 157.891 80.0519C157.891 80.4081 157.847 80.8384 157.788 81.3578C157.773 81.5211 157.758 81.6398 157.743 81.7437C157.728 81.8476 157.728 81.9218 157.714 81.9811C157.714 82.0553 157.714 82.1147 157.699 82.1741C157.699 82.2334 157.699 82.3224 157.684 82.4263C157.684 82.5302 157.669 82.6638 157.654 82.8122C157.64 82.9606 157.625 83.1832 157.61 83.4503C157.61 83.5987 157.551 83.7174 157.462 83.7916C157.373 83.8658 157.255 83.8955 157.092 83.8807C157.003 83.8807 156.929 83.8064 156.87 83.7174C156.81 83.6135 156.781 83.5245 156.781 83.4354C156.781 83.1535 156.781 82.8864 156.81 82.6638C156.84 82.4412 156.855 82.1889 156.884 81.9069C156.914 81.6249 156.944 81.2985 156.973 80.9127C157.003 80.5268 157.018 80.0371 157.018 79.4286C157.018 78.9686 157.047 78.5827 157.106 78.2859C157.166 77.9891 157.195 77.7517 157.21 77.5736V77.4846C157.21 77.4846 157.21 77.3807 157.225 77.3362C157.225 77.2768 157.269 77.2323 157.299 77.1729C157.343 77.1284 157.403 77.0839 157.477 77.0542C157.58 77.0097 157.669 77.0246 157.773 77.0691C157.877 77.1136 157.965 77.2026 158.054 77.3065C158.143 77.4104 158.217 77.5142 158.291 77.633C158.365 77.7517 158.424 77.8704 158.484 77.9594C158.587 78.1524 158.676 78.3008 158.75 78.4343C158.824 78.5531 158.883 78.6569 158.943 78.746C159.002 78.835 159.046 78.9092 159.091 78.9834C159.135 79.0576 159.18 79.1467 159.239 79.2357C159.283 79.3396 159.343 79.4583 159.402 79.5919C159.461 79.7254 159.55 79.9035 159.653 80.1261C159.653 80.141 159.683 80.1706 159.683 80.2003C159.683 80.23 159.713 80.2448 159.742 80.2448C159.772 80.2448 159.802 80.2448 159.816 80.2003L159.861 80.1261C159.994 79.8738 160.098 79.6512 160.172 79.4732C160.261 79.2951 160.335 79.1318 160.394 78.9834C160.453 78.8499 160.512 78.7163 160.572 78.6124C160.631 78.4937 160.69 78.3898 160.764 78.2711C160.838 78.1524 160.912 78.0337 161.016 77.9001C161.105 77.7666 161.223 77.6033 161.371 77.4104C161.519 77.2174 161.682 77.1284 161.86 77.1284C162.038 77.1284 162.171 77.2175 162.26 77.3807C162.304 77.4549 162.334 77.5142 162.349 77.5884C162.363 77.6626 162.393 77.7369 162.408 77.8556C162.423 77.9595 162.452 78.1079 162.467 78.2711C162.482 78.4492 162.511 78.6718 162.526 78.9537C162.556 79.3248 162.6 79.7254 162.645 80.1409C162.689 80.5565 162.704 81.0017 162.689 81.4617C162.689 81.5953 162.689 81.7288 162.689 81.8772C162.689 82.0256 162.689 82.1592 162.719 82.2928C162.719 82.367 162.719 82.456 162.719 82.5302C162.719 82.6044 162.689 82.6935 162.719 82.7677C162.719 82.9012 162.748 83.0496 162.778 83.2128C162.808 83.3761 162.778 83.5542 162.719 83.7471C162.689 83.8362 162.63 83.9103 162.571 83.94C162.497 83.9845 162.437 83.9994 162.363 83.9845C162.289 83.9845 162.23 83.9549 162.171 83.9103C162.112 83.8658 162.082 83.8213 162.052 83.7619C162.008 83.6135 161.964 83.4503 161.904 83.3019C161.86 83.1535 161.815 82.9903 161.815 82.8122C161.801 82.5302 161.801 82.2483 161.815 81.9811C161.83 81.714 161.845 81.4321 161.83 81.1501C161.83 80.7494 161.83 80.4229 161.83 80.1558C161.83 79.8887 161.83 79.6809 161.815 79.5177C161.815 79.3544 161.815 79.2208 161.801 79.117C161.786 79.0131 161.801 78.9389 161.801 78.8647V78.2859C161.801 78.2859 161.786 78.1969 161.756 78.1672L161.727 78.1079Z" fill="black"/>
<path d="M167.413 77.4548C167.517 77.4548 167.62 77.4548 167.709 77.4548C167.813 77.4548 167.902 77.4994 167.991 77.5736C168.109 77.6775 168.168 77.7813 168.198 77.8852C168.227 77.9891 168.198 78.093 168.153 78.182C168.109 78.2711 168.02 78.3452 167.917 78.3898C167.813 78.4343 167.694 78.4491 167.561 78.4343C167.191 78.3749 166.91 78.3304 166.717 78.2859C166.539 78.2562 166.406 78.2265 166.332 78.2265C166.258 78.2265 166.228 78.2265 166.228 78.2414V78.3452C166.228 78.5975 166.228 78.835 166.228 79.0873C166.228 79.3395 166.243 79.577 166.228 79.8293C166.228 79.9035 166.228 79.9628 166.228 79.9925C166.228 80.0222 166.273 80.0519 166.332 80.0519C166.391 80.0519 166.48 80.0816 166.613 80.0816C166.747 80.0816 166.924 80.1112 167.176 80.1409C167.295 80.1409 167.383 80.1854 167.457 80.2299C167.532 80.2744 167.576 80.3338 167.606 80.3932C167.635 80.4525 167.635 80.5268 167.606 80.5861C167.591 80.6455 167.532 80.7048 167.457 80.7345C167.413 80.7642 167.339 80.779 167.25 80.7939C167.161 80.7939 167.058 80.8087 166.954 80.8087C166.85 80.8087 166.761 80.8087 166.658 80.8087C166.554 80.8087 166.48 80.8087 166.436 80.7939C166.317 80.779 166.258 80.779 166.228 80.7939C166.199 80.8235 166.184 80.8829 166.184 81.0016C166.184 81.2094 166.154 81.4023 166.125 81.5952C166.095 81.7882 166.08 81.9959 166.08 82.1888C166.08 82.263 166.08 82.3521 166.051 82.4263C166.021 82.5005 166.036 82.5895 166.051 82.6786C166.066 82.7528 166.095 82.8121 166.11 82.8121C166.125 82.8121 166.184 82.8121 166.258 82.8121C166.465 82.7973 166.643 82.7825 166.776 82.7676C166.91 82.7676 167.013 82.7528 167.102 82.7528C167.191 82.7528 167.25 82.7528 167.309 82.7676C167.369 82.7676 167.413 82.8121 167.487 82.8418C167.62 82.9012 167.694 83.0199 167.694 83.1534C167.694 83.3018 167.62 83.4057 167.472 83.4948C167.428 83.5096 167.383 83.5393 167.339 83.5393C167.295 83.5393 167.206 83.5541 167.102 83.5541C166.998 83.5541 166.85 83.5541 166.658 83.5244C166.465 83.5096 166.214 83.4799 165.888 83.4651C165.858 83.4651 165.814 83.4651 165.755 83.4651C165.695 83.4651 165.621 83.4651 165.547 83.4651C165.473 83.4651 165.399 83.4651 165.325 83.4651C165.251 83.4651 165.177 83.4651 165.133 83.4651C165.044 83.4651 164.97 83.4057 164.94 83.3464C164.91 83.287 164.911 83.2128 164.97 83.1386C164.999 83.0941 165.014 83.0347 165.014 82.9605C165.014 82.8863 165.014 82.7676 165.014 82.6341C165.014 82.5005 165.014 82.3372 165.014 82.1443C165.014 81.9514 165.044 81.7288 165.088 81.4617C165.133 81.2094 165.177 80.9126 165.221 80.5564C165.266 80.2002 165.31 79.859 165.34 79.5176C165.37 79.1763 165.399 78.8795 165.429 78.6421C165.458 78.3898 165.473 78.2562 165.473 78.2265C165.488 78.1078 165.473 78.0336 165.444 78.0039C165.399 77.9742 165.355 77.9149 165.31 77.8258C165.266 77.7516 165.251 77.6775 165.266 77.6181C165.281 77.5587 165.325 77.4994 165.399 77.4697C165.429 77.4697 165.473 77.44 165.503 77.4252C165.532 77.4103 165.577 77.3955 165.621 77.3955H166.599C166.732 77.3955 166.865 77.3955 166.998 77.3955C167.132 77.3955 167.265 77.3955 167.428 77.3955L167.413 77.4548Z" fill="black"/>
<path d="M170.018 80.5272C170.033 80.0968 170.033 79.6665 170.018 79.2361C170.004 78.8058 170.018 78.3902 170.063 77.9599C170.063 77.8115 170.137 77.6779 170.27 77.5592C170.359 77.485 170.463 77.4256 170.566 77.3663C170.67 77.3069 170.788 77.2772 170.907 77.2476C171.159 77.203 171.396 77.203 171.633 77.2179C171.869 77.2327 172.106 77.2921 172.343 77.396C172.447 77.4405 172.551 77.4998 172.669 77.574C172.788 77.6482 172.891 77.7225 172.995 77.8115C173.099 77.9005 173.202 77.9896 173.291 78.0786C173.38 78.1676 173.439 78.2715 173.498 78.3754C173.528 78.4496 173.572 78.5386 173.632 78.6128C173.691 78.687 173.72 78.7761 173.75 78.8651C173.78 78.9838 173.809 79.1026 173.839 79.2213C173.869 79.34 173.883 79.4736 173.883 79.5923C173.883 79.9039 173.854 80.2156 173.75 80.5272C173.646 80.8388 173.498 81.1357 173.321 81.4176C173.143 81.6847 172.936 81.937 172.699 82.1448C172.462 82.3525 172.24 82.5158 172.003 82.6197C171.869 82.679 171.721 82.7235 171.603 82.7532C171.47 82.7829 171.351 82.8126 171.248 82.8274C171.144 82.8422 171.04 82.8719 170.951 82.8868C170.862 82.9016 170.788 82.9313 170.729 82.961C170.7 82.9758 170.655 82.9907 170.596 83.0055C170.537 83.0055 170.477 83.0055 170.433 83.0055C170.374 83.0055 170.329 83.0055 170.285 82.9758C170.241 82.9758 170.211 82.9462 170.196 82.9165C170.167 82.8423 170.122 82.7532 170.063 82.6938C170.004 82.6196 169.989 82.5306 170.004 82.4416C170.004 82.3377 170.018 82.1151 170.004 81.7886C170.004 81.4473 170.004 81.0318 170.033 80.5272H170.018ZM171.262 77.9005C171.262 77.9005 171.159 77.8708 171.099 77.8857C171.04 77.8857 170.996 77.8857 170.937 77.9005C170.803 77.9005 170.714 77.945 170.67 78.0044C170.626 78.0637 170.611 78.1528 170.626 78.2863C170.655 78.6425 170.7 78.969 170.729 79.2658C170.759 79.5626 170.788 79.8446 170.818 80.1265C170.848 80.3937 170.862 80.6756 170.877 80.9576C170.877 81.2395 170.892 81.5363 170.892 81.8777C170.892 81.9815 170.907 82.0409 170.951 82.0706C170.996 82.1003 171.055 82.1003 171.159 82.0706C171.44 81.9964 171.692 81.8777 171.899 81.6847C172.106 81.5067 172.299 81.2989 172.462 81.0615C172.536 80.9428 172.595 80.824 172.669 80.7053C172.728 80.5866 172.788 80.4679 172.847 80.3491C172.936 80.1562 172.995 79.9633 172.995 79.7555C172.995 79.5478 172.98 79.3548 172.921 79.1619C172.862 78.969 172.773 78.7909 172.654 78.6277C172.536 78.4644 172.388 78.316 172.225 78.2122C172.077 78.1083 171.929 78.0341 171.766 77.9747C171.603 77.9153 171.44 77.8857 171.248 77.9005H171.262Z" fill="black"/>
<path d="M175.853 77.7223C175.853 77.6184 175.897 77.5442 175.942 77.4849C175.986 77.4404 176.045 77.4106 176.105 77.4106C176.164 77.4106 176.208 77.4404 176.268 77.4849C176.312 77.5294 176.356 77.6036 176.356 77.6926C176.356 77.7817 176.386 77.9449 176.401 78.212C176.401 78.4643 176.431 78.7611 176.445 79.1024C176.445 79.4438 176.475 79.7999 176.475 80.1857C176.475 80.5716 176.49 80.9426 176.49 81.2987C176.49 81.4175 176.49 81.5511 176.475 81.6549C176.475 81.7737 176.46 81.8775 176.46 81.9962C176.46 82.1149 176.46 82.2188 176.46 82.3227C176.46 82.4266 176.475 82.5453 176.519 82.664C176.549 82.7976 176.534 82.9163 176.46 83.0054C176.386 83.0944 176.297 83.1389 176.164 83.1241C175.957 83.1092 175.823 83.0351 175.735 82.9015C175.646 82.7679 175.601 82.6047 175.586 82.4266C175.586 82.2337 175.586 82.0408 175.601 81.8182C175.631 81.5956 175.646 81.4026 175.675 81.2097C175.675 81.1652 175.675 81.0613 175.69 80.9277C175.69 80.7793 175.69 80.6161 175.705 80.4084C175.705 80.2006 175.72 79.978 175.735 79.7405C175.735 79.4883 175.749 79.2508 175.764 79.0134C175.764 78.7611 175.794 78.5385 175.809 78.3159C175.823 78.0933 175.838 77.9004 175.853 77.7371V77.7223Z" fill="black"/>
<path d="M179.318 81.2982C179.289 81.4615 179.318 81.6099 179.378 81.7137C179.452 81.8325 179.555 81.9364 179.659 82.0254C179.703 82.0699 179.792 82.0848 179.911 82.0996C180.029 82.1144 180.163 82.1145 180.311 82.1145C180.459 82.1145 180.592 82.1145 180.71 82.1145C180.844 82.1145 180.933 82.0996 180.992 82.0847C181.169 82.0254 181.332 81.9809 181.495 81.9364C181.658 81.8919 181.806 81.8177 181.969 81.7435C182.102 81.6841 182.206 81.6544 182.31 81.6841C182.413 81.7138 182.473 81.7583 182.502 81.8473C182.532 81.9215 182.502 82.0254 182.458 82.1441C182.413 82.2628 182.28 82.3964 182.088 82.53C181.836 82.7081 181.569 82.8565 181.273 82.9603C180.992 83.0642 180.681 83.1236 180.355 83.1384C180.177 83.1384 180.029 83.1384 179.896 83.1384C179.763 83.1384 179.644 83.1087 179.526 83.0642C179.407 83.0345 179.304 82.9752 179.2 82.9158C179.096 82.8565 178.993 82.7822 178.874 82.6932C178.741 82.5745 178.623 82.4409 178.519 82.2925C178.415 82.1441 178.371 81.9661 178.341 81.788C178.297 81.3873 178.341 81.0014 178.43 80.6601C178.534 80.3039 178.697 79.9775 178.904 79.651C179.111 79.3394 179.363 79.0426 179.659 78.7754C179.955 78.5083 180.266 78.2708 180.607 78.0482C180.74 77.9592 180.888 77.885 181.051 77.8256C181.199 77.7663 181.362 77.7515 181.54 77.7515C181.614 77.7515 181.688 77.7663 181.762 77.7811C181.836 77.7811 181.895 77.8257 181.954 77.885C182.014 77.9444 182.058 78.0037 182.058 78.0779C182.058 78.1521 182.058 78.2115 182.014 78.2709C181.969 78.3302 181.925 78.3599 181.895 78.3451C181.865 78.3451 181.806 78.3154 181.747 78.3005C181.688 78.2857 181.599 78.3005 181.495 78.3005C181.392 78.3302 181.244 78.4044 181.051 78.5528C180.873 78.6864 180.71 78.8199 180.533 78.9832C180.355 79.1464 180.192 79.3096 180.044 79.4877C179.896 79.6658 179.763 79.8588 179.644 80.0665C179.526 80.2743 179.452 80.4672 179.407 80.675C179.378 80.7788 179.348 80.8679 179.333 80.9717C179.304 81.0756 179.304 81.1795 179.318 81.2982Z" fill="black"/>
<path d="M184.429 77.7223C184.429 77.6184 184.474 77.5442 184.518 77.4849C184.563 77.4404 184.622 77.4106 184.681 77.4106C184.74 77.4106 184.785 77.4404 184.844 77.4849C184.888 77.5294 184.933 77.6036 184.933 77.6926C184.933 77.7817 184.962 77.9449 184.977 78.212C184.977 78.4643 185.007 78.7611 185.022 79.1024C185.022 79.4438 185.051 79.7999 185.051 80.1857C185.051 80.5716 185.066 80.9426 185.066 81.2987C185.066 81.4175 185.066 81.5511 185.051 81.6549C185.051 81.7737 185.037 81.8775 185.037 81.9962C185.037 82.1149 185.037 82.2188 185.037 82.3227C185.037 82.4266 185.051 82.5453 185.096 82.664C185.125 82.7976 185.111 82.9163 185.037 83.0054C184.962 83.0944 184.874 83.1389 184.74 83.1241C184.533 83.1092 184.4 83.0351 184.311 82.9015C184.222 82.7679 184.178 82.6047 184.163 82.4266C184.163 82.2337 184.163 82.0408 184.178 81.8182C184.207 81.5956 184.222 81.4026 184.252 81.2097C184.252 81.1652 184.252 81.0613 184.267 80.9277C184.267 80.7793 184.266 80.6161 184.281 80.4084C184.281 80.2006 184.296 79.978 184.311 79.7405C184.311 79.4883 184.326 79.2508 184.341 79.0134C184.341 78.7611 184.37 78.5385 184.385 78.3159C184.4 78.0933 184.415 77.9004 184.429 77.7371V77.7223Z" fill="black"/>
<path d="M188.263 79.6806C188.144 80.4077 188.041 80.9865 187.967 81.4317C187.893 81.8769 187.833 82.2182 187.804 82.4705C187.774 82.7228 187.744 82.8861 187.73 82.9899C187.715 83.0938 187.715 83.1532 187.715 83.1829C187.715 83.2125 187.715 83.2422 187.715 83.2422C187.715 83.2422 187.7 83.3016 187.685 83.3758C187.656 83.4797 187.596 83.5539 187.537 83.5984C187.478 83.6429 187.404 83.6577 187.33 83.6429C187.256 83.6429 187.197 83.6132 187.152 83.5687C187.093 83.5242 187.063 83.4648 187.063 83.3906C187.063 83.3164 187.034 83.2422 187.034 83.168C187.034 83.0938 187.034 83.0196 187.034 82.9306C187.048 82.797 187.063 82.6783 187.063 82.5447C187.063 82.4112 187.063 82.2925 187.108 82.1589C187.226 81.5801 187.315 81.0756 187.404 80.6749C187.493 80.2742 187.567 79.918 187.626 79.6361C187.685 79.3541 187.73 79.1167 187.759 78.9386C187.789 78.7605 187.818 78.6121 187.833 78.4934C187.833 78.3747 187.848 78.2708 187.848 78.1818C187.848 78.0927 187.833 78.0037 187.804 77.8998C187.774 77.7959 187.789 77.7069 187.833 77.6178C187.878 77.5288 187.937 77.4842 188.011 77.4546C188.085 77.4249 188.159 77.4249 188.233 77.4546C188.307 77.4991 188.366 77.5733 188.396 77.7069C188.5 78.063 188.618 78.4192 188.751 78.7754C188.885 79.1315 189.018 79.4877 189.166 79.8438C189.314 80.2 189.462 80.5562 189.61 80.8975C189.758 81.2536 189.906 81.595 190.04 81.9363C190.084 81.9363 190.114 81.9363 190.129 81.8918C190.143 81.8473 190.158 81.773 190.158 81.6246C190.158 81.4762 190.173 81.2537 190.188 80.9568C190.188 80.66 190.217 80.2445 190.262 79.6954C190.291 79.2799 190.321 78.9237 190.336 78.6566C190.351 78.3895 190.38 78.1669 190.41 78.0036C190.44 77.8404 190.484 77.7217 190.543 77.6326C190.602 77.5436 190.676 77.4694 190.765 77.41C190.884 77.3507 190.987 77.3359 191.076 77.3804C191.165 77.4249 191.21 77.5139 191.224 77.6475C191.224 77.7959 191.224 77.9591 191.224 78.1224C191.224 78.2856 191.21 78.434 191.18 78.5973C191.135 79.0722 191.091 79.4877 191.076 79.8587C191.047 80.2297 191.032 80.5858 191.017 80.9271C191.002 81.2685 190.973 81.6395 190.943 81.9956C190.913 82.3666 190.869 82.7822 190.81 83.257C190.81 83.3461 190.765 83.4203 190.721 83.4796C190.676 83.539 190.602 83.5835 190.528 83.6132C190.454 83.6429 190.366 83.6577 190.277 83.6429C190.188 83.6429 190.099 83.5835 190.025 83.5242C189.877 83.4054 189.744 83.257 189.64 83.0641C189.536 82.8712 189.418 82.6338 189.299 82.3518C189.181 82.0699 189.048 81.7137 188.914 81.313C188.766 80.8975 188.603 80.4078 188.396 79.829C188.396 79.7993 188.366 79.7696 188.366 79.7548C188.366 79.7251 188.322 79.6954 188.278 79.6658L188.263 79.6806Z" fill="black"/>
<path d="M195.696 77.4548C195.8 77.4548 195.904 77.4548 195.992 77.4548C196.096 77.4548 196.185 77.4994 196.274 77.5736C196.392 77.6775 196.451 77.7813 196.481 77.8852C196.511 77.9891 196.481 78.093 196.437 78.182C196.392 78.2711 196.303 78.3452 196.2 78.3898C196.096 78.4343 195.978 78.4491 195.844 78.4343C195.474 78.3749 195.193 78.3304 195 78.2859C194.823 78.2562 194.689 78.2265 194.615 78.2265C194.541 78.2265 194.512 78.2265 194.512 78.2414V78.3452C194.512 78.5975 194.512 78.835 194.512 79.0873C194.512 79.3395 194.526 79.577 194.512 79.8293C194.512 79.9035 194.512 79.9628 194.512 79.9925C194.512 80.0222 194.556 80.0519 194.615 80.0519C194.675 80.0519 194.763 80.0816 194.897 80.0816C195.03 80.0816 195.208 80.1112 195.459 80.1409C195.578 80.1409 195.667 80.1854 195.741 80.2299C195.815 80.2744 195.859 80.3338 195.889 80.3932C195.918 80.4525 195.918 80.5268 195.889 80.5861C195.874 80.6455 195.815 80.7048 195.741 80.7345C195.696 80.7642 195.622 80.779 195.533 80.7939C195.445 80.7939 195.341 80.8087 195.237 80.8087C195.134 80.8087 195.045 80.8087 194.941 80.8087C194.837 80.8087 194.763 80.8087 194.719 80.7939C194.6 80.779 194.541 80.779 194.512 80.7939C194.482 80.8235 194.467 80.8829 194.467 81.0016C194.467 81.2094 194.438 81.4023 194.408 81.5952C194.378 81.7882 194.364 81.9959 194.364 82.1888C194.364 82.263 194.364 82.3521 194.334 82.4263C194.304 82.5005 194.319 82.5895 194.334 82.6786C194.349 82.7528 194.378 82.8121 194.393 82.8121C194.408 82.8121 194.467 82.8121 194.541 82.8121C194.749 82.7973 194.926 82.7825 195.059 82.7676C195.193 82.7676 195.296 82.7528 195.385 82.7528C195.474 82.7528 195.533 82.7528 195.593 82.7676C195.652 82.7676 195.696 82.8121 195.77 82.8418C195.904 82.9012 195.978 83.0199 195.978 83.1534C195.978 83.3018 195.904 83.4057 195.755 83.4948C195.711 83.5096 195.667 83.5393 195.622 83.5393C195.578 83.5393 195.489 83.5541 195.385 83.5541C195.282 83.5541 195.134 83.5541 194.941 83.5244C194.749 83.5096 194.497 83.4799 194.171 83.4651C194.141 83.4651 194.097 83.4651 194.038 83.4651C193.979 83.4651 193.904 83.4651 193.83 83.4651C193.756 83.4651 193.682 83.4651 193.608 83.4651C193.534 83.4651 193.46 83.4651 193.416 83.4651C193.327 83.4651 193.253 83.4057 193.223 83.3464C193.194 83.287 193.194 83.2128 193.253 83.1386C193.283 83.0941 193.297 83.0347 193.297 82.9605C193.297 82.8863 193.297 82.7676 193.297 82.6341C193.297 82.5005 193.297 82.3372 193.297 82.1443C193.297 81.9514 193.327 81.7288 193.371 81.4617C193.416 81.2094 193.46 80.9126 193.505 80.5564C193.549 80.2002 193.594 79.859 193.623 79.5176C193.653 79.1763 193.682 78.8795 193.712 78.6421C193.742 78.3898 193.756 78.2562 193.756 78.2265C193.771 78.1078 193.756 78.0336 193.727 78.0039C193.682 77.9742 193.638 77.9149 193.594 77.8258C193.549 77.7516 193.534 77.6775 193.549 77.6181C193.564 77.5587 193.608 77.4994 193.682 77.4697C193.712 77.4697 193.756 77.44 193.786 77.4252C193.816 77.4103 193.86 77.3955 193.904 77.3955H194.882C195.015 77.3955 195.148 77.3955 195.282 77.3955C195.415 77.3955 195.548 77.3955 195.711 77.3955L195.696 77.4548Z" fill="black"/>
</g>
</g>
<defs>
<linearGradient id="paint0_linear_5928_16118" x1="217.019" y1="151.047" x2="217.019" y2="70.1238" gradientUnits="userSpaceOnUse">
<stop offset="0.02" stop-color="#FF8547"/>
<stop offset="1" stop-color="#FFB834"/>
</linearGradient>
<clipPath id="clip0_5928_16118">
<path d="M0 0H360V160H0V0Z" fill="white"/>
</clipPath>
<clipPath id="clip1_5928_16118">
<rect width="403" height="177" fill="white" transform="translate(-22 -6)"/>
</clipPath>
</defs>
</svg>
